%TF.GenerationSoftware,KiCad,Pcbnew,(5.1.10)-1*%
%TF.CreationDate,2021-10-24T00:58:49+05:30*%
%TF.ProjectId,Modbus_IO_Board,4d6f6462-7573-45f4-994f-5f426f617264,rev?*%
%TF.SameCoordinates,Original*%
%TF.FileFunction,OtherDrawing,Comment*%
%FSLAX46Y46*%
G04 Gerber Fmt 4.6, Leading zero omitted, Abs format (unit mm)*
G04 Created by KiCad (PCBNEW (5.1.10)-1) date 2021-10-24 00:58:49*
%MOMM*%
%LPD*%
G01*
G04 APERTURE LIST*
%ADD10C,0.150000*%
G04 APERTURE END LIST*
D10*
X134893571Y-135282380D02*
X134322142Y-135282380D01*
X134607857Y-135282380D02*
X134607857Y-134282380D01*
X134512619Y-134425238D01*
X134417380Y-134520476D01*
X134322142Y-134568095D01*
X135226904Y-134282380D02*
X135845952Y-134282380D01*
X135512619Y-134663333D01*
X135655476Y-134663333D01*
X135750714Y-134710952D01*
X135798333Y-134758571D01*
X135845952Y-134853809D01*
X135845952Y-135091904D01*
X135798333Y-135187142D01*
X135750714Y-135234761D01*
X135655476Y-135282380D01*
X135369761Y-135282380D01*
X135274523Y-135234761D01*
X135226904Y-135187142D01*
X136274523Y-135187142D02*
X136322142Y-135234761D01*
X136274523Y-135282380D01*
X136226904Y-135234761D01*
X136274523Y-135187142D01*
X136274523Y-135282380D01*
X136893571Y-134710952D02*
X136798333Y-134663333D01*
X136750714Y-134615714D01*
X136703095Y-134520476D01*
X136703095Y-134472857D01*
X136750714Y-134377619D01*
X136798333Y-134330000D01*
X136893571Y-134282380D01*
X137084047Y-134282380D01*
X137179285Y-134330000D01*
X137226904Y-134377619D01*
X137274523Y-134472857D01*
X137274523Y-134520476D01*
X137226904Y-134615714D01*
X137179285Y-134663333D01*
X137084047Y-134710952D01*
X136893571Y-134710952D01*
X136798333Y-134758571D01*
X136750714Y-134806190D01*
X136703095Y-134901428D01*
X136703095Y-135091904D01*
X136750714Y-135187142D01*
X136798333Y-135234761D01*
X136893571Y-135282380D01*
X137084047Y-135282380D01*
X137179285Y-135234761D01*
X137226904Y-135187142D01*
X137274523Y-135091904D01*
X137274523Y-134901428D01*
X137226904Y-134806190D01*
X137179285Y-134758571D01*
X137084047Y-134710952D01*
X137607857Y-134282380D02*
X138274523Y-134282380D01*
X137845952Y-135282380D01*
X138845952Y-134282380D02*
X138941190Y-134282380D01*
X139036428Y-134330000D01*
X139084047Y-134377619D01*
X139131666Y-134472857D01*
X139179285Y-134663333D01*
X139179285Y-134901428D01*
X139131666Y-135091904D01*
X139084047Y-135187142D01*
X139036428Y-135234761D01*
X138941190Y-135282380D01*
X138845952Y-135282380D01*
X138750714Y-135234761D01*
X138703095Y-135187142D01*
X138655476Y-135091904D01*
X138607857Y-134901428D01*
X138607857Y-134663333D01*
X138655476Y-134472857D01*
X138703095Y-134377619D01*
X138750714Y-134330000D01*
X138845952Y-134282380D01*
X140369761Y-135282380D02*
X140369761Y-134615714D01*
X140369761Y-134710952D02*
X140417380Y-134663333D01*
X140512619Y-134615714D01*
X140655476Y-134615714D01*
X140750714Y-134663333D01*
X140798333Y-134758571D01*
X140798333Y-135282380D01*
X140798333Y-134758571D02*
X140845952Y-134663333D01*
X140941190Y-134615714D01*
X141084047Y-134615714D01*
X141179285Y-134663333D01*
X141226904Y-134758571D01*
X141226904Y-135282380D01*
X141703095Y-135282380D02*
X141703095Y-134615714D01*
X141703095Y-134710952D02*
X141750714Y-134663333D01*
X141845952Y-134615714D01*
X141988809Y-134615714D01*
X142084047Y-134663333D01*
X142131666Y-134758571D01*
X142131666Y-135282380D01*
X142131666Y-134758571D02*
X142179285Y-134663333D01*
X142274523Y-134615714D01*
X142417380Y-134615714D01*
X142512619Y-134663333D01*
X142560238Y-134758571D01*
X142560238Y-135282380D01*
X131530000Y-133530000D02*
X145400000Y-133530000D01*
X131530000Y-115990000D02*
X131530000Y-134116421D01*
X145400000Y-115990000D02*
X145400000Y-134116421D01*
X145400000Y-133530000D02*
X144273496Y-134116421D01*
X145400000Y-133530000D02*
X144273496Y-132943579D01*
X131530000Y-133530000D02*
X132656504Y-134116421D01*
X131530000Y-133530000D02*
X132656504Y-132943579D01*
M02*
