%TF.GenerationSoftware,KiCad,Pcbnew,(5.1.10)-1*%
%TF.CreationDate,2021-10-24T00:58:49+05:30*%
%TF.ProjectId,Modbus_IO_Board,4d6f6462-7573-45f4-994f-5f426f617264,rev?*%
%TF.SameCoordinates,Original*%
%TF.FileFunction,Copper,L2,Bot*%
%TF.FilePolarity,Positive*%
%FSLAX46Y46*%
G04 Gerber Fmt 4.6, Leading zero omitted, Abs format (unit mm)*
G04 Created by KiCad (PCBNEW (5.1.10)-1) date 2021-10-24 00:58:49*
%MOMM*%
%LPD*%
G01*
G04 APERTURE LIST*
%TA.AperFunction,ComponentPad*%
%ADD10C,3.900000*%
%TD*%
%TA.AperFunction,ComponentPad*%
%ADD11C,4.000000*%
%TD*%
%TA.AperFunction,ComponentPad*%
%ADD12C,2.800000*%
%TD*%
%TA.AperFunction,ComponentPad*%
%ADD13C,2.000000*%
%TD*%
%TA.AperFunction,ComponentPad*%
%ADD14O,3.000000X5.000000*%
%TD*%
%TA.AperFunction,SMDPad,CuDef*%
%ADD15R,0.850000X1.050000*%
%TD*%
%TA.AperFunction,SMDPad,CuDef*%
%ADD16R,1.200000X0.600000*%
%TD*%
%TA.AperFunction,SMDPad,CuDef*%
%ADD17R,0.600000X0.450000*%
%TD*%
%TA.AperFunction,ComponentPad*%
%ADD18C,0.800000*%
%TD*%
%TA.AperFunction,ComponentPad*%
%ADD19O,5.000000X3.000000*%
%TD*%
%TA.AperFunction,ComponentPad*%
%ADD20O,4.000000X5.000000*%
%TD*%
%TA.AperFunction,SMDPad,CuDef*%
%ADD21R,0.840000X0.840000*%
%TD*%
%TA.AperFunction,ComponentPad*%
%ADD22O,1.700000X4.000000*%
%TD*%
%TA.AperFunction,SMDPad,CuDef*%
%ADD23R,1.595000X0.650000*%
%TD*%
%TA.AperFunction,SMDPad,CuDef*%
%ADD24R,0.650000X1.525000*%
%TD*%
%TA.AperFunction,SMDPad,CuDef*%
%ADD25R,1.800000X1.200000*%
%TD*%
%TA.AperFunction,ViaPad*%
%ADD26C,0.800000*%
%TD*%
%TA.AperFunction,ViaPad*%
%ADD27C,0.400000*%
%TD*%
%TA.AperFunction,Conductor*%
%ADD28C,0.500000*%
%TD*%
%TA.AperFunction,Conductor*%
%ADD29C,1.000000*%
%TD*%
%TA.AperFunction,Conductor*%
%ADD30C,2.000000*%
%TD*%
%TA.AperFunction,Conductor*%
%ADD31C,5.000000*%
%TD*%
%TA.AperFunction,Conductor*%
%ADD32C,0.250000*%
%TD*%
%TA.AperFunction,Conductor*%
%ADD33C,0.800000*%
%TD*%
%TA.AperFunction,Conductor*%
%ADD34C,0.300000*%
%TD*%
%TA.AperFunction,Conductor*%
%ADD35C,2.800000*%
%TD*%
%TA.AperFunction,Conductor*%
%ADD36C,0.254000*%
%TD*%
%TA.AperFunction,Conductor*%
%ADD37C,0.100000*%
%TD*%
G04 APERTURE END LIST*
D10*
%TO.P,H1,1*%
%TO.N,N/C*%
X131830000Y-60750000D03*
%TD*%
%TO.P,H2,1*%
%TO.N,N/C*%
X158750000Y-60760000D03*
%TD*%
D11*
%TO.P,H4,1*%
%TO.N,N/C*%
X158770000Y-122700000D03*
%TD*%
%TO.P,H3,1*%
%TO.N,N/C*%
X131740000Y-122710000D03*
%TD*%
D12*
%TO.P,TP9,1*%
%TO.N,/Data_A*%
X140970000Y-92964000D03*
%TD*%
%TO.P,B,1*%
%TO.N,/Data_B*%
X137750000Y-96180000D03*
%TD*%
D13*
%TO.P,I-3,1*%
%TO.N,Net-(D6-Pad1)*%
X137439400Y-70154800D03*
%TD*%
%TO.P,I-1,1*%
%TO.N,GND*%
X137439400Y-65074800D03*
%TD*%
%TO.P,I-2,1*%
%TO.N,Net-(D8-Pad1)*%
X137439400Y-67614800D03*
%TD*%
%TO.P,I-4,1*%
%TO.N,GND*%
X137439400Y-72694800D03*
%TD*%
%TO.P,O-4,1*%
%TO.N,Net-(IC5-Pad8)*%
X153060400Y-72771000D03*
%TD*%
%TO.P,O-3,1*%
%TO.N,Net-(IC5-Pad7)*%
X153060400Y-70231000D03*
%TD*%
%TO.P,O-2,1*%
%TO.N,Net-(IC5-Pad6)*%
X153060400Y-67691000D03*
%TD*%
%TO.P,O-1,1*%
%TO.N,Net-(IC5-Pad5)*%
X153060400Y-65151000D03*
%TD*%
D14*
%TO.P,TP11,1*%
%TO.N,GND*%
X154178000Y-102870000D03*
%TD*%
%TO.P,12V,1*%
%TO.N,+12V*%
X156718000Y-109230000D03*
%TD*%
%TO.P,TP15,1*%
%TO.N,GND*%
X136398000Y-102870000D03*
%TD*%
%TO.P,12V,1*%
%TO.N,+12V*%
X133920000Y-109230000D03*
%TD*%
D12*
%TO.P,B,1*%
%TO.N,/Data_B*%
X152760000Y-96220000D03*
%TD*%
%TO.P,A,1*%
%TO.N,/Data_A*%
X149606000Y-92964000D03*
%TD*%
D15*
%TO.P,D6,2*%
%TO.N,/1A*%
X135382000Y-79270000D03*
%TO.P,D6,1*%
%TO.N,Net-(D6-Pad1)*%
X135382000Y-75670000D03*
%TD*%
%TO.P,D8,2*%
%TO.N,/2A*%
X139700000Y-79016000D03*
%TO.P,D8,1*%
%TO.N,Net-(D8-Pad1)*%
X139700000Y-75416000D03*
%TD*%
D16*
%TO.P,IC4,6*%
%TO.N,/1Y*%
X146030000Y-83246000D03*
%TO.P,IC4,5*%
%TO.N,Net-(C15-Pad2)*%
X146030000Y-82296000D03*
%TO.P,IC4,4*%
%TO.N,/2Y*%
X146030000Y-81346000D03*
%TO.P,IC4,3*%
%TO.N,/2A*%
X143530000Y-81346000D03*
%TO.P,IC4,2*%
%TO.N,GND*%
X143530000Y-82296000D03*
%TO.P,IC4,1*%
%TO.N,/1A*%
X143530000Y-83246000D03*
%TD*%
D17*
%TO.P,D9,2*%
%TO.N,GND*%
X143700000Y-79490000D03*
%TO.P,D9,1*%
%TO.N,/2A*%
X141600000Y-79490000D03*
%TD*%
%TO.P,D7,2*%
%TO.N,GND*%
X143798000Y-85344000D03*
%TO.P,D7,1*%
%TO.N,/1A*%
X141698000Y-85344000D03*
%TD*%
%TO.P,C16,2*%
%TO.N,Net-(C15-Pad2)*%
%TA.AperFunction,SMDPad,CuDef*%
G36*
G01*
X149014000Y-82858000D02*
X148674000Y-82858000D01*
G75*
G02*
X148534000Y-82718000I0J140000D01*
G01*
X148534000Y-82438000D01*
G75*
G02*
X148674000Y-82298000I140000J0D01*
G01*
X149014000Y-82298000D01*
G75*
G02*
X149154000Y-82438000I0J-140000D01*
G01*
X149154000Y-82718000D01*
G75*
G02*
X149014000Y-82858000I-140000J0D01*
G01*
G37*
%TD.AperFunction*%
%TO.P,C16,1*%
%TO.N,+3V3*%
%TA.AperFunction,SMDPad,CuDef*%
G36*
G01*
X149014000Y-83818000D02*
X148674000Y-83818000D01*
G75*
G02*
X148534000Y-83678000I0J140000D01*
G01*
X148534000Y-83398000D01*
G75*
G02*
X148674000Y-83258000I140000J0D01*
G01*
X149014000Y-83258000D01*
G75*
G02*
X149154000Y-83398000I0J-140000D01*
G01*
X149154000Y-83678000D01*
G75*
G02*
X149014000Y-83818000I-140000J0D01*
G01*
G37*
%TD.AperFunction*%
%TD*%
%TO.P,C15,2*%
%TO.N,Net-(C15-Pad2)*%
%TA.AperFunction,SMDPad,CuDef*%
G36*
G01*
X147744000Y-82858000D02*
X147404000Y-82858000D01*
G75*
G02*
X147264000Y-82718000I0J140000D01*
G01*
X147264000Y-82438000D01*
G75*
G02*
X147404000Y-82298000I140000J0D01*
G01*
X147744000Y-82298000D01*
G75*
G02*
X147884000Y-82438000I0J-140000D01*
G01*
X147884000Y-82718000D01*
G75*
G02*
X147744000Y-82858000I-140000J0D01*
G01*
G37*
%TD.AperFunction*%
%TO.P,C15,1*%
%TO.N,+3V3*%
%TA.AperFunction,SMDPad,CuDef*%
G36*
G01*
X147744000Y-83818000D02*
X147404000Y-83818000D01*
G75*
G02*
X147264000Y-83678000I0J140000D01*
G01*
X147264000Y-83398000D01*
G75*
G02*
X147404000Y-83258000I140000J0D01*
G01*
X147744000Y-83258000D01*
G75*
G02*
X147884000Y-83398000I0J-140000D01*
G01*
X147884000Y-83678000D01*
G75*
G02*
X147744000Y-83818000I-140000J0D01*
G01*
G37*
%TD.AperFunction*%
%TD*%
%TO.P,C14,2*%
%TO.N,GND*%
%TA.AperFunction,SMDPad,CuDef*%
G36*
G01*
X141278000Y-81110000D02*
X141278000Y-81450000D01*
G75*
G02*
X141138000Y-81590000I-140000J0D01*
G01*
X140858000Y-81590000D01*
G75*
G02*
X140718000Y-81450000I0J140000D01*
G01*
X140718000Y-81110000D01*
G75*
G02*
X140858000Y-80970000I140000J0D01*
G01*
X141138000Y-80970000D01*
G75*
G02*
X141278000Y-81110000I0J-140000D01*
G01*
G37*
%TD.AperFunction*%
%TO.P,C14,1*%
%TO.N,/2A*%
%TA.AperFunction,SMDPad,CuDef*%
G36*
G01*
X142238000Y-81110000D02*
X142238000Y-81450000D01*
G75*
G02*
X142098000Y-81590000I-140000J0D01*
G01*
X141818000Y-81590000D01*
G75*
G02*
X141678000Y-81450000I0J140000D01*
G01*
X141678000Y-81110000D01*
G75*
G02*
X141818000Y-80970000I140000J0D01*
G01*
X142098000Y-80970000D01*
G75*
G02*
X142238000Y-81110000I0J-140000D01*
G01*
G37*
%TD.AperFunction*%
%TD*%
D18*
%TO.P,TP18,1*%
%TO.N,/TXD*%
X147219200Y-90079200D03*
%TD*%
%TO.P,RX,1*%
%TO.N,/RXD*%
X145870000Y-90100000D03*
%TD*%
D19*
%TO.P,e,*%
%TO.N,*%
X130960000Y-65330000D03*
%TD*%
%TO.P,e,*%
%TO.N,*%
X159660000Y-65060000D03*
%TD*%
%TO.P,e,*%
%TO.N,*%
X159720000Y-74422000D03*
%TD*%
D20*
%TO.P,,*%
%TO.N,*%
X138266400Y-121037600D03*
%TD*%
%TO.P,,*%
%TO.N,*%
X152490400Y-121101100D03*
%TD*%
%TO.P,,*%
%TO.N,*%
X145505400Y-123403100D03*
%TD*%
D14*
%TO.P,,*%
%TO.N,*%
X131607000Y-116287800D03*
%TD*%
D20*
%TO.P,,*%
%TO.N,*%
X145607000Y-116287800D03*
%TD*%
D14*
%TO.P,,*%
%TO.N,*%
X159607000Y-116287800D03*
%TD*%
%TO.P,C12,1*%
%TO.N,Net-(C11-Pad1)*%
%TA.AperFunction,SMDPad,CuDef*%
G36*
G01*
X130749999Y-86720000D02*
X132050001Y-86720000D01*
G75*
G02*
X132300000Y-86969999I0J-249999D01*
G01*
X132300000Y-87620001D01*
G75*
G02*
X132050001Y-87870000I-249999J0D01*
G01*
X130749999Y-87870000D01*
G75*
G02*
X130500000Y-87620001I0J249999D01*
G01*
X130500000Y-86969999D01*
G75*
G02*
X130749999Y-86720000I249999J0D01*
G01*
G37*
%TD.AperFunction*%
%TO.P,C12,2*%
%TO.N,GND*%
%TA.AperFunction,SMDPad,CuDef*%
G36*
G01*
X130749999Y-89670000D02*
X132050001Y-89670000D01*
G75*
G02*
X132300000Y-89919999I0J-249999D01*
G01*
X132300000Y-90570001D01*
G75*
G02*
X132050001Y-90820000I-249999J0D01*
G01*
X130749999Y-90820000D01*
G75*
G02*
X130500000Y-90570001I0J249999D01*
G01*
X130500000Y-89919999D01*
G75*
G02*
X130749999Y-89670000I249999J0D01*
G01*
G37*
%TD.AperFunction*%
%TD*%
D18*
%TO.P,EN,1*%
%TO.N,/MAX_EN*%
X143440000Y-90100000D03*
%TD*%
%TO.P,C13,2*%
%TO.N,GND*%
%TA.AperFunction,SMDPad,CuDef*%
G36*
G01*
X141278000Y-83142000D02*
X141278000Y-83482000D01*
G75*
G02*
X141138000Y-83622000I-140000J0D01*
G01*
X140858000Y-83622000D01*
G75*
G02*
X140718000Y-83482000I0J140000D01*
G01*
X140718000Y-83142000D01*
G75*
G02*
X140858000Y-83002000I140000J0D01*
G01*
X141138000Y-83002000D01*
G75*
G02*
X141278000Y-83142000I0J-140000D01*
G01*
G37*
%TD.AperFunction*%
%TO.P,C13,1*%
%TO.N,/1A*%
%TA.AperFunction,SMDPad,CuDef*%
G36*
G01*
X142238000Y-83142000D02*
X142238000Y-83482000D01*
G75*
G02*
X142098000Y-83622000I-140000J0D01*
G01*
X141818000Y-83622000D01*
G75*
G02*
X141678000Y-83482000I0J140000D01*
G01*
X141678000Y-83142000D01*
G75*
G02*
X141818000Y-83002000I140000J0D01*
G01*
X142098000Y-83002000D01*
G75*
G02*
X142238000Y-83142000I0J-140000D01*
G01*
G37*
%TD.AperFunction*%
%TD*%
%TO.P,C11,1*%
%TO.N,Net-(C11-Pad1)*%
%TA.AperFunction,SMDPad,CuDef*%
G36*
G01*
X132380000Y-91600000D02*
X132380000Y-91940000D01*
G75*
G02*
X132240000Y-92080000I-140000J0D01*
G01*
X131960000Y-92080000D01*
G75*
G02*
X131820000Y-91940000I0J140000D01*
G01*
X131820000Y-91600000D01*
G75*
G02*
X131960000Y-91460000I140000J0D01*
G01*
X132240000Y-91460000D01*
G75*
G02*
X132380000Y-91600000I0J-140000D01*
G01*
G37*
%TD.AperFunction*%
%TO.P,C11,2*%
%TO.N,GND*%
%TA.AperFunction,SMDPad,CuDef*%
G36*
G01*
X131420000Y-91600000D02*
X131420000Y-91940000D01*
G75*
G02*
X131280000Y-92080000I-140000J0D01*
G01*
X131000000Y-92080000D01*
G75*
G02*
X130860000Y-91940000I0J140000D01*
G01*
X130860000Y-91600000D01*
G75*
G02*
X131000000Y-91460000I140000J0D01*
G01*
X131280000Y-91460000D01*
G75*
G02*
X131420000Y-91600000I0J-140000D01*
G01*
G37*
%TD.AperFunction*%
%TD*%
%TO.P,R9,2*%
%TO.N,/2A*%
%TA.AperFunction,SMDPad,CuDef*%
G36*
G01*
X141790000Y-77535000D02*
X141790000Y-77905000D01*
G75*
G02*
X141655000Y-78040000I-135000J0D01*
G01*
X141385000Y-78040000D01*
G75*
G02*
X141250000Y-77905000I0J135000D01*
G01*
X141250000Y-77535000D01*
G75*
G02*
X141385000Y-77400000I135000J0D01*
G01*
X141655000Y-77400000D01*
G75*
G02*
X141790000Y-77535000I0J-135000D01*
G01*
G37*
%TD.AperFunction*%
%TO.P,R9,1*%
%TO.N,+3V3*%
%TA.AperFunction,SMDPad,CuDef*%
G36*
G01*
X142810000Y-77535000D02*
X142810000Y-77905000D01*
G75*
G02*
X142675000Y-78040000I-135000J0D01*
G01*
X142405000Y-78040000D01*
G75*
G02*
X142270000Y-77905000I0J135000D01*
G01*
X142270000Y-77535000D01*
G75*
G02*
X142405000Y-77400000I135000J0D01*
G01*
X142675000Y-77400000D01*
G75*
G02*
X142810000Y-77535000I0J-135000D01*
G01*
G37*
%TD.AperFunction*%
%TD*%
%TO.P,R6,2*%
%TO.N,/1A*%
%TA.AperFunction,SMDPad,CuDef*%
G36*
G01*
X141208000Y-87307000D02*
X141208000Y-86937000D01*
G75*
G02*
X141343000Y-86802000I135000J0D01*
G01*
X141613000Y-86802000D01*
G75*
G02*
X141748000Y-86937000I0J-135000D01*
G01*
X141748000Y-87307000D01*
G75*
G02*
X141613000Y-87442000I-135000J0D01*
G01*
X141343000Y-87442000D01*
G75*
G02*
X141208000Y-87307000I0J135000D01*
G01*
G37*
%TD.AperFunction*%
%TO.P,R6,1*%
%TO.N,+3V3*%
%TA.AperFunction,SMDPad,CuDef*%
G36*
G01*
X140188000Y-87307000D02*
X140188000Y-86937000D01*
G75*
G02*
X140323000Y-86802000I135000J0D01*
G01*
X140593000Y-86802000D01*
G75*
G02*
X140728000Y-86937000I0J-135000D01*
G01*
X140728000Y-87307000D01*
G75*
G02*
X140593000Y-87442000I-135000J0D01*
G01*
X140323000Y-87442000D01*
G75*
G02*
X140188000Y-87307000I0J135000D01*
G01*
G37*
%TD.AperFunction*%
%TD*%
%TO.P,R5,2*%
%TO.N,Net-(IC5-Pad2)*%
%TA.AperFunction,SMDPad,CuDef*%
G36*
G01*
X142165000Y-69910000D02*
X141795000Y-69910000D01*
G75*
G02*
X141660000Y-69775000I0J135000D01*
G01*
X141660000Y-69505000D01*
G75*
G02*
X141795000Y-69370000I135000J0D01*
G01*
X142165000Y-69370000D01*
G75*
G02*
X142300000Y-69505000I0J-135000D01*
G01*
X142300000Y-69775000D01*
G75*
G02*
X142165000Y-69910000I-135000J0D01*
G01*
G37*
%TD.AperFunction*%
%TO.P,R5,1*%
%TO.N,/OUT1*%
%TA.AperFunction,SMDPad,CuDef*%
G36*
G01*
X142165000Y-70930000D02*
X141795000Y-70930000D01*
G75*
G02*
X141660000Y-70795000I0J135000D01*
G01*
X141660000Y-70525000D01*
G75*
G02*
X141795000Y-70390000I135000J0D01*
G01*
X142165000Y-70390000D01*
G75*
G02*
X142300000Y-70525000I0J-135000D01*
G01*
X142300000Y-70795000D01*
G75*
G02*
X142165000Y-70930000I-135000J0D01*
G01*
G37*
%TD.AperFunction*%
%TD*%
%TO.P,R4,2*%
%TO.N,Net-(IC5-Pad4)*%
%TA.AperFunction,SMDPad,CuDef*%
G36*
G01*
X142105000Y-67290000D02*
X141735000Y-67290000D01*
G75*
G02*
X141600000Y-67155000I0J135000D01*
G01*
X141600000Y-66885000D01*
G75*
G02*
X141735000Y-66750000I135000J0D01*
G01*
X142105000Y-66750000D01*
G75*
G02*
X142240000Y-66885000I0J-135000D01*
G01*
X142240000Y-67155000D01*
G75*
G02*
X142105000Y-67290000I-135000J0D01*
G01*
G37*
%TD.AperFunction*%
%TO.P,R4,1*%
%TO.N,/OUT2*%
%TA.AperFunction,SMDPad,CuDef*%
G36*
G01*
X142105000Y-68310000D02*
X141735000Y-68310000D01*
G75*
G02*
X141600000Y-68175000I0J135000D01*
G01*
X141600000Y-67905000D01*
G75*
G02*
X141735000Y-67770000I135000J0D01*
G01*
X142105000Y-67770000D01*
G75*
G02*
X142240000Y-67905000I0J-135000D01*
G01*
X142240000Y-68175000D01*
G75*
G02*
X142105000Y-68310000I-135000J0D01*
G01*
G37*
%TD.AperFunction*%
%TD*%
%TO.P,R2,1*%
%TO.N,+3V3*%
%TA.AperFunction,SMDPad,CuDef*%
G36*
G01*
X132880000Y-82345000D02*
X132880000Y-81975000D01*
G75*
G02*
X133015000Y-81840000I135000J0D01*
G01*
X133285000Y-81840000D01*
G75*
G02*
X133420000Y-81975000I0J-135000D01*
G01*
X133420000Y-82345000D01*
G75*
G02*
X133285000Y-82480000I-135000J0D01*
G01*
X133015000Y-82480000D01*
G75*
G02*
X132880000Y-82345000I0J135000D01*
G01*
G37*
%TD.AperFunction*%
%TO.P,R2,2*%
%TO.N,/RXD*%
%TA.AperFunction,SMDPad,CuDef*%
G36*
G01*
X133900000Y-82345000D02*
X133900000Y-81975000D01*
G75*
G02*
X134035000Y-81840000I135000J0D01*
G01*
X134305000Y-81840000D01*
G75*
G02*
X134440000Y-81975000I0J-135000D01*
G01*
X134440000Y-82345000D01*
G75*
G02*
X134305000Y-82480000I-135000J0D01*
G01*
X134035000Y-82480000D01*
G75*
G02*
X133900000Y-82345000I0J135000D01*
G01*
G37*
%TD.AperFunction*%
%TD*%
D19*
%TO.P,e,*%
%TO.N,*%
X130760000Y-74940000D03*
%TD*%
D17*
%TO.P,D5,2*%
%TO.N,/Data_A*%
X135990000Y-91480000D03*
%TO.P,D5,1*%
%TO.N,/Data_B*%
X133890000Y-91480000D03*
%TD*%
D21*
%TO.P,U1,3*%
%TO.N,GND*%
X134340000Y-93120000D03*
%TO.P,U1,2*%
%TO.N,/Data_B*%
X133400000Y-95125000D03*
%TO.P,U1,1*%
%TO.N,/Data_A*%
X135280000Y-95125000D03*
%TD*%
D22*
%TO.P,J1,6*%
%TO.N,GND*%
X151638000Y-59352000D03*
%TO.P,J1,5*%
%TO.N,/RSB*%
X149098000Y-59352000D03*
%TO.P,J1,4*%
%TO.N,/MOSI*%
X146558000Y-59352000D03*
%TO.P,J1,3*%
%TO.N,/SCK*%
X144018000Y-59352000D03*
%TO.P,J1,2*%
%TO.N,+3V3*%
X141478000Y-59352000D03*
%TO.P,J1,1*%
%TO.N,/MISO*%
X138938000Y-59352000D03*
%TD*%
D23*
%TO.P,IC5,8*%
%TO.N,Net-(IC5-Pad8)*%
X149282000Y-70795000D03*
%TO.P,IC5,7*%
%TO.N,Net-(IC5-Pad7)*%
X149282000Y-69525000D03*
%TO.P,IC5,6*%
%TO.N,Net-(IC5-Pad6)*%
X149282000Y-68255000D03*
%TO.P,IC5,5*%
%TO.N,Net-(IC5-Pad5)*%
X149282000Y-66985000D03*
%TO.P,IC5,4*%
%TO.N,Net-(IC5-Pad4)*%
X143778000Y-66985000D03*
%TO.P,IC5,3*%
%TO.N,+3V3*%
X143778000Y-68255000D03*
%TO.P,IC5,2*%
%TO.N,Net-(IC5-Pad2)*%
X143778000Y-69525000D03*
%TO.P,IC5,1*%
%TO.N,+3V3*%
X143778000Y-70795000D03*
%TD*%
D24*
%TO.P,IC3,8*%
%TO.N,Net-(C11-Pad1)*%
X133655000Y-89432000D03*
%TO.P,IC3,7*%
%TO.N,/Data_B*%
X134925000Y-89432000D03*
%TO.P,IC3,6*%
%TO.N,/Data_A*%
X136195000Y-89432000D03*
%TO.P,IC3,5*%
%TO.N,GND*%
X137465000Y-89432000D03*
%TO.P,IC3,4*%
%TO.N,/TXD*%
X137465000Y-84008000D03*
%TO.P,IC3,3*%
%TO.N,/MAX_EN*%
X136195000Y-84008000D03*
%TO.P,IC3,2*%
X134925000Y-84008000D03*
%TO.P,IC3,1*%
%TO.N,/RXD*%
X133655000Y-84008000D03*
%TD*%
D25*
%TO.P,FB2,1*%
%TO.N,Net-(C11-Pad1)*%
X131410000Y-85490000D03*
%TO.P,FB2,2*%
%TO.N,+3V3*%
X131410000Y-82590000D03*
%TD*%
D12*
%TO.P,GND,1*%
%TO.N,GND*%
X130175000Y-102616000D03*
%TD*%
%TO.P,GND,1*%
%TO.N,GND*%
X160147000Y-102489000D03*
%TD*%
D26*
%TO.N,/1Y*%
X146050000Y-84582000D03*
%TO.N,GND*%
X147421600Y-62331600D03*
X144856200Y-62331600D03*
D27*
X146304000Y-104394000D03*
X141342000Y-104394000D03*
X143352000Y-104384000D03*
X142332000Y-104394000D03*
X144272000Y-104394000D03*
X140312000Y-104394000D03*
X145288000Y-104394000D03*
X146304000Y-101854000D03*
X141342000Y-101854000D03*
X143352000Y-101844000D03*
X142332000Y-101854000D03*
X144272000Y-101854000D03*
X140312000Y-101854000D03*
X145288000Y-101854000D03*
X146304000Y-103632000D03*
X141342000Y-103632000D03*
X143352000Y-103622000D03*
X142332000Y-103632000D03*
X144272000Y-103632000D03*
X140312000Y-103632000D03*
X145288000Y-103632000D03*
X146304000Y-102870000D03*
X140312000Y-102870000D03*
X141342000Y-102870000D03*
X142332000Y-102870000D03*
X143352000Y-102860000D03*
X144272000Y-102870000D03*
X145288000Y-102870000D03*
D26*
X134366000Y-93980000D03*
X158850000Y-79440000D03*
X158870000Y-85260000D03*
X158940000Y-89710000D03*
X151536400Y-99187000D03*
X137185400Y-92278200D03*
X142951200Y-62331600D03*
X150037800Y-62280800D03*
X161417000Y-82042000D03*
X147066000Y-85598000D03*
X135382000Y-81534000D03*
X143510000Y-86360000D03*
D27*
X149860000Y-113538000D03*
D26*
X149640000Y-88790000D03*
X131420000Y-80420000D03*
X130820000Y-99940000D03*
X131870000Y-93410000D03*
X132210000Y-96290000D03*
X134068800Y-100032800D03*
X159350000Y-97850000D03*
X138840000Y-84510000D03*
%TO.N,/RSB*%
X157870000Y-96580000D03*
X145070000Y-86970000D03*
%TO.N,+3V3*%
X135534400Y-97713800D03*
X143764000Y-64770000D03*
D27*
X140790000Y-88140000D03*
D26*
X148740000Y-90700000D03*
X144440000Y-72430000D03*
X146990000Y-74700000D03*
X133120000Y-78880000D03*
X130560000Y-81290000D03*
X153305000Y-91095000D03*
X143510000Y-76708000D03*
X130210000Y-97710000D03*
%TO.N,Net-(C8-Pad1)*%
X145542000Y-98298000D03*
X134067200Y-98592800D03*
%TO.N,/RXD*%
X133640000Y-85690000D03*
%TO.N,/MAX_EN*%
X135630000Y-84060000D03*
%TO.N,/Vin*%
X138760000Y-88890000D03*
X138709400Y-91998800D03*
%TO.N,/SCK*%
X140460000Y-66870000D03*
%TO.N,/OUT2*%
X144272000Y-74930000D03*
%TO.N,/OUT1*%
X144526000Y-73660000D03*
%TO.N,/2Y*%
X145870000Y-78412000D03*
%TD*%
D28*
%TO.N,GND*%
X147421600Y-62331600D02*
X144856200Y-62331600D01*
D29*
X153924000Y-103870000D02*
X154178000Y-103616000D01*
D30*
X153924000Y-102870000D02*
X154178000Y-102616000D01*
D31*
X136398000Y-102870000D02*
X140820000Y-102870000D01*
X140820000Y-102870000D02*
X141560000Y-102870000D01*
X141560000Y-102870000D02*
X142370000Y-102870000D01*
X142370000Y-102870000D02*
X143100000Y-102870000D01*
X143100000Y-102870000D02*
X143970000Y-102870000D01*
X143970000Y-102870000D02*
X144650000Y-102870000D01*
X144650000Y-102870000D02*
X145420000Y-102870000D01*
X145420000Y-102870000D02*
X146070000Y-102870000D01*
X146070000Y-102870000D02*
X153924000Y-102870000D01*
D32*
X131140000Y-90505000D02*
X131400000Y-90245000D01*
D28*
X131140000Y-91770000D02*
X131140000Y-90505000D01*
D32*
X134340000Y-93954000D02*
X134340000Y-93120000D01*
X134366000Y-93980000D02*
X134340000Y-93954000D01*
D28*
X143530000Y-82296000D02*
X141280000Y-82296000D01*
X140998000Y-82014000D02*
X140998000Y-83312000D01*
X141280000Y-82296000D02*
X140998000Y-82014000D01*
X140998000Y-81280000D02*
X140998000Y-82014000D01*
D32*
X143510000Y-86360000D02*
X143510000Y-86106000D01*
X144526000Y-83820000D02*
X144272000Y-84074000D01*
X144526000Y-82296000D02*
X144526000Y-83820000D01*
D33*
X143530000Y-82296000D02*
X144272000Y-82296000D01*
D32*
X144530000Y-82038000D02*
X144272000Y-82296000D01*
X144530000Y-80100000D02*
X144530000Y-82038000D01*
X144186000Y-79756000D02*
X144530000Y-80100000D01*
X143798000Y-79756000D02*
X144186000Y-79756000D01*
X131140000Y-92680000D02*
X131140000Y-91770000D01*
X131870000Y-93410000D02*
X131140000Y-92680000D01*
X131256000Y-93410000D02*
X131870000Y-93410000D01*
X131064000Y-93218000D02*
X131256000Y-93410000D01*
D34*
%TO.N,/RSB*%
X157820000Y-96630000D02*
X157870000Y-96580000D01*
X149098000Y-63832000D02*
X149098000Y-60452000D01*
X147574000Y-65356000D02*
X149098000Y-63832000D01*
X147574000Y-72644000D02*
X147574000Y-65356000D01*
X145034000Y-75184000D02*
X147574000Y-72644000D01*
X145034000Y-86934000D02*
X145034000Y-75184000D01*
X145070000Y-86970000D02*
X145034000Y-86934000D01*
X156210000Y-96580000D02*
X157870000Y-96580000D01*
X146630000Y-87000000D02*
X156210000Y-96580000D01*
X145100000Y-87000000D02*
X146630000Y-87000000D01*
X145070000Y-86970000D02*
X145100000Y-87000000D01*
D32*
%TO.N,+3V3*%
X131480000Y-82520000D02*
X131410000Y-82590000D01*
D28*
X132720000Y-82590000D02*
X133150000Y-82160000D01*
X131410000Y-82590000D02*
X132720000Y-82590000D01*
D34*
X133160000Y-82150000D02*
X133150000Y-82160000D01*
X144365000Y-68255000D02*
X143778000Y-68255000D01*
D28*
X145090000Y-70080000D02*
X144375000Y-70795000D01*
D32*
X144375000Y-70795000D02*
X143778000Y-70795000D01*
D28*
X145090000Y-68950000D02*
X145090000Y-70080000D01*
X144395000Y-68255000D02*
X145090000Y-68950000D01*
D32*
X143778000Y-68255000D02*
X144395000Y-68255000D01*
D34*
X143940000Y-70957000D02*
X143778000Y-70795000D01*
X135534400Y-97713800D02*
X135509000Y-97688400D01*
D28*
X147574000Y-83538000D02*
X148844000Y-83538000D01*
X145280000Y-66286000D02*
X145280000Y-67340000D01*
X143764000Y-64770000D02*
X145280000Y-66286000D01*
X145280000Y-67340000D02*
X144365000Y-68255000D01*
X140458000Y-87808000D02*
X140790000Y-88140000D01*
X140458000Y-87122000D02*
X140458000Y-87808000D01*
X146830000Y-88140000D02*
X140790000Y-88140000D01*
X148740000Y-90050000D02*
X146830000Y-88140000D01*
X148740000Y-90700000D02*
X148740000Y-90050000D01*
D32*
X133240000Y-79950000D02*
X133240000Y-79370000D01*
D28*
X143940000Y-71930000D02*
X143940000Y-70957000D01*
X144440000Y-72430000D02*
X143940000Y-71930000D01*
X149302000Y-83538000D02*
X148844000Y-83538000D01*
X150000000Y-77610000D02*
X150000000Y-82840000D01*
X147090000Y-74700000D02*
X150000000Y-77610000D01*
X146990000Y-74700000D02*
X147090000Y-74700000D01*
X150000000Y-82840000D02*
X149302000Y-83538000D01*
X133120000Y-78880000D02*
X133160000Y-78920000D01*
X133160000Y-78920000D02*
X133160000Y-82150000D01*
X131410000Y-81660000D02*
X131410000Y-82590000D01*
X131040000Y-81290000D02*
X131410000Y-81660000D01*
X130560000Y-81290000D02*
X131040000Y-81290000D01*
D34*
X153274200Y-91095000D02*
X151307800Y-89128600D01*
X153305000Y-91095000D02*
X153274200Y-91095000D01*
D28*
X153274200Y-91095000D02*
X148336000Y-86156800D01*
X148336000Y-86156800D02*
X148336000Y-83566000D01*
X143510000Y-76708000D02*
X142496000Y-77722000D01*
X130231600Y-97688400D02*
X135509000Y-97688400D01*
X130210000Y-97710000D02*
X130231600Y-97688400D01*
%TO.N,Net-(C8-Pad1)*%
X145211800Y-98628200D02*
X145542000Y-98298000D01*
X134102600Y-98628200D02*
X145211800Y-98628200D01*
X134067200Y-98592800D02*
X134102600Y-98628200D01*
%TO.N,Net-(C11-Pad1)*%
X131410000Y-87285000D02*
X131400000Y-87295000D01*
X131410000Y-85490000D02*
X131410000Y-87285000D01*
X133372000Y-89432000D02*
X133655000Y-89432000D01*
X131400000Y-87460000D02*
X133372000Y-89432000D01*
X131400000Y-87295000D02*
X131400000Y-87460000D01*
D32*
X133655000Y-90119000D02*
X133655000Y-89432000D01*
X132100000Y-91674000D02*
X133655000Y-90119000D01*
X132100000Y-91770000D02*
X132100000Y-91674000D01*
D28*
%TO.N,/Data_A*%
X135280000Y-95125000D02*
X135280000Y-93860000D01*
X135990000Y-93150000D02*
X135990000Y-91480000D01*
X135280000Y-93860000D02*
X135990000Y-93150000D01*
X137966000Y-92964000D02*
X140970000Y-92964000D01*
X135805000Y-95125000D02*
X137966000Y-92964000D01*
X135280000Y-95125000D02*
X135805000Y-95125000D01*
D35*
X140970000Y-92964000D02*
X149606000Y-92964000D01*
D28*
X136195000Y-91265000D02*
X136195000Y-89432000D01*
X135950000Y-91510000D02*
X136195000Y-91265000D01*
D29*
%TO.N,/Data_B*%
X152720000Y-97180000D02*
X152760000Y-97220000D01*
D28*
X133890000Y-91480000D02*
X133890000Y-91670000D01*
X133400000Y-92160000D02*
X133400000Y-95125000D01*
X133890000Y-91670000D02*
X133400000Y-92160000D01*
X133400000Y-95125000D02*
X133400000Y-95780000D01*
X133800000Y-96180000D02*
X137750000Y-96180000D01*
X133400000Y-95780000D02*
X133800000Y-96180000D01*
D30*
X152720000Y-96180000D02*
X152760000Y-96220000D01*
D35*
X137750000Y-96180000D02*
X152720000Y-96180000D01*
D28*
X133890000Y-91480000D02*
X134040000Y-91480000D01*
X134925000Y-90595000D02*
X134925000Y-89432000D01*
X134040000Y-91480000D02*
X134925000Y-90595000D01*
D34*
%TO.N,/TXD*%
X137465000Y-86465000D02*
X137465000Y-84008000D01*
X141932000Y-90932000D02*
X137465000Y-86465000D01*
X146456400Y-90932000D02*
X141932000Y-90932000D01*
X147269200Y-90119200D02*
X146456400Y-90932000D01*
D32*
%TO.N,/RXD*%
X133655000Y-84008000D02*
X133655000Y-83345000D01*
X134170000Y-82830000D02*
X134170000Y-82160000D01*
X133655000Y-83345000D02*
X134170000Y-82830000D01*
D34*
X133655000Y-85675000D02*
X133640000Y-85690000D01*
X133655000Y-84008000D02*
X133655000Y-85675000D01*
D28*
%TO.N,/MAX_EN*%
X134925000Y-84008000D02*
X136195000Y-84008000D01*
D34*
%TO.N,/Vin*%
X138684000Y-88966000D02*
X138760000Y-88890000D01*
X138684000Y-91973400D02*
X138684000Y-88966000D01*
X138709400Y-91998800D02*
X138684000Y-91973400D01*
%TO.N,/SCK*%
X144018000Y-62622000D02*
X144018000Y-60452000D01*
X140460000Y-66870000D02*
X140460000Y-66180000D01*
X140460000Y-66180000D02*
X144018000Y-62622000D01*
D28*
%TO.N,Net-(IC5-Pad8)*%
X151084400Y-70795000D02*
X153060400Y-72771000D01*
X149282000Y-70795000D02*
X151084400Y-70795000D01*
%TO.N,Net-(IC5-Pad7)*%
X152354400Y-69525000D02*
X153060400Y-70231000D01*
X149282000Y-69525000D02*
X152354400Y-69525000D01*
%TO.N,Net-(IC5-Pad6)*%
X152496400Y-68255000D02*
X153060400Y-67691000D01*
X149282000Y-68255000D02*
X152496400Y-68255000D01*
%TO.N,Net-(IC5-Pad5)*%
X151226400Y-66985000D02*
X153060400Y-65151000D01*
X149282000Y-66985000D02*
X151226400Y-66985000D01*
D34*
%TO.N,Net-(IC5-Pad4)*%
X143743000Y-67020000D02*
X143778000Y-66985000D01*
X141920000Y-67020000D02*
X143743000Y-67020000D01*
%TO.N,Net-(IC5-Pad2)*%
X143603000Y-69700000D02*
X143778000Y-69525000D01*
X143663000Y-69640000D02*
X143778000Y-69525000D01*
X141980000Y-69640000D02*
X143663000Y-69640000D01*
D29*
%TO.N,+12V*%
X156608000Y-110230000D02*
X156718000Y-110340000D01*
D30*
X156608000Y-109230000D02*
X156718000Y-109340000D01*
D31*
X133920000Y-109230000D02*
X156608000Y-109230000D01*
D34*
%TO.N,/OUT2*%
X141870000Y-68040000D02*
X141920000Y-68040000D01*
X141110000Y-68800000D02*
X141870000Y-68040000D01*
X141110000Y-71887000D02*
X141110000Y-68800000D01*
X144153000Y-74930000D02*
X141110000Y-71887000D01*
X144272000Y-74930000D02*
X144153000Y-74930000D01*
%TO.N,/OUT1*%
X141980000Y-71495000D02*
X141980000Y-70660000D01*
X144145000Y-73660000D02*
X141980000Y-71495000D01*
X144526000Y-73660000D02*
X144145000Y-73660000D01*
D28*
%TO.N,/1A*%
X142024000Y-83246000D02*
X141958000Y-83312000D01*
X143530000Y-83246000D02*
X142024000Y-83246000D01*
X141958000Y-84102000D02*
X141958000Y-83312000D01*
X141698000Y-84362000D02*
X141958000Y-84102000D01*
X141478000Y-87122000D02*
X141478000Y-86360000D01*
X141698000Y-86140000D02*
X141698000Y-84802000D01*
X141478000Y-86360000D02*
X141698000Y-86140000D01*
X141698000Y-84802000D02*
X141698000Y-84362000D01*
X141698000Y-85344000D02*
X141698000Y-84802000D01*
D32*
X141958000Y-83312000D02*
X141958000Y-83594000D01*
D28*
X141224000Y-85344000D02*
X141698000Y-85344000D01*
X139410000Y-83530000D02*
X141224000Y-85344000D01*
X139410000Y-82670000D02*
X139410000Y-83530000D01*
X136010000Y-79270000D02*
X139410000Y-82670000D01*
X135382000Y-79270000D02*
X136010000Y-79270000D01*
%TO.N,/2A*%
X142024000Y-81346000D02*
X141958000Y-81280000D01*
X143530000Y-81346000D02*
X142024000Y-81346000D01*
X141016000Y-77700000D02*
X139700000Y-79016000D01*
X141570000Y-80102000D02*
X141570000Y-77700000D01*
X141570000Y-77700000D02*
X141016000Y-77700000D01*
X141958000Y-80490000D02*
X141570000Y-80102000D01*
X141958000Y-81280000D02*
X141958000Y-80490000D01*
%TO.N,Net-(C15-Pad2)*%
X147574000Y-82578000D02*
X148844000Y-82578000D01*
X147574000Y-82578000D02*
X147094000Y-82578000D01*
X146812000Y-82296000D02*
X146030000Y-82296000D01*
X147094000Y-82578000D02*
X146812000Y-82296000D01*
%TO.N,Net-(D6-Pad1)*%
X135382000Y-72212200D02*
X137439400Y-70154800D01*
X135382000Y-75670000D02*
X135382000Y-72212200D01*
%TO.N,Net-(D8-Pad1)*%
X139700000Y-69875400D02*
X137439400Y-67614800D01*
X139700000Y-75416000D02*
X139700000Y-69875400D01*
%TO.N,/1Y*%
X146030000Y-84562000D02*
X146050000Y-84582000D01*
X146030000Y-83246000D02*
X146030000Y-84562000D01*
%TO.N,/2Y*%
X145870000Y-81186000D02*
X146030000Y-81346000D01*
X145870000Y-78412000D02*
X145870000Y-81186000D01*
%TD*%
D36*
%TO.N,GND*%
X156683193Y-74422000D02*
X156722330Y-74819361D01*
X156838236Y-75201452D01*
X157026457Y-75553589D01*
X157279760Y-75862240D01*
X157588411Y-76115543D01*
X157642974Y-76144707D01*
X157642100Y-89666992D01*
X157646306Y-89699413D01*
X157654989Y-89722746D01*
X157668057Y-89743937D01*
X157685008Y-89762171D01*
X157705191Y-89776748D01*
X157727830Y-89787107D01*
X157752054Y-89792851D01*
X157776934Y-89793758D01*
X157938734Y-89783758D01*
X157955774Y-89781540D01*
X157979593Y-89774295D01*
X158001540Y-89762541D01*
X158020773Y-89746732D01*
X158036552Y-89727475D01*
X158048271Y-89705509D01*
X158055479Y-89681679D01*
X158057900Y-89656900D01*
X158047452Y-76336193D01*
X158322639Y-76419670D01*
X158620429Y-76449000D01*
X160819571Y-76449000D01*
X161117361Y-76419670D01*
X161499452Y-76303764D01*
X161851589Y-76115543D01*
X162038276Y-75962333D01*
X162034886Y-83409400D01*
X161104794Y-83409400D01*
X161074000Y-83406367D01*
X160951087Y-83418473D01*
X160832897Y-83454325D01*
X160723972Y-83512547D01*
X160628499Y-83590899D01*
X160550147Y-83686372D01*
X160491925Y-83795297D01*
X160456073Y-83913487D01*
X160443967Y-84036400D01*
X160447000Y-84067193D01*
X160447001Y-100305996D01*
X160443967Y-100336800D01*
X160456073Y-100459713D01*
X160459743Y-100471812D01*
X160100223Y-100444690D01*
X159702296Y-100493096D01*
X159321460Y-100618205D01*
X159050135Y-100763230D01*
X158906158Y-101068553D01*
X160147000Y-102309395D01*
X161387842Y-101068553D01*
X161338445Y-100963800D01*
X162034897Y-100963800D01*
X162035252Y-101716600D01*
X162017795Y-101663460D01*
X161872770Y-101392135D01*
X161567447Y-101248158D01*
X160326605Y-102489000D01*
X161567447Y-103729842D01*
X161872770Y-103585865D01*
X162035982Y-103262958D01*
X162046704Y-125966600D01*
X146974351Y-125966600D01*
X147300905Y-125698605D01*
X147616690Y-125313819D01*
X147851340Y-124874819D01*
X147995836Y-124398478D01*
X148032400Y-124027241D01*
X148032400Y-122778958D01*
X147995836Y-122407721D01*
X147851340Y-121931380D01*
X147616690Y-121492381D01*
X147300905Y-121107595D01*
X146916118Y-120791810D01*
X146477119Y-120557160D01*
X146212731Y-120476959D01*
X149963400Y-120476959D01*
X149963400Y-121725242D01*
X149999964Y-122096479D01*
X150144460Y-122572820D01*
X150379110Y-123011819D01*
X150694896Y-123396605D01*
X151079682Y-123712390D01*
X151518681Y-123947040D01*
X151995022Y-124091536D01*
X152490400Y-124140327D01*
X152985779Y-124091536D01*
X153462120Y-123947040D01*
X153901119Y-123712390D01*
X154285905Y-123396605D01*
X154601690Y-123011819D01*
X154836340Y-122572819D01*
X154873259Y-122451112D01*
X156243000Y-122451112D01*
X156243000Y-122948888D01*
X156340111Y-123437099D01*
X156530602Y-123896983D01*
X156807151Y-124310869D01*
X157159131Y-124662849D01*
X157573017Y-124939398D01*
X158032901Y-125129889D01*
X158521112Y-125227000D01*
X159018888Y-125227000D01*
X159507099Y-125129889D01*
X159966983Y-124939398D01*
X160380869Y-124662849D01*
X160732849Y-124310869D01*
X161009398Y-123896983D01*
X161199889Y-123437099D01*
X161297000Y-122948888D01*
X161297000Y-122451112D01*
X161199889Y-121962901D01*
X161009398Y-121503017D01*
X160732849Y-121089131D01*
X160380869Y-120737151D01*
X159966983Y-120460602D01*
X159507099Y-120270111D01*
X159018888Y-120173000D01*
X158521112Y-120173000D01*
X158032901Y-120270111D01*
X157573017Y-120460602D01*
X157159131Y-120737151D01*
X156807151Y-121089131D01*
X156530602Y-121503017D01*
X156340111Y-121962901D01*
X156243000Y-122451112D01*
X154873259Y-122451112D01*
X154980836Y-122096478D01*
X155017400Y-121725241D01*
X155017400Y-120476958D01*
X154980836Y-120105721D01*
X154836340Y-119629380D01*
X154601690Y-119190381D01*
X154285905Y-118805595D01*
X153901118Y-118489810D01*
X153462119Y-118255160D01*
X152985778Y-118110664D01*
X152490400Y-118061873D01*
X151995021Y-118110664D01*
X151518680Y-118255160D01*
X151079681Y-118489810D01*
X150694895Y-118805595D01*
X150379110Y-119190382D01*
X150144460Y-119629381D01*
X149999964Y-120105722D01*
X149963400Y-120476959D01*
X146212731Y-120476959D01*
X146000778Y-120412664D01*
X145505400Y-120363873D01*
X145010021Y-120412664D01*
X144533680Y-120557160D01*
X144094681Y-120791810D01*
X143709895Y-121107595D01*
X143394110Y-121492382D01*
X143159460Y-121931381D01*
X143014964Y-122407722D01*
X142978400Y-122778959D01*
X142978400Y-124027242D01*
X143014964Y-124398479D01*
X143159460Y-124874820D01*
X143394110Y-125313819D01*
X143709896Y-125698605D01*
X144036450Y-125966600D01*
X128516000Y-125966600D01*
X128516000Y-122461112D01*
X129213000Y-122461112D01*
X129213000Y-122958888D01*
X129310111Y-123447099D01*
X129500602Y-123906983D01*
X129777151Y-124320869D01*
X130129131Y-124672849D01*
X130543017Y-124949398D01*
X131002901Y-125139889D01*
X131491112Y-125237000D01*
X131988888Y-125237000D01*
X132477099Y-125139889D01*
X132936983Y-124949398D01*
X133350869Y-124672849D01*
X133702849Y-124320869D01*
X133979398Y-123906983D01*
X134169889Y-123447099D01*
X134267000Y-122958888D01*
X134267000Y-122461112D01*
X134169889Y-121972901D01*
X133979398Y-121513017D01*
X133702849Y-121099131D01*
X133350869Y-120747151D01*
X132936983Y-120470602D01*
X132799029Y-120413459D01*
X135739400Y-120413459D01*
X135739400Y-121661742D01*
X135775964Y-122032979D01*
X135920460Y-122509320D01*
X136155110Y-122948319D01*
X136470896Y-123333105D01*
X136855682Y-123648890D01*
X137294681Y-123883540D01*
X137771022Y-124028036D01*
X138266400Y-124076827D01*
X138761779Y-124028036D01*
X139238120Y-123883540D01*
X139677119Y-123648890D01*
X140061905Y-123333105D01*
X140377690Y-122948319D01*
X140612340Y-122509319D01*
X140756836Y-122032978D01*
X140793400Y-121661741D01*
X140793400Y-120413458D01*
X140756836Y-120042221D01*
X140612340Y-119565880D01*
X140377690Y-119126881D01*
X140061905Y-118742095D01*
X139677118Y-118426310D01*
X139238119Y-118191660D01*
X138761778Y-118047164D01*
X138266400Y-117998373D01*
X137771021Y-118047164D01*
X137294680Y-118191660D01*
X136855681Y-118426310D01*
X136470895Y-118742095D01*
X136155110Y-119126882D01*
X135920460Y-119565881D01*
X135775964Y-120042222D01*
X135739400Y-120413459D01*
X132799029Y-120413459D01*
X132477099Y-120280111D01*
X131988888Y-120183000D01*
X131491112Y-120183000D01*
X131002901Y-120280111D01*
X130543017Y-120470602D01*
X130129131Y-120747151D01*
X129777151Y-121099131D01*
X129500602Y-121513017D01*
X129310111Y-121972901D01*
X129213000Y-122461112D01*
X128516000Y-122461112D01*
X128516000Y-115188230D01*
X129580000Y-115188230D01*
X129580001Y-117387371D01*
X129609331Y-117685161D01*
X129725237Y-118067252D01*
X129913458Y-118419389D01*
X130166761Y-118728040D01*
X130475412Y-118981343D01*
X130827549Y-119169564D01*
X131209640Y-119285470D01*
X131607000Y-119324607D01*
X132004361Y-119285470D01*
X132386452Y-119169564D01*
X132738589Y-118981343D01*
X133047240Y-118728040D01*
X133300543Y-118419389D01*
X133488764Y-118067252D01*
X133604670Y-117685161D01*
X133634000Y-117387371D01*
X133634000Y-115663659D01*
X143080000Y-115663659D01*
X143080000Y-116911942D01*
X143116564Y-117283179D01*
X143261060Y-117759520D01*
X143495710Y-118198519D01*
X143811496Y-118583305D01*
X144196282Y-118899090D01*
X144635281Y-119133740D01*
X145111622Y-119278236D01*
X145607000Y-119327027D01*
X146102379Y-119278236D01*
X146578720Y-119133740D01*
X147017719Y-118899090D01*
X147402505Y-118583305D01*
X147718290Y-118198519D01*
X147952940Y-117759519D01*
X148097436Y-117283178D01*
X148134000Y-116911941D01*
X148134000Y-115663658D01*
X148097436Y-115292421D01*
X148065831Y-115188230D01*
X157580000Y-115188230D01*
X157580001Y-117387371D01*
X157609331Y-117685161D01*
X157725237Y-118067252D01*
X157913458Y-118419389D01*
X158166761Y-118728040D01*
X158475412Y-118981343D01*
X158827549Y-119169564D01*
X159209640Y-119285470D01*
X159607000Y-119324607D01*
X160004361Y-119285470D01*
X160386452Y-119169564D01*
X160738589Y-118981343D01*
X161047240Y-118728040D01*
X161300543Y-118419389D01*
X161488764Y-118067252D01*
X161604670Y-117685161D01*
X161634000Y-117387371D01*
X161634000Y-115188229D01*
X161604670Y-114890439D01*
X161488764Y-114508348D01*
X161300543Y-114156211D01*
X161047240Y-113847560D01*
X160738589Y-113594257D01*
X160386451Y-113406036D01*
X160004360Y-113290130D01*
X159607000Y-113250993D01*
X159209639Y-113290130D01*
X158827548Y-113406036D01*
X158475411Y-113594257D01*
X158166760Y-113847560D01*
X157913457Y-114156211D01*
X157725236Y-114508349D01*
X157609330Y-114890440D01*
X157580000Y-115188230D01*
X148065831Y-115188230D01*
X147952940Y-114816080D01*
X147718290Y-114377081D01*
X147402505Y-113992295D01*
X147017718Y-113676510D01*
X146578719Y-113441860D01*
X146102378Y-113297364D01*
X145607000Y-113248573D01*
X145111621Y-113297364D01*
X144635280Y-113441860D01*
X144196281Y-113676510D01*
X143811495Y-113992295D01*
X143495710Y-114377082D01*
X143261060Y-114816081D01*
X143116564Y-115292422D01*
X143080000Y-115663659D01*
X133634000Y-115663659D01*
X133634000Y-115188229D01*
X133604670Y-114890439D01*
X133488764Y-114508348D01*
X133300543Y-114156211D01*
X133047240Y-113847560D01*
X132738589Y-113594257D01*
X132386451Y-113406036D01*
X132004360Y-113290130D01*
X131607000Y-113250993D01*
X131209639Y-113290130D01*
X130827548Y-113406036D01*
X130475411Y-113594257D01*
X130166760Y-113847560D01*
X129913457Y-114156211D01*
X129725236Y-114508349D01*
X129609330Y-114890440D01*
X129580000Y-115188230D01*
X128516000Y-115188230D01*
X128516000Y-109230000D01*
X130878354Y-109230000D01*
X130936798Y-109823396D01*
X131109886Y-110393988D01*
X131390964Y-110919848D01*
X131769231Y-111380769D01*
X132230152Y-111759036D01*
X132756012Y-112040114D01*
X133326604Y-112213202D01*
X133771296Y-112257000D01*
X133820429Y-112257000D01*
X133920000Y-112266807D01*
X134019571Y-112257000D01*
X156618429Y-112257000D01*
X156718000Y-112266807D01*
X157115361Y-112227670D01*
X157144622Y-112218794D01*
X157201396Y-112213202D01*
X157771988Y-112040114D01*
X158297848Y-111759036D01*
X158758769Y-111380769D01*
X159137036Y-110919848D01*
X159418114Y-110393988D01*
X159591202Y-109823396D01*
X159649646Y-109230000D01*
X159591202Y-108636604D01*
X159418114Y-108066012D01*
X159137036Y-107540152D01*
X158758769Y-107079231D01*
X158297848Y-106700964D01*
X157771988Y-106419886D01*
X157201396Y-106246798D01*
X157144621Y-106241206D01*
X157115360Y-106232330D01*
X156718000Y-106193193D01*
X156618429Y-106203000D01*
X134019571Y-106203000D01*
X133920000Y-106193193D01*
X133820429Y-106203000D01*
X133771296Y-106203000D01*
X133326604Y-106246798D01*
X132756012Y-106419886D01*
X132230152Y-106700964D01*
X131769231Y-107079231D01*
X131390964Y-107540152D01*
X131109886Y-108066012D01*
X130936798Y-108636604D01*
X130878354Y-109230000D01*
X128516000Y-109230000D01*
X128516000Y-104036447D01*
X128934158Y-104036447D01*
X129078135Y-104341770D01*
X129435892Y-104522597D01*
X129822053Y-104630155D01*
X130221777Y-104660310D01*
X130619704Y-104611904D01*
X131000540Y-104486795D01*
X131271865Y-104341770D01*
X131415842Y-104036447D01*
X130175000Y-102795605D01*
X128934158Y-104036447D01*
X128516000Y-104036447D01*
X128516000Y-103744351D01*
X128754553Y-103856842D01*
X129995395Y-102616000D01*
X130354605Y-102616000D01*
X131595447Y-103856842D01*
X131900770Y-103712865D01*
X132081597Y-103355108D01*
X132181341Y-102997000D01*
X134263000Y-102997000D01*
X134263000Y-103997000D01*
X134328800Y-104411078D01*
X134474118Y-104804362D01*
X134693370Y-105161739D01*
X134978130Y-105469475D01*
X135317454Y-105715744D01*
X135698303Y-105891083D01*
X135939167Y-105955113D01*
X136271000Y-105842165D01*
X136271000Y-102997000D01*
X136525000Y-102997000D01*
X136525000Y-105842165D01*
X136856833Y-105955113D01*
X137097697Y-105891083D01*
X137478546Y-105715744D01*
X137817870Y-105469475D01*
X138102630Y-105161739D01*
X138321882Y-104804362D01*
X138467200Y-104411078D01*
X138533000Y-103997000D01*
X138533000Y-102997000D01*
X152043000Y-102997000D01*
X152043000Y-103997000D01*
X152108800Y-104411078D01*
X152254118Y-104804362D01*
X152473370Y-105161739D01*
X152758130Y-105469475D01*
X153097454Y-105715744D01*
X153478303Y-105891083D01*
X153719167Y-105955113D01*
X154051000Y-105842165D01*
X154051000Y-102997000D01*
X154305000Y-102997000D01*
X154305000Y-105842165D01*
X154636833Y-105955113D01*
X154877697Y-105891083D01*
X155258546Y-105715744D01*
X155597870Y-105469475D01*
X155882630Y-105161739D01*
X156101882Y-104804362D01*
X156247200Y-104411078D01*
X156313000Y-103997000D01*
X156313000Y-103909447D01*
X158906158Y-103909447D01*
X159050135Y-104214770D01*
X159407892Y-104395597D01*
X159794053Y-104503155D01*
X160193777Y-104533310D01*
X160591704Y-104484904D01*
X160972540Y-104359795D01*
X161243865Y-104214770D01*
X161387842Y-103909447D01*
X160147000Y-102668605D01*
X158906158Y-103909447D01*
X156313000Y-103909447D01*
X156313000Y-102997000D01*
X154305000Y-102997000D01*
X154051000Y-102997000D01*
X152043000Y-102997000D01*
X138533000Y-102997000D01*
X136525000Y-102997000D01*
X136271000Y-102997000D01*
X134263000Y-102997000D01*
X132181341Y-102997000D01*
X132189155Y-102968947D01*
X132219310Y-102569223D01*
X132170904Y-102171296D01*
X132045795Y-101790460D01*
X132020428Y-101743000D01*
X134263000Y-101743000D01*
X134263000Y-102743000D01*
X136271000Y-102743000D01*
X136271000Y-99897835D01*
X136525000Y-99897835D01*
X136525000Y-102743000D01*
X138533000Y-102743000D01*
X138533000Y-101743000D01*
X152043000Y-101743000D01*
X152043000Y-102743000D01*
X154051000Y-102743000D01*
X154051000Y-99897835D01*
X154305000Y-99897835D01*
X154305000Y-102743000D01*
X156313000Y-102743000D01*
X156313000Y-102535777D01*
X158102690Y-102535777D01*
X158151096Y-102933704D01*
X158276205Y-103314540D01*
X158421230Y-103585865D01*
X158726553Y-103729842D01*
X159967395Y-102489000D01*
X158726553Y-101248158D01*
X158421230Y-101392135D01*
X158240403Y-101749892D01*
X158132845Y-102136053D01*
X158102690Y-102535777D01*
X156313000Y-102535777D01*
X156313000Y-101743000D01*
X156247200Y-101328922D01*
X156101882Y-100935638D01*
X155882630Y-100578261D01*
X155597870Y-100270525D01*
X155258546Y-100024256D01*
X154877697Y-99848917D01*
X154636833Y-99784887D01*
X154305000Y-99897835D01*
X154051000Y-99897835D01*
X153719167Y-99784887D01*
X153478303Y-99848917D01*
X153097454Y-100024256D01*
X152758130Y-100270525D01*
X152473370Y-100578261D01*
X152254118Y-100935638D01*
X152108800Y-101328922D01*
X152043000Y-101743000D01*
X138533000Y-101743000D01*
X138467200Y-101328922D01*
X138321882Y-100935638D01*
X138102630Y-100578261D01*
X137817870Y-100270525D01*
X137478546Y-100024256D01*
X137097697Y-99848917D01*
X136856833Y-99784887D01*
X136525000Y-99897835D01*
X136271000Y-99897835D01*
X135939167Y-99784887D01*
X135698303Y-99848917D01*
X135317454Y-100024256D01*
X134978130Y-100270525D01*
X134693370Y-100578261D01*
X134474118Y-100935638D01*
X134328800Y-101328922D01*
X134263000Y-101743000D01*
X132020428Y-101743000D01*
X131900770Y-101519135D01*
X131595447Y-101375158D01*
X130354605Y-102616000D01*
X129995395Y-102616000D01*
X128754553Y-101375158D01*
X128516000Y-101487649D01*
X128516000Y-100963800D01*
X129043443Y-100963800D01*
X128934158Y-101195553D01*
X130175000Y-102436395D01*
X131415842Y-101195553D01*
X131271865Y-100890230D01*
X130914108Y-100709403D01*
X130527947Y-100601845D01*
X130128223Y-100571690D01*
X130054609Y-100580645D01*
X130056075Y-100577903D01*
X130091927Y-100459713D01*
X130104033Y-100336800D01*
X130101000Y-100306006D01*
X130101000Y-98633479D01*
X130118699Y-98637000D01*
X130301301Y-98637000D01*
X130480396Y-98601376D01*
X130649099Y-98531496D01*
X130748020Y-98465400D01*
X133147380Y-98465400D01*
X133140200Y-98501499D01*
X133140200Y-98684101D01*
X133175824Y-98863196D01*
X133245704Y-99031899D01*
X133347152Y-99183728D01*
X133476272Y-99312848D01*
X133628101Y-99414296D01*
X133796804Y-99484176D01*
X133975899Y-99519800D01*
X134158501Y-99519800D01*
X134337596Y-99484176D01*
X134506299Y-99414296D01*
X134519912Y-99405200D01*
X145173637Y-99405200D01*
X145211800Y-99408959D01*
X145249963Y-99405200D01*
X145249966Y-99405200D01*
X145364119Y-99393957D01*
X145510584Y-99349527D01*
X145645566Y-99277377D01*
X145733730Y-99205024D01*
X145812396Y-99189376D01*
X145981099Y-99119496D01*
X146132928Y-99018048D01*
X146262048Y-98888928D01*
X146363496Y-98737099D01*
X146433376Y-98568396D01*
X146469000Y-98389301D01*
X146469000Y-98206699D01*
X146449169Y-98107000D01*
X152240829Y-98107000D01*
X152365083Y-98173415D01*
X152558673Y-98232140D01*
X152760000Y-98251968D01*
X152961327Y-98232140D01*
X153154918Y-98173415D01*
X153333331Y-98078051D01*
X153357348Y-98058340D01*
X153672777Y-97927685D01*
X153988391Y-97716799D01*
X154256799Y-97448391D01*
X154467685Y-97132777D01*
X154612947Y-96782085D01*
X154687000Y-96409793D01*
X154687000Y-96030207D01*
X154683081Y-96010504D01*
X155707778Y-97035201D01*
X155728973Y-97061027D01*
X155754799Y-97082222D01*
X155754801Y-97082224D01*
X155804209Y-97122772D01*
X155832059Y-97145628D01*
X155949670Y-97208492D01*
X156077285Y-97247204D01*
X156176748Y-97257000D01*
X156176755Y-97257000D01*
X156210000Y-97260274D01*
X156243245Y-97257000D01*
X157236024Y-97257000D01*
X157279072Y-97300048D01*
X157430901Y-97401496D01*
X157599604Y-97471376D01*
X157778699Y-97507000D01*
X157961301Y-97507000D01*
X158140396Y-97471376D01*
X158309099Y-97401496D01*
X158460928Y-97300048D01*
X158590048Y-97170928D01*
X158691496Y-97019099D01*
X158761376Y-96850396D01*
X158797000Y-96671301D01*
X158797000Y-96488699D01*
X158761376Y-96309604D01*
X158691496Y-96140901D01*
X158590048Y-95989072D01*
X158460928Y-95859952D01*
X158309099Y-95758504D01*
X158140396Y-95688624D01*
X157961301Y-95653000D01*
X157778699Y-95653000D01*
X157599604Y-95688624D01*
X157430901Y-95758504D01*
X157279072Y-95859952D01*
X157236024Y-95903000D01*
X156490423Y-95903000D01*
X147132224Y-86544802D01*
X147111027Y-86518973D01*
X147007941Y-86434372D01*
X146890330Y-86371508D01*
X146762715Y-86332796D01*
X146663252Y-86323000D01*
X146663245Y-86323000D01*
X146630000Y-86319726D01*
X146596755Y-86323000D01*
X145733976Y-86323000D01*
X145711000Y-86300024D01*
X145711000Y-85444959D01*
X145779604Y-85473376D01*
X145958699Y-85509000D01*
X146141301Y-85509000D01*
X146320396Y-85473376D01*
X146489099Y-85403496D01*
X146640928Y-85302048D01*
X146770048Y-85172928D01*
X146871496Y-85021099D01*
X146941376Y-84852396D01*
X146977000Y-84673301D01*
X146977000Y-84490699D01*
X146941376Y-84311604D01*
X146871496Y-84142901D01*
X146807000Y-84046375D01*
X146807000Y-84043020D01*
X146832650Y-84035239D01*
X146837908Y-84032429D01*
X146847290Y-84049981D01*
X146930557Y-84151443D01*
X147032019Y-84234710D01*
X147147775Y-84296583D01*
X147273377Y-84334684D01*
X147404000Y-84347549D01*
X147559001Y-84347549D01*
X147559000Y-86118636D01*
X147555241Y-86156800D01*
X147559000Y-86194963D01*
X147559000Y-86194965D01*
X147570243Y-86309118D01*
X147605230Y-86424453D01*
X147614673Y-86455583D01*
X147686823Y-86590566D01*
X147732171Y-86645823D01*
X147783920Y-86708880D01*
X147813570Y-86733213D01*
X152405647Y-91325290D01*
X152413624Y-91365396D01*
X152483504Y-91534099D01*
X152584952Y-91685928D01*
X152714072Y-91815048D01*
X152865901Y-91916496D01*
X153034604Y-91986376D01*
X153213699Y-92022000D01*
X153396301Y-92022000D01*
X153575396Y-91986376D01*
X153744099Y-91916496D01*
X153895928Y-91815048D01*
X154025048Y-91685928D01*
X154126496Y-91534099D01*
X154196376Y-91365396D01*
X154232000Y-91186301D01*
X154232000Y-91003699D01*
X154196376Y-90824604D01*
X154126496Y-90655901D01*
X154025048Y-90504072D01*
X153895928Y-90374952D01*
X153880383Y-90364565D01*
X157920238Y-90357000D01*
X157935839Y-90356008D01*
X157960118Y-90350497D01*
X157982855Y-90340355D01*
X158003176Y-90325973D01*
X158020301Y-90307902D01*
X158033572Y-90286837D01*
X158042478Y-90263588D01*
X158046677Y-90239048D01*
X158056677Y-90099048D01*
X158054560Y-90065224D01*
X158047333Y-90041399D01*
X158035597Y-90019443D01*
X158019803Y-90000197D01*
X158000557Y-89984403D01*
X157978601Y-89972667D01*
X157954776Y-89965440D01*
X157930000Y-89963000D01*
X153241044Y-89963000D01*
X152757000Y-89478956D01*
X152757000Y-74470619D01*
X156686483Y-74388600D01*
X156683193Y-74422000D01*
%TA.AperFunction,Conductor*%
D37*
G36*
X156683193Y-74422000D02*
G01*
X156722330Y-74819361D01*
X156838236Y-75201452D01*
X157026457Y-75553589D01*
X157279760Y-75862240D01*
X157588411Y-76115543D01*
X157642974Y-76144707D01*
X157642100Y-89666992D01*
X157646306Y-89699413D01*
X157654989Y-89722746D01*
X157668057Y-89743937D01*
X157685008Y-89762171D01*
X157705191Y-89776748D01*
X157727830Y-89787107D01*
X157752054Y-89792851D01*
X157776934Y-89793758D01*
X157938734Y-89783758D01*
X157955774Y-89781540D01*
X157979593Y-89774295D01*
X158001540Y-89762541D01*
X158020773Y-89746732D01*
X158036552Y-89727475D01*
X158048271Y-89705509D01*
X158055479Y-89681679D01*
X158057900Y-89656900D01*
X158047452Y-76336193D01*
X158322639Y-76419670D01*
X158620429Y-76449000D01*
X160819571Y-76449000D01*
X161117361Y-76419670D01*
X161499452Y-76303764D01*
X161851589Y-76115543D01*
X162038276Y-75962333D01*
X162034886Y-83409400D01*
X161104794Y-83409400D01*
X161074000Y-83406367D01*
X160951087Y-83418473D01*
X160832897Y-83454325D01*
X160723972Y-83512547D01*
X160628499Y-83590899D01*
X160550147Y-83686372D01*
X160491925Y-83795297D01*
X160456073Y-83913487D01*
X160443967Y-84036400D01*
X160447000Y-84067193D01*
X160447001Y-100305996D01*
X160443967Y-100336800D01*
X160456073Y-100459713D01*
X160459743Y-100471812D01*
X160100223Y-100444690D01*
X159702296Y-100493096D01*
X159321460Y-100618205D01*
X159050135Y-100763230D01*
X158906158Y-101068553D01*
X160147000Y-102309395D01*
X161387842Y-101068553D01*
X161338445Y-100963800D01*
X162034897Y-100963800D01*
X162035252Y-101716600D01*
X162017795Y-101663460D01*
X161872770Y-101392135D01*
X161567447Y-101248158D01*
X160326605Y-102489000D01*
X161567447Y-103729842D01*
X161872770Y-103585865D01*
X162035982Y-103262958D01*
X162046704Y-125966600D01*
X146974351Y-125966600D01*
X147300905Y-125698605D01*
X147616690Y-125313819D01*
X147851340Y-124874819D01*
X147995836Y-124398478D01*
X148032400Y-124027241D01*
X148032400Y-122778958D01*
X147995836Y-122407721D01*
X147851340Y-121931380D01*
X147616690Y-121492381D01*
X147300905Y-121107595D01*
X146916118Y-120791810D01*
X146477119Y-120557160D01*
X146212731Y-120476959D01*
X149963400Y-120476959D01*
X149963400Y-121725242D01*
X149999964Y-122096479D01*
X150144460Y-122572820D01*
X150379110Y-123011819D01*
X150694896Y-123396605D01*
X151079682Y-123712390D01*
X151518681Y-123947040D01*
X151995022Y-124091536D01*
X152490400Y-124140327D01*
X152985779Y-124091536D01*
X153462120Y-123947040D01*
X153901119Y-123712390D01*
X154285905Y-123396605D01*
X154601690Y-123011819D01*
X154836340Y-122572819D01*
X154873259Y-122451112D01*
X156243000Y-122451112D01*
X156243000Y-122948888D01*
X156340111Y-123437099D01*
X156530602Y-123896983D01*
X156807151Y-124310869D01*
X157159131Y-124662849D01*
X157573017Y-124939398D01*
X158032901Y-125129889D01*
X158521112Y-125227000D01*
X159018888Y-125227000D01*
X159507099Y-125129889D01*
X159966983Y-124939398D01*
X160380869Y-124662849D01*
X160732849Y-124310869D01*
X161009398Y-123896983D01*
X161199889Y-123437099D01*
X161297000Y-122948888D01*
X161297000Y-122451112D01*
X161199889Y-121962901D01*
X161009398Y-121503017D01*
X160732849Y-121089131D01*
X160380869Y-120737151D01*
X159966983Y-120460602D01*
X159507099Y-120270111D01*
X159018888Y-120173000D01*
X158521112Y-120173000D01*
X158032901Y-120270111D01*
X157573017Y-120460602D01*
X157159131Y-120737151D01*
X156807151Y-121089131D01*
X156530602Y-121503017D01*
X156340111Y-121962901D01*
X156243000Y-122451112D01*
X154873259Y-122451112D01*
X154980836Y-122096478D01*
X155017400Y-121725241D01*
X155017400Y-120476958D01*
X154980836Y-120105721D01*
X154836340Y-119629380D01*
X154601690Y-119190381D01*
X154285905Y-118805595D01*
X153901118Y-118489810D01*
X153462119Y-118255160D01*
X152985778Y-118110664D01*
X152490400Y-118061873D01*
X151995021Y-118110664D01*
X151518680Y-118255160D01*
X151079681Y-118489810D01*
X150694895Y-118805595D01*
X150379110Y-119190382D01*
X150144460Y-119629381D01*
X149999964Y-120105722D01*
X149963400Y-120476959D01*
X146212731Y-120476959D01*
X146000778Y-120412664D01*
X145505400Y-120363873D01*
X145010021Y-120412664D01*
X144533680Y-120557160D01*
X144094681Y-120791810D01*
X143709895Y-121107595D01*
X143394110Y-121492382D01*
X143159460Y-121931381D01*
X143014964Y-122407722D01*
X142978400Y-122778959D01*
X142978400Y-124027242D01*
X143014964Y-124398479D01*
X143159460Y-124874820D01*
X143394110Y-125313819D01*
X143709896Y-125698605D01*
X144036450Y-125966600D01*
X128516000Y-125966600D01*
X128516000Y-122461112D01*
X129213000Y-122461112D01*
X129213000Y-122958888D01*
X129310111Y-123447099D01*
X129500602Y-123906983D01*
X129777151Y-124320869D01*
X130129131Y-124672849D01*
X130543017Y-124949398D01*
X131002901Y-125139889D01*
X131491112Y-125237000D01*
X131988888Y-125237000D01*
X132477099Y-125139889D01*
X132936983Y-124949398D01*
X133350869Y-124672849D01*
X133702849Y-124320869D01*
X133979398Y-123906983D01*
X134169889Y-123447099D01*
X134267000Y-122958888D01*
X134267000Y-122461112D01*
X134169889Y-121972901D01*
X133979398Y-121513017D01*
X133702849Y-121099131D01*
X133350869Y-120747151D01*
X132936983Y-120470602D01*
X132799029Y-120413459D01*
X135739400Y-120413459D01*
X135739400Y-121661742D01*
X135775964Y-122032979D01*
X135920460Y-122509320D01*
X136155110Y-122948319D01*
X136470896Y-123333105D01*
X136855682Y-123648890D01*
X137294681Y-123883540D01*
X137771022Y-124028036D01*
X138266400Y-124076827D01*
X138761779Y-124028036D01*
X139238120Y-123883540D01*
X139677119Y-123648890D01*
X140061905Y-123333105D01*
X140377690Y-122948319D01*
X140612340Y-122509319D01*
X140756836Y-122032978D01*
X140793400Y-121661741D01*
X140793400Y-120413458D01*
X140756836Y-120042221D01*
X140612340Y-119565880D01*
X140377690Y-119126881D01*
X140061905Y-118742095D01*
X139677118Y-118426310D01*
X139238119Y-118191660D01*
X138761778Y-118047164D01*
X138266400Y-117998373D01*
X137771021Y-118047164D01*
X137294680Y-118191660D01*
X136855681Y-118426310D01*
X136470895Y-118742095D01*
X136155110Y-119126882D01*
X135920460Y-119565881D01*
X135775964Y-120042222D01*
X135739400Y-120413459D01*
X132799029Y-120413459D01*
X132477099Y-120280111D01*
X131988888Y-120183000D01*
X131491112Y-120183000D01*
X131002901Y-120280111D01*
X130543017Y-120470602D01*
X130129131Y-120747151D01*
X129777151Y-121099131D01*
X129500602Y-121513017D01*
X129310111Y-121972901D01*
X129213000Y-122461112D01*
X128516000Y-122461112D01*
X128516000Y-115188230D01*
X129580000Y-115188230D01*
X129580001Y-117387371D01*
X129609331Y-117685161D01*
X129725237Y-118067252D01*
X129913458Y-118419389D01*
X130166761Y-118728040D01*
X130475412Y-118981343D01*
X130827549Y-119169564D01*
X131209640Y-119285470D01*
X131607000Y-119324607D01*
X132004361Y-119285470D01*
X132386452Y-119169564D01*
X132738589Y-118981343D01*
X133047240Y-118728040D01*
X133300543Y-118419389D01*
X133488764Y-118067252D01*
X133604670Y-117685161D01*
X133634000Y-117387371D01*
X133634000Y-115663659D01*
X143080000Y-115663659D01*
X143080000Y-116911942D01*
X143116564Y-117283179D01*
X143261060Y-117759520D01*
X143495710Y-118198519D01*
X143811496Y-118583305D01*
X144196282Y-118899090D01*
X144635281Y-119133740D01*
X145111622Y-119278236D01*
X145607000Y-119327027D01*
X146102379Y-119278236D01*
X146578720Y-119133740D01*
X147017719Y-118899090D01*
X147402505Y-118583305D01*
X147718290Y-118198519D01*
X147952940Y-117759519D01*
X148097436Y-117283178D01*
X148134000Y-116911941D01*
X148134000Y-115663658D01*
X148097436Y-115292421D01*
X148065831Y-115188230D01*
X157580000Y-115188230D01*
X157580001Y-117387371D01*
X157609331Y-117685161D01*
X157725237Y-118067252D01*
X157913458Y-118419389D01*
X158166761Y-118728040D01*
X158475412Y-118981343D01*
X158827549Y-119169564D01*
X159209640Y-119285470D01*
X159607000Y-119324607D01*
X160004361Y-119285470D01*
X160386452Y-119169564D01*
X160738589Y-118981343D01*
X161047240Y-118728040D01*
X161300543Y-118419389D01*
X161488764Y-118067252D01*
X161604670Y-117685161D01*
X161634000Y-117387371D01*
X161634000Y-115188229D01*
X161604670Y-114890439D01*
X161488764Y-114508348D01*
X161300543Y-114156211D01*
X161047240Y-113847560D01*
X160738589Y-113594257D01*
X160386451Y-113406036D01*
X160004360Y-113290130D01*
X159607000Y-113250993D01*
X159209639Y-113290130D01*
X158827548Y-113406036D01*
X158475411Y-113594257D01*
X158166760Y-113847560D01*
X157913457Y-114156211D01*
X157725236Y-114508349D01*
X157609330Y-114890440D01*
X157580000Y-115188230D01*
X148065831Y-115188230D01*
X147952940Y-114816080D01*
X147718290Y-114377081D01*
X147402505Y-113992295D01*
X147017718Y-113676510D01*
X146578719Y-113441860D01*
X146102378Y-113297364D01*
X145607000Y-113248573D01*
X145111621Y-113297364D01*
X144635280Y-113441860D01*
X144196281Y-113676510D01*
X143811495Y-113992295D01*
X143495710Y-114377082D01*
X143261060Y-114816081D01*
X143116564Y-115292422D01*
X143080000Y-115663659D01*
X133634000Y-115663659D01*
X133634000Y-115188229D01*
X133604670Y-114890439D01*
X133488764Y-114508348D01*
X133300543Y-114156211D01*
X133047240Y-113847560D01*
X132738589Y-113594257D01*
X132386451Y-113406036D01*
X132004360Y-113290130D01*
X131607000Y-113250993D01*
X131209639Y-113290130D01*
X130827548Y-113406036D01*
X130475411Y-113594257D01*
X130166760Y-113847560D01*
X129913457Y-114156211D01*
X129725236Y-114508349D01*
X129609330Y-114890440D01*
X129580000Y-115188230D01*
X128516000Y-115188230D01*
X128516000Y-109230000D01*
X130878354Y-109230000D01*
X130936798Y-109823396D01*
X131109886Y-110393988D01*
X131390964Y-110919848D01*
X131769231Y-111380769D01*
X132230152Y-111759036D01*
X132756012Y-112040114D01*
X133326604Y-112213202D01*
X133771296Y-112257000D01*
X133820429Y-112257000D01*
X133920000Y-112266807D01*
X134019571Y-112257000D01*
X156618429Y-112257000D01*
X156718000Y-112266807D01*
X157115361Y-112227670D01*
X157144622Y-112218794D01*
X157201396Y-112213202D01*
X157771988Y-112040114D01*
X158297848Y-111759036D01*
X158758769Y-111380769D01*
X159137036Y-110919848D01*
X159418114Y-110393988D01*
X159591202Y-109823396D01*
X159649646Y-109230000D01*
X159591202Y-108636604D01*
X159418114Y-108066012D01*
X159137036Y-107540152D01*
X158758769Y-107079231D01*
X158297848Y-106700964D01*
X157771988Y-106419886D01*
X157201396Y-106246798D01*
X157144621Y-106241206D01*
X157115360Y-106232330D01*
X156718000Y-106193193D01*
X156618429Y-106203000D01*
X134019571Y-106203000D01*
X133920000Y-106193193D01*
X133820429Y-106203000D01*
X133771296Y-106203000D01*
X133326604Y-106246798D01*
X132756012Y-106419886D01*
X132230152Y-106700964D01*
X131769231Y-107079231D01*
X131390964Y-107540152D01*
X131109886Y-108066012D01*
X130936798Y-108636604D01*
X130878354Y-109230000D01*
X128516000Y-109230000D01*
X128516000Y-104036447D01*
X128934158Y-104036447D01*
X129078135Y-104341770D01*
X129435892Y-104522597D01*
X129822053Y-104630155D01*
X130221777Y-104660310D01*
X130619704Y-104611904D01*
X131000540Y-104486795D01*
X131271865Y-104341770D01*
X131415842Y-104036447D01*
X130175000Y-102795605D01*
X128934158Y-104036447D01*
X128516000Y-104036447D01*
X128516000Y-103744351D01*
X128754553Y-103856842D01*
X129995395Y-102616000D01*
X130354605Y-102616000D01*
X131595447Y-103856842D01*
X131900770Y-103712865D01*
X132081597Y-103355108D01*
X132181341Y-102997000D01*
X134263000Y-102997000D01*
X134263000Y-103997000D01*
X134328800Y-104411078D01*
X134474118Y-104804362D01*
X134693370Y-105161739D01*
X134978130Y-105469475D01*
X135317454Y-105715744D01*
X135698303Y-105891083D01*
X135939167Y-105955113D01*
X136271000Y-105842165D01*
X136271000Y-102997000D01*
X136525000Y-102997000D01*
X136525000Y-105842165D01*
X136856833Y-105955113D01*
X137097697Y-105891083D01*
X137478546Y-105715744D01*
X137817870Y-105469475D01*
X138102630Y-105161739D01*
X138321882Y-104804362D01*
X138467200Y-104411078D01*
X138533000Y-103997000D01*
X138533000Y-102997000D01*
X152043000Y-102997000D01*
X152043000Y-103997000D01*
X152108800Y-104411078D01*
X152254118Y-104804362D01*
X152473370Y-105161739D01*
X152758130Y-105469475D01*
X153097454Y-105715744D01*
X153478303Y-105891083D01*
X153719167Y-105955113D01*
X154051000Y-105842165D01*
X154051000Y-102997000D01*
X154305000Y-102997000D01*
X154305000Y-105842165D01*
X154636833Y-105955113D01*
X154877697Y-105891083D01*
X155258546Y-105715744D01*
X155597870Y-105469475D01*
X155882630Y-105161739D01*
X156101882Y-104804362D01*
X156247200Y-104411078D01*
X156313000Y-103997000D01*
X156313000Y-103909447D01*
X158906158Y-103909447D01*
X159050135Y-104214770D01*
X159407892Y-104395597D01*
X159794053Y-104503155D01*
X160193777Y-104533310D01*
X160591704Y-104484904D01*
X160972540Y-104359795D01*
X161243865Y-104214770D01*
X161387842Y-103909447D01*
X160147000Y-102668605D01*
X158906158Y-103909447D01*
X156313000Y-103909447D01*
X156313000Y-102997000D01*
X154305000Y-102997000D01*
X154051000Y-102997000D01*
X152043000Y-102997000D01*
X138533000Y-102997000D01*
X136525000Y-102997000D01*
X136271000Y-102997000D01*
X134263000Y-102997000D01*
X132181341Y-102997000D01*
X132189155Y-102968947D01*
X132219310Y-102569223D01*
X132170904Y-102171296D01*
X132045795Y-101790460D01*
X132020428Y-101743000D01*
X134263000Y-101743000D01*
X134263000Y-102743000D01*
X136271000Y-102743000D01*
X136271000Y-99897835D01*
X136525000Y-99897835D01*
X136525000Y-102743000D01*
X138533000Y-102743000D01*
X138533000Y-101743000D01*
X152043000Y-101743000D01*
X152043000Y-102743000D01*
X154051000Y-102743000D01*
X154051000Y-99897835D01*
X154305000Y-99897835D01*
X154305000Y-102743000D01*
X156313000Y-102743000D01*
X156313000Y-102535777D01*
X158102690Y-102535777D01*
X158151096Y-102933704D01*
X158276205Y-103314540D01*
X158421230Y-103585865D01*
X158726553Y-103729842D01*
X159967395Y-102489000D01*
X158726553Y-101248158D01*
X158421230Y-101392135D01*
X158240403Y-101749892D01*
X158132845Y-102136053D01*
X158102690Y-102535777D01*
X156313000Y-102535777D01*
X156313000Y-101743000D01*
X156247200Y-101328922D01*
X156101882Y-100935638D01*
X155882630Y-100578261D01*
X155597870Y-100270525D01*
X155258546Y-100024256D01*
X154877697Y-99848917D01*
X154636833Y-99784887D01*
X154305000Y-99897835D01*
X154051000Y-99897835D01*
X153719167Y-99784887D01*
X153478303Y-99848917D01*
X153097454Y-100024256D01*
X152758130Y-100270525D01*
X152473370Y-100578261D01*
X152254118Y-100935638D01*
X152108800Y-101328922D01*
X152043000Y-101743000D01*
X138533000Y-101743000D01*
X138467200Y-101328922D01*
X138321882Y-100935638D01*
X138102630Y-100578261D01*
X137817870Y-100270525D01*
X137478546Y-100024256D01*
X137097697Y-99848917D01*
X136856833Y-99784887D01*
X136525000Y-99897835D01*
X136271000Y-99897835D01*
X135939167Y-99784887D01*
X135698303Y-99848917D01*
X135317454Y-100024256D01*
X134978130Y-100270525D01*
X134693370Y-100578261D01*
X134474118Y-100935638D01*
X134328800Y-101328922D01*
X134263000Y-101743000D01*
X132020428Y-101743000D01*
X131900770Y-101519135D01*
X131595447Y-101375158D01*
X130354605Y-102616000D01*
X129995395Y-102616000D01*
X128754553Y-101375158D01*
X128516000Y-101487649D01*
X128516000Y-100963800D01*
X129043443Y-100963800D01*
X128934158Y-101195553D01*
X130175000Y-102436395D01*
X131415842Y-101195553D01*
X131271865Y-100890230D01*
X130914108Y-100709403D01*
X130527947Y-100601845D01*
X130128223Y-100571690D01*
X130054609Y-100580645D01*
X130056075Y-100577903D01*
X130091927Y-100459713D01*
X130104033Y-100336800D01*
X130101000Y-100306006D01*
X130101000Y-98633479D01*
X130118699Y-98637000D01*
X130301301Y-98637000D01*
X130480396Y-98601376D01*
X130649099Y-98531496D01*
X130748020Y-98465400D01*
X133147380Y-98465400D01*
X133140200Y-98501499D01*
X133140200Y-98684101D01*
X133175824Y-98863196D01*
X133245704Y-99031899D01*
X133347152Y-99183728D01*
X133476272Y-99312848D01*
X133628101Y-99414296D01*
X133796804Y-99484176D01*
X133975899Y-99519800D01*
X134158501Y-99519800D01*
X134337596Y-99484176D01*
X134506299Y-99414296D01*
X134519912Y-99405200D01*
X145173637Y-99405200D01*
X145211800Y-99408959D01*
X145249963Y-99405200D01*
X145249966Y-99405200D01*
X145364119Y-99393957D01*
X145510584Y-99349527D01*
X145645566Y-99277377D01*
X145733730Y-99205024D01*
X145812396Y-99189376D01*
X145981099Y-99119496D01*
X146132928Y-99018048D01*
X146262048Y-98888928D01*
X146363496Y-98737099D01*
X146433376Y-98568396D01*
X146469000Y-98389301D01*
X146469000Y-98206699D01*
X146449169Y-98107000D01*
X152240829Y-98107000D01*
X152365083Y-98173415D01*
X152558673Y-98232140D01*
X152760000Y-98251968D01*
X152961327Y-98232140D01*
X153154918Y-98173415D01*
X153333331Y-98078051D01*
X153357348Y-98058340D01*
X153672777Y-97927685D01*
X153988391Y-97716799D01*
X154256799Y-97448391D01*
X154467685Y-97132777D01*
X154612947Y-96782085D01*
X154687000Y-96409793D01*
X154687000Y-96030207D01*
X154683081Y-96010504D01*
X155707778Y-97035201D01*
X155728973Y-97061027D01*
X155754799Y-97082222D01*
X155754801Y-97082224D01*
X155804209Y-97122772D01*
X155832059Y-97145628D01*
X155949670Y-97208492D01*
X156077285Y-97247204D01*
X156176748Y-97257000D01*
X156176755Y-97257000D01*
X156210000Y-97260274D01*
X156243245Y-97257000D01*
X157236024Y-97257000D01*
X157279072Y-97300048D01*
X157430901Y-97401496D01*
X157599604Y-97471376D01*
X157778699Y-97507000D01*
X157961301Y-97507000D01*
X158140396Y-97471376D01*
X158309099Y-97401496D01*
X158460928Y-97300048D01*
X158590048Y-97170928D01*
X158691496Y-97019099D01*
X158761376Y-96850396D01*
X158797000Y-96671301D01*
X158797000Y-96488699D01*
X158761376Y-96309604D01*
X158691496Y-96140901D01*
X158590048Y-95989072D01*
X158460928Y-95859952D01*
X158309099Y-95758504D01*
X158140396Y-95688624D01*
X157961301Y-95653000D01*
X157778699Y-95653000D01*
X157599604Y-95688624D01*
X157430901Y-95758504D01*
X157279072Y-95859952D01*
X157236024Y-95903000D01*
X156490423Y-95903000D01*
X147132224Y-86544802D01*
X147111027Y-86518973D01*
X147007941Y-86434372D01*
X146890330Y-86371508D01*
X146762715Y-86332796D01*
X146663252Y-86323000D01*
X146663245Y-86323000D01*
X146630000Y-86319726D01*
X146596755Y-86323000D01*
X145733976Y-86323000D01*
X145711000Y-86300024D01*
X145711000Y-85444959D01*
X145779604Y-85473376D01*
X145958699Y-85509000D01*
X146141301Y-85509000D01*
X146320396Y-85473376D01*
X146489099Y-85403496D01*
X146640928Y-85302048D01*
X146770048Y-85172928D01*
X146871496Y-85021099D01*
X146941376Y-84852396D01*
X146977000Y-84673301D01*
X146977000Y-84490699D01*
X146941376Y-84311604D01*
X146871496Y-84142901D01*
X146807000Y-84046375D01*
X146807000Y-84043020D01*
X146832650Y-84035239D01*
X146837908Y-84032429D01*
X146847290Y-84049981D01*
X146930557Y-84151443D01*
X147032019Y-84234710D01*
X147147775Y-84296583D01*
X147273377Y-84334684D01*
X147404000Y-84347549D01*
X147559001Y-84347549D01*
X147559000Y-86118636D01*
X147555241Y-86156800D01*
X147559000Y-86194963D01*
X147559000Y-86194965D01*
X147570243Y-86309118D01*
X147605230Y-86424453D01*
X147614673Y-86455583D01*
X147686823Y-86590566D01*
X147732171Y-86645823D01*
X147783920Y-86708880D01*
X147813570Y-86733213D01*
X152405647Y-91325290D01*
X152413624Y-91365396D01*
X152483504Y-91534099D01*
X152584952Y-91685928D01*
X152714072Y-91815048D01*
X152865901Y-91916496D01*
X153034604Y-91986376D01*
X153213699Y-92022000D01*
X153396301Y-92022000D01*
X153575396Y-91986376D01*
X153744099Y-91916496D01*
X153895928Y-91815048D01*
X154025048Y-91685928D01*
X154126496Y-91534099D01*
X154196376Y-91365396D01*
X154232000Y-91186301D01*
X154232000Y-91003699D01*
X154196376Y-90824604D01*
X154126496Y-90655901D01*
X154025048Y-90504072D01*
X153895928Y-90374952D01*
X153880383Y-90364565D01*
X157920238Y-90357000D01*
X157935839Y-90356008D01*
X157960118Y-90350497D01*
X157982855Y-90340355D01*
X158003176Y-90325973D01*
X158020301Y-90307902D01*
X158033572Y-90286837D01*
X158042478Y-90263588D01*
X158046677Y-90239048D01*
X158056677Y-90099048D01*
X158054560Y-90065224D01*
X158047333Y-90041399D01*
X158035597Y-90019443D01*
X158019803Y-90000197D01*
X158000557Y-89984403D01*
X157978601Y-89972667D01*
X157954776Y-89965440D01*
X157930000Y-89963000D01*
X153241044Y-89963000D01*
X152757000Y-89478956D01*
X152757000Y-74470619D01*
X156686483Y-74388600D01*
X156683193Y-74422000D01*
G37*
%TD.AperFunction*%
D36*
X130145506Y-91350537D02*
X130228329Y-91394807D01*
X130221935Y-91462923D01*
X130225000Y-91484250D01*
X130383750Y-91643000D01*
X131013000Y-91643000D01*
X131013000Y-91623000D01*
X131267000Y-91623000D01*
X131267000Y-91643000D01*
X131287000Y-91643000D01*
X131287000Y-91897000D01*
X131267000Y-91897000D01*
X131267000Y-92556250D01*
X131425750Y-92715000D01*
X131547348Y-92705235D01*
X131666878Y-92668377D01*
X131776921Y-92608908D01*
X131801782Y-92588313D01*
X131829377Y-92596684D01*
X131960000Y-92609549D01*
X132240000Y-92609549D01*
X132370623Y-92596684D01*
X132496225Y-92558583D01*
X132611981Y-92496710D01*
X132623000Y-92487667D01*
X132623001Y-94316232D01*
X132605552Y-94330552D01*
X132539696Y-94410798D01*
X132490761Y-94502350D01*
X132460626Y-94601690D01*
X132450451Y-94705000D01*
X132450451Y-95545000D01*
X132460626Y-95648310D01*
X132490761Y-95747650D01*
X132539696Y-95839202D01*
X132605552Y-95919448D01*
X132638555Y-95946533D01*
X132651804Y-95990207D01*
X132678673Y-96078783D01*
X132750823Y-96213766D01*
X132823591Y-96302434D01*
X132847921Y-96332080D01*
X132877565Y-96356408D01*
X133223587Y-96702430D01*
X133247920Y-96732080D01*
X133366234Y-96829177D01*
X133501216Y-96901327D01*
X133534422Y-96911400D01*
X130683366Y-96911400D01*
X130649099Y-96888504D01*
X130480396Y-96818624D01*
X130301301Y-96783000D01*
X130118699Y-96783000D01*
X130101000Y-96786521D01*
X130101000Y-92077077D01*
X130221935Y-92077077D01*
X130233625Y-92201613D01*
X130269386Y-92321476D01*
X130327844Y-92432059D01*
X130406753Y-92529113D01*
X130503079Y-92608908D01*
X130613122Y-92668377D01*
X130732652Y-92705235D01*
X130854250Y-92715000D01*
X131013000Y-92556250D01*
X131013000Y-91897000D01*
X130383750Y-91897000D01*
X130225000Y-92055750D01*
X130221935Y-92077077D01*
X130101000Y-92077077D01*
X130101000Y-91314012D01*
X130145506Y-91350537D01*
%TA.AperFunction,Conductor*%
D37*
G36*
X130145506Y-91350537D02*
G01*
X130228329Y-91394807D01*
X130221935Y-91462923D01*
X130225000Y-91484250D01*
X130383750Y-91643000D01*
X131013000Y-91643000D01*
X131013000Y-91623000D01*
X131267000Y-91623000D01*
X131267000Y-91643000D01*
X131287000Y-91643000D01*
X131287000Y-91897000D01*
X131267000Y-91897000D01*
X131267000Y-92556250D01*
X131425750Y-92715000D01*
X131547348Y-92705235D01*
X131666878Y-92668377D01*
X131776921Y-92608908D01*
X131801782Y-92588313D01*
X131829377Y-92596684D01*
X131960000Y-92609549D01*
X132240000Y-92609549D01*
X132370623Y-92596684D01*
X132496225Y-92558583D01*
X132611981Y-92496710D01*
X132623000Y-92487667D01*
X132623001Y-94316232D01*
X132605552Y-94330552D01*
X132539696Y-94410798D01*
X132490761Y-94502350D01*
X132460626Y-94601690D01*
X132450451Y-94705000D01*
X132450451Y-95545000D01*
X132460626Y-95648310D01*
X132490761Y-95747650D01*
X132539696Y-95839202D01*
X132605552Y-95919448D01*
X132638555Y-95946533D01*
X132651804Y-95990207D01*
X132678673Y-96078783D01*
X132750823Y-96213766D01*
X132823591Y-96302434D01*
X132847921Y-96332080D01*
X132877565Y-96356408D01*
X133223587Y-96702430D01*
X133247920Y-96732080D01*
X133366234Y-96829177D01*
X133501216Y-96901327D01*
X133534422Y-96911400D01*
X130683366Y-96911400D01*
X130649099Y-96888504D01*
X130480396Y-96818624D01*
X130301301Y-96783000D01*
X130118699Y-96783000D01*
X130101000Y-96786521D01*
X130101000Y-92077077D01*
X130221935Y-92077077D01*
X130233625Y-92201613D01*
X130269386Y-92321476D01*
X130327844Y-92432059D01*
X130406753Y-92529113D01*
X130503079Y-92608908D01*
X130613122Y-92668377D01*
X130732652Y-92705235D01*
X130854250Y-92715000D01*
X131013000Y-92556250D01*
X131013000Y-91897000D01*
X130383750Y-91897000D01*
X130225000Y-92055750D01*
X130221935Y-92077077D01*
X130101000Y-92077077D01*
X130101000Y-91314012D01*
X130145506Y-91350537D01*
G37*
%TD.AperFunction*%
D36*
X134467000Y-92993000D02*
X134487000Y-92993000D01*
X134487000Y-93247000D01*
X134467000Y-93247000D01*
X134467000Y-94016250D01*
X134503001Y-94052251D01*
X134503001Y-94316232D01*
X134485552Y-94330552D01*
X134419696Y-94410798D01*
X134370761Y-94502350D01*
X134340626Y-94601690D01*
X134340000Y-94608046D01*
X134339374Y-94601690D01*
X134309239Y-94502350D01*
X134260304Y-94410798D01*
X134194448Y-94330552D01*
X134177000Y-94316233D01*
X134177000Y-94052250D01*
X134213000Y-94016250D01*
X134213000Y-93247000D01*
X134193000Y-93247000D01*
X134193000Y-92993000D01*
X134213000Y-92993000D01*
X134213000Y-92973000D01*
X134467000Y-92973000D01*
X134467000Y-92993000D01*
%TA.AperFunction,Conductor*%
D37*
G36*
X134467000Y-92993000D02*
G01*
X134487000Y-92993000D01*
X134487000Y-93247000D01*
X134467000Y-93247000D01*
X134467000Y-94016250D01*
X134503001Y-94052251D01*
X134503001Y-94316232D01*
X134485552Y-94330552D01*
X134419696Y-94410798D01*
X134370761Y-94502350D01*
X134340626Y-94601690D01*
X134340000Y-94608046D01*
X134339374Y-94601690D01*
X134309239Y-94502350D01*
X134260304Y-94410798D01*
X134194448Y-94330552D01*
X134177000Y-94316233D01*
X134177000Y-94052250D01*
X134213000Y-94016250D01*
X134213000Y-93247000D01*
X134193000Y-93247000D01*
X134193000Y-92993000D01*
X134213000Y-92993000D01*
X134213000Y-92973000D01*
X134467000Y-92973000D01*
X134467000Y-92993000D01*
G37*
%TD.AperFunction*%
D36*
X137592000Y-89305000D02*
X137612000Y-89305000D01*
X137612000Y-89559000D01*
X137592000Y-89559000D01*
X137592000Y-90670750D01*
X137750750Y-90829500D01*
X137790000Y-90832572D01*
X137914482Y-90820312D01*
X138007000Y-90792247D01*
X138007000Y-91390224D01*
X137989352Y-91407872D01*
X137887904Y-91559701D01*
X137818024Y-91728404D01*
X137782400Y-91907499D01*
X137782400Y-92090101D01*
X137804467Y-92201038D01*
X137667216Y-92242673D01*
X137633380Y-92260759D01*
X137532234Y-92314822D01*
X137443565Y-92387591D01*
X137413920Y-92411920D01*
X137389592Y-92441564D01*
X136767000Y-93064156D01*
X136767000Y-91930548D01*
X136779239Y-91907650D01*
X136809374Y-91808310D01*
X136816888Y-91732018D01*
X136844177Y-91698766D01*
X136916327Y-91563784D01*
X136960757Y-91417319D01*
X136972000Y-91303166D01*
X136972000Y-91303157D01*
X136975758Y-91265001D01*
X136972000Y-91226845D01*
X136972000Y-90807111D01*
X137015518Y-90820312D01*
X137140000Y-90832572D01*
X137179250Y-90829500D01*
X137338000Y-90670750D01*
X137338000Y-89559000D01*
X137318000Y-89559000D01*
X137318000Y-89305000D01*
X137338000Y-89305000D01*
X137338000Y-89285000D01*
X137592000Y-89285000D01*
X137592000Y-89305000D01*
%TA.AperFunction,Conductor*%
D37*
G36*
X137592000Y-89305000D02*
G01*
X137612000Y-89305000D01*
X137612000Y-89559000D01*
X137592000Y-89559000D01*
X137592000Y-90670750D01*
X137750750Y-90829500D01*
X137790000Y-90832572D01*
X137914482Y-90820312D01*
X138007000Y-90792247D01*
X138007000Y-91390224D01*
X137989352Y-91407872D01*
X137887904Y-91559701D01*
X137818024Y-91728404D01*
X137782400Y-91907499D01*
X137782400Y-92090101D01*
X137804467Y-92201038D01*
X137667216Y-92242673D01*
X137633380Y-92260759D01*
X137532234Y-92314822D01*
X137443565Y-92387591D01*
X137413920Y-92411920D01*
X137389592Y-92441564D01*
X136767000Y-93064156D01*
X136767000Y-91930548D01*
X136779239Y-91907650D01*
X136809374Y-91808310D01*
X136816888Y-91732018D01*
X136844177Y-91698766D01*
X136916327Y-91563784D01*
X136960757Y-91417319D01*
X136972000Y-91303166D01*
X136972000Y-91303157D01*
X136975758Y-91265001D01*
X136972000Y-91226845D01*
X136972000Y-90807111D01*
X137015518Y-90820312D01*
X137140000Y-90832572D01*
X137179250Y-90829500D01*
X137338000Y-90670750D01*
X137338000Y-89559000D01*
X137318000Y-89559000D01*
X137318000Y-89305000D01*
X137338000Y-89305000D01*
X137338000Y-89285000D01*
X137592000Y-89285000D01*
X137592000Y-89305000D01*
G37*
%TD.AperFunction*%
D36*
X130101829Y-88053095D02*
X130198775Y-88171225D01*
X130316905Y-88268171D01*
X130451679Y-88340209D01*
X130597917Y-88384570D01*
X130749999Y-88399549D01*
X131240706Y-88399549D01*
X131875209Y-89034052D01*
X131685750Y-89035000D01*
X131527000Y-89193750D01*
X131527000Y-90118000D01*
X131547000Y-90118000D01*
X131547000Y-90372000D01*
X131527000Y-90372000D01*
X131527000Y-90392000D01*
X131273000Y-90392000D01*
X131273000Y-90372000D01*
X131253000Y-90372000D01*
X131253000Y-90118000D01*
X131273000Y-90118000D01*
X131273000Y-89193750D01*
X131114250Y-89035000D01*
X130500000Y-89031928D01*
X130375518Y-89044188D01*
X130255820Y-89080498D01*
X130145506Y-89139463D01*
X130101000Y-89175988D01*
X130101000Y-88051544D01*
X130101829Y-88053095D01*
%TA.AperFunction,Conductor*%
D37*
G36*
X130101829Y-88053095D02*
G01*
X130198775Y-88171225D01*
X130316905Y-88268171D01*
X130451679Y-88340209D01*
X130597917Y-88384570D01*
X130749999Y-88399549D01*
X131240706Y-88399549D01*
X131875209Y-89034052D01*
X131685750Y-89035000D01*
X131527000Y-89193750D01*
X131527000Y-90118000D01*
X131547000Y-90118000D01*
X131547000Y-90372000D01*
X131527000Y-90372000D01*
X131527000Y-90392000D01*
X131273000Y-90392000D01*
X131273000Y-90372000D01*
X131253000Y-90372000D01*
X131253000Y-90118000D01*
X131273000Y-90118000D01*
X131273000Y-89193750D01*
X131114250Y-89035000D01*
X130500000Y-89031928D01*
X130375518Y-89044188D01*
X130255820Y-89080498D01*
X130145506Y-89139463D01*
X130101000Y-89175988D01*
X130101000Y-88051544D01*
X130101829Y-88053095D01*
G37*
%TD.AperFunction*%
D36*
X133985000Y-80772000D02*
X133987440Y-80796776D01*
X133994667Y-80820601D01*
X134006403Y-80842557D01*
X134022197Y-80861803D01*
X134041443Y-80877597D01*
X134063399Y-80889333D01*
X134087224Y-80896560D01*
X134112000Y-80899000D01*
X136540157Y-80899000D01*
X138633000Y-82991844D01*
X138633000Y-83491837D01*
X138629241Y-83530000D01*
X138633000Y-83568163D01*
X138633000Y-83568166D01*
X138644244Y-83682319D01*
X138652403Y-83709216D01*
X138688673Y-83828783D01*
X138760823Y-83963766D01*
X138822328Y-84038710D01*
X138857921Y-84082080D01*
X138887565Y-84106408D01*
X140647592Y-85866436D01*
X140671920Y-85896080D01*
X140701564Y-85920408D01*
X140701565Y-85920409D01*
X140790233Y-85993177D01*
X140792417Y-85994344D01*
X140756673Y-86061217D01*
X140754634Y-86067940D01*
X140712243Y-86207681D01*
X140704779Y-86283460D01*
X140593000Y-86272451D01*
X140323000Y-86272451D01*
X140193353Y-86285220D01*
X140068688Y-86323037D01*
X139953796Y-86384448D01*
X139853093Y-86467093D01*
X139770448Y-86567796D01*
X139709037Y-86682688D01*
X139671220Y-86807353D01*
X139658451Y-86937000D01*
X139658451Y-87307000D01*
X139671220Y-87436647D01*
X139681000Y-87468887D01*
X139681000Y-87723578D01*
X138296723Y-86339301D01*
X138278759Y-84974048D01*
X138279239Y-84973150D01*
X138309374Y-84873810D01*
X138319549Y-84770500D01*
X138319549Y-83245500D01*
X138309374Y-83142190D01*
X138279239Y-83042850D01*
X138230304Y-82951298D01*
X138164448Y-82871052D01*
X138084202Y-82805196D01*
X137992650Y-82756261D01*
X137893310Y-82726126D01*
X137790000Y-82715951D01*
X137140000Y-82715951D01*
X137036690Y-82726126D01*
X136937350Y-82756261D01*
X136845798Y-82805196D01*
X136830000Y-82818161D01*
X136814202Y-82805196D01*
X136722650Y-82756261D01*
X136623310Y-82726126D01*
X136520000Y-82715951D01*
X135870000Y-82715951D01*
X135766690Y-82726126D01*
X135667350Y-82756261D01*
X135575798Y-82805196D01*
X135560000Y-82818161D01*
X135544202Y-82805196D01*
X135452650Y-82756261D01*
X135353310Y-82726126D01*
X135250000Y-82715951D01*
X134856118Y-82715951D01*
X134857552Y-82714204D01*
X134918963Y-82599312D01*
X134956780Y-82474647D01*
X134969549Y-82345000D01*
X134969549Y-81975000D01*
X134956780Y-81845353D01*
X134918963Y-81720688D01*
X134857552Y-81605796D01*
X134774907Y-81505093D01*
X134674204Y-81422448D01*
X134559312Y-81361037D01*
X134434647Y-81323220D01*
X134305000Y-81310451D01*
X134035000Y-81310451D01*
X133937000Y-81320103D01*
X133937000Y-79325828D01*
X133941496Y-79319099D01*
X133985000Y-79214072D01*
X133985000Y-80772000D01*
%TA.AperFunction,Conductor*%
D37*
G36*
X133985000Y-80772000D02*
G01*
X133987440Y-80796776D01*
X133994667Y-80820601D01*
X134006403Y-80842557D01*
X134022197Y-80861803D01*
X134041443Y-80877597D01*
X134063399Y-80889333D01*
X134087224Y-80896560D01*
X134112000Y-80899000D01*
X136540157Y-80899000D01*
X138633000Y-82991844D01*
X138633000Y-83491837D01*
X138629241Y-83530000D01*
X138633000Y-83568163D01*
X138633000Y-83568166D01*
X138644244Y-83682319D01*
X138652403Y-83709216D01*
X138688673Y-83828783D01*
X138760823Y-83963766D01*
X138822328Y-84038710D01*
X138857921Y-84082080D01*
X138887565Y-84106408D01*
X140647592Y-85866436D01*
X140671920Y-85896080D01*
X140701564Y-85920408D01*
X140701565Y-85920409D01*
X140790233Y-85993177D01*
X140792417Y-85994344D01*
X140756673Y-86061217D01*
X140754634Y-86067940D01*
X140712243Y-86207681D01*
X140704779Y-86283460D01*
X140593000Y-86272451D01*
X140323000Y-86272451D01*
X140193353Y-86285220D01*
X140068688Y-86323037D01*
X139953796Y-86384448D01*
X139853093Y-86467093D01*
X139770448Y-86567796D01*
X139709037Y-86682688D01*
X139671220Y-86807353D01*
X139658451Y-86937000D01*
X139658451Y-87307000D01*
X139671220Y-87436647D01*
X139681000Y-87468887D01*
X139681000Y-87723578D01*
X138296723Y-86339301D01*
X138278759Y-84974048D01*
X138279239Y-84973150D01*
X138309374Y-84873810D01*
X138319549Y-84770500D01*
X138319549Y-83245500D01*
X138309374Y-83142190D01*
X138279239Y-83042850D01*
X138230304Y-82951298D01*
X138164448Y-82871052D01*
X138084202Y-82805196D01*
X137992650Y-82756261D01*
X137893310Y-82726126D01*
X137790000Y-82715951D01*
X137140000Y-82715951D01*
X137036690Y-82726126D01*
X136937350Y-82756261D01*
X136845798Y-82805196D01*
X136830000Y-82818161D01*
X136814202Y-82805196D01*
X136722650Y-82756261D01*
X136623310Y-82726126D01*
X136520000Y-82715951D01*
X135870000Y-82715951D01*
X135766690Y-82726126D01*
X135667350Y-82756261D01*
X135575798Y-82805196D01*
X135560000Y-82818161D01*
X135544202Y-82805196D01*
X135452650Y-82756261D01*
X135353310Y-82726126D01*
X135250000Y-82715951D01*
X134856118Y-82715951D01*
X134857552Y-82714204D01*
X134918963Y-82599312D01*
X134956780Y-82474647D01*
X134969549Y-82345000D01*
X134969549Y-81975000D01*
X134956780Y-81845353D01*
X134918963Y-81720688D01*
X134857552Y-81605796D01*
X134774907Y-81505093D01*
X134674204Y-81422448D01*
X134559312Y-81361037D01*
X134434647Y-81323220D01*
X134305000Y-81310451D01*
X134035000Y-81310451D01*
X133937000Y-81320103D01*
X133937000Y-79325828D01*
X133941496Y-79319099D01*
X133985000Y-79214072D01*
X133985000Y-80772000D01*
G37*
%TD.AperFunction*%
D36*
X144357000Y-84538501D02*
X144326949Y-84523418D01*
X144206357Y-84490196D01*
X144083750Y-84484000D01*
X143925000Y-84642750D01*
X143925000Y-85246000D01*
X143945000Y-85246000D01*
X143945000Y-85442000D01*
X143925000Y-85442000D01*
X143925000Y-86045250D01*
X144083750Y-86204000D01*
X144206357Y-86197804D01*
X144326949Y-86164582D01*
X144357000Y-86149499D01*
X144357000Y-86372024D01*
X144349952Y-86379072D01*
X144248504Y-86530901D01*
X144178624Y-86699604D01*
X144143000Y-86878699D01*
X144143000Y-87061301D01*
X144178624Y-87240396D01*
X144229409Y-87363000D01*
X142272034Y-87363000D01*
X142277549Y-87307000D01*
X142277549Y-86937000D01*
X142264780Y-86807353D01*
X142255000Y-86775113D01*
X142255000Y-86686085D01*
X142347177Y-86573766D01*
X142418430Y-86440461D01*
X143072618Y-86426973D01*
X143095308Y-86424453D01*
X143119101Y-86417124D01*
X143141008Y-86405294D01*
X143160185Y-86389418D01*
X143175897Y-86370106D01*
X143187539Y-86348099D01*
X143194664Y-86324244D01*
X143229568Y-86144766D01*
X143269051Y-86164582D01*
X143389643Y-86197804D01*
X143512250Y-86204000D01*
X143671000Y-86045250D01*
X143671000Y-85442000D01*
X143651000Y-85442000D01*
X143651000Y-85246000D01*
X143671000Y-85246000D01*
X143671000Y-84642750D01*
X143545989Y-84517739D01*
X143559128Y-84450176D01*
X143561288Y-84432607D01*
X143560154Y-84407736D01*
X143554189Y-84383565D01*
X143543623Y-84361022D01*
X143528862Y-84340973D01*
X143510474Y-84324190D01*
X143489164Y-84311316D01*
X143465753Y-84302847D01*
X143441139Y-84299108D01*
X142721657Y-84261241D01*
X142723757Y-84254319D01*
X142735000Y-84140166D01*
X142735000Y-84140164D01*
X142738759Y-84102000D01*
X142735000Y-84063837D01*
X142735000Y-84037560D01*
X142826690Y-84065374D01*
X142930000Y-84075549D01*
X144130000Y-84075549D01*
X144233310Y-84065374D01*
X144332650Y-84035239D01*
X144357000Y-84022224D01*
X144357000Y-84538501D01*
%TA.AperFunction,Conductor*%
D37*
G36*
X144357000Y-84538501D02*
G01*
X144326949Y-84523418D01*
X144206357Y-84490196D01*
X144083750Y-84484000D01*
X143925000Y-84642750D01*
X143925000Y-85246000D01*
X143945000Y-85246000D01*
X143945000Y-85442000D01*
X143925000Y-85442000D01*
X143925000Y-86045250D01*
X144083750Y-86204000D01*
X144206357Y-86197804D01*
X144326949Y-86164582D01*
X144357000Y-86149499D01*
X144357000Y-86372024D01*
X144349952Y-86379072D01*
X144248504Y-86530901D01*
X144178624Y-86699604D01*
X144143000Y-86878699D01*
X144143000Y-87061301D01*
X144178624Y-87240396D01*
X144229409Y-87363000D01*
X142272034Y-87363000D01*
X142277549Y-87307000D01*
X142277549Y-86937000D01*
X142264780Y-86807353D01*
X142255000Y-86775113D01*
X142255000Y-86686085D01*
X142347177Y-86573766D01*
X142418430Y-86440461D01*
X143072618Y-86426973D01*
X143095308Y-86424453D01*
X143119101Y-86417124D01*
X143141008Y-86405294D01*
X143160185Y-86389418D01*
X143175897Y-86370106D01*
X143187539Y-86348099D01*
X143194664Y-86324244D01*
X143229568Y-86144766D01*
X143269051Y-86164582D01*
X143389643Y-86197804D01*
X143512250Y-86204000D01*
X143671000Y-86045250D01*
X143671000Y-85442000D01*
X143651000Y-85442000D01*
X143651000Y-85246000D01*
X143671000Y-85246000D01*
X143671000Y-84642750D01*
X143545989Y-84517739D01*
X143559128Y-84450176D01*
X143561288Y-84432607D01*
X143560154Y-84407736D01*
X143554189Y-84383565D01*
X143543623Y-84361022D01*
X143528862Y-84340973D01*
X143510474Y-84324190D01*
X143489164Y-84311316D01*
X143465753Y-84302847D01*
X143441139Y-84299108D01*
X142721657Y-84261241D01*
X142723757Y-84254319D01*
X142735000Y-84140166D01*
X142735000Y-84140164D01*
X142738759Y-84102000D01*
X142735000Y-84063837D01*
X142735000Y-84037560D01*
X142826690Y-84065374D01*
X142930000Y-84075549D01*
X144130000Y-84075549D01*
X144233310Y-84065374D01*
X144332650Y-84035239D01*
X144357000Y-84022224D01*
X144357000Y-84538501D01*
G37*
%TD.AperFunction*%
D36*
X133497000Y-57420599D02*
X133497000Y-58913994D01*
X133408995Y-58825989D01*
X133003299Y-58554911D01*
X132552514Y-58368190D01*
X132073963Y-58273000D01*
X131586037Y-58273000D01*
X131107486Y-58368190D01*
X130656701Y-58554911D01*
X130251005Y-58825989D01*
X129905989Y-59171005D01*
X129634911Y-59576701D01*
X129448190Y-60027486D01*
X129353000Y-60506037D01*
X129353000Y-60993963D01*
X129448190Y-61472514D01*
X129634911Y-61923299D01*
X129905989Y-62328995D01*
X130251005Y-62674011D01*
X130656701Y-62945089D01*
X131107486Y-63131810D01*
X131586037Y-63227000D01*
X132073963Y-63227000D01*
X132552514Y-63131810D01*
X133003299Y-62945089D01*
X133408995Y-62674011D01*
X133497001Y-62586005D01*
X133497001Y-63555596D01*
X133493967Y-63586400D01*
X133506073Y-63709313D01*
X133541925Y-63827503D01*
X133600147Y-63936428D01*
X133678499Y-64031901D01*
X133773972Y-64110253D01*
X133882897Y-64168475D01*
X134001087Y-64204327D01*
X134093206Y-64213400D01*
X134124000Y-64216433D01*
X134154794Y-64213400D01*
X136043330Y-64213400D01*
X136039586Y-64214756D01*
X135898696Y-64504371D01*
X135817016Y-64815908D01*
X135797682Y-65137395D01*
X135841439Y-65456475D01*
X135946605Y-65760888D01*
X136039586Y-65934844D01*
X136303987Y-66030608D01*
X137259795Y-65074800D01*
X137619005Y-65074800D01*
X138574813Y-66030608D01*
X138839214Y-65934844D01*
X138980104Y-65645229D01*
X139061784Y-65333692D01*
X139081118Y-65012205D01*
X139037361Y-64693125D01*
X138932195Y-64388712D01*
X138839214Y-64214756D01*
X138574813Y-64118992D01*
X137619005Y-65074800D01*
X137259795Y-65074800D01*
X137245653Y-65060658D01*
X137425258Y-64881053D01*
X137439400Y-64895195D01*
X138395208Y-63939387D01*
X138299444Y-63674986D01*
X138009829Y-63534096D01*
X137698292Y-63452416D01*
X137376805Y-63433082D01*
X137091000Y-63472276D01*
X137091000Y-57421400D01*
X137797277Y-57421400D01*
X137787527Y-57433280D01*
X137659663Y-57672496D01*
X137580925Y-57932062D01*
X137561000Y-58134361D01*
X137561001Y-60569640D01*
X137580926Y-60771939D01*
X137659664Y-61031505D01*
X137787528Y-61270721D01*
X137959604Y-61480397D01*
X138169280Y-61652473D01*
X138408496Y-61780337D01*
X138668062Y-61859075D01*
X138938000Y-61885662D01*
X139207939Y-61859075D01*
X139467505Y-61780337D01*
X139706721Y-61652473D01*
X139916397Y-61480397D01*
X140088473Y-61270721D01*
X140208001Y-61047101D01*
X140327528Y-61270721D01*
X140499604Y-61480397D01*
X140709280Y-61652473D01*
X140948496Y-61780337D01*
X141208062Y-61859075D01*
X141478000Y-61885662D01*
X141747939Y-61859075D01*
X142007505Y-61780337D01*
X142246721Y-61652473D01*
X142456397Y-61480397D01*
X142628473Y-61270721D01*
X142748001Y-61047101D01*
X142867528Y-61270721D01*
X143039604Y-61480397D01*
X143249280Y-61652473D01*
X143341000Y-61701499D01*
X143341000Y-62341577D01*
X140004800Y-65677778D01*
X139978974Y-65698973D01*
X139957779Y-65724799D01*
X139957776Y-65724802D01*
X139894372Y-65802060D01*
X139875682Y-65837027D01*
X139831508Y-65919670D01*
X139792796Y-66047285D01*
X139783000Y-66146748D01*
X139783000Y-66146755D01*
X139779726Y-66180000D01*
X139783000Y-66213245D01*
X139783000Y-66236024D01*
X139739952Y-66279072D01*
X139638504Y-66430901D01*
X139568624Y-66599604D01*
X139533000Y-66778699D01*
X139533000Y-66961301D01*
X139568624Y-67140396D01*
X139638504Y-67309099D01*
X139739952Y-67460928D01*
X139869072Y-67590048D01*
X140020901Y-67691496D01*
X140189604Y-67761376D01*
X140368699Y-67797000D01*
X140551301Y-67797000D01*
X140730396Y-67761376D01*
X140899099Y-67691496D01*
X141050928Y-67590048D01*
X141159571Y-67481405D01*
X141182448Y-67524204D01*
X141187205Y-67530000D01*
X141182448Y-67535796D01*
X141121037Y-67650688D01*
X141083220Y-67775353D01*
X141072950Y-67879628D01*
X140654800Y-68297778D01*
X140628974Y-68318973D01*
X140607779Y-68344799D01*
X140607776Y-68344802D01*
X140544372Y-68422060D01*
X140481508Y-68539671D01*
X140442796Y-68667286D01*
X140429726Y-68800000D01*
X140433001Y-68833254D01*
X140433001Y-69615099D01*
X140421327Y-69576616D01*
X140393738Y-69525001D01*
X140349177Y-69441633D01*
X140276409Y-69352965D01*
X140276408Y-69352964D01*
X140252080Y-69323320D01*
X140222436Y-69298992D01*
X138920317Y-67996874D01*
X138966400Y-67765196D01*
X138966400Y-67464404D01*
X138907719Y-67169390D01*
X138792610Y-66891494D01*
X138625499Y-66641394D01*
X138412806Y-66428701D01*
X138334922Y-66376661D01*
X138395208Y-66210213D01*
X137439400Y-65254405D01*
X136483592Y-66210213D01*
X136543878Y-66376661D01*
X136465994Y-66428701D01*
X136253301Y-66641394D01*
X136086190Y-66891494D01*
X135971081Y-67169390D01*
X135912400Y-67464404D01*
X135912400Y-67765196D01*
X135971081Y-68060210D01*
X136086190Y-68338106D01*
X136253301Y-68588206D01*
X136465994Y-68800899D01*
X136591561Y-68884800D01*
X136465994Y-68968701D01*
X136253301Y-69181394D01*
X136086190Y-69431494D01*
X135971081Y-69709390D01*
X135912400Y-70004404D01*
X135912400Y-70305196D01*
X135958483Y-70536874D01*
X134859565Y-71635792D01*
X134829921Y-71660120D01*
X134805593Y-71689764D01*
X134805591Y-71689766D01*
X134732823Y-71778434D01*
X134660673Y-71913417D01*
X134631766Y-72008712D01*
X134616244Y-72059881D01*
X134615456Y-72067885D01*
X134601241Y-72212200D01*
X134605001Y-72250373D01*
X134605000Y-74313172D01*
X134116700Y-74295087D01*
X134087224Y-74297440D01*
X134063399Y-74304667D01*
X134041443Y-74316403D01*
X134022197Y-74332197D01*
X134006403Y-74351443D01*
X133994667Y-74373399D01*
X133987440Y-74397224D01*
X133985000Y-74422000D01*
X133985000Y-78545928D01*
X133941496Y-78440901D01*
X133840048Y-78289072D01*
X133710928Y-78159952D01*
X133559099Y-78058504D01*
X133390396Y-77988624D01*
X133211301Y-77953000D01*
X133028699Y-77953000D01*
X132849604Y-77988624D01*
X132680901Y-78058504D01*
X132529072Y-78159952D01*
X132399952Y-78289072D01*
X132298504Y-78440901D01*
X132228624Y-78609604D01*
X132193000Y-78788699D01*
X132193000Y-78971301D01*
X132228624Y-79150396D01*
X132298504Y-79319099D01*
X132383000Y-79445558D01*
X132383001Y-81467641D01*
X132310000Y-81460451D01*
X132161430Y-81460451D01*
X132131327Y-81361216D01*
X132059177Y-81226234D01*
X131962080Y-81107920D01*
X131932432Y-81083589D01*
X131616413Y-80767570D01*
X131592080Y-80737920D01*
X131473766Y-80640823D01*
X131338784Y-80568673D01*
X131192319Y-80524243D01*
X131078166Y-80513000D01*
X131078163Y-80513000D01*
X131063536Y-80511559D01*
X130999099Y-80468504D01*
X130830396Y-80398624D01*
X130651301Y-80363000D01*
X130468699Y-80363000D01*
X130289604Y-80398624D01*
X130120901Y-80468504D01*
X129969072Y-80569952D01*
X129839952Y-80699072D01*
X129738504Y-80850901D01*
X129668624Y-81019604D01*
X129633000Y-81198699D01*
X129633000Y-81381301D01*
X129668624Y-81560396D01*
X129738504Y-81729099D01*
X129839952Y-81880928D01*
X129969072Y-82010048D01*
X129980451Y-82017651D01*
X129980451Y-83190000D01*
X129990626Y-83293310D01*
X130020761Y-83392650D01*
X130069696Y-83484202D01*
X130135552Y-83564448D01*
X130215798Y-83630304D01*
X130307350Y-83679239D01*
X130406690Y-83709374D01*
X130510000Y-83719549D01*
X132310000Y-83719549D01*
X132413310Y-83709374D01*
X132512650Y-83679239D01*
X132604202Y-83630304D01*
X132684448Y-83564448D01*
X132750304Y-83484202D01*
X132799239Y-83392650D01*
X132800451Y-83388655D01*
X132800451Y-84691345D01*
X132799239Y-84687350D01*
X132750304Y-84595798D01*
X132684448Y-84515552D01*
X132604202Y-84449696D01*
X132512650Y-84400761D01*
X132413310Y-84370626D01*
X132310000Y-84360451D01*
X130510000Y-84360451D01*
X130406690Y-84370626D01*
X130307350Y-84400761D01*
X130215798Y-84449696D01*
X130135552Y-84515552D01*
X130101000Y-84557654D01*
X130101000Y-84067193D01*
X130104033Y-84036400D01*
X130091927Y-83913487D01*
X130056075Y-83795297D01*
X129997853Y-83686372D01*
X129919501Y-83590899D01*
X129824028Y-83512547D01*
X129715103Y-83454325D01*
X129596913Y-83418473D01*
X129474000Y-83406367D01*
X129443206Y-83409400D01*
X128490600Y-83409400D01*
X128490600Y-76520445D01*
X128628411Y-76633543D01*
X128980548Y-76821764D01*
X129362639Y-76937670D01*
X129660429Y-76967000D01*
X131859571Y-76967000D01*
X132157361Y-76937670D01*
X132539452Y-76821764D01*
X132891589Y-76633543D01*
X133200240Y-76380240D01*
X133453543Y-76071589D01*
X133641764Y-75719452D01*
X133757670Y-75337361D01*
X133796807Y-74940000D01*
X133757670Y-74542639D01*
X133641764Y-74160548D01*
X133453543Y-73808411D01*
X133200240Y-73499760D01*
X132891589Y-73246457D01*
X132539452Y-73058236D01*
X132157361Y-72942330D01*
X131859571Y-72913000D01*
X129660429Y-72913000D01*
X129362639Y-72942330D01*
X128980548Y-73058236D01*
X128628411Y-73246457D01*
X128490600Y-73359555D01*
X128490600Y-66734708D01*
X128519760Y-66770240D01*
X128828411Y-67023543D01*
X129180548Y-67211764D01*
X129562639Y-67327670D01*
X129860429Y-67357000D01*
X132059571Y-67357000D01*
X132357361Y-67327670D01*
X132739452Y-67211764D01*
X133091589Y-67023543D01*
X133400240Y-66770240D01*
X133653543Y-66461589D01*
X133841764Y-66109452D01*
X133957670Y-65727361D01*
X133996807Y-65330000D01*
X133957670Y-64932639D01*
X133841764Y-64550548D01*
X133653543Y-64198411D01*
X133400240Y-63889760D01*
X133091589Y-63636457D01*
X132739452Y-63448236D01*
X132357361Y-63332330D01*
X132059571Y-63303000D01*
X129860429Y-63303000D01*
X129562639Y-63332330D01*
X129180548Y-63448236D01*
X128828411Y-63636457D01*
X128519760Y-63889760D01*
X128490600Y-63925292D01*
X128490600Y-57414202D01*
X133497000Y-57420599D01*
%TA.AperFunction,Conductor*%
D37*
G36*
X133497000Y-57420599D02*
G01*
X133497000Y-58913994D01*
X133408995Y-58825989D01*
X133003299Y-58554911D01*
X132552514Y-58368190D01*
X132073963Y-58273000D01*
X131586037Y-58273000D01*
X131107486Y-58368190D01*
X130656701Y-58554911D01*
X130251005Y-58825989D01*
X129905989Y-59171005D01*
X129634911Y-59576701D01*
X129448190Y-60027486D01*
X129353000Y-60506037D01*
X129353000Y-60993963D01*
X129448190Y-61472514D01*
X129634911Y-61923299D01*
X129905989Y-62328995D01*
X130251005Y-62674011D01*
X130656701Y-62945089D01*
X131107486Y-63131810D01*
X131586037Y-63227000D01*
X132073963Y-63227000D01*
X132552514Y-63131810D01*
X133003299Y-62945089D01*
X133408995Y-62674011D01*
X133497001Y-62586005D01*
X133497001Y-63555596D01*
X133493967Y-63586400D01*
X133506073Y-63709313D01*
X133541925Y-63827503D01*
X133600147Y-63936428D01*
X133678499Y-64031901D01*
X133773972Y-64110253D01*
X133882897Y-64168475D01*
X134001087Y-64204327D01*
X134093206Y-64213400D01*
X134124000Y-64216433D01*
X134154794Y-64213400D01*
X136043330Y-64213400D01*
X136039586Y-64214756D01*
X135898696Y-64504371D01*
X135817016Y-64815908D01*
X135797682Y-65137395D01*
X135841439Y-65456475D01*
X135946605Y-65760888D01*
X136039586Y-65934844D01*
X136303987Y-66030608D01*
X137259795Y-65074800D01*
X137619005Y-65074800D01*
X138574813Y-66030608D01*
X138839214Y-65934844D01*
X138980104Y-65645229D01*
X139061784Y-65333692D01*
X139081118Y-65012205D01*
X139037361Y-64693125D01*
X138932195Y-64388712D01*
X138839214Y-64214756D01*
X138574813Y-64118992D01*
X137619005Y-65074800D01*
X137259795Y-65074800D01*
X137245653Y-65060658D01*
X137425258Y-64881053D01*
X137439400Y-64895195D01*
X138395208Y-63939387D01*
X138299444Y-63674986D01*
X138009829Y-63534096D01*
X137698292Y-63452416D01*
X137376805Y-63433082D01*
X137091000Y-63472276D01*
X137091000Y-57421400D01*
X137797277Y-57421400D01*
X137787527Y-57433280D01*
X137659663Y-57672496D01*
X137580925Y-57932062D01*
X137561000Y-58134361D01*
X137561001Y-60569640D01*
X137580926Y-60771939D01*
X137659664Y-61031505D01*
X137787528Y-61270721D01*
X137959604Y-61480397D01*
X138169280Y-61652473D01*
X138408496Y-61780337D01*
X138668062Y-61859075D01*
X138938000Y-61885662D01*
X139207939Y-61859075D01*
X139467505Y-61780337D01*
X139706721Y-61652473D01*
X139916397Y-61480397D01*
X140088473Y-61270721D01*
X140208001Y-61047101D01*
X140327528Y-61270721D01*
X140499604Y-61480397D01*
X140709280Y-61652473D01*
X140948496Y-61780337D01*
X141208062Y-61859075D01*
X141478000Y-61885662D01*
X141747939Y-61859075D01*
X142007505Y-61780337D01*
X142246721Y-61652473D01*
X142456397Y-61480397D01*
X142628473Y-61270721D01*
X142748001Y-61047101D01*
X142867528Y-61270721D01*
X143039604Y-61480397D01*
X143249280Y-61652473D01*
X143341000Y-61701499D01*
X143341000Y-62341577D01*
X140004800Y-65677778D01*
X139978974Y-65698973D01*
X139957779Y-65724799D01*
X139957776Y-65724802D01*
X139894372Y-65802060D01*
X139875682Y-65837027D01*
X139831508Y-65919670D01*
X139792796Y-66047285D01*
X139783000Y-66146748D01*
X139783000Y-66146755D01*
X139779726Y-66180000D01*
X139783000Y-66213245D01*
X139783000Y-66236024D01*
X139739952Y-66279072D01*
X139638504Y-66430901D01*
X139568624Y-66599604D01*
X139533000Y-66778699D01*
X139533000Y-66961301D01*
X139568624Y-67140396D01*
X139638504Y-67309099D01*
X139739952Y-67460928D01*
X139869072Y-67590048D01*
X140020901Y-67691496D01*
X140189604Y-67761376D01*
X140368699Y-67797000D01*
X140551301Y-67797000D01*
X140730396Y-67761376D01*
X140899099Y-67691496D01*
X141050928Y-67590048D01*
X141159571Y-67481405D01*
X141182448Y-67524204D01*
X141187205Y-67530000D01*
X141182448Y-67535796D01*
X141121037Y-67650688D01*
X141083220Y-67775353D01*
X141072950Y-67879628D01*
X140654800Y-68297778D01*
X140628974Y-68318973D01*
X140607779Y-68344799D01*
X140607776Y-68344802D01*
X140544372Y-68422060D01*
X140481508Y-68539671D01*
X140442796Y-68667286D01*
X140429726Y-68800000D01*
X140433001Y-68833254D01*
X140433001Y-69615099D01*
X140421327Y-69576616D01*
X140393738Y-69525001D01*
X140349177Y-69441633D01*
X140276409Y-69352965D01*
X140276408Y-69352964D01*
X140252080Y-69323320D01*
X140222436Y-69298992D01*
X138920317Y-67996874D01*
X138966400Y-67765196D01*
X138966400Y-67464404D01*
X138907719Y-67169390D01*
X138792610Y-66891494D01*
X138625499Y-66641394D01*
X138412806Y-66428701D01*
X138334922Y-66376661D01*
X138395208Y-66210213D01*
X137439400Y-65254405D01*
X136483592Y-66210213D01*
X136543878Y-66376661D01*
X136465994Y-66428701D01*
X136253301Y-66641394D01*
X136086190Y-66891494D01*
X135971081Y-67169390D01*
X135912400Y-67464404D01*
X135912400Y-67765196D01*
X135971081Y-68060210D01*
X136086190Y-68338106D01*
X136253301Y-68588206D01*
X136465994Y-68800899D01*
X136591561Y-68884800D01*
X136465994Y-68968701D01*
X136253301Y-69181394D01*
X136086190Y-69431494D01*
X135971081Y-69709390D01*
X135912400Y-70004404D01*
X135912400Y-70305196D01*
X135958483Y-70536874D01*
X134859565Y-71635792D01*
X134829921Y-71660120D01*
X134805593Y-71689764D01*
X134805591Y-71689766D01*
X134732823Y-71778434D01*
X134660673Y-71913417D01*
X134631766Y-72008712D01*
X134616244Y-72059881D01*
X134615456Y-72067885D01*
X134601241Y-72212200D01*
X134605001Y-72250373D01*
X134605000Y-74313172D01*
X134116700Y-74295087D01*
X134087224Y-74297440D01*
X134063399Y-74304667D01*
X134041443Y-74316403D01*
X134022197Y-74332197D01*
X134006403Y-74351443D01*
X133994667Y-74373399D01*
X133987440Y-74397224D01*
X133985000Y-74422000D01*
X133985000Y-78545928D01*
X133941496Y-78440901D01*
X133840048Y-78289072D01*
X133710928Y-78159952D01*
X133559099Y-78058504D01*
X133390396Y-77988624D01*
X133211301Y-77953000D01*
X133028699Y-77953000D01*
X132849604Y-77988624D01*
X132680901Y-78058504D01*
X132529072Y-78159952D01*
X132399952Y-78289072D01*
X132298504Y-78440901D01*
X132228624Y-78609604D01*
X132193000Y-78788699D01*
X132193000Y-78971301D01*
X132228624Y-79150396D01*
X132298504Y-79319099D01*
X132383000Y-79445558D01*
X132383001Y-81467641D01*
X132310000Y-81460451D01*
X132161430Y-81460451D01*
X132131327Y-81361216D01*
X132059177Y-81226234D01*
X131962080Y-81107920D01*
X131932432Y-81083589D01*
X131616413Y-80767570D01*
X131592080Y-80737920D01*
X131473766Y-80640823D01*
X131338784Y-80568673D01*
X131192319Y-80524243D01*
X131078166Y-80513000D01*
X131078163Y-80513000D01*
X131063536Y-80511559D01*
X130999099Y-80468504D01*
X130830396Y-80398624D01*
X130651301Y-80363000D01*
X130468699Y-80363000D01*
X130289604Y-80398624D01*
X130120901Y-80468504D01*
X129969072Y-80569952D01*
X129839952Y-80699072D01*
X129738504Y-80850901D01*
X129668624Y-81019604D01*
X129633000Y-81198699D01*
X129633000Y-81381301D01*
X129668624Y-81560396D01*
X129738504Y-81729099D01*
X129839952Y-81880928D01*
X129969072Y-82010048D01*
X129980451Y-82017651D01*
X129980451Y-83190000D01*
X129990626Y-83293310D01*
X130020761Y-83392650D01*
X130069696Y-83484202D01*
X130135552Y-83564448D01*
X130215798Y-83630304D01*
X130307350Y-83679239D01*
X130406690Y-83709374D01*
X130510000Y-83719549D01*
X132310000Y-83719549D01*
X132413310Y-83709374D01*
X132512650Y-83679239D01*
X132604202Y-83630304D01*
X132684448Y-83564448D01*
X132750304Y-83484202D01*
X132799239Y-83392650D01*
X132800451Y-83388655D01*
X132800451Y-84691345D01*
X132799239Y-84687350D01*
X132750304Y-84595798D01*
X132684448Y-84515552D01*
X132604202Y-84449696D01*
X132512650Y-84400761D01*
X132413310Y-84370626D01*
X132310000Y-84360451D01*
X130510000Y-84360451D01*
X130406690Y-84370626D01*
X130307350Y-84400761D01*
X130215798Y-84449696D01*
X130135552Y-84515552D01*
X130101000Y-84557654D01*
X130101000Y-84067193D01*
X130104033Y-84036400D01*
X130091927Y-83913487D01*
X130056075Y-83795297D01*
X129997853Y-83686372D01*
X129919501Y-83590899D01*
X129824028Y-83512547D01*
X129715103Y-83454325D01*
X129596913Y-83418473D01*
X129474000Y-83406367D01*
X129443206Y-83409400D01*
X128490600Y-83409400D01*
X128490600Y-76520445D01*
X128628411Y-76633543D01*
X128980548Y-76821764D01*
X129362639Y-76937670D01*
X129660429Y-76967000D01*
X131859571Y-76967000D01*
X132157361Y-76937670D01*
X132539452Y-76821764D01*
X132891589Y-76633543D01*
X133200240Y-76380240D01*
X133453543Y-76071589D01*
X133641764Y-75719452D01*
X133757670Y-75337361D01*
X133796807Y-74940000D01*
X133757670Y-74542639D01*
X133641764Y-74160548D01*
X133453543Y-73808411D01*
X133200240Y-73499760D01*
X132891589Y-73246457D01*
X132539452Y-73058236D01*
X132157361Y-72942330D01*
X131859571Y-72913000D01*
X129660429Y-72913000D01*
X129362639Y-72942330D01*
X128980548Y-73058236D01*
X128628411Y-73246457D01*
X128490600Y-73359555D01*
X128490600Y-66734708D01*
X128519760Y-66770240D01*
X128828411Y-67023543D01*
X129180548Y-67211764D01*
X129562639Y-67327670D01*
X129860429Y-67357000D01*
X132059571Y-67357000D01*
X132357361Y-67327670D01*
X132739452Y-67211764D01*
X133091589Y-67023543D01*
X133400240Y-66770240D01*
X133653543Y-66461589D01*
X133841764Y-66109452D01*
X133957670Y-65727361D01*
X133996807Y-65330000D01*
X133957670Y-64932639D01*
X133841764Y-64550548D01*
X133653543Y-64198411D01*
X133400240Y-63889760D01*
X133091589Y-63636457D01*
X132739452Y-63448236D01*
X132357361Y-63332330D01*
X132059571Y-63303000D01*
X129860429Y-63303000D01*
X129562639Y-63332330D01*
X129180548Y-63448236D01*
X128828411Y-63636457D01*
X128519760Y-63889760D01*
X128490600Y-63925292D01*
X128490600Y-57414202D01*
X133497000Y-57420599D01*
G37*
%TD.AperFunction*%
D36*
X140079935Y-80972923D02*
X140083000Y-80994250D01*
X140241750Y-81153000D01*
X140871000Y-81153000D01*
X140871000Y-81133000D01*
X141125000Y-81133000D01*
X141125000Y-81153000D01*
X141145000Y-81153000D01*
X141145000Y-81407000D01*
X141125000Y-81407000D01*
X141125000Y-82066250D01*
X141283750Y-82225000D01*
X141405348Y-82215235D01*
X141524878Y-82178377D01*
X141634921Y-82118908D01*
X141659782Y-82098313D01*
X141687377Y-82106684D01*
X141818000Y-82119549D01*
X141950795Y-82119549D01*
X141985834Y-82123000D01*
X141985844Y-82123000D01*
X142023999Y-82126758D01*
X142062155Y-82123000D01*
X142407750Y-82123000D01*
X142453750Y-82169000D01*
X142863506Y-82169000D01*
X142930000Y-82175549D01*
X143677000Y-82175549D01*
X143677000Y-82416451D01*
X142930000Y-82416451D01*
X142863506Y-82423000D01*
X142453750Y-82423000D01*
X142407750Y-82469000D01*
X142062155Y-82469000D01*
X142023999Y-82465242D01*
X141985844Y-82469000D01*
X141985834Y-82469000D01*
X141950795Y-82472451D01*
X141818000Y-82472451D01*
X141687377Y-82485316D01*
X141659782Y-82493687D01*
X141634921Y-82473092D01*
X141524878Y-82413623D01*
X141405348Y-82376765D01*
X141283750Y-82367000D01*
X141125000Y-82525750D01*
X141125000Y-83185000D01*
X141145000Y-83185000D01*
X141145000Y-83439000D01*
X141125000Y-83439000D01*
X141125000Y-83459000D01*
X140871000Y-83459000D01*
X140871000Y-83439000D01*
X140851000Y-83439000D01*
X140851000Y-83185000D01*
X140871000Y-83185000D01*
X140871000Y-82525750D01*
X140712250Y-82367000D01*
X140590652Y-82376765D01*
X140471122Y-82413623D01*
X140361079Y-82473092D01*
X140264753Y-82552887D01*
X140188465Y-82646717D01*
X140187000Y-82631843D01*
X140187000Y-82631834D01*
X140175757Y-82517681D01*
X140131327Y-82371216D01*
X140097204Y-82307377D01*
X140059177Y-82236233D01*
X139986409Y-82147565D01*
X139986408Y-82147564D01*
X139962080Y-82117920D01*
X139932437Y-82093593D01*
X139425921Y-81587077D01*
X140079935Y-81587077D01*
X140091625Y-81711613D01*
X140127386Y-81831476D01*
X140185844Y-81942059D01*
X140264753Y-82039113D01*
X140361079Y-82118908D01*
X140471122Y-82178377D01*
X140590652Y-82215235D01*
X140712250Y-82225000D01*
X140871000Y-82066250D01*
X140871000Y-81407000D01*
X140241750Y-81407000D01*
X140083000Y-81565750D01*
X140079935Y-81587077D01*
X139425921Y-81587077D01*
X138737844Y-80899000D01*
X140086874Y-80899000D01*
X140079935Y-80972923D01*
%TA.AperFunction,Conductor*%
D37*
G36*
X140079935Y-80972923D02*
G01*
X140083000Y-80994250D01*
X140241750Y-81153000D01*
X140871000Y-81153000D01*
X140871000Y-81133000D01*
X141125000Y-81133000D01*
X141125000Y-81153000D01*
X141145000Y-81153000D01*
X141145000Y-81407000D01*
X141125000Y-81407000D01*
X141125000Y-82066250D01*
X141283750Y-82225000D01*
X141405348Y-82215235D01*
X141524878Y-82178377D01*
X141634921Y-82118908D01*
X141659782Y-82098313D01*
X141687377Y-82106684D01*
X141818000Y-82119549D01*
X141950795Y-82119549D01*
X141985834Y-82123000D01*
X141985844Y-82123000D01*
X142023999Y-82126758D01*
X142062155Y-82123000D01*
X142407750Y-82123000D01*
X142453750Y-82169000D01*
X142863506Y-82169000D01*
X142930000Y-82175549D01*
X143677000Y-82175549D01*
X143677000Y-82416451D01*
X142930000Y-82416451D01*
X142863506Y-82423000D01*
X142453750Y-82423000D01*
X142407750Y-82469000D01*
X142062155Y-82469000D01*
X142023999Y-82465242D01*
X141985844Y-82469000D01*
X141985834Y-82469000D01*
X141950795Y-82472451D01*
X141818000Y-82472451D01*
X141687377Y-82485316D01*
X141659782Y-82493687D01*
X141634921Y-82473092D01*
X141524878Y-82413623D01*
X141405348Y-82376765D01*
X141283750Y-82367000D01*
X141125000Y-82525750D01*
X141125000Y-83185000D01*
X141145000Y-83185000D01*
X141145000Y-83439000D01*
X141125000Y-83439000D01*
X141125000Y-83459000D01*
X140871000Y-83459000D01*
X140871000Y-83439000D01*
X140851000Y-83439000D01*
X140851000Y-83185000D01*
X140871000Y-83185000D01*
X140871000Y-82525750D01*
X140712250Y-82367000D01*
X140590652Y-82376765D01*
X140471122Y-82413623D01*
X140361079Y-82473092D01*
X140264753Y-82552887D01*
X140188465Y-82646717D01*
X140187000Y-82631843D01*
X140187000Y-82631834D01*
X140175757Y-82517681D01*
X140131327Y-82371216D01*
X140097204Y-82307377D01*
X140059177Y-82236233D01*
X139986409Y-82147565D01*
X139986408Y-82147564D01*
X139962080Y-82117920D01*
X139932437Y-82093593D01*
X139425921Y-81587077D01*
X140079935Y-81587077D01*
X140091625Y-81711613D01*
X140127386Y-81831476D01*
X140185844Y-81942059D01*
X140264753Y-82039113D01*
X140361079Y-82118908D01*
X140471122Y-82178377D01*
X140590652Y-82215235D01*
X140712250Y-82225000D01*
X140871000Y-82066250D01*
X140871000Y-81407000D01*
X140241750Y-81407000D01*
X140083000Y-81565750D01*
X140079935Y-81587077D01*
X139425921Y-81587077D01*
X138737844Y-80899000D01*
X140086874Y-80899000D01*
X140079935Y-80972923D01*
G37*
%TD.AperFunction*%
D36*
X144357001Y-78738185D02*
X144340742Y-78725527D01*
X144228949Y-78669418D01*
X144108357Y-78636196D01*
X143985750Y-78630000D01*
X143827000Y-78788750D01*
X143827000Y-79392000D01*
X143847000Y-79392000D01*
X143847000Y-79588000D01*
X143827000Y-79588000D01*
X143827000Y-80191250D01*
X143985750Y-80350000D01*
X144108357Y-80343804D01*
X144228949Y-80310582D01*
X144340742Y-80254473D01*
X144357001Y-80241815D01*
X144357001Y-80569776D01*
X144332650Y-80556761D01*
X144233310Y-80526626D01*
X144130000Y-80516451D01*
X143300319Y-80516451D01*
X143308865Y-80344674D01*
X143414250Y-80350000D01*
X143573000Y-80191250D01*
X143573000Y-79588000D01*
X143553000Y-79588000D01*
X143553000Y-79392000D01*
X143573000Y-79392000D01*
X143573000Y-78788750D01*
X143414250Y-78630000D01*
X143394121Y-78631017D01*
X143396843Y-78576311D01*
X143396060Y-78554579D01*
X143390630Y-78530283D01*
X143380563Y-78507512D01*
X143366248Y-78487143D01*
X143348234Y-78469958D01*
X143327214Y-78456617D01*
X143303994Y-78447634D01*
X143279469Y-78443353D01*
X143079705Y-78428417D01*
X143144907Y-78374907D01*
X143227552Y-78274204D01*
X143288963Y-78159312D01*
X143326780Y-78034647D01*
X143331651Y-77985192D01*
X143701842Y-77615001D01*
X143780396Y-77599376D01*
X143949099Y-77529496D01*
X144100928Y-77428048D01*
X144230048Y-77298928D01*
X144331496Y-77147099D01*
X144357001Y-77085526D01*
X144357001Y-78738185D01*
%TA.AperFunction,Conductor*%
D37*
G36*
X144357001Y-78738185D02*
G01*
X144340742Y-78725527D01*
X144228949Y-78669418D01*
X144108357Y-78636196D01*
X143985750Y-78630000D01*
X143827000Y-78788750D01*
X143827000Y-79392000D01*
X143847000Y-79392000D01*
X143847000Y-79588000D01*
X143827000Y-79588000D01*
X143827000Y-80191250D01*
X143985750Y-80350000D01*
X144108357Y-80343804D01*
X144228949Y-80310582D01*
X144340742Y-80254473D01*
X144357001Y-80241815D01*
X144357001Y-80569776D01*
X144332650Y-80556761D01*
X144233310Y-80526626D01*
X144130000Y-80516451D01*
X143300319Y-80516451D01*
X143308865Y-80344674D01*
X143414250Y-80350000D01*
X143573000Y-80191250D01*
X143573000Y-79588000D01*
X143553000Y-79588000D01*
X143553000Y-79392000D01*
X143573000Y-79392000D01*
X143573000Y-78788750D01*
X143414250Y-78630000D01*
X143394121Y-78631017D01*
X143396843Y-78576311D01*
X143396060Y-78554579D01*
X143390630Y-78530283D01*
X143380563Y-78507512D01*
X143366248Y-78487143D01*
X143348234Y-78469958D01*
X143327214Y-78456617D01*
X143303994Y-78447634D01*
X143279469Y-78443353D01*
X143079705Y-78428417D01*
X143144907Y-78374907D01*
X143227552Y-78274204D01*
X143288963Y-78159312D01*
X143326780Y-78034647D01*
X143331651Y-77985192D01*
X143701842Y-77615001D01*
X143780396Y-77599376D01*
X143949099Y-77529496D01*
X144100928Y-77428048D01*
X144230048Y-77298928D01*
X144331496Y-77147099D01*
X144357001Y-77085526D01*
X144357001Y-78738185D01*
G37*
%TD.AperFunction*%
D36*
X138923001Y-71991510D02*
X138839214Y-71834756D01*
X138574813Y-71738992D01*
X137619005Y-72694800D01*
X138574813Y-73650608D01*
X138839214Y-73554844D01*
X138923000Y-73382612D01*
X138923000Y-74473098D01*
X136159000Y-74370728D01*
X136159000Y-73830213D01*
X136483592Y-73830213D01*
X136579356Y-74094614D01*
X136868971Y-74235504D01*
X137180508Y-74317184D01*
X137501995Y-74336518D01*
X137821075Y-74292761D01*
X138125488Y-74187595D01*
X138299444Y-74094614D01*
X138395208Y-73830213D01*
X137439400Y-72874405D01*
X136483592Y-73830213D01*
X136159000Y-73830213D01*
X136159000Y-73598095D01*
X136303987Y-73650608D01*
X137259795Y-72694800D01*
X137245653Y-72680658D01*
X137425258Y-72501053D01*
X137439400Y-72515195D01*
X138395208Y-71559387D01*
X138334922Y-71392939D01*
X138412806Y-71340899D01*
X138625499Y-71128206D01*
X138792610Y-70878106D01*
X138907719Y-70600210D01*
X138923001Y-70523382D01*
X138923001Y-71991510D01*
%TA.AperFunction,Conductor*%
D37*
G36*
X138923001Y-71991510D02*
G01*
X138839214Y-71834756D01*
X138574813Y-71738992D01*
X137619005Y-72694800D01*
X138574813Y-73650608D01*
X138839214Y-73554844D01*
X138923000Y-73382612D01*
X138923000Y-74473098D01*
X136159000Y-74370728D01*
X136159000Y-73830213D01*
X136483592Y-73830213D01*
X136579356Y-74094614D01*
X136868971Y-74235504D01*
X137180508Y-74317184D01*
X137501995Y-74336518D01*
X137821075Y-74292761D01*
X138125488Y-74187595D01*
X138299444Y-74094614D01*
X138395208Y-73830213D01*
X137439400Y-72874405D01*
X136483592Y-73830213D01*
X136159000Y-73830213D01*
X136159000Y-73598095D01*
X136303987Y-73650608D01*
X137259795Y-72694800D01*
X137245653Y-72680658D01*
X137425258Y-72501053D01*
X137439400Y-72515195D01*
X138395208Y-71559387D01*
X138334922Y-71392939D01*
X138412806Y-71340899D01*
X138625499Y-71128206D01*
X138792610Y-70878106D01*
X138907719Y-70600210D01*
X138923001Y-70523382D01*
X138923001Y-71991510D01*
G37*
%TD.AperFunction*%
D36*
X153449401Y-63545396D02*
X153446367Y-63576200D01*
X153455876Y-63672749D01*
X153210796Y-63624000D01*
X152910004Y-63624000D01*
X152614990Y-63682681D01*
X152337094Y-63797790D01*
X152086994Y-63964901D01*
X151874301Y-64177594D01*
X151707190Y-64427694D01*
X151592081Y-64705590D01*
X151533400Y-65000604D01*
X151533400Y-65301396D01*
X151579483Y-65533074D01*
X150904557Y-66208000D01*
X150351820Y-66208000D01*
X150282150Y-66170761D01*
X150182810Y-66140626D01*
X150079500Y-66130451D01*
X148484500Y-66130451D01*
X148381190Y-66140626D01*
X148281850Y-66170761D01*
X148251000Y-66187250D01*
X148251000Y-65636422D01*
X149553200Y-64334222D01*
X149579026Y-64313027D01*
X149663628Y-64209941D01*
X149726492Y-64092330D01*
X149765204Y-63964715D01*
X149775000Y-63865252D01*
X149775000Y-63865243D01*
X149778274Y-63832001D01*
X149775000Y-63798759D01*
X149775000Y-61701499D01*
X149866721Y-61652473D01*
X150076397Y-61480397D01*
X150248473Y-61270721D01*
X150305341Y-61164328D01*
X150314639Y-61187618D01*
X150473824Y-61432619D01*
X150677748Y-61641857D01*
X150918574Y-61807291D01*
X151187047Y-61922563D01*
X151281110Y-61943476D01*
X151511000Y-61822155D01*
X151511000Y-59479000D01*
X151765000Y-59479000D01*
X151765000Y-61822155D01*
X151994890Y-61943476D01*
X152088953Y-61922563D01*
X152357426Y-61807291D01*
X152598252Y-61641857D01*
X152802176Y-61432619D01*
X152961361Y-61187618D01*
X153069690Y-60916269D01*
X153123000Y-60629000D01*
X153123000Y-59479000D01*
X151765000Y-59479000D01*
X151511000Y-59479000D01*
X151491000Y-59479000D01*
X151491000Y-59225000D01*
X151511000Y-59225000D01*
X151511000Y-59205000D01*
X151765000Y-59205000D01*
X151765000Y-59225000D01*
X153123000Y-59225000D01*
X153123000Y-58075000D01*
X153069690Y-57787731D01*
X152961361Y-57516382D01*
X152899648Y-57421400D01*
X153449400Y-57421400D01*
X153449401Y-63545396D01*
%TA.AperFunction,Conductor*%
D37*
G36*
X153449401Y-63545396D02*
G01*
X153446367Y-63576200D01*
X153455876Y-63672749D01*
X153210796Y-63624000D01*
X152910004Y-63624000D01*
X152614990Y-63682681D01*
X152337094Y-63797790D01*
X152086994Y-63964901D01*
X151874301Y-64177594D01*
X151707190Y-64427694D01*
X151592081Y-64705590D01*
X151533400Y-65000604D01*
X151533400Y-65301396D01*
X151579483Y-65533074D01*
X150904557Y-66208000D01*
X150351820Y-66208000D01*
X150282150Y-66170761D01*
X150182810Y-66140626D01*
X150079500Y-66130451D01*
X148484500Y-66130451D01*
X148381190Y-66140626D01*
X148281850Y-66170761D01*
X148251000Y-66187250D01*
X148251000Y-65636422D01*
X149553200Y-64334222D01*
X149579026Y-64313027D01*
X149663628Y-64209941D01*
X149726492Y-64092330D01*
X149765204Y-63964715D01*
X149775000Y-63865252D01*
X149775000Y-63865243D01*
X149778274Y-63832001D01*
X149775000Y-63798759D01*
X149775000Y-61701499D01*
X149866721Y-61652473D01*
X150076397Y-61480397D01*
X150248473Y-61270721D01*
X150305341Y-61164328D01*
X150314639Y-61187618D01*
X150473824Y-61432619D01*
X150677748Y-61641857D01*
X150918574Y-61807291D01*
X151187047Y-61922563D01*
X151281110Y-61943476D01*
X151511000Y-61822155D01*
X151511000Y-59479000D01*
X151765000Y-59479000D01*
X151765000Y-61822155D01*
X151994890Y-61943476D01*
X152088953Y-61922563D01*
X152357426Y-61807291D01*
X152598252Y-61641857D01*
X152802176Y-61432619D01*
X152961361Y-61187618D01*
X153069690Y-60916269D01*
X153123000Y-60629000D01*
X153123000Y-59479000D01*
X151765000Y-59479000D01*
X151511000Y-59479000D01*
X151491000Y-59479000D01*
X151491000Y-59225000D01*
X151511000Y-59225000D01*
X151511000Y-59205000D01*
X151765000Y-59205000D01*
X151765000Y-59225000D01*
X153123000Y-59225000D01*
X153123000Y-58075000D01*
X153069690Y-57787731D01*
X152961361Y-57516382D01*
X152899648Y-57421400D01*
X153449400Y-57421400D01*
X153449401Y-63545396D01*
G37*
%TD.AperFunction*%
D36*
X147947528Y-61270721D02*
X148119604Y-61480397D01*
X148329280Y-61652473D01*
X148421001Y-61701499D01*
X148421000Y-63551578D01*
X147243651Y-64728927D01*
X147179112Y-64709350D01*
X147094336Y-64701000D01*
X147066000Y-64698209D01*
X147037664Y-64701000D01*
X145824336Y-64701000D01*
X145796000Y-64698209D01*
X145767664Y-64701000D01*
X145682888Y-64709350D01*
X145574124Y-64742343D01*
X145473885Y-64795921D01*
X145386026Y-64868026D01*
X145313921Y-64955885D01*
X145260343Y-65056124D01*
X145234421Y-65141578D01*
X144671001Y-64578158D01*
X144655376Y-64499604D01*
X144585496Y-64330901D01*
X144484048Y-64179072D01*
X144354928Y-64049952D01*
X144203099Y-63948504D01*
X144034396Y-63878624D01*
X143855301Y-63843000D01*
X143754423Y-63843000D01*
X144473206Y-63124217D01*
X144499026Y-63103027D01*
X144520218Y-63077205D01*
X144520224Y-63077199D01*
X144583628Y-62999941D01*
X144646492Y-62882330D01*
X144685204Y-62754715D01*
X144698275Y-62622000D01*
X144695000Y-62588748D01*
X144695000Y-61701499D01*
X144786721Y-61652473D01*
X144996397Y-61480397D01*
X145168473Y-61270721D01*
X145288001Y-61047101D01*
X145407528Y-61270721D01*
X145579604Y-61480397D01*
X145789280Y-61652473D01*
X146028496Y-61780337D01*
X146288062Y-61859075D01*
X146558000Y-61885662D01*
X146827939Y-61859075D01*
X147087505Y-61780337D01*
X147326721Y-61652473D01*
X147536397Y-61480397D01*
X147708473Y-61270721D01*
X147828001Y-61047101D01*
X147947528Y-61270721D01*
%TA.AperFunction,Conductor*%
D37*
G36*
X147947528Y-61270721D02*
G01*
X148119604Y-61480397D01*
X148329280Y-61652473D01*
X148421001Y-61701499D01*
X148421000Y-63551578D01*
X147243651Y-64728927D01*
X147179112Y-64709350D01*
X147094336Y-64701000D01*
X147066000Y-64698209D01*
X147037664Y-64701000D01*
X145824336Y-64701000D01*
X145796000Y-64698209D01*
X145767664Y-64701000D01*
X145682888Y-64709350D01*
X145574124Y-64742343D01*
X145473885Y-64795921D01*
X145386026Y-64868026D01*
X145313921Y-64955885D01*
X145260343Y-65056124D01*
X145234421Y-65141578D01*
X144671001Y-64578158D01*
X144655376Y-64499604D01*
X144585496Y-64330901D01*
X144484048Y-64179072D01*
X144354928Y-64049952D01*
X144203099Y-63948504D01*
X144034396Y-63878624D01*
X143855301Y-63843000D01*
X143754423Y-63843000D01*
X144473206Y-63124217D01*
X144499026Y-63103027D01*
X144520218Y-63077205D01*
X144520224Y-63077199D01*
X144583628Y-62999941D01*
X144646492Y-62882330D01*
X144685204Y-62754715D01*
X144698275Y-62622000D01*
X144695000Y-62588748D01*
X144695000Y-61701499D01*
X144786721Y-61652473D01*
X144996397Y-61480397D01*
X145168473Y-61270721D01*
X145288001Y-61047101D01*
X145407528Y-61270721D01*
X145579604Y-61480397D01*
X145789280Y-61652473D01*
X146028496Y-61780337D01*
X146288062Y-61859075D01*
X146558000Y-61885662D01*
X146827939Y-61859075D01*
X147087505Y-61780337D01*
X147326721Y-61652473D01*
X147536397Y-61480397D01*
X147708473Y-61270721D01*
X147828001Y-61047101D01*
X147947528Y-61270721D01*
G37*
%TD.AperFunction*%
%TD*%
M02*
