%TF.GenerationSoftware,KiCad,Pcbnew,(5.1.10)-1*%
%TF.CreationDate,2021-10-24T00:58:49+05:30*%
%TF.ProjectId,Modbus_IO_Board,4d6f6462-7573-45f4-994f-5f426f617264,rev?*%
%TF.SameCoordinates,Original*%
%TF.FileFunction,Profile,NP*%
%FSLAX46Y46*%
G04 Gerber Fmt 4.6, Leading zero omitted, Abs format (unit mm)*
G04 Created by KiCad (PCBNEW (5.1.10)-1) date 2021-10-24 00:58:49*
%MOMM*%
%LPD*%
G01*
G04 APERTURE LIST*
%TA.AperFunction,Profile*%
%ADD10C,0.100000*%
%TD*%
%TA.AperFunction,Profile*%
%ADD11C,0.200000*%
%TD*%
G04 APERTURE END LIST*
D10*
X147066000Y-65278000D02*
X147066000Y-72390000D01*
X145796000Y-65278000D02*
X147066000Y-65278000D01*
X145796000Y-72390000D02*
X145796000Y-65278000D01*
X147066000Y-72390000D02*
X145796000Y-72390000D01*
D11*
X134124000Y-56794400D02*
X134124000Y-63586400D01*
X127863600Y-84036400D02*
X127863600Y-56786400D01*
X127863600Y-56786400D02*
X134124000Y-56794400D01*
X134124000Y-63586400D02*
X136464000Y-63586400D01*
X156387800Y-56794400D02*
X162674000Y-56794400D01*
X154076400Y-56794400D02*
X154076400Y-63576200D01*
X154076400Y-63576200D02*
X156387800Y-63576200D01*
X156387800Y-63576200D02*
X156387800Y-56794400D01*
X129474000Y-100336800D02*
X129474000Y-84036400D01*
X129474000Y-84036400D02*
X127863600Y-84036400D01*
X136464000Y-56794400D02*
X154076400Y-56794400D01*
X127889000Y-100336800D02*
X129474000Y-100336800D01*
X136464000Y-63586400D02*
X136464000Y-56794400D01*
X161074000Y-100336800D02*
X162661600Y-100336800D01*
X161074000Y-84036400D02*
X161074000Y-100336800D01*
X162674000Y-126593600D02*
X127889000Y-126593600D01*
X127889000Y-126593600D02*
X127889000Y-100336800D01*
X162661600Y-84036400D02*
X161074000Y-84036400D01*
X162674000Y-56794400D02*
X162661600Y-84036400D01*
X162661600Y-100336800D02*
X162674000Y-126593600D01*
M02*
