%TF.GenerationSoftware,KiCad,Pcbnew,(5.1.10)-1*%
%TF.CreationDate,2021-10-24T00:58:49+05:30*%
%TF.ProjectId,Modbus_IO_Board,4d6f6462-7573-45f4-994f-5f426f617264,rev?*%
%TF.SameCoordinates,Original*%
%TF.FileFunction,Paste,Top*%
%TF.FilePolarity,Positive*%
%FSLAX46Y46*%
G04 Gerber Fmt 4.6, Leading zero omitted, Abs format (unit mm)*
G04 Created by KiCad (PCBNEW (5.1.10)-1) date 2021-10-24 00:58:49*
%MOMM*%
%LPD*%
G01*
G04 APERTURE LIST*
%ADD10R,1.500000X0.600000*%
%ADD11R,0.600000X1.500000*%
%ADD12R,2.100000X5.600000*%
%ADD13R,1.050000X0.850000*%
%ADD14R,0.750000X1.200000*%
%ADD15R,1.650000X1.150000*%
%ADD16R,1.900000X1.300000*%
%ADD17R,1.150000X1.470000*%
%ADD18R,3.200000X1.750000*%
%ADD19R,0.950000X1.750000*%
%ADD20R,1.800000X1.200000*%
%ADD21R,2.250000X1.650000*%
%ADD22R,2.500000X1.800000*%
G04 APERTURE END LIST*
D10*
%TO.C,IC1*%
X148920000Y-86970000D03*
X148920000Y-86170000D03*
X148920000Y-85370000D03*
X148920000Y-84570000D03*
X148920000Y-83770000D03*
X148920000Y-82970000D03*
X148920000Y-82170000D03*
X148920000Y-81370000D03*
D11*
X147470000Y-79920000D03*
X146670000Y-79920000D03*
X145870000Y-79920000D03*
X145070000Y-79920000D03*
X144270000Y-79920000D03*
X143470000Y-79920000D03*
X142670000Y-79920000D03*
X141870000Y-79920000D03*
D10*
X140420000Y-81370000D03*
X140420000Y-82170000D03*
X140420000Y-82970000D03*
X140420000Y-83770000D03*
X140420000Y-84570000D03*
X140420000Y-85370000D03*
X140420000Y-86170000D03*
X140420000Y-86970000D03*
D11*
X141870000Y-88420000D03*
X142670000Y-88420000D03*
X143470000Y-88420000D03*
X144270000Y-88420000D03*
X145070000Y-88420000D03*
X145870000Y-88420000D03*
X146670000Y-88420000D03*
X147470000Y-88420000D03*
%TD*%
D12*
%TO.C,Y1*%
X155180000Y-77410000D03*
X155180000Y-86910000D03*
%TD*%
D13*
%TO.C,D3*%
X136630000Y-111252000D03*
X140230000Y-111252000D03*
%TD*%
D14*
%TO.C,D2*%
X158960000Y-91570000D03*
X158960000Y-94970000D03*
%TD*%
D15*
%TO.C,D1*%
X156680000Y-94940000D03*
X156680000Y-91640000D03*
%TD*%
%TO.C,C3*%
G36*
G01*
X151495001Y-84330000D02*
X150644999Y-84330000D01*
G75*
G02*
X150395000Y-84080001I0J249999D01*
G01*
X150395000Y-83179999D01*
G75*
G02*
X150644999Y-82930000I249999J0D01*
G01*
X151495001Y-82930000D01*
G75*
G02*
X151745000Y-83179999I0J-249999D01*
G01*
X151745000Y-84080001D01*
G75*
G02*
X151495001Y-84330000I-249999J0D01*
G01*
G37*
G36*
G01*
X151495001Y-87030000D02*
X150644999Y-87030000D01*
G75*
G02*
X150395000Y-86780001I0J249999D01*
G01*
X150395000Y-85879999D01*
G75*
G02*
X150644999Y-85630000I249999J0D01*
G01*
X151495001Y-85630000D01*
G75*
G02*
X151745000Y-85879999I0J-249999D01*
G01*
X151745000Y-86780001D01*
G75*
G02*
X151495001Y-87030000I-249999J0D01*
G01*
G37*
%TD*%
%TO.C,C7*%
G36*
G01*
X158700000Y-78100000D02*
X159040000Y-78100000D01*
G75*
G02*
X159180000Y-78240000I0J-140000D01*
G01*
X159180000Y-78520000D01*
G75*
G02*
X159040000Y-78660000I-140000J0D01*
G01*
X158700000Y-78660000D01*
G75*
G02*
X158560000Y-78520000I0J140000D01*
G01*
X158560000Y-78240000D01*
G75*
G02*
X158700000Y-78100000I140000J0D01*
G01*
G37*
G36*
G01*
X158700000Y-77140000D02*
X159040000Y-77140000D01*
G75*
G02*
X159180000Y-77280000I0J-140000D01*
G01*
X159180000Y-77560000D01*
G75*
G02*
X159040000Y-77700000I-140000J0D01*
G01*
X158700000Y-77700000D01*
G75*
G02*
X158560000Y-77560000I0J140000D01*
G01*
X158560000Y-77280000D01*
G75*
G02*
X158700000Y-77140000I140000J0D01*
G01*
G37*
%TD*%
%TO.C,C6*%
G36*
G01*
X159030000Y-86480000D02*
X158690000Y-86480000D01*
G75*
G02*
X158550000Y-86340000I0J140000D01*
G01*
X158550000Y-86060000D01*
G75*
G02*
X158690000Y-85920000I140000J0D01*
G01*
X159030000Y-85920000D01*
G75*
G02*
X159170000Y-86060000I0J-140000D01*
G01*
X159170000Y-86340000D01*
G75*
G02*
X159030000Y-86480000I-140000J0D01*
G01*
G37*
G36*
G01*
X159030000Y-87440000D02*
X158690000Y-87440000D01*
G75*
G02*
X158550000Y-87300000I0J140000D01*
G01*
X158550000Y-87020000D01*
G75*
G02*
X158690000Y-86880000I140000J0D01*
G01*
X159030000Y-86880000D01*
G75*
G02*
X159170000Y-87020000I0J-140000D01*
G01*
X159170000Y-87300000D01*
G75*
G02*
X159030000Y-87440000I-140000J0D01*
G01*
G37*
%TD*%
%TO.C,C5*%
G36*
G01*
X136830000Y-80710000D02*
X136830000Y-81050000D01*
G75*
G02*
X136690000Y-81190000I-140000J0D01*
G01*
X136410000Y-81190000D01*
G75*
G02*
X136270000Y-81050000I0J140000D01*
G01*
X136270000Y-80710000D01*
G75*
G02*
X136410000Y-80570000I140000J0D01*
G01*
X136690000Y-80570000D01*
G75*
G02*
X136830000Y-80710000I0J-140000D01*
G01*
G37*
G36*
G01*
X137790000Y-80710000D02*
X137790000Y-81050000D01*
G75*
G02*
X137650000Y-81190000I-140000J0D01*
G01*
X137370000Y-81190000D01*
G75*
G02*
X137230000Y-81050000I0J140000D01*
G01*
X137230000Y-80710000D01*
G75*
G02*
X137370000Y-80570000I140000J0D01*
G01*
X137650000Y-80570000D01*
G75*
G02*
X137790000Y-80710000I0J-140000D01*
G01*
G37*
%TD*%
%TO.C,C4*%
G36*
G01*
X137300000Y-82240000D02*
X137300000Y-81900000D01*
G75*
G02*
X137440000Y-81760000I140000J0D01*
G01*
X137720000Y-81760000D01*
G75*
G02*
X137860000Y-81900000I0J-140000D01*
G01*
X137860000Y-82240000D01*
G75*
G02*
X137720000Y-82380000I-140000J0D01*
G01*
X137440000Y-82380000D01*
G75*
G02*
X137300000Y-82240000I0J140000D01*
G01*
G37*
G36*
G01*
X136340000Y-82240000D02*
X136340000Y-81900000D01*
G75*
G02*
X136480000Y-81760000I140000J0D01*
G01*
X136760000Y-81760000D01*
G75*
G02*
X136900000Y-81900000I0J-140000D01*
G01*
X136900000Y-82240000D01*
G75*
G02*
X136760000Y-82380000I-140000J0D01*
G01*
X136480000Y-82380000D01*
G75*
G02*
X136340000Y-82240000I0J140000D01*
G01*
G37*
%TD*%
%TO.C,C2*%
G36*
G01*
X150880000Y-88050000D02*
X150880000Y-88390000D01*
G75*
G02*
X150740000Y-88530000I-140000J0D01*
G01*
X150460000Y-88530000D01*
G75*
G02*
X150320000Y-88390000I0J140000D01*
G01*
X150320000Y-88050000D01*
G75*
G02*
X150460000Y-87910000I140000J0D01*
G01*
X150740000Y-87910000D01*
G75*
G02*
X150880000Y-88050000I0J-140000D01*
G01*
G37*
G36*
G01*
X151840000Y-88050000D02*
X151840000Y-88390000D01*
G75*
G02*
X151700000Y-88530000I-140000J0D01*
G01*
X151420000Y-88530000D01*
G75*
G02*
X151280000Y-88390000I0J140000D01*
G01*
X151280000Y-88050000D01*
G75*
G02*
X151420000Y-87910000I140000J0D01*
G01*
X151700000Y-87910000D01*
G75*
G02*
X151840000Y-88050000I0J-140000D01*
G01*
G37*
%TD*%
%TO.C,C1*%
G36*
G01*
X159090000Y-96750000D02*
X159090000Y-96410000D01*
G75*
G02*
X159230000Y-96270000I140000J0D01*
G01*
X159510000Y-96270000D01*
G75*
G02*
X159650000Y-96410000I0J-140000D01*
G01*
X159650000Y-96750000D01*
G75*
G02*
X159510000Y-96890000I-140000J0D01*
G01*
X159230000Y-96890000D01*
G75*
G02*
X159090000Y-96750000I0J140000D01*
G01*
G37*
G36*
G01*
X158130000Y-96750000D02*
X158130000Y-96410000D01*
G75*
G02*
X158270000Y-96270000I140000J0D01*
G01*
X158550000Y-96270000D01*
G75*
G02*
X158690000Y-96410000I0J-140000D01*
G01*
X158690000Y-96750000D01*
G75*
G02*
X158550000Y-96890000I-140000J0D01*
G01*
X158270000Y-96890000D01*
G75*
G02*
X158130000Y-96750000I0J140000D01*
G01*
G37*
%TD*%
%TO.C,R14*%
G36*
G01*
X132786200Y-100217800D02*
X132786200Y-99847800D01*
G75*
G02*
X132921200Y-99712800I135000J0D01*
G01*
X133191200Y-99712800D01*
G75*
G02*
X133326200Y-99847800I0J-135000D01*
G01*
X133326200Y-100217800D01*
G75*
G02*
X133191200Y-100352800I-135000J0D01*
G01*
X132921200Y-100352800D01*
G75*
G02*
X132786200Y-100217800I0J135000D01*
G01*
G37*
G36*
G01*
X131766200Y-100217800D02*
X131766200Y-99847800D01*
G75*
G02*
X131901200Y-99712800I135000J0D01*
G01*
X132171200Y-99712800D01*
G75*
G02*
X132306200Y-99847800I0J-135000D01*
G01*
X132306200Y-100217800D01*
G75*
G02*
X132171200Y-100352800I-135000J0D01*
G01*
X131901200Y-100352800D01*
G75*
G02*
X131766200Y-100217800I0J135000D01*
G01*
G37*
%TD*%
%TO.C,R3*%
G36*
G01*
X132326200Y-98407800D02*
X132326200Y-98777800D01*
G75*
G02*
X132191200Y-98912800I-135000J0D01*
G01*
X131921200Y-98912800D01*
G75*
G02*
X131786200Y-98777800I0J135000D01*
G01*
X131786200Y-98407800D01*
G75*
G02*
X131921200Y-98272800I135000J0D01*
G01*
X132191200Y-98272800D01*
G75*
G02*
X132326200Y-98407800I0J-135000D01*
G01*
G37*
G36*
G01*
X133346200Y-98407800D02*
X133346200Y-98777800D01*
G75*
G02*
X133211200Y-98912800I-135000J0D01*
G01*
X132941200Y-98912800D01*
G75*
G02*
X132806200Y-98777800I0J135000D01*
G01*
X132806200Y-98407800D01*
G75*
G02*
X132941200Y-98272800I135000J0D01*
G01*
X133211200Y-98272800D01*
G75*
G02*
X133346200Y-98407800I0J-135000D01*
G01*
G37*
%TD*%
%TO.C,R1*%
G36*
G01*
X156900000Y-96735000D02*
X156900000Y-96365000D01*
G75*
G02*
X157035000Y-96230000I135000J0D01*
G01*
X157305000Y-96230000D01*
G75*
G02*
X157440000Y-96365000I0J-135000D01*
G01*
X157440000Y-96735000D01*
G75*
G02*
X157305000Y-96870000I-135000J0D01*
G01*
X157035000Y-96870000D01*
G75*
G02*
X156900000Y-96735000I0J135000D01*
G01*
G37*
G36*
G01*
X155880000Y-96735000D02*
X155880000Y-96365000D01*
G75*
G02*
X156015000Y-96230000I135000J0D01*
G01*
X156285000Y-96230000D01*
G75*
G02*
X156420000Y-96365000I0J-135000D01*
G01*
X156420000Y-96735000D01*
G75*
G02*
X156285000Y-96870000I-135000J0D01*
G01*
X156015000Y-96870000D01*
G75*
G02*
X155880000Y-96735000I0J135000D01*
G01*
G37*
%TD*%
D16*
%TO.C,RV1*%
X149860000Y-111686000D03*
X149860000Y-108786000D03*
%TD*%
D17*
%TO.C,RT1*%
X139818000Y-108712000D03*
X138058000Y-108712000D03*
%TD*%
%TO.C,L1*%
G36*
G01*
X137590000Y-79580001D02*
X137590000Y-78179999D01*
G75*
G02*
X137839999Y-77930000I249999J0D01*
G01*
X138390001Y-77930000D01*
G75*
G02*
X138640000Y-78179999I0J-249999D01*
G01*
X138640000Y-79580001D01*
G75*
G02*
X138390001Y-79830000I-249999J0D01*
G01*
X137839999Y-79830000D01*
G75*
G02*
X137590000Y-79580001I0J249999D01*
G01*
G37*
G36*
G01*
X134440000Y-79580001D02*
X134440000Y-78179999D01*
G75*
G02*
X134689999Y-77930000I249999J0D01*
G01*
X135240001Y-77930000D01*
G75*
G02*
X135490000Y-78179999I0J-249999D01*
G01*
X135490000Y-79580001D01*
G75*
G02*
X135240001Y-79830000I-249999J0D01*
G01*
X134689999Y-79830000D01*
G75*
G02*
X134440000Y-79580001I0J249999D01*
G01*
G37*
%TD*%
D18*
%TO.C,IC2*%
X143360000Y-106270000D03*
D19*
X141060000Y-99970000D03*
X143360000Y-99970000D03*
X145660000Y-99970000D03*
%TD*%
D20*
%TO.C,FB1*%
X152908000Y-109040000D03*
X152908000Y-111940000D03*
%TD*%
%TO.C,C10*%
G36*
G01*
X143394000Y-97932001D02*
X143394000Y-96631999D01*
G75*
G02*
X143643999Y-96382000I249999J0D01*
G01*
X144294001Y-96382000D01*
G75*
G02*
X144544000Y-96631999I0J-249999D01*
G01*
X144544000Y-97932001D01*
G75*
G02*
X144294001Y-98182000I-249999J0D01*
G01*
X143643999Y-98182000D01*
G75*
G02*
X143394000Y-97932001I0J249999D01*
G01*
G37*
G36*
G01*
X140444000Y-97932001D02*
X140444000Y-96631999D01*
G75*
G02*
X140693999Y-96382000I249999J0D01*
G01*
X141344001Y-96382000D01*
G75*
G02*
X141594000Y-96631999I0J-249999D01*
G01*
X141594000Y-97932001D01*
G75*
G02*
X141344001Y-98182000I-249999J0D01*
G01*
X140693999Y-98182000D01*
G75*
G02*
X140444000Y-97932001I0J249999D01*
G01*
G37*
%TD*%
%TO.C,C9*%
G36*
G01*
X148449999Y-105490000D02*
X149750001Y-105490000D01*
G75*
G02*
X150000000Y-105739999I0J-249999D01*
G01*
X150000000Y-106390001D01*
G75*
G02*
X149750001Y-106640000I-249999J0D01*
G01*
X148449999Y-106640000D01*
G75*
G02*
X148200000Y-106390001I0J249999D01*
G01*
X148200000Y-105739999D01*
G75*
G02*
X148449999Y-105490000I249999J0D01*
G01*
G37*
G36*
G01*
X148449999Y-102540000D02*
X149750001Y-102540000D01*
G75*
G02*
X150000000Y-102789999I0J-249999D01*
G01*
X150000000Y-103440001D01*
G75*
G02*
X149750001Y-103690000I-249999J0D01*
G01*
X148449999Y-103690000D01*
G75*
G02*
X148200000Y-103440001I0J249999D01*
G01*
X148200000Y-102789999D01*
G75*
G02*
X148449999Y-102540000I249999J0D01*
G01*
G37*
%TD*%
D21*
%TO.C,C8*%
X149021800Y-97840200D03*
X149021800Y-100940200D03*
%TD*%
D22*
%TO.C,D4*%
X142710000Y-109600000D03*
X146710000Y-109600000D03*
%TD*%
M02*
