%TF.GenerationSoftware,KiCad,Pcbnew,(5.1.10)-1*%
%TF.CreationDate,2021-10-24T01:14:29+05:30*%
%TF.ProjectId,Modbus_IO_Board,4d6f6462-7573-45f4-994f-5f426f617264,rev?*%
%TF.SameCoordinates,Original*%
%TF.FileFunction,Legend,Bot*%
%TF.FilePolarity,Positive*%
%FSLAX46Y46*%
G04 Gerber Fmt 4.6, Leading zero omitted, Abs format (unit mm)*
G04 Created by KiCad (PCBNEW (5.1.10)-1) date 2021-10-24 01:14:29*
%MOMM*%
%LPD*%
G01*
G04 APERTURE LIST*
%ADD10C,0.150000*%
%ADD11C,0.100000*%
%ADD12C,0.120000*%
%ADD13C,0.200000*%
G04 APERTURE END LIST*
D10*
X160512047Y-109672380D02*
X161083476Y-109672380D01*
X160797761Y-109672380D02*
X160797761Y-108672380D01*
X160893000Y-108815238D01*
X160988238Y-108910476D01*
X161083476Y-108958095D01*
X160131095Y-108767619D02*
X160083476Y-108720000D01*
X159988238Y-108672380D01*
X159750142Y-108672380D01*
X159654904Y-108720000D01*
X159607285Y-108767619D01*
X159559666Y-108862857D01*
X159559666Y-108958095D01*
X159607285Y-109100952D01*
X160178714Y-109672380D01*
X159559666Y-109672380D01*
X159273952Y-108672380D02*
X158940619Y-109672380D01*
X158607285Y-108672380D01*
X131302047Y-109672380D02*
X131873476Y-109672380D01*
X131587761Y-109672380D02*
X131587761Y-108672380D01*
X131683000Y-108815238D01*
X131778238Y-108910476D01*
X131873476Y-108958095D01*
X130921095Y-108767619D02*
X130873476Y-108720000D01*
X130778238Y-108672380D01*
X130540142Y-108672380D01*
X130444904Y-108720000D01*
X130397285Y-108767619D01*
X130349666Y-108862857D01*
X130349666Y-108958095D01*
X130397285Y-109100952D01*
X130968714Y-109672380D01*
X130349666Y-109672380D01*
X130063952Y-108672380D02*
X129730619Y-109672380D01*
X129397285Y-108672380D01*
X157987904Y-101989000D02*
X158083142Y-101941380D01*
X158226000Y-101941380D01*
X158368857Y-101989000D01*
X158464095Y-102084238D01*
X158511714Y-102179476D01*
X158559333Y-102369952D01*
X158559333Y-102512809D01*
X158511714Y-102703285D01*
X158464095Y-102798523D01*
X158368857Y-102893761D01*
X158226000Y-102941380D01*
X158130761Y-102941380D01*
X157987904Y-102893761D01*
X157940285Y-102846142D01*
X157940285Y-102512809D01*
X158130761Y-102512809D01*
X157511714Y-102941380D02*
X157511714Y-101941380D01*
X156940285Y-102941380D01*
X156940285Y-101941380D01*
X156464095Y-102941380D02*
X156464095Y-101941380D01*
X156226000Y-101941380D01*
X156083142Y-101989000D01*
X155987904Y-102084238D01*
X155940285Y-102179476D01*
X155892666Y-102369952D01*
X155892666Y-102512809D01*
X155940285Y-102703285D01*
X155987904Y-102798523D01*
X156083142Y-102893761D01*
X156226000Y-102941380D01*
X156464095Y-102941380D01*
X133984904Y-102370000D02*
X134080142Y-102322380D01*
X134223000Y-102322380D01*
X134365857Y-102370000D01*
X134461095Y-102465238D01*
X134508714Y-102560476D01*
X134556333Y-102750952D01*
X134556333Y-102893809D01*
X134508714Y-103084285D01*
X134461095Y-103179523D01*
X134365857Y-103274761D01*
X134223000Y-103322380D01*
X134127761Y-103322380D01*
X133984904Y-103274761D01*
X133937285Y-103227142D01*
X133937285Y-102893809D01*
X134127761Y-102893809D01*
X133508714Y-103322380D02*
X133508714Y-102322380D01*
X132937285Y-103322380D01*
X132937285Y-102322380D01*
X132461095Y-103322380D02*
X132461095Y-102322380D01*
X132223000Y-102322380D01*
X132080142Y-102370000D01*
X131984904Y-102465238D01*
X131937285Y-102560476D01*
X131889666Y-102750952D01*
X131889666Y-102893809D01*
X131937285Y-103084285D01*
X131984904Y-103179523D01*
X132080142Y-103274761D01*
X132223000Y-103322380D01*
X132461095Y-103322380D01*
X154868571Y-96448571D02*
X154725714Y-96496190D01*
X154678095Y-96543809D01*
X154630476Y-96639047D01*
X154630476Y-96781904D01*
X154678095Y-96877142D01*
X154725714Y-96924761D01*
X154820952Y-96972380D01*
X155201904Y-96972380D01*
X155201904Y-95972380D01*
X154868571Y-95972380D01*
X154773333Y-96020000D01*
X154725714Y-96067619D01*
X154678095Y-96162857D01*
X154678095Y-96258095D01*
X154725714Y-96353333D01*
X154773333Y-96400952D01*
X154868571Y-96448571D01*
X155201904Y-96448571D01*
X135310571Y-96702571D02*
X135167714Y-96750190D01*
X135120095Y-96797809D01*
X135072476Y-96893047D01*
X135072476Y-97035904D01*
X135120095Y-97131142D01*
X135167714Y-97178761D01*
X135262952Y-97226380D01*
X135643904Y-97226380D01*
X135643904Y-96226380D01*
X135310571Y-96226380D01*
X135215333Y-96274000D01*
X135167714Y-96321619D01*
X135120095Y-96416857D01*
X135120095Y-96512095D01*
X135167714Y-96607333D01*
X135215333Y-96654952D01*
X135310571Y-96702571D01*
X135643904Y-96702571D01*
X152384095Y-93130666D02*
X151907904Y-93130666D01*
X152479333Y-93416380D02*
X152146000Y-92416380D01*
X151812666Y-93416380D01*
X138988095Y-93426666D02*
X138511904Y-93426666D01*
X139083333Y-93712380D02*
X138750000Y-92712380D01*
X138416666Y-93712380D01*
X160067619Y-90267380D02*
X160067619Y-89267380D01*
X158877142Y-89219761D02*
X159734285Y-90505476D01*
X158353333Y-89267380D02*
X158162857Y-89267380D01*
X158067619Y-89315000D01*
X157972380Y-89410238D01*
X157924761Y-89600714D01*
X157924761Y-89934047D01*
X157972380Y-90124523D01*
X158067619Y-90219761D01*
X158162857Y-90267380D01*
X158353333Y-90267380D01*
X158448571Y-90219761D01*
X158543809Y-90124523D01*
X158591428Y-89934047D01*
X158591428Y-89600714D01*
X158543809Y-89410238D01*
X158448571Y-89315000D01*
X158353333Y-89267380D01*
X156734285Y-90267380D02*
X156734285Y-89267380D01*
X156400952Y-89981666D01*
X156067619Y-89267380D01*
X156067619Y-90267380D01*
X155448571Y-90267380D02*
X155543809Y-90219761D01*
X155591428Y-90172142D01*
X155639047Y-90076904D01*
X155639047Y-89791190D01*
X155591428Y-89695952D01*
X155543809Y-89648333D01*
X155448571Y-89600714D01*
X155305714Y-89600714D01*
X155210476Y-89648333D01*
X155162857Y-89695952D01*
X155115238Y-89791190D01*
X155115238Y-90076904D01*
X155162857Y-90172142D01*
X155210476Y-90219761D01*
X155305714Y-90267380D01*
X155448571Y-90267380D01*
X154258095Y-90267380D02*
X154258095Y-89267380D01*
X154258095Y-90219761D02*
X154353333Y-90267380D01*
X154543809Y-90267380D01*
X154639047Y-90219761D01*
X154686666Y-90172142D01*
X154734285Y-90076904D01*
X154734285Y-89791190D01*
X154686666Y-89695952D01*
X154639047Y-89648333D01*
X154543809Y-89600714D01*
X154353333Y-89600714D01*
X154258095Y-89648333D01*
X153353333Y-89600714D02*
X153353333Y-90267380D01*
X153781904Y-89600714D02*
X153781904Y-90124523D01*
X153734285Y-90219761D01*
X153639047Y-90267380D01*
X153496190Y-90267380D01*
X153400952Y-90219761D01*
X153353333Y-90172142D01*
X152734285Y-90267380D02*
X152829523Y-90219761D01*
X152877142Y-90124523D01*
X152877142Y-89267380D01*
X151972380Y-90219761D02*
X152067619Y-90267380D01*
X152258095Y-90267380D01*
X152353333Y-90219761D01*
X152400952Y-90124523D01*
X152400952Y-89743571D01*
X152353333Y-89648333D01*
X152258095Y-89600714D01*
X152067619Y-89600714D01*
X151972380Y-89648333D01*
X151924761Y-89743571D01*
X151924761Y-89838809D01*
X152400952Y-89934047D01*
X158805714Y-91917380D02*
X159139047Y-91441190D01*
X159377142Y-91917380D02*
X159377142Y-90917380D01*
X158996190Y-90917380D01*
X158900952Y-90965000D01*
X158853333Y-91012619D01*
X158805714Y-91107857D01*
X158805714Y-91250714D01*
X158853333Y-91345952D01*
X158900952Y-91393571D01*
X158996190Y-91441190D01*
X159377142Y-91441190D01*
X157996190Y-91869761D02*
X158091428Y-91917380D01*
X158281904Y-91917380D01*
X158377142Y-91869761D01*
X158424761Y-91774523D01*
X158424761Y-91393571D01*
X158377142Y-91298333D01*
X158281904Y-91250714D01*
X158091428Y-91250714D01*
X157996190Y-91298333D01*
X157948571Y-91393571D01*
X157948571Y-91488809D01*
X158424761Y-91584047D01*
X157615238Y-91250714D02*
X157377142Y-91917380D01*
X157139047Y-91250714D01*
X155472380Y-91917380D02*
X156043809Y-91917380D01*
X155758095Y-91917380D02*
X155758095Y-90917380D01*
X155853333Y-91060238D01*
X155948571Y-91155476D01*
X156043809Y-91203095D01*
X155043809Y-91822142D02*
X154996190Y-91869761D01*
X155043809Y-91917380D01*
X155091428Y-91869761D01*
X155043809Y-91822142D01*
X155043809Y-91917380D01*
X154377142Y-90917380D02*
X154281904Y-90917380D01*
X154186666Y-90965000D01*
X154139047Y-91012619D01*
X154091428Y-91107857D01*
X154043809Y-91298333D01*
X154043809Y-91536428D01*
X154091428Y-91726904D01*
X154139047Y-91822142D01*
X154186666Y-91869761D01*
X154281904Y-91917380D01*
X154377142Y-91917380D01*
X154472380Y-91869761D01*
X154520000Y-91822142D01*
X154567619Y-91726904D01*
X154615238Y-91536428D01*
X154615238Y-91298333D01*
X154567619Y-91107857D01*
X154520000Y-91012619D01*
X154472380Y-90965000D01*
X154377142Y-90917380D01*
X153615238Y-91822142D02*
X153567619Y-91869761D01*
X153615238Y-91917380D01*
X153662857Y-91869761D01*
X153615238Y-91822142D01*
X153615238Y-91917380D01*
X152948571Y-90917380D02*
X152853333Y-90917380D01*
X152758095Y-90965000D01*
X152710476Y-91012619D01*
X152662857Y-91107857D01*
X152615238Y-91298333D01*
X152615238Y-91536428D01*
X152662857Y-91726904D01*
X152710476Y-91822142D01*
X152758095Y-91869761D01*
X152853333Y-91917380D01*
X152948571Y-91917380D01*
X153043809Y-91869761D01*
X153091428Y-91822142D01*
X153139047Y-91726904D01*
X153186666Y-91536428D01*
X153186666Y-91298333D01*
X153139047Y-91107857D01*
X153091428Y-91012619D01*
X153043809Y-90965000D01*
X152948571Y-90917380D01*
X160066666Y-88146666D02*
X159590476Y-88146666D01*
X160161904Y-88432380D02*
X159828571Y-87432380D01*
X159495238Y-88432380D01*
X158638095Y-88432380D02*
X159209523Y-88432380D01*
X158923809Y-88432380D02*
X158923809Y-87432380D01*
X159019047Y-87575238D01*
X159114285Y-87670476D01*
X159209523Y-87718095D01*
X157114285Y-87908571D02*
X157447619Y-87908571D01*
X157447619Y-88432380D02*
X157447619Y-87432380D01*
X156971428Y-87432380D01*
X156209523Y-88384761D02*
X156304761Y-88432380D01*
X156495238Y-88432380D01*
X156590476Y-88384761D01*
X156638095Y-88289523D01*
X156638095Y-87908571D01*
X156590476Y-87813333D01*
X156495238Y-87765714D01*
X156304761Y-87765714D01*
X156209523Y-87813333D01*
X156161904Y-87908571D01*
X156161904Y-88003809D01*
X156638095Y-88099047D01*
X155733333Y-87765714D02*
X155733333Y-88432380D01*
X155733333Y-87860952D02*
X155685714Y-87813333D01*
X155590476Y-87765714D01*
X155447619Y-87765714D01*
X155352380Y-87813333D01*
X155304761Y-87908571D01*
X155304761Y-88432380D01*
X154400000Y-88384761D02*
X154495238Y-88432380D01*
X154685714Y-88432380D01*
X154780952Y-88384761D01*
X154828571Y-88337142D01*
X154876190Y-88241904D01*
X154876190Y-87956190D01*
X154828571Y-87860952D01*
X154780952Y-87813333D01*
X154685714Y-87765714D01*
X154495238Y-87765714D01*
X154400000Y-87813333D01*
X153590476Y-88384761D02*
X153685714Y-88432380D01*
X153876190Y-88432380D01*
X153971428Y-88384761D01*
X154019047Y-88289523D01*
X154019047Y-87908571D01*
X153971428Y-87813333D01*
X153876190Y-87765714D01*
X153685714Y-87765714D01*
X153590476Y-87813333D01*
X153542857Y-87908571D01*
X153542857Y-88003809D01*
X154019047Y-88099047D01*
X152352380Y-88432380D02*
X152352380Y-87432380D01*
X151971428Y-87432380D01*
X151876190Y-87480000D01*
X151828571Y-87527619D01*
X151780952Y-87622857D01*
X151780952Y-87765714D01*
X151828571Y-87860952D01*
X151876190Y-87908571D01*
X151971428Y-87956190D01*
X152352380Y-87956190D01*
X151352380Y-88432380D02*
X151352380Y-87765714D01*
X151352380Y-87956190D02*
X151304761Y-87860952D01*
X151257142Y-87813333D01*
X151161904Y-87765714D01*
X151066666Y-87765714D01*
X150590476Y-88432380D02*
X150685714Y-88384761D01*
X150733333Y-88337142D01*
X150780952Y-88241904D01*
X150780952Y-87956190D01*
X150733333Y-87860952D01*
X150685714Y-87813333D01*
X150590476Y-87765714D01*
X150447619Y-87765714D01*
X150352380Y-87813333D01*
X150304761Y-87860952D01*
X150257142Y-87956190D01*
X150257142Y-88241904D01*
X150304761Y-88337142D01*
X150352380Y-88384761D01*
X150447619Y-88432380D01*
X150590476Y-88432380D01*
X149400000Y-88432380D02*
X149400000Y-87432380D01*
X149400000Y-88384761D02*
X149495238Y-88432380D01*
X149685714Y-88432380D01*
X149780952Y-88384761D01*
X149828571Y-88337142D01*
X149876190Y-88241904D01*
X149876190Y-87956190D01*
X149828571Y-87860952D01*
X149780952Y-87813333D01*
X149685714Y-87765714D01*
X149495238Y-87765714D01*
X149400000Y-87813333D01*
X148495238Y-87765714D02*
X148495238Y-88432380D01*
X148923809Y-87765714D02*
X148923809Y-88289523D01*
X148876190Y-88384761D01*
X148780952Y-88432380D01*
X148638095Y-88432380D01*
X148542857Y-88384761D01*
X148495238Y-88337142D01*
X147590476Y-88384761D02*
X147685714Y-88432380D01*
X147876190Y-88432380D01*
X147971428Y-88384761D01*
X148019047Y-88337142D01*
X148066666Y-88241904D01*
X148066666Y-87956190D01*
X148019047Y-87860952D01*
X147971428Y-87813333D01*
X147876190Y-87765714D01*
X147685714Y-87765714D01*
X147590476Y-87813333D01*
X147304761Y-87765714D02*
X146923809Y-87765714D01*
X147161904Y-87432380D02*
X147161904Y-88289523D01*
X147114285Y-88384761D01*
X147019047Y-88432380D01*
X146923809Y-88432380D01*
X146638095Y-88384761D02*
X146542857Y-88432380D01*
X146352380Y-88432380D01*
X146257142Y-88384761D01*
X146209523Y-88289523D01*
X146209523Y-88241904D01*
X146257142Y-88146666D01*
X146352380Y-88099047D01*
X146495238Y-88099047D01*
X146590476Y-88051428D01*
X146638095Y-87956190D01*
X146638095Y-87908571D01*
X146590476Y-87813333D01*
X146495238Y-87765714D01*
X146352380Y-87765714D01*
X146257142Y-87813333D01*
X144447619Y-88337142D02*
X144495238Y-88384761D01*
X144638095Y-88432380D01*
X144733333Y-88432380D01*
X144876190Y-88384761D01*
X144971428Y-88289523D01*
X145019047Y-88194285D01*
X145066666Y-88003809D01*
X145066666Y-87860952D01*
X145019047Y-87670476D01*
X144971428Y-87575238D01*
X144876190Y-87480000D01*
X144733333Y-87432380D01*
X144638095Y-87432380D01*
X144495238Y-87480000D01*
X144447619Y-87527619D01*
X143876190Y-88432380D02*
X143971428Y-88384761D01*
X144019047Y-88337142D01*
X144066666Y-88241904D01*
X144066666Y-87956190D01*
X144019047Y-87860952D01*
X143971428Y-87813333D01*
X143876190Y-87765714D01*
X143733333Y-87765714D01*
X143638095Y-87813333D01*
X143590476Y-87860952D01*
X143542857Y-87956190D01*
X143542857Y-88241904D01*
X143590476Y-88337142D01*
X143638095Y-88384761D01*
X143733333Y-88432380D01*
X143876190Y-88432380D01*
X143114285Y-88432380D02*
X143114285Y-87765714D01*
X143114285Y-87860952D02*
X143066666Y-87813333D01*
X142971428Y-87765714D01*
X142828571Y-87765714D01*
X142733333Y-87813333D01*
X142685714Y-87908571D01*
X142685714Y-88432380D01*
X142685714Y-87908571D02*
X142638095Y-87813333D01*
X142542857Y-87765714D01*
X142400000Y-87765714D01*
X142304761Y-87813333D01*
X142257142Y-87908571D01*
X142257142Y-88432380D01*
X141780952Y-87765714D02*
X141780952Y-88765714D01*
X141780952Y-87813333D02*
X141685714Y-87765714D01*
X141495238Y-87765714D01*
X141400000Y-87813333D01*
X141352380Y-87860952D01*
X141304761Y-87956190D01*
X141304761Y-88241904D01*
X141352380Y-88337142D01*
X141400000Y-88384761D01*
X141495238Y-88432380D01*
X141685714Y-88432380D01*
X141780952Y-88384761D01*
X140447619Y-88432380D02*
X140447619Y-87908571D01*
X140495238Y-87813333D01*
X140590476Y-87765714D01*
X140780952Y-87765714D01*
X140876190Y-87813333D01*
X140447619Y-88384761D02*
X140542857Y-88432380D01*
X140780952Y-88432380D01*
X140876190Y-88384761D01*
X140923809Y-88289523D01*
X140923809Y-88194285D01*
X140876190Y-88099047D01*
X140780952Y-88051428D01*
X140542857Y-88051428D01*
X140447619Y-88003809D01*
X139971428Y-87765714D02*
X139971428Y-88432380D01*
X139971428Y-87860952D02*
X139923809Y-87813333D01*
X139828571Y-87765714D01*
X139685714Y-87765714D01*
X139590476Y-87813333D01*
X139542857Y-87908571D01*
X139542857Y-88432380D01*
X139161904Y-87765714D02*
X138923809Y-88432380D01*
X138685714Y-87765714D02*
X138923809Y-88432380D01*
X139019047Y-88670476D01*
X139066666Y-88718095D01*
X139161904Y-88765714D01*
D11*
X161899095Y-125837904D02*
X161899095Y-125037904D01*
X161708619Y-125037904D01*
X161594333Y-125076000D01*
X161518142Y-125152190D01*
X161480047Y-125228380D01*
X161441952Y-125380761D01*
X161441952Y-125495047D01*
X161480047Y-125647428D01*
X161518142Y-125723619D01*
X161594333Y-125799809D01*
X161708619Y-125837904D01*
X161899095Y-125837904D01*
X160794333Y-125799809D02*
X160870523Y-125837904D01*
X161022904Y-125837904D01*
X161099095Y-125799809D01*
X161137190Y-125723619D01*
X161137190Y-125418857D01*
X161099095Y-125342666D01*
X161022904Y-125304571D01*
X160870523Y-125304571D01*
X160794333Y-125342666D01*
X160756238Y-125418857D01*
X160756238Y-125495047D01*
X161137190Y-125571238D01*
X160451476Y-125799809D02*
X160375285Y-125837904D01*
X160222904Y-125837904D01*
X160146714Y-125799809D01*
X160108619Y-125723619D01*
X160108619Y-125685523D01*
X160146714Y-125609333D01*
X160222904Y-125571238D01*
X160337190Y-125571238D01*
X160413380Y-125533142D01*
X160451476Y-125456952D01*
X160451476Y-125418857D01*
X160413380Y-125342666D01*
X160337190Y-125304571D01*
X160222904Y-125304571D01*
X160146714Y-125342666D01*
X159765761Y-125837904D02*
X159765761Y-125304571D01*
X159765761Y-125037904D02*
X159803857Y-125076000D01*
X159765761Y-125114095D01*
X159727666Y-125076000D01*
X159765761Y-125037904D01*
X159765761Y-125114095D01*
X159041952Y-125304571D02*
X159041952Y-125952190D01*
X159080047Y-126028380D01*
X159118142Y-126066476D01*
X159194333Y-126104571D01*
X159308619Y-126104571D01*
X159384809Y-126066476D01*
X159041952Y-125799809D02*
X159118142Y-125837904D01*
X159270523Y-125837904D01*
X159346714Y-125799809D01*
X159384809Y-125761714D01*
X159422904Y-125685523D01*
X159422904Y-125456952D01*
X159384809Y-125380761D01*
X159346714Y-125342666D01*
X159270523Y-125304571D01*
X159118142Y-125304571D01*
X159041952Y-125342666D01*
X158661000Y-125304571D02*
X158661000Y-125837904D01*
X158661000Y-125380761D02*
X158622904Y-125342666D01*
X158546714Y-125304571D01*
X158432428Y-125304571D01*
X158356238Y-125342666D01*
X158318142Y-125418857D01*
X158318142Y-125837904D01*
X157327666Y-125533142D02*
X156718142Y-125533142D01*
X155765761Y-125609333D02*
X155384809Y-125609333D01*
X155841952Y-125837904D02*
X155575285Y-125037904D01*
X155308619Y-125837904D01*
X155080047Y-125799809D02*
X154965761Y-125837904D01*
X154775285Y-125837904D01*
X154699095Y-125799809D01*
X154661000Y-125761714D01*
X154622904Y-125685523D01*
X154622904Y-125609333D01*
X154661000Y-125533142D01*
X154699095Y-125495047D01*
X154775285Y-125456952D01*
X154927666Y-125418857D01*
X155003857Y-125380761D01*
X155041952Y-125342666D01*
X155080047Y-125266476D01*
X155080047Y-125190285D01*
X155041952Y-125114095D01*
X155003857Y-125076000D01*
X154927666Y-125037904D01*
X154737190Y-125037904D01*
X154622904Y-125076000D01*
X154280047Y-125837904D02*
X154280047Y-125037904D01*
X154280047Y-125418857D02*
X153822904Y-125418857D01*
X153822904Y-125837904D02*
X153822904Y-125037904D01*
D12*
X130048000Y-92456000D02*
X130175000Y-92456000D01*
X130048000Y-94742000D02*
X130048000Y-92456000D01*
X132334000Y-94742000D02*
X130048000Y-94742000D01*
X132334000Y-92456000D02*
X132334000Y-94742000D01*
X130175000Y-92456000D02*
X132334000Y-92456000D01*
D13*
%TO.C,D6*%
X136182000Y-76120000D02*
X136182000Y-78820000D01*
X134569200Y-76123800D02*
X134569200Y-78790800D01*
%TO.C,D8*%
X140500000Y-75866000D02*
X140500000Y-78566000D01*
X138900000Y-75793600D02*
X138900000Y-78566000D01*
%TO.C,IC4*%
X142930000Y-83896000D02*
X144130000Y-83896000D01*
X144480000Y-80846000D02*
X144480000Y-83746000D01*
X145080000Y-80846000D02*
X144480000Y-80846000D01*
X145080000Y-83746000D02*
X145080000Y-80846000D01*
X144480000Y-83746000D02*
X145080000Y-83746000D01*
D12*
%TO.C,D9*%
X141150000Y-80340000D02*
X143700000Y-80340000D01*
X141150000Y-78640000D02*
X143700000Y-78640000D01*
X141150000Y-80340000D02*
X141150000Y-78640000D01*
%TO.C,D7*%
X141248000Y-86194000D02*
X143798000Y-86194000D01*
X141248000Y-84494000D02*
X143798000Y-84494000D01*
X141248000Y-86194000D02*
X141248000Y-84494000D01*
%TO.C,C16*%
X148484000Y-83165836D02*
X148484000Y-82950164D01*
X149204000Y-83165836D02*
X149204000Y-82950164D01*
%TO.C,C15*%
X147214000Y-83165836D02*
X147214000Y-82950164D01*
X147934000Y-83165836D02*
X147934000Y-82950164D01*
%TO.C,C14*%
X141585836Y-80920000D02*
X141370164Y-80920000D01*
X141585836Y-81640000D02*
X141370164Y-81640000D01*
%TO.C,C12*%
X130490000Y-88058748D02*
X130490000Y-89481252D01*
X132310000Y-88058748D02*
X132310000Y-89481252D01*
%TO.C,C13*%
X141585836Y-82952000D02*
X141370164Y-82952000D01*
X141585836Y-83672000D02*
X141370164Y-83672000D01*
%TO.C,C11*%
X131727836Y-92130000D02*
X131512164Y-92130000D01*
X131727836Y-91410000D02*
X131512164Y-91410000D01*
%TO.C,R9*%
X142183641Y-77340000D02*
X141876359Y-77340000D01*
X142183641Y-78100000D02*
X141876359Y-78100000D01*
%TO.C,R6*%
X140814359Y-87502000D02*
X141121641Y-87502000D01*
X140814359Y-86742000D02*
X141121641Y-86742000D01*
%TO.C,R5*%
X142360000Y-70303641D02*
X142360000Y-69996359D01*
X141600000Y-70303641D02*
X141600000Y-69996359D01*
%TO.C,R4*%
X142300000Y-67683641D02*
X142300000Y-67376359D01*
X141540000Y-67683641D02*
X141540000Y-67376359D01*
%TO.C,R2*%
X133506359Y-81780000D02*
X133813641Y-81780000D01*
X133506359Y-82540000D02*
X133813641Y-82540000D01*
%TO.C,D5*%
X133440000Y-92330000D02*
X133440000Y-90630000D01*
X133440000Y-90630000D02*
X135990000Y-90630000D01*
X133440000Y-92330000D02*
X135990000Y-92330000D01*
D13*
%TO.C,U1*%
X135800000Y-93472000D02*
X135340000Y-93472000D01*
X135340000Y-93472000D02*
X135340000Y-93520000D01*
X135340000Y-93520000D02*
X135800000Y-93520000D01*
X135800000Y-93520000D02*
X135800000Y-93472000D01*
X133340000Y-93472000D02*
X132940000Y-93472000D01*
X132940000Y-93472000D02*
X132940000Y-93472000D01*
X132940000Y-93472000D02*
X133340000Y-93472000D01*
X133340000Y-93472000D02*
X133340000Y-93472000D01*
X135800000Y-94320000D02*
X135800000Y-94320000D01*
X135800000Y-94320000D02*
X135800000Y-93520000D01*
X135800000Y-93520000D02*
X135800000Y-93520000D01*
X135800000Y-93520000D02*
X135800000Y-94320000D01*
X132940000Y-93472000D02*
X132940000Y-93472000D01*
X132940000Y-93472000D02*
X132940000Y-94320000D01*
X132940000Y-94320000D02*
X132940000Y-94320000D01*
X132940000Y-94320000D02*
X132940000Y-93472000D01*
X136510000Y-95204000D02*
X136510000Y-95204000D01*
X136510000Y-95204000D02*
X136510000Y-95204000D01*
X136510000Y-95104000D02*
G75*
G03*
X136510000Y-95204000I0J-50000D01*
G01*
X136510000Y-95204000D02*
G75*
G03*
X136510000Y-95104000I0J50000D01*
G01*
X136510000Y-95104000D02*
G75*
G03*
X136510000Y-95204000I0J-50000D01*
G01*
%TO.C,IC5*%
X144925000Y-71810000D02*
X148135000Y-71810000D01*
X148135000Y-71810000D02*
X148135000Y-65970000D01*
X148135000Y-65970000D02*
X144925000Y-65970000D01*
X144925000Y-65970000D02*
X144925000Y-71810000D01*
X142980000Y-71470000D02*
X144575000Y-71470000D01*
%TO.C,IC3*%
X133110000Y-85120000D02*
X133110000Y-88320000D01*
X133110000Y-88320000D02*
X138010000Y-88320000D01*
X138010000Y-88320000D02*
X138010000Y-85120000D01*
X138010000Y-85120000D02*
X133110000Y-85120000D01*
X132980000Y-83245000D02*
X132980000Y-84770000D01*
%TO.C,FB2*%
X132110000Y-84040000D02*
X130710000Y-84040000D01*
%TO.C,D6*%
D11*
X135980476Y-74471904D02*
X135980476Y-73671904D01*
X135790000Y-73671904D01*
X135675714Y-73710000D01*
X135599523Y-73786190D01*
X135561428Y-73862380D01*
X135523333Y-74014761D01*
X135523333Y-74129047D01*
X135561428Y-74281428D01*
X135599523Y-74357619D01*
X135675714Y-74433809D01*
X135790000Y-74471904D01*
X135980476Y-74471904D01*
X134837619Y-73671904D02*
X134990000Y-73671904D01*
X135066190Y-73710000D01*
X135104285Y-73748095D01*
X135180476Y-73862380D01*
X135218571Y-74014761D01*
X135218571Y-74319523D01*
X135180476Y-74395714D01*
X135142380Y-74433809D01*
X135066190Y-74471904D01*
X134913809Y-74471904D01*
X134837619Y-74433809D01*
X134799523Y-74395714D01*
X134761428Y-74319523D01*
X134761428Y-74129047D01*
X134799523Y-74052857D01*
X134837619Y-74014761D01*
X134913809Y-73976666D01*
X135066190Y-73976666D01*
X135142380Y-74014761D01*
X135180476Y-74052857D01*
X135218571Y-74129047D01*
%TO.C,D8*%
X140350476Y-74251904D02*
X140350476Y-73451904D01*
X140160000Y-73451904D01*
X140045714Y-73490000D01*
X139969523Y-73566190D01*
X139931428Y-73642380D01*
X139893333Y-73794761D01*
X139893333Y-73909047D01*
X139931428Y-74061428D01*
X139969523Y-74137619D01*
X140045714Y-74213809D01*
X140160000Y-74251904D01*
X140350476Y-74251904D01*
X139436190Y-73794761D02*
X139512380Y-73756666D01*
X139550476Y-73718571D01*
X139588571Y-73642380D01*
X139588571Y-73604285D01*
X139550476Y-73528095D01*
X139512380Y-73490000D01*
X139436190Y-73451904D01*
X139283809Y-73451904D01*
X139207619Y-73490000D01*
X139169523Y-73528095D01*
X139131428Y-73604285D01*
X139131428Y-73642380D01*
X139169523Y-73718571D01*
X139207619Y-73756666D01*
X139283809Y-73794761D01*
X139436190Y-73794761D01*
X139512380Y-73832857D01*
X139550476Y-73870952D01*
X139588571Y-73947142D01*
X139588571Y-74099523D01*
X139550476Y-74175714D01*
X139512380Y-74213809D01*
X139436190Y-74251904D01*
X139283809Y-74251904D01*
X139207619Y-74213809D01*
X139169523Y-74175714D01*
X139131428Y-74099523D01*
X139131428Y-73947142D01*
X139169523Y-73870952D01*
X139207619Y-73832857D01*
X139283809Y-73794761D01*
%TO.C,IC4*%
X148010952Y-80251904D02*
X148010952Y-79451904D01*
X147172857Y-80175714D02*
X147210952Y-80213809D01*
X147325238Y-80251904D01*
X147401428Y-80251904D01*
X147515714Y-80213809D01*
X147591904Y-80137619D01*
X147630000Y-80061428D01*
X147668095Y-79909047D01*
X147668095Y-79794761D01*
X147630000Y-79642380D01*
X147591904Y-79566190D01*
X147515714Y-79490000D01*
X147401428Y-79451904D01*
X147325238Y-79451904D01*
X147210952Y-79490000D01*
X147172857Y-79528095D01*
X146487142Y-79718571D02*
X146487142Y-80251904D01*
X146677619Y-79413809D02*
X146868095Y-79985238D01*
X146372857Y-79985238D01*
%TO.C,D9*%
X145860476Y-79841904D02*
X145860476Y-79041904D01*
X145670000Y-79041904D01*
X145555714Y-79080000D01*
X145479523Y-79156190D01*
X145441428Y-79232380D01*
X145403333Y-79384761D01*
X145403333Y-79499047D01*
X145441428Y-79651428D01*
X145479523Y-79727619D01*
X145555714Y-79803809D01*
X145670000Y-79841904D01*
X145860476Y-79841904D01*
X145022380Y-79841904D02*
X144870000Y-79841904D01*
X144793809Y-79803809D01*
X144755714Y-79765714D01*
X144679523Y-79651428D01*
X144641428Y-79499047D01*
X144641428Y-79194285D01*
X144679523Y-79118095D01*
X144717619Y-79080000D01*
X144793809Y-79041904D01*
X144946190Y-79041904D01*
X145022380Y-79080000D01*
X145060476Y-79118095D01*
X145098571Y-79194285D01*
X145098571Y-79384761D01*
X145060476Y-79460952D01*
X145022380Y-79499047D01*
X144946190Y-79537142D01*
X144793809Y-79537142D01*
X144717619Y-79499047D01*
X144679523Y-79460952D01*
X144641428Y-79384761D01*
%TO.C,D7*%
X145870476Y-85811904D02*
X145870476Y-85011904D01*
X145680000Y-85011904D01*
X145565714Y-85050000D01*
X145489523Y-85126190D01*
X145451428Y-85202380D01*
X145413333Y-85354761D01*
X145413333Y-85469047D01*
X145451428Y-85621428D01*
X145489523Y-85697619D01*
X145565714Y-85773809D01*
X145680000Y-85811904D01*
X145870476Y-85811904D01*
X145146666Y-85011904D02*
X144613333Y-85011904D01*
X144956190Y-85811904D01*
%TO.C,C16*%
X151124285Y-83465714D02*
X151162380Y-83503809D01*
X151276666Y-83541904D01*
X151352857Y-83541904D01*
X151467142Y-83503809D01*
X151543333Y-83427619D01*
X151581428Y-83351428D01*
X151619523Y-83199047D01*
X151619523Y-83084761D01*
X151581428Y-82932380D01*
X151543333Y-82856190D01*
X151467142Y-82780000D01*
X151352857Y-82741904D01*
X151276666Y-82741904D01*
X151162380Y-82780000D01*
X151124285Y-82818095D01*
X150362380Y-83541904D02*
X150819523Y-83541904D01*
X150590952Y-83541904D02*
X150590952Y-82741904D01*
X150667142Y-82856190D01*
X150743333Y-82932380D01*
X150819523Y-82970476D01*
X149676666Y-82741904D02*
X149829047Y-82741904D01*
X149905238Y-82780000D01*
X149943333Y-82818095D01*
X150019523Y-82932380D01*
X150057619Y-83084761D01*
X150057619Y-83389523D01*
X150019523Y-83465714D01*
X149981428Y-83503809D01*
X149905238Y-83541904D01*
X149752857Y-83541904D01*
X149676666Y-83503809D01*
X149638571Y-83465714D01*
X149600476Y-83389523D01*
X149600476Y-83199047D01*
X149638571Y-83122857D01*
X149676666Y-83084761D01*
X149752857Y-83046666D01*
X149905238Y-83046666D01*
X149981428Y-83084761D01*
X150019523Y-83122857D01*
X150057619Y-83199047D01*
%TO.C,C15*%
X147874285Y-84985714D02*
X147912380Y-85023809D01*
X148026666Y-85061904D01*
X148102857Y-85061904D01*
X148217142Y-85023809D01*
X148293333Y-84947619D01*
X148331428Y-84871428D01*
X148369523Y-84719047D01*
X148369523Y-84604761D01*
X148331428Y-84452380D01*
X148293333Y-84376190D01*
X148217142Y-84300000D01*
X148102857Y-84261904D01*
X148026666Y-84261904D01*
X147912380Y-84300000D01*
X147874285Y-84338095D01*
X147112380Y-85061904D02*
X147569523Y-85061904D01*
X147340952Y-85061904D02*
X147340952Y-84261904D01*
X147417142Y-84376190D01*
X147493333Y-84452380D01*
X147569523Y-84490476D01*
X146388571Y-84261904D02*
X146769523Y-84261904D01*
X146807619Y-84642857D01*
X146769523Y-84604761D01*
X146693333Y-84566666D01*
X146502857Y-84566666D01*
X146426666Y-84604761D01*
X146388571Y-84642857D01*
X146350476Y-84719047D01*
X146350476Y-84909523D01*
X146388571Y-84985714D01*
X146426666Y-85023809D01*
X146502857Y-85061904D01*
X146693333Y-85061904D01*
X146769523Y-85023809D01*
X146807619Y-84985714D01*
%TO.C,C14*%
X139909485Y-81591114D02*
X139947580Y-81629209D01*
X140061866Y-81667304D01*
X140138057Y-81667304D01*
X140252342Y-81629209D01*
X140328533Y-81553019D01*
X140366628Y-81476828D01*
X140404723Y-81324447D01*
X140404723Y-81210161D01*
X140366628Y-81057780D01*
X140328533Y-80981590D01*
X140252342Y-80905400D01*
X140138057Y-80867304D01*
X140061866Y-80867304D01*
X139947580Y-80905400D01*
X139909485Y-80943495D01*
X139147580Y-81667304D02*
X139604723Y-81667304D01*
X139376152Y-81667304D02*
X139376152Y-80867304D01*
X139452342Y-80981590D01*
X139528533Y-81057780D01*
X139604723Y-81095876D01*
X138461866Y-81133971D02*
X138461866Y-81667304D01*
X138652342Y-80829209D02*
X138842819Y-81400638D01*
X138347580Y-81400638D01*
%TO.C,C12*%
X131705285Y-93376714D02*
X131743380Y-93414809D01*
X131857666Y-93452904D01*
X131933857Y-93452904D01*
X132048142Y-93414809D01*
X132124333Y-93338619D01*
X132162428Y-93262428D01*
X132200523Y-93110047D01*
X132200523Y-92995761D01*
X132162428Y-92843380D01*
X132124333Y-92767190D01*
X132048142Y-92691000D01*
X131933857Y-92652904D01*
X131857666Y-92652904D01*
X131743380Y-92691000D01*
X131705285Y-92729095D01*
X130943380Y-93452904D02*
X131400523Y-93452904D01*
X131171952Y-93452904D02*
X131171952Y-92652904D01*
X131248142Y-92767190D01*
X131324333Y-92843380D01*
X131400523Y-92881476D01*
X130638619Y-92729095D02*
X130600523Y-92691000D01*
X130524333Y-92652904D01*
X130333857Y-92652904D01*
X130257666Y-92691000D01*
X130219571Y-92729095D01*
X130181476Y-92805285D01*
X130181476Y-92881476D01*
X130219571Y-92995761D01*
X130676714Y-93452904D01*
X130181476Y-93452904D01*
%TO.C,C13*%
X139954285Y-83675714D02*
X139992380Y-83713809D01*
X140106666Y-83751904D01*
X140182857Y-83751904D01*
X140297142Y-83713809D01*
X140373333Y-83637619D01*
X140411428Y-83561428D01*
X140449523Y-83409047D01*
X140449523Y-83294761D01*
X140411428Y-83142380D01*
X140373333Y-83066190D01*
X140297142Y-82990000D01*
X140182857Y-82951904D01*
X140106666Y-82951904D01*
X139992380Y-82990000D01*
X139954285Y-83028095D01*
X139192380Y-83751904D02*
X139649523Y-83751904D01*
X139420952Y-83751904D02*
X139420952Y-82951904D01*
X139497142Y-83066190D01*
X139573333Y-83142380D01*
X139649523Y-83180476D01*
X138925714Y-82951904D02*
X138430476Y-82951904D01*
X138697142Y-83256666D01*
X138582857Y-83256666D01*
X138506666Y-83294761D01*
X138468571Y-83332857D01*
X138430476Y-83409047D01*
X138430476Y-83599523D01*
X138468571Y-83675714D01*
X138506666Y-83713809D01*
X138582857Y-83751904D01*
X138811428Y-83751904D01*
X138887619Y-83713809D01*
X138925714Y-83675714D01*
%TO.C,C11*%
X131705285Y-94519714D02*
X131743380Y-94557809D01*
X131857666Y-94595904D01*
X131933857Y-94595904D01*
X132048142Y-94557809D01*
X132124333Y-94481619D01*
X132162428Y-94405428D01*
X132200523Y-94253047D01*
X132200523Y-94138761D01*
X132162428Y-93986380D01*
X132124333Y-93910190D01*
X132048142Y-93834000D01*
X131933857Y-93795904D01*
X131857666Y-93795904D01*
X131743380Y-93834000D01*
X131705285Y-93872095D01*
X130943380Y-94595904D02*
X131400523Y-94595904D01*
X131171952Y-94595904D02*
X131171952Y-93795904D01*
X131248142Y-93910190D01*
X131324333Y-93986380D01*
X131400523Y-94024476D01*
X130181476Y-94595904D02*
X130638619Y-94595904D01*
X130410047Y-94595904D02*
X130410047Y-93795904D01*
X130486238Y-93910190D01*
X130562428Y-93986380D01*
X130638619Y-94024476D01*
%TO.C,R9*%
X142093333Y-76861904D02*
X142360000Y-76480952D01*
X142550476Y-76861904D02*
X142550476Y-76061904D01*
X142245714Y-76061904D01*
X142169523Y-76100000D01*
X142131428Y-76138095D01*
X142093333Y-76214285D01*
X142093333Y-76328571D01*
X142131428Y-76404761D01*
X142169523Y-76442857D01*
X142245714Y-76480952D01*
X142550476Y-76480952D01*
X141712380Y-76861904D02*
X141560000Y-76861904D01*
X141483809Y-76823809D01*
X141445714Y-76785714D01*
X141369523Y-76671428D01*
X141331428Y-76519047D01*
X141331428Y-76214285D01*
X141369523Y-76138095D01*
X141407619Y-76100000D01*
X141483809Y-76061904D01*
X141636190Y-76061904D01*
X141712380Y-76100000D01*
X141750476Y-76138095D01*
X141788571Y-76214285D01*
X141788571Y-76404761D01*
X141750476Y-76480952D01*
X141712380Y-76519047D01*
X141636190Y-76557142D01*
X141483809Y-76557142D01*
X141407619Y-76519047D01*
X141369523Y-76480952D01*
X141331428Y-76404761D01*
%TO.C,R6*%
X140333333Y-86091904D02*
X140600000Y-85710952D01*
X140790476Y-86091904D02*
X140790476Y-85291904D01*
X140485714Y-85291904D01*
X140409523Y-85330000D01*
X140371428Y-85368095D01*
X140333333Y-85444285D01*
X140333333Y-85558571D01*
X140371428Y-85634761D01*
X140409523Y-85672857D01*
X140485714Y-85710952D01*
X140790476Y-85710952D01*
X139647619Y-85291904D02*
X139800000Y-85291904D01*
X139876190Y-85330000D01*
X139914285Y-85368095D01*
X139990476Y-85482380D01*
X140028571Y-85634761D01*
X140028571Y-85939523D01*
X139990476Y-86015714D01*
X139952380Y-86053809D01*
X139876190Y-86091904D01*
X139723809Y-86091904D01*
X139647619Y-86053809D01*
X139609523Y-86015714D01*
X139571428Y-85939523D01*
X139571428Y-85749047D01*
X139609523Y-85672857D01*
X139647619Y-85634761D01*
X139723809Y-85596666D01*
X139876190Y-85596666D01*
X139952380Y-85634761D01*
X139990476Y-85672857D01*
X140028571Y-85749047D01*
%TO.C,R5*%
X140583333Y-70621904D02*
X140850000Y-70240952D01*
X141040476Y-70621904D02*
X141040476Y-69821904D01*
X140735714Y-69821904D01*
X140659523Y-69860000D01*
X140621428Y-69898095D01*
X140583333Y-69974285D01*
X140583333Y-70088571D01*
X140621428Y-70164761D01*
X140659523Y-70202857D01*
X140735714Y-70240952D01*
X141040476Y-70240952D01*
X139859523Y-69821904D02*
X140240476Y-69821904D01*
X140278571Y-70202857D01*
X140240476Y-70164761D01*
X140164285Y-70126666D01*
X139973809Y-70126666D01*
X139897619Y-70164761D01*
X139859523Y-70202857D01*
X139821428Y-70279047D01*
X139821428Y-70469523D01*
X139859523Y-70545714D01*
X139897619Y-70583809D01*
X139973809Y-70621904D01*
X140164285Y-70621904D01*
X140240476Y-70583809D01*
X140278571Y-70545714D01*
%TO.C,R4*%
X140563333Y-67871904D02*
X140830000Y-67490952D01*
X141020476Y-67871904D02*
X141020476Y-67071904D01*
X140715714Y-67071904D01*
X140639523Y-67110000D01*
X140601428Y-67148095D01*
X140563333Y-67224285D01*
X140563333Y-67338571D01*
X140601428Y-67414761D01*
X140639523Y-67452857D01*
X140715714Y-67490952D01*
X141020476Y-67490952D01*
X139877619Y-67338571D02*
X139877619Y-67871904D01*
X140068095Y-67033809D02*
X140258571Y-67605238D01*
X139763333Y-67605238D01*
%TO.C,R2*%
X133793333Y-81387904D02*
X134060000Y-81006952D01*
X134250476Y-81387904D02*
X134250476Y-80587904D01*
X133945714Y-80587904D01*
X133869523Y-80626000D01*
X133831428Y-80664095D01*
X133793333Y-80740285D01*
X133793333Y-80854571D01*
X133831428Y-80930761D01*
X133869523Y-80968857D01*
X133945714Y-81006952D01*
X134250476Y-81006952D01*
X133488571Y-80664095D02*
X133450476Y-80626000D01*
X133374285Y-80587904D01*
X133183809Y-80587904D01*
X133107619Y-80626000D01*
X133069523Y-80664095D01*
X133031428Y-80740285D01*
X133031428Y-80816476D01*
X133069523Y-80930761D01*
X133526666Y-81387904D01*
X133031428Y-81387904D01*
%TO.C,D5*%
X137970476Y-91891904D02*
X137970476Y-91091904D01*
X137780000Y-91091904D01*
X137665714Y-91130000D01*
X137589523Y-91206190D01*
X137551428Y-91282380D01*
X137513333Y-91434761D01*
X137513333Y-91549047D01*
X137551428Y-91701428D01*
X137589523Y-91777619D01*
X137665714Y-91853809D01*
X137780000Y-91891904D01*
X137970476Y-91891904D01*
X136789523Y-91091904D02*
X137170476Y-91091904D01*
X137208571Y-91472857D01*
X137170476Y-91434761D01*
X137094285Y-91396666D01*
X136903809Y-91396666D01*
X136827619Y-91434761D01*
X136789523Y-91472857D01*
X136751428Y-91549047D01*
X136751428Y-91739523D01*
X136789523Y-91815714D01*
X136827619Y-91853809D01*
X136903809Y-91891904D01*
X137094285Y-91891904D01*
X137170476Y-91853809D01*
X137208571Y-91815714D01*
%TO.C,U1*%
X133709523Y-96101904D02*
X133709523Y-96749523D01*
X133671428Y-96825714D01*
X133633333Y-96863809D01*
X133557142Y-96901904D01*
X133404761Y-96901904D01*
X133328571Y-96863809D01*
X133290476Y-96825714D01*
X133252380Y-96749523D01*
X133252380Y-96101904D01*
X132452380Y-96901904D02*
X132909523Y-96901904D01*
X132680952Y-96901904D02*
X132680952Y-96101904D01*
X132757142Y-96216190D01*
X132833333Y-96292380D01*
X132909523Y-96330476D01*
%TO.C,IC5*%
X147370952Y-64731904D02*
X147370952Y-63931904D01*
X146532857Y-64655714D02*
X146570952Y-64693809D01*
X146685238Y-64731904D01*
X146761428Y-64731904D01*
X146875714Y-64693809D01*
X146951904Y-64617619D01*
X146990000Y-64541428D01*
X147028095Y-64389047D01*
X147028095Y-64274761D01*
X146990000Y-64122380D01*
X146951904Y-64046190D01*
X146875714Y-63970000D01*
X146761428Y-63931904D01*
X146685238Y-63931904D01*
X146570952Y-63970000D01*
X146532857Y-64008095D01*
X145809047Y-63931904D02*
X146190000Y-63931904D01*
X146228095Y-64312857D01*
X146190000Y-64274761D01*
X146113809Y-64236666D01*
X145923333Y-64236666D01*
X145847142Y-64274761D01*
X145809047Y-64312857D01*
X145770952Y-64389047D01*
X145770952Y-64579523D01*
X145809047Y-64655714D01*
X145847142Y-64693809D01*
X145923333Y-64731904D01*
X146113809Y-64731904D01*
X146190000Y-64693809D01*
X146228095Y-64655714D01*
%TO.C,IC3*%
X136580952Y-82530904D02*
X136580952Y-81730904D01*
X135742857Y-82454714D02*
X135780952Y-82492809D01*
X135895238Y-82530904D01*
X135971428Y-82530904D01*
X136085714Y-82492809D01*
X136161904Y-82416619D01*
X136200000Y-82340428D01*
X136238095Y-82188047D01*
X136238095Y-82073761D01*
X136200000Y-81921380D01*
X136161904Y-81845190D01*
X136085714Y-81769000D01*
X135971428Y-81730904D01*
X135895238Y-81730904D01*
X135780952Y-81769000D01*
X135742857Y-81807095D01*
X135476190Y-81730904D02*
X134980952Y-81730904D01*
X135247619Y-82035666D01*
X135133333Y-82035666D01*
X135057142Y-82073761D01*
X135019047Y-82111857D01*
X134980952Y-82188047D01*
X134980952Y-82378523D01*
X135019047Y-82454714D01*
X135057142Y-82492809D01*
X135133333Y-82530904D01*
X135361904Y-82530904D01*
X135438095Y-82492809D01*
X135476190Y-82454714D01*
%TO.C,FB2*%
X132111666Y-80968857D02*
X132378333Y-80968857D01*
X132378333Y-81387904D02*
X132378333Y-80587904D01*
X131997380Y-80587904D01*
X131425952Y-80968857D02*
X131311666Y-81006952D01*
X131273571Y-81045047D01*
X131235476Y-81121238D01*
X131235476Y-81235523D01*
X131273571Y-81311714D01*
X131311666Y-81349809D01*
X131387857Y-81387904D01*
X131692619Y-81387904D01*
X131692619Y-80587904D01*
X131425952Y-80587904D01*
X131349761Y-80626000D01*
X131311666Y-80664095D01*
X131273571Y-80740285D01*
X131273571Y-80816476D01*
X131311666Y-80892666D01*
X131349761Y-80930761D01*
X131425952Y-80968857D01*
X131692619Y-80968857D01*
X130930714Y-80664095D02*
X130892619Y-80626000D01*
X130816428Y-80587904D01*
X130625952Y-80587904D01*
X130549761Y-80626000D01*
X130511666Y-80664095D01*
X130473571Y-80740285D01*
X130473571Y-80816476D01*
X130511666Y-80930761D01*
X130968809Y-81387904D01*
X130473571Y-81387904D01*
%TD*%
M02*
