%TF.GenerationSoftware,KiCad,Pcbnew,(5.1.10)-1*%
%TF.CreationDate,2021-10-24T00:58:49+05:30*%
%TF.ProjectId,Modbus_IO_Board,4d6f6462-7573-45f4-994f-5f426f617264,rev?*%
%TF.SameCoordinates,Original*%
%TF.FileFunction,Soldermask,Bot*%
%TF.FilePolarity,Negative*%
%FSLAX46Y46*%
G04 Gerber Fmt 4.6, Leading zero omitted, Abs format (unit mm)*
G04 Created by KiCad (PCBNEW (5.1.10)-1) date 2021-10-24 00:58:49*
%MOMM*%
%LPD*%
G01*
G04 APERTURE LIST*
%ADD10C,5.000000*%
%ADD11C,2.800000*%
%ADD12C,3.900000*%
%ADD13C,4.000000*%
%ADD14C,2.800000*%
%ADD15C,2.000000*%
%ADD16O,3.000000X5.000000*%
%ADD17R,0.850000X1.050000*%
%ADD18R,1.200000X0.600000*%
%ADD19R,0.600000X0.450000*%
%ADD20C,0.800000*%
%ADD21O,5.000000X3.000000*%
%ADD22O,4.000000X5.000000*%
%ADD23R,0.840000X0.840000*%
%ADD24O,1.700000X4.000000*%
%ADD25R,1.595000X0.650000*%
%ADD26R,0.650000X1.525000*%
%ADD27R,1.800000X1.200000*%
G04 APERTURE END LIST*
D10*
X134569200Y-109220000D02*
X155879800Y-109220000D01*
X136677400Y-102895400D02*
X153720800Y-102920800D01*
D11*
X138099800Y-96189800D02*
X152603200Y-96189800D01*
X141605000Y-92964000D02*
X149098000Y-92964000D01*
D12*
%TO.C,H1*%
X131830000Y-60750000D03*
%TD*%
%TO.C,H2*%
X158750000Y-60760000D03*
%TD*%
D13*
%TO.C,H4*%
X158770000Y-122700000D03*
%TD*%
%TO.C,H3*%
X131740000Y-122710000D03*
%TD*%
D14*
%TO.C,TP9*%
X140970000Y-92964000D03*
%TD*%
%TO.C,B*%
X137750000Y-96180000D03*
%TD*%
D15*
%TO.C,I-3*%
X137439400Y-70154800D03*
%TD*%
%TO.C,I-1*%
X137439400Y-65074800D03*
%TD*%
%TO.C,I-2*%
X137439400Y-67614800D03*
%TD*%
%TO.C,I-4*%
X137439400Y-72694800D03*
%TD*%
%TO.C,O-4*%
X153060400Y-72771000D03*
%TD*%
%TO.C,O-3*%
X153060400Y-70231000D03*
%TD*%
%TO.C,O-2*%
X153060400Y-67691000D03*
%TD*%
%TO.C,O-1*%
X153060400Y-65151000D03*
%TD*%
D16*
%TO.C,TP11*%
X154178000Y-102870000D03*
%TD*%
%TO.C,12V*%
X156718000Y-109230000D03*
%TD*%
%TO.C,TP15*%
X136398000Y-102870000D03*
%TD*%
%TO.C,12V*%
X133920000Y-109230000D03*
%TD*%
D14*
%TO.C,B*%
X152760000Y-96220000D03*
%TD*%
%TO.C,A*%
X149606000Y-92964000D03*
%TD*%
D17*
%TO.C,D6*%
X135382000Y-79270000D03*
X135382000Y-75670000D03*
%TD*%
%TO.C,D8*%
X139700000Y-79016000D03*
X139700000Y-75416000D03*
%TD*%
D18*
%TO.C,IC4*%
X146030000Y-83246000D03*
X146030000Y-82296000D03*
X146030000Y-81346000D03*
X143530000Y-81346000D03*
X143530000Y-82296000D03*
X143530000Y-83246000D03*
%TD*%
D19*
%TO.C,D9*%
X143700000Y-79490000D03*
X141600000Y-79490000D03*
%TD*%
%TO.C,D7*%
X143798000Y-85344000D03*
X141698000Y-85344000D03*
%TD*%
%TO.C,C16*%
G36*
G01*
X149014000Y-82858000D02*
X148674000Y-82858000D01*
G75*
G02*
X148534000Y-82718000I0J140000D01*
G01*
X148534000Y-82438000D01*
G75*
G02*
X148674000Y-82298000I140000J0D01*
G01*
X149014000Y-82298000D01*
G75*
G02*
X149154000Y-82438000I0J-140000D01*
G01*
X149154000Y-82718000D01*
G75*
G02*
X149014000Y-82858000I-140000J0D01*
G01*
G37*
G36*
G01*
X149014000Y-83818000D02*
X148674000Y-83818000D01*
G75*
G02*
X148534000Y-83678000I0J140000D01*
G01*
X148534000Y-83398000D01*
G75*
G02*
X148674000Y-83258000I140000J0D01*
G01*
X149014000Y-83258000D01*
G75*
G02*
X149154000Y-83398000I0J-140000D01*
G01*
X149154000Y-83678000D01*
G75*
G02*
X149014000Y-83818000I-140000J0D01*
G01*
G37*
%TD*%
%TO.C,C15*%
G36*
G01*
X147744000Y-82858000D02*
X147404000Y-82858000D01*
G75*
G02*
X147264000Y-82718000I0J140000D01*
G01*
X147264000Y-82438000D01*
G75*
G02*
X147404000Y-82298000I140000J0D01*
G01*
X147744000Y-82298000D01*
G75*
G02*
X147884000Y-82438000I0J-140000D01*
G01*
X147884000Y-82718000D01*
G75*
G02*
X147744000Y-82858000I-140000J0D01*
G01*
G37*
G36*
G01*
X147744000Y-83818000D02*
X147404000Y-83818000D01*
G75*
G02*
X147264000Y-83678000I0J140000D01*
G01*
X147264000Y-83398000D01*
G75*
G02*
X147404000Y-83258000I140000J0D01*
G01*
X147744000Y-83258000D01*
G75*
G02*
X147884000Y-83398000I0J-140000D01*
G01*
X147884000Y-83678000D01*
G75*
G02*
X147744000Y-83818000I-140000J0D01*
G01*
G37*
%TD*%
%TO.C,C14*%
G36*
G01*
X141278000Y-81110000D02*
X141278000Y-81450000D01*
G75*
G02*
X141138000Y-81590000I-140000J0D01*
G01*
X140858000Y-81590000D01*
G75*
G02*
X140718000Y-81450000I0J140000D01*
G01*
X140718000Y-81110000D01*
G75*
G02*
X140858000Y-80970000I140000J0D01*
G01*
X141138000Y-80970000D01*
G75*
G02*
X141278000Y-81110000I0J-140000D01*
G01*
G37*
G36*
G01*
X142238000Y-81110000D02*
X142238000Y-81450000D01*
G75*
G02*
X142098000Y-81590000I-140000J0D01*
G01*
X141818000Y-81590000D01*
G75*
G02*
X141678000Y-81450000I0J140000D01*
G01*
X141678000Y-81110000D01*
G75*
G02*
X141818000Y-80970000I140000J0D01*
G01*
X142098000Y-80970000D01*
G75*
G02*
X142238000Y-81110000I0J-140000D01*
G01*
G37*
%TD*%
D20*
%TO.C,TP18*%
X147219200Y-90079200D03*
%TD*%
%TO.C,RX*%
X145870000Y-90100000D03*
%TD*%
D21*
%TO.C,e*%
X130960000Y-65330000D03*
%TD*%
%TO.C,e*%
X159660000Y-65060000D03*
%TD*%
%TO.C,e*%
X159720000Y-74422000D03*
%TD*%
D22*
%TO.C,*%
X138266400Y-121037600D03*
%TD*%
%TO.C,*%
X152490400Y-121101100D03*
%TD*%
%TO.C,*%
X145505400Y-123403100D03*
%TD*%
D16*
%TO.C,*%
X131607000Y-116287800D03*
%TD*%
D22*
%TO.C,*%
X145607000Y-116287800D03*
%TD*%
D16*
%TO.C,*%
X159607000Y-116287800D03*
%TD*%
%TO.C,C12*%
G36*
G01*
X130749999Y-86720000D02*
X132050001Y-86720000D01*
G75*
G02*
X132300000Y-86969999I0J-249999D01*
G01*
X132300000Y-87620001D01*
G75*
G02*
X132050001Y-87870000I-249999J0D01*
G01*
X130749999Y-87870000D01*
G75*
G02*
X130500000Y-87620001I0J249999D01*
G01*
X130500000Y-86969999D01*
G75*
G02*
X130749999Y-86720000I249999J0D01*
G01*
G37*
G36*
G01*
X130749999Y-89670000D02*
X132050001Y-89670000D01*
G75*
G02*
X132300000Y-89919999I0J-249999D01*
G01*
X132300000Y-90570001D01*
G75*
G02*
X132050001Y-90820000I-249999J0D01*
G01*
X130749999Y-90820000D01*
G75*
G02*
X130500000Y-90570001I0J249999D01*
G01*
X130500000Y-89919999D01*
G75*
G02*
X130749999Y-89670000I249999J0D01*
G01*
G37*
%TD*%
D20*
%TO.C,EN*%
X143440000Y-90100000D03*
%TD*%
%TO.C,C13*%
G36*
G01*
X141278000Y-83142000D02*
X141278000Y-83482000D01*
G75*
G02*
X141138000Y-83622000I-140000J0D01*
G01*
X140858000Y-83622000D01*
G75*
G02*
X140718000Y-83482000I0J140000D01*
G01*
X140718000Y-83142000D01*
G75*
G02*
X140858000Y-83002000I140000J0D01*
G01*
X141138000Y-83002000D01*
G75*
G02*
X141278000Y-83142000I0J-140000D01*
G01*
G37*
G36*
G01*
X142238000Y-83142000D02*
X142238000Y-83482000D01*
G75*
G02*
X142098000Y-83622000I-140000J0D01*
G01*
X141818000Y-83622000D01*
G75*
G02*
X141678000Y-83482000I0J140000D01*
G01*
X141678000Y-83142000D01*
G75*
G02*
X141818000Y-83002000I140000J0D01*
G01*
X142098000Y-83002000D01*
G75*
G02*
X142238000Y-83142000I0J-140000D01*
G01*
G37*
%TD*%
%TO.C,C11*%
G36*
G01*
X132380000Y-91600000D02*
X132380000Y-91940000D01*
G75*
G02*
X132240000Y-92080000I-140000J0D01*
G01*
X131960000Y-92080000D01*
G75*
G02*
X131820000Y-91940000I0J140000D01*
G01*
X131820000Y-91600000D01*
G75*
G02*
X131960000Y-91460000I140000J0D01*
G01*
X132240000Y-91460000D01*
G75*
G02*
X132380000Y-91600000I0J-140000D01*
G01*
G37*
G36*
G01*
X131420000Y-91600000D02*
X131420000Y-91940000D01*
G75*
G02*
X131280000Y-92080000I-140000J0D01*
G01*
X131000000Y-92080000D01*
G75*
G02*
X130860000Y-91940000I0J140000D01*
G01*
X130860000Y-91600000D01*
G75*
G02*
X131000000Y-91460000I140000J0D01*
G01*
X131280000Y-91460000D01*
G75*
G02*
X131420000Y-91600000I0J-140000D01*
G01*
G37*
%TD*%
%TO.C,R9*%
G36*
G01*
X141790000Y-77535000D02*
X141790000Y-77905000D01*
G75*
G02*
X141655000Y-78040000I-135000J0D01*
G01*
X141385000Y-78040000D01*
G75*
G02*
X141250000Y-77905000I0J135000D01*
G01*
X141250000Y-77535000D01*
G75*
G02*
X141385000Y-77400000I135000J0D01*
G01*
X141655000Y-77400000D01*
G75*
G02*
X141790000Y-77535000I0J-135000D01*
G01*
G37*
G36*
G01*
X142810000Y-77535000D02*
X142810000Y-77905000D01*
G75*
G02*
X142675000Y-78040000I-135000J0D01*
G01*
X142405000Y-78040000D01*
G75*
G02*
X142270000Y-77905000I0J135000D01*
G01*
X142270000Y-77535000D01*
G75*
G02*
X142405000Y-77400000I135000J0D01*
G01*
X142675000Y-77400000D01*
G75*
G02*
X142810000Y-77535000I0J-135000D01*
G01*
G37*
%TD*%
%TO.C,R6*%
G36*
G01*
X141208000Y-87307000D02*
X141208000Y-86937000D01*
G75*
G02*
X141343000Y-86802000I135000J0D01*
G01*
X141613000Y-86802000D01*
G75*
G02*
X141748000Y-86937000I0J-135000D01*
G01*
X141748000Y-87307000D01*
G75*
G02*
X141613000Y-87442000I-135000J0D01*
G01*
X141343000Y-87442000D01*
G75*
G02*
X141208000Y-87307000I0J135000D01*
G01*
G37*
G36*
G01*
X140188000Y-87307000D02*
X140188000Y-86937000D01*
G75*
G02*
X140323000Y-86802000I135000J0D01*
G01*
X140593000Y-86802000D01*
G75*
G02*
X140728000Y-86937000I0J-135000D01*
G01*
X140728000Y-87307000D01*
G75*
G02*
X140593000Y-87442000I-135000J0D01*
G01*
X140323000Y-87442000D01*
G75*
G02*
X140188000Y-87307000I0J135000D01*
G01*
G37*
%TD*%
%TO.C,R5*%
G36*
G01*
X142165000Y-69910000D02*
X141795000Y-69910000D01*
G75*
G02*
X141660000Y-69775000I0J135000D01*
G01*
X141660000Y-69505000D01*
G75*
G02*
X141795000Y-69370000I135000J0D01*
G01*
X142165000Y-69370000D01*
G75*
G02*
X142300000Y-69505000I0J-135000D01*
G01*
X142300000Y-69775000D01*
G75*
G02*
X142165000Y-69910000I-135000J0D01*
G01*
G37*
G36*
G01*
X142165000Y-70930000D02*
X141795000Y-70930000D01*
G75*
G02*
X141660000Y-70795000I0J135000D01*
G01*
X141660000Y-70525000D01*
G75*
G02*
X141795000Y-70390000I135000J0D01*
G01*
X142165000Y-70390000D01*
G75*
G02*
X142300000Y-70525000I0J-135000D01*
G01*
X142300000Y-70795000D01*
G75*
G02*
X142165000Y-70930000I-135000J0D01*
G01*
G37*
%TD*%
%TO.C,R4*%
G36*
G01*
X142105000Y-67290000D02*
X141735000Y-67290000D01*
G75*
G02*
X141600000Y-67155000I0J135000D01*
G01*
X141600000Y-66885000D01*
G75*
G02*
X141735000Y-66750000I135000J0D01*
G01*
X142105000Y-66750000D01*
G75*
G02*
X142240000Y-66885000I0J-135000D01*
G01*
X142240000Y-67155000D01*
G75*
G02*
X142105000Y-67290000I-135000J0D01*
G01*
G37*
G36*
G01*
X142105000Y-68310000D02*
X141735000Y-68310000D01*
G75*
G02*
X141600000Y-68175000I0J135000D01*
G01*
X141600000Y-67905000D01*
G75*
G02*
X141735000Y-67770000I135000J0D01*
G01*
X142105000Y-67770000D01*
G75*
G02*
X142240000Y-67905000I0J-135000D01*
G01*
X142240000Y-68175000D01*
G75*
G02*
X142105000Y-68310000I-135000J0D01*
G01*
G37*
%TD*%
%TO.C,R2*%
G36*
G01*
X132880000Y-82345000D02*
X132880000Y-81975000D01*
G75*
G02*
X133015000Y-81840000I135000J0D01*
G01*
X133285000Y-81840000D01*
G75*
G02*
X133420000Y-81975000I0J-135000D01*
G01*
X133420000Y-82345000D01*
G75*
G02*
X133285000Y-82480000I-135000J0D01*
G01*
X133015000Y-82480000D01*
G75*
G02*
X132880000Y-82345000I0J135000D01*
G01*
G37*
G36*
G01*
X133900000Y-82345000D02*
X133900000Y-81975000D01*
G75*
G02*
X134035000Y-81840000I135000J0D01*
G01*
X134305000Y-81840000D01*
G75*
G02*
X134440000Y-81975000I0J-135000D01*
G01*
X134440000Y-82345000D01*
G75*
G02*
X134305000Y-82480000I-135000J0D01*
G01*
X134035000Y-82480000D01*
G75*
G02*
X133900000Y-82345000I0J135000D01*
G01*
G37*
%TD*%
D21*
%TO.C,e*%
X130760000Y-74940000D03*
%TD*%
D19*
%TO.C,D5*%
X135990000Y-91480000D03*
X133890000Y-91480000D03*
%TD*%
D23*
%TO.C,U1*%
X134340000Y-93120000D03*
X133400000Y-95125000D03*
X135280000Y-95125000D03*
%TD*%
D24*
%TO.C,J1*%
X151638000Y-59352000D03*
X149098000Y-59352000D03*
X146558000Y-59352000D03*
X144018000Y-59352000D03*
X141478000Y-59352000D03*
X138938000Y-59352000D03*
%TD*%
D25*
%TO.C,IC5*%
X149282000Y-70795000D03*
X149282000Y-69525000D03*
X149282000Y-68255000D03*
X149282000Y-66985000D03*
X143778000Y-66985000D03*
X143778000Y-68255000D03*
X143778000Y-69525000D03*
X143778000Y-70795000D03*
%TD*%
D26*
%TO.C,IC3*%
X133655000Y-89432000D03*
X134925000Y-89432000D03*
X136195000Y-89432000D03*
X137465000Y-89432000D03*
X137465000Y-84008000D03*
X136195000Y-84008000D03*
X134925000Y-84008000D03*
X133655000Y-84008000D03*
%TD*%
D27*
%TO.C,FB2*%
X131410000Y-85490000D03*
X131410000Y-82590000D03*
%TD*%
D14*
%TO.C,GND*%
X130175000Y-102616000D03*
%TD*%
%TO.C,GND*%
X160147000Y-102489000D03*
%TD*%
M02*
