M48
; DRILL file {KiCad (5.1.10)-1} date 10/24/21 00:59:19
; FORMAT={-:-/ absolute / metric / decimal}
; #@! TF.CreationDate,2021-10-24T00:59:19+05:30
; #@! TF.GenerationSoftware,Kicad,Pcbnew,(5.1.10)-1
; #@! TF.FileFunction,Plated,1,2,PTH
FMAT,2
METRIC
T1C0.300
T2C0.400
T3C1.000
T4C1.300
T5C2.000
T6C2.200
T7C3.000
T8C3.500
%
G90
G05
T1
X140.312Y-101.854
X140.312Y-102.87
X140.312Y-103.632
X140.312Y-104.394
X140.79Y-88.14
X141.342Y-101.854
X141.342Y-102.87
X141.342Y-103.632
X141.342Y-104.394
X142.332Y-101.854
X142.332Y-102.87
X142.332Y-103.632
X142.332Y-104.394
X143.352Y-101.844
X143.352Y-102.86
X143.352Y-103.622
X143.352Y-104.384
X144.272Y-101.854
X144.272Y-102.87
X144.272Y-103.632
X144.272Y-104.394
X145.288Y-101.854
X145.288Y-102.87
X145.288Y-103.632
X145.288Y-104.394
X146.304Y-101.854
X146.304Y-102.87
X146.304Y-103.632
X146.304Y-104.394
X149.86Y-113.538
T2
X130.21Y-97.71
X130.56Y-81.29
X130.82Y-99.94
X131.42Y-80.42
X131.87Y-93.41
X132.21Y-96.29
X133.12Y-78.88
X133.64Y-85.69
X134.067Y-98.593
X134.069Y-100.033
X134.366Y-93.98
X135.382Y-81.534
X135.534Y-97.714
X135.63Y-84.06
X137.185Y-92.278
X138.709Y-91.999
X138.76Y-88.89
X138.84Y-84.51
X140.46Y-66.87
X142.951Y-62.332
X143.44Y-90.1
X143.51Y-76.708
X143.51Y-86.36
X143.764Y-64.77
X144.272Y-74.93
X144.44Y-72.43
X144.526Y-73.66
X144.856Y-62.332
X145.07Y-86.97
X145.542Y-98.298
X145.87Y-78.412
X145.87Y-90.1
X146.05Y-84.582
X146.99Y-74.7
X147.066Y-85.598
X147.219Y-90.079
X147.422Y-62.332
X148.74Y-90.7
X149.64Y-88.79
X150.038Y-62.281
X151.536Y-99.187
X153.305Y-91.095
X157.87Y-96.58
X158.85Y-79.44
X158.87Y-85.26
X158.94Y-89.71
X159.35Y-97.85
X161.417Y-82.042
T3
X137.439Y-65.075
X137.439Y-67.615
X137.439Y-70.155
X137.439Y-72.695
X138.938Y-60.452
X141.478Y-60.452
X144.018Y-60.452
X146.558Y-60.452
X149.098Y-60.452
X151.638Y-60.452
X153.06Y-65.151
X153.06Y-67.691
X153.06Y-70.231
X153.06Y-72.771
T4
X130.175Y-102.616
X137.75Y-96.18
X140.97Y-92.964
X149.606Y-92.964
X152.76Y-96.22
X160.147Y-102.489
T6
X133.92Y-109.23
X136.398Y-102.87
X154.178Y-102.87
X156.718Y-109.23
T7
X131.74Y-122.71
X131.83Y-60.75
X158.75Y-60.76
X158.77Y-122.7
T5
G00X129.76Y-74.94
M15
G01X131.76Y-74.94
M16
G05
G00X129.96Y-65.33
M15
G01X131.96Y-65.33
M16
G05
G00X131.607Y-115.288
M15
G01X131.607Y-117.288
M16
G05
G00X159.607Y-115.288
M15
G01X159.607Y-117.288
M16
G05
G00X158.66Y-65.06
M15
G01X160.66Y-65.06
M16
G05
G00X158.72Y-74.422
M15
G01X160.72Y-74.422
M16
G05
T7
G00X145.607Y-115.788
M15
G01X145.607Y-116.788
M16
G05
T8
G00X138.266Y-120.538
M15
G01X138.266Y-121.538
M16
G05
G00X145.505Y-122.903
M15
G01X145.505Y-123.903
M16
G05
G00X152.49Y-120.601
M15
G01X152.49Y-121.601
M16
G05
T0
M30
