%FSLAX45Y45*%
G04 Gerber Fmt 4.5, Leading zero omitted, Abs format (unit mm)*
G04 Created by KiCad (PCBNEW (5.1.10)-1) date 2021-10-24 00:59:11*
%MOMM*%
%LPD*%
G01*
G04 APERTURE LIST*
%TA.AperFunction,Profile*%
%ADD10C,0.100000*%
%TD*%
%TA.AperFunction,Profile*%
%ADD11C,0.200000*%
%TD*%
%ADD12C,0.200000*%
%ADD13C,0.300000*%
G04 APERTURE END LIST*
D10*
X14706600Y-6527800D02*
X14706600Y-7239000D01*
X14579600Y-6527800D02*
X14706600Y-6527800D01*
X14579600Y-7239000D02*
X14579600Y-6527800D01*
X14706600Y-7239000D02*
X14579600Y-7239000D01*
D11*
X13412400Y-5679440D02*
X13412400Y-6358640D01*
X12786360Y-8403640D02*
X12786360Y-5678640D01*
X12786360Y-5678640D02*
X13412400Y-5679440D01*
X13412400Y-6358640D02*
X13646400Y-6358640D01*
X15638780Y-5679440D02*
X16267400Y-5679440D01*
X15407640Y-5679440D02*
X15407640Y-6357620D01*
X15407640Y-6357620D02*
X15638780Y-6357620D01*
X15638780Y-6357620D02*
X15638780Y-5679440D01*
X12947400Y-10033680D02*
X12947400Y-8403640D01*
X12947400Y-8403640D02*
X12786360Y-8403640D01*
X13646400Y-5679440D02*
X15407640Y-5679440D01*
X12788900Y-10033680D02*
X12947400Y-10033680D01*
X13646400Y-6358640D02*
X13646400Y-5679440D01*
X16107400Y-10033680D02*
X16266160Y-10033680D01*
X16107400Y-8403640D02*
X16107400Y-10033680D01*
X16267400Y-12659360D02*
X12788900Y-12659360D01*
X12788900Y-12659360D02*
X12788900Y-10033680D01*
X16266160Y-8403640D02*
X16107400Y-8403640D01*
X16267400Y-5679440D02*
X16266160Y-8403640D01*
X16266160Y-10033680D02*
X16267400Y-12659360D01*
D12*
D13*
X13062788Y-13135074D02*
X13062788Y-12835074D01*
X13134217Y-12835074D01*
X13177074Y-12849360D01*
X13205646Y-12877931D01*
X13219931Y-12906503D01*
X13234217Y-12963646D01*
X13234217Y-13006503D01*
X13219931Y-13063646D01*
X13205646Y-13092217D01*
X13177074Y-13120789D01*
X13134217Y-13135074D01*
X13062788Y-13135074D01*
X13362788Y-13135074D02*
X13362788Y-12935074D01*
X13362788Y-12992217D02*
X13377074Y-12963646D01*
X13391360Y-12949360D01*
X13419931Y-12935074D01*
X13448503Y-12935074D01*
X13548503Y-13135074D02*
X13548503Y-12935074D01*
X13548503Y-12835074D02*
X13534217Y-12849360D01*
X13548503Y-12863646D01*
X13562788Y-12849360D01*
X13548503Y-12835074D01*
X13548503Y-12863646D01*
X13734217Y-13135074D02*
X13705646Y-13120789D01*
X13691360Y-13092217D01*
X13691360Y-12835074D01*
X13891360Y-13135074D02*
X13862788Y-13120789D01*
X13848503Y-13092217D01*
X13848503Y-12835074D01*
X14234217Y-13135074D02*
X14234217Y-12835074D01*
X14334217Y-13049360D01*
X14434217Y-12835074D01*
X14434217Y-13135074D01*
X14705646Y-13135074D02*
X14705646Y-12977931D01*
X14691360Y-12949360D01*
X14662788Y-12935074D01*
X14605646Y-12935074D01*
X14577074Y-12949360D01*
X14705646Y-13120789D02*
X14677074Y-13135074D01*
X14605646Y-13135074D01*
X14577074Y-13120789D01*
X14562788Y-13092217D01*
X14562788Y-13063646D01*
X14577074Y-13035074D01*
X14605646Y-13020789D01*
X14677074Y-13020789D01*
X14705646Y-13006503D01*
X14848503Y-12935074D02*
X14848503Y-13235074D01*
X14848503Y-12949360D02*
X14877074Y-12935074D01*
X14934217Y-12935074D01*
X14962788Y-12949360D01*
X14977074Y-12963646D01*
X14991360Y-12992217D01*
X14991360Y-13077931D01*
X14977074Y-13106503D01*
X14962788Y-13120789D01*
X14934217Y-13135074D01*
X14877074Y-13135074D01*
X14848503Y-13120789D01*
X15119931Y-13106503D02*
X15134217Y-13120789D01*
X15119931Y-13135074D01*
X15105646Y-13120789D01*
X15119931Y-13106503D01*
X15119931Y-13135074D01*
X15119931Y-12949360D02*
X15134217Y-12963646D01*
X15119931Y-12977931D01*
X15105646Y-12963646D01*
X15119931Y-12949360D01*
X15119931Y-12977931D01*
M02*
