%TF.GenerationSoftware,KiCad,Pcbnew,(5.1.10)-1*%
%TF.CreationDate,2021-10-24T01:14:29+05:30*%
%TF.ProjectId,Modbus_IO_Board,4d6f6462-7573-45f4-994f-5f426f617264,rev?*%
%TF.SameCoordinates,Original*%
%TF.FileFunction,Legend,Top*%
%TF.FilePolarity,Positive*%
%FSLAX46Y46*%
G04 Gerber Fmt 4.6, Leading zero omitted, Abs format (unit mm)*
G04 Created by KiCad (PCBNEW (5.1.10)-1) date 2021-10-24 01:14:29*
%MOMM*%
%LPD*%
G01*
G04 APERTURE LIST*
%ADD10C,0.200000*%
%ADD11C,0.120000*%
%ADD12C,0.010000*%
%ADD13C,0.400000*%
%ADD14C,0.100000*%
%ADD15C,0.150000*%
G04 APERTURE END LIST*
D10*
X138618000Y-60240800D02*
X138574999Y-60304400D01*
X139263000Y-60304400D02*
X139220000Y-60240800D01*
X138574999Y-60672000D02*
X138618000Y-60735600D01*
X138531000Y-60526400D02*
X138545999Y-60601400D01*
X138508999Y-60824400D02*
X138452000Y-60738000D01*
X139263000Y-60672000D02*
X139292000Y-60601400D01*
X138669000Y-60955600D02*
X138583000Y-60897900D01*
X138531000Y-60450000D02*
X138531000Y-60526400D01*
X138806000Y-60115000D02*
X138735000Y-60144300D01*
X139166000Y-60789700D02*
X139220000Y-60735600D01*
X138881000Y-60876300D02*
X138957000Y-60876300D01*
X138764999Y-60995400D02*
X138669000Y-60955600D01*
X139103000Y-60832100D02*
X139166000Y-60789700D01*
X138957000Y-60100100D02*
X138881000Y-60100100D01*
X139032000Y-60861400D02*
X139103000Y-60832100D01*
X138866999Y-61015600D02*
X138764999Y-60995400D01*
X139220000Y-60240800D02*
X139166000Y-60186700D01*
X139306999Y-60526400D02*
X139306999Y-60450000D01*
X138583000Y-60897900D02*
X138508999Y-60824400D01*
X138392000Y-60540100D02*
X138392000Y-60436300D01*
X138412000Y-60642100D02*
X138392000Y-60540100D01*
X138735000Y-60832100D02*
X138806000Y-60861400D01*
X139073000Y-60995400D02*
X138971000Y-61015600D01*
X138735000Y-60144300D02*
X138672000Y-60186700D01*
X138806000Y-60861400D02*
X138881000Y-60876300D01*
X139306999Y-60450000D02*
X139292000Y-60375000D01*
X138881000Y-60100100D02*
X138806000Y-60115000D01*
X139169000Y-60955600D02*
X139073000Y-60995400D01*
X139103000Y-60144300D02*
X139032000Y-60115000D01*
X138545999Y-60601400D02*
X138574999Y-60672000D01*
X139292000Y-60601400D02*
X139306999Y-60526400D01*
X139220000Y-60735600D02*
X139263000Y-60672000D01*
X139292000Y-60375000D02*
X139263000Y-60304400D01*
X138618000Y-60735600D02*
X138672000Y-60789700D01*
X138971000Y-61015600D02*
X138866999Y-61015600D01*
X138672000Y-60186700D02*
X138618000Y-60240800D01*
X139032000Y-60115000D02*
X138957000Y-60100100D01*
X138957000Y-60876300D02*
X139032000Y-60861400D01*
X138672000Y-60789700D02*
X138735000Y-60832100D01*
X138452000Y-60738000D02*
X138412000Y-60642100D01*
X138392000Y-60436300D02*
X138412000Y-60334300D01*
X139166000Y-60186700D02*
X139103000Y-60144300D01*
X138574999Y-60304400D02*
X138545999Y-60375000D01*
X138545999Y-60375000D02*
X138531000Y-60450000D01*
X138452000Y-60238400D02*
X138508999Y-60152000D01*
X138669000Y-60020800D02*
X138764999Y-59981000D01*
X139386000Y-60738000D02*
X139329000Y-60824400D01*
X139446000Y-60436300D02*
X139446000Y-60540100D01*
X139255000Y-60897900D02*
X139169000Y-60955600D01*
X139329000Y-60824400D02*
X139255000Y-60897900D01*
X139425999Y-60642100D02*
X139386000Y-60738000D01*
X138412000Y-60334300D02*
X138452000Y-60238400D01*
X139446000Y-60540100D02*
X139425999Y-60642100D01*
X139425999Y-60334300D02*
X139446000Y-60436300D01*
X139073000Y-59981000D02*
X139169000Y-60020800D01*
X139386000Y-60238400D02*
X139425999Y-60334300D01*
X139329000Y-60152000D02*
X139386000Y-60238400D01*
X139255000Y-60078500D02*
X139329000Y-60152000D01*
X139169000Y-60020800D02*
X139255000Y-60078500D01*
X138971000Y-59960800D02*
X139073000Y-59981000D01*
X138866999Y-59960800D02*
X138971000Y-59960800D01*
X138764999Y-59981000D02*
X138866999Y-59960800D01*
X138583000Y-60078500D02*
X138669000Y-60020800D01*
X138508999Y-60152000D02*
X138583000Y-60078500D01*
X143616000Y-60365000D02*
X143601000Y-60440000D01*
X143805000Y-60822100D02*
X143876000Y-60851400D01*
X143645000Y-60294400D02*
X143616000Y-60365000D01*
X143462000Y-60426300D02*
X143482000Y-60324300D01*
X143742000Y-60779700D02*
X143805000Y-60822100D01*
X144027000Y-60866300D02*
X144102000Y-60851400D01*
X143876000Y-60851400D02*
X143951000Y-60866300D01*
X143482000Y-60632100D02*
X143462000Y-60530100D01*
X143645000Y-60662000D02*
X143688000Y-60725600D01*
X143805000Y-60134300D02*
X143742000Y-60176700D01*
X144236000Y-60779700D02*
X144290000Y-60725600D01*
X144362000Y-60365000D02*
X144333000Y-60294400D01*
X143742000Y-60176700D02*
X143688000Y-60230800D01*
X144173000Y-60822100D02*
X144236000Y-60779700D01*
X144377000Y-60516400D02*
X144377000Y-60440000D01*
X144102000Y-60851400D02*
X144173000Y-60822100D01*
X144333000Y-60294400D02*
X144290000Y-60230800D01*
X144102000Y-60105000D02*
X144027000Y-60090100D01*
X144362000Y-60591400D02*
X144377000Y-60516400D01*
X143951000Y-60866300D02*
X144027000Y-60866300D01*
X143688000Y-60725600D02*
X143742000Y-60779700D01*
X143616000Y-60591400D02*
X143645000Y-60662000D01*
X143601000Y-60516400D02*
X143616000Y-60591400D01*
X143601000Y-60440000D02*
X143601000Y-60516400D01*
X143951000Y-60090100D02*
X143876000Y-60105000D01*
X144027000Y-60090100D02*
X143951000Y-60090100D01*
X144290000Y-60230800D02*
X144236000Y-60176700D01*
X144236000Y-60176700D02*
X144173000Y-60134300D01*
X143688000Y-60230800D02*
X143645000Y-60294400D01*
X143876000Y-60105000D02*
X143805000Y-60134300D01*
X144173000Y-60134300D02*
X144102000Y-60105000D01*
X144377000Y-60440000D02*
X144362000Y-60365000D01*
X144290000Y-60725600D02*
X144333000Y-60662000D01*
X143462000Y-60530100D02*
X143462000Y-60426300D01*
X143522000Y-60728000D02*
X143482000Y-60632100D01*
X144333000Y-60662000D02*
X144362000Y-60591400D01*
X140942000Y-60426300D02*
X140962000Y-60324300D01*
X141168000Y-60725600D02*
X141222000Y-60779700D01*
X141222000Y-60779700D02*
X141285000Y-60822100D01*
X141356000Y-60105000D02*
X141285000Y-60134300D01*
X141842000Y-60591400D02*
X141857000Y-60516400D01*
X141653000Y-60134300D02*
X141582000Y-60105000D01*
X141857000Y-60440000D02*
X141842000Y-60365000D01*
X141582000Y-60851400D02*
X141653000Y-60822100D01*
X141857000Y-60516400D02*
X141857000Y-60440000D01*
X141582000Y-60105000D02*
X141507000Y-60090100D01*
X141716000Y-60779700D02*
X141770000Y-60725600D01*
X143579000Y-60814400D02*
X143522000Y-60728000D01*
X144143000Y-60985400D02*
X144041000Y-61005600D01*
X141125000Y-60294400D02*
X141096000Y-60365000D01*
X143739000Y-60945600D02*
X143653000Y-60887900D01*
X143482000Y-60324300D02*
X143522000Y-60228400D01*
X141653000Y-60822100D02*
X141716000Y-60779700D01*
X143937000Y-61005600D02*
X143835000Y-60985400D01*
X141507000Y-60866300D02*
X141582000Y-60851400D01*
X144456000Y-60728000D02*
X144399000Y-60814400D01*
X143937000Y-59950800D02*
X144041000Y-59950800D01*
X140962000Y-60632100D02*
X140942000Y-60530100D01*
X144516000Y-60530100D02*
X144496000Y-60632100D01*
X141842000Y-60365000D02*
X141813000Y-60294400D01*
X143579000Y-60142000D02*
X143653000Y-60068500D01*
X144325000Y-60068500D02*
X144399000Y-60142000D01*
X141125000Y-60662000D02*
X141168000Y-60725600D01*
X143653000Y-60887900D02*
X143579000Y-60814400D01*
X143522000Y-60228400D02*
X143579000Y-60142000D01*
X144325000Y-60887900D02*
X144239000Y-60945600D01*
X140942000Y-60530100D02*
X140942000Y-60426300D01*
X141081000Y-60516400D02*
X141096000Y-60591400D01*
X141096000Y-60591400D02*
X141125000Y-60662000D01*
X144399000Y-60142000D02*
X144456000Y-60228400D01*
X144239000Y-60010800D02*
X144325000Y-60068500D01*
X143653000Y-60068500D02*
X143739000Y-60010800D01*
X141716000Y-60176700D02*
X141653000Y-60134300D01*
X141002000Y-60728000D02*
X140962000Y-60632100D01*
X143835000Y-60985400D02*
X143739000Y-60945600D01*
X141507000Y-60090100D02*
X141431000Y-60090100D01*
X144041000Y-61005600D02*
X143937000Y-61005600D01*
X144239000Y-60945600D02*
X144143000Y-60985400D01*
X144516000Y-60426300D02*
X144516000Y-60530100D01*
X144496000Y-60324300D02*
X144516000Y-60426300D01*
X141813000Y-60294400D02*
X141770000Y-60230800D01*
X144399000Y-60814400D02*
X144325000Y-60887900D01*
X144496000Y-60632100D02*
X144456000Y-60728000D01*
X144456000Y-60228400D02*
X144496000Y-60324300D01*
X141431000Y-60866300D02*
X141507000Y-60866300D01*
X141770000Y-60230800D02*
X141716000Y-60176700D01*
X141770000Y-60725600D02*
X141813000Y-60662000D01*
X144143000Y-59971000D02*
X144239000Y-60010800D01*
X144041000Y-59950800D02*
X144143000Y-59971000D01*
X143835000Y-59971000D02*
X143937000Y-59950800D01*
X141096000Y-60365000D02*
X141081000Y-60440000D01*
X143739000Y-60010800D02*
X143835000Y-59971000D01*
X141222000Y-60176700D02*
X141168000Y-60230800D01*
X141081000Y-60440000D02*
X141081000Y-60516400D01*
X141285000Y-60822100D02*
X141356000Y-60851400D01*
X141813000Y-60662000D02*
X141842000Y-60591400D01*
X141168000Y-60230800D02*
X141125000Y-60294400D01*
X141285000Y-60134300D02*
X141222000Y-60176700D01*
X141356000Y-60851400D02*
X141431000Y-60866300D01*
X141431000Y-60090100D02*
X141356000Y-60105000D01*
X149467000Y-60440000D02*
X149452000Y-60365000D01*
X148966000Y-60851400D02*
X149041000Y-60866300D01*
X148691000Y-60516400D02*
X148706000Y-60591400D01*
X148966000Y-60105000D02*
X148895000Y-60134300D01*
X149326000Y-60176700D02*
X149263000Y-60134300D01*
X148691000Y-60440000D02*
X148691000Y-60516400D01*
X148706000Y-60591400D02*
X148735000Y-60662000D01*
X148706000Y-60365000D02*
X148691000Y-60440000D01*
X141059000Y-60814400D02*
X141002000Y-60728000D01*
X141133000Y-60887900D02*
X141059000Y-60814400D01*
X149192000Y-60105000D02*
X149117000Y-60090100D01*
X141219000Y-60945600D02*
X141133000Y-60887900D01*
X149423000Y-60662000D02*
X149452000Y-60591400D01*
X149041000Y-60090100D02*
X148966000Y-60105000D01*
X149380000Y-60230800D02*
X149326000Y-60176700D01*
X148552000Y-60530100D02*
X148552000Y-60426300D01*
X148572000Y-60632100D02*
X148552000Y-60530100D01*
X149326000Y-60779700D02*
X149380000Y-60725600D01*
X141879000Y-60142000D02*
X141936000Y-60228400D01*
X141623000Y-59971000D02*
X141719000Y-60010800D01*
X141315000Y-60985400D02*
X141219000Y-60945600D01*
X141417000Y-61005600D02*
X141315000Y-60985400D01*
X141521000Y-61005600D02*
X141417000Y-61005600D01*
X141417000Y-59950800D02*
X141521000Y-59950800D01*
X148612000Y-60728000D02*
X148572000Y-60632100D01*
X141976000Y-60632100D02*
X141936000Y-60728000D01*
X148778000Y-60725600D02*
X148832000Y-60779700D01*
X149041000Y-60866300D02*
X149117000Y-60866300D01*
X141623000Y-60985400D02*
X141521000Y-61005600D01*
X141719000Y-60945600D02*
X141623000Y-60985400D01*
X148832000Y-60176700D02*
X148778000Y-60230800D01*
X141805000Y-60887900D02*
X141719000Y-60945600D01*
X141879000Y-60814400D02*
X141805000Y-60887900D01*
X141936000Y-60728000D02*
X141879000Y-60814400D01*
X141996000Y-60530100D02*
X141976000Y-60632100D01*
X140962000Y-60324300D02*
X141002000Y-60228400D01*
X141996000Y-60426300D02*
X141996000Y-60530100D01*
X141976000Y-60324300D02*
X141996000Y-60426300D01*
X141936000Y-60228400D02*
X141976000Y-60324300D01*
X141805000Y-60068500D02*
X141879000Y-60142000D01*
X141315000Y-59971000D02*
X141417000Y-59950800D01*
X149452000Y-60591400D02*
X149467000Y-60516400D01*
X148832000Y-60779700D02*
X148895000Y-60822100D01*
X141719000Y-60010800D02*
X141805000Y-60068500D01*
X141521000Y-59950800D02*
X141623000Y-59971000D01*
X141133000Y-60068500D02*
X141219000Y-60010800D01*
X149380000Y-60725600D02*
X149423000Y-60662000D01*
X148735000Y-60662000D02*
X148778000Y-60725600D01*
X148552000Y-60426300D02*
X148572000Y-60324300D01*
X149192000Y-60851400D02*
X149263000Y-60822100D01*
X148895000Y-60822100D02*
X148966000Y-60851400D01*
X141059000Y-60142000D02*
X141133000Y-60068500D01*
X148735000Y-60294400D02*
X148706000Y-60365000D01*
X148778000Y-60230800D02*
X148735000Y-60294400D01*
X149117000Y-60090100D02*
X149041000Y-60090100D01*
X149263000Y-60822100D02*
X149326000Y-60779700D01*
X149467000Y-60516400D02*
X149467000Y-60440000D01*
X148895000Y-60134300D02*
X148832000Y-60176700D01*
X149117000Y-60866300D02*
X149192000Y-60851400D01*
X149452000Y-60365000D02*
X149423000Y-60294400D01*
X141219000Y-60010800D02*
X141315000Y-59971000D01*
X149263000Y-60134300D02*
X149192000Y-60105000D01*
X141002000Y-60228400D02*
X141059000Y-60142000D01*
X149423000Y-60294400D02*
X149380000Y-60230800D01*
X146796000Y-60176700D02*
X146733000Y-60134300D01*
X146850000Y-60725600D02*
X146893000Y-60662000D01*
X146511000Y-60866300D02*
X146587000Y-60866300D01*
X146161000Y-60440000D02*
X146161000Y-60516400D01*
X146248000Y-60230800D02*
X146205000Y-60294400D01*
X146587000Y-60090100D02*
X146511000Y-60090100D01*
X146662000Y-60105000D02*
X146587000Y-60090100D01*
X146922000Y-60365000D02*
X146893000Y-60294400D01*
X146733000Y-60822100D02*
X146796000Y-60779700D01*
X146365000Y-60822100D02*
X146436000Y-60851400D01*
X146205000Y-60662000D02*
X146248000Y-60725600D01*
X146893000Y-60662000D02*
X146922000Y-60591400D01*
X146436000Y-60105000D02*
X146365000Y-60134300D01*
X146937000Y-60516400D02*
X146937000Y-60440000D01*
X149546000Y-60228400D02*
X149586000Y-60324300D01*
X146662000Y-60851400D02*
X146733000Y-60822100D01*
X148669000Y-60814400D02*
X148612000Y-60728000D01*
X148925000Y-59971000D02*
X149027000Y-59950800D01*
X146302000Y-60779700D02*
X146365000Y-60822100D01*
X148669000Y-60142000D02*
X148743000Y-60068500D01*
X146082000Y-60728000D02*
X146042000Y-60632100D01*
X148743000Y-60887900D02*
X148669000Y-60814400D01*
X146248000Y-60725600D02*
X146302000Y-60779700D01*
X149489000Y-60142000D02*
X149546000Y-60228400D01*
X146733000Y-60134300D02*
X146662000Y-60105000D01*
X148829000Y-60945600D02*
X148743000Y-60887900D01*
X148925000Y-60985400D02*
X148829000Y-60945600D01*
X149606000Y-60426300D02*
X149606000Y-60530100D01*
X146205000Y-60294400D02*
X146176000Y-60365000D01*
X149027000Y-61005600D02*
X148925000Y-60985400D01*
X149489000Y-60814400D02*
X149415000Y-60887900D01*
X149131000Y-61005600D02*
X149027000Y-61005600D01*
X146937000Y-60440000D02*
X146922000Y-60365000D01*
X149233000Y-60985400D02*
X149131000Y-61005600D01*
X146587000Y-60866300D02*
X146662000Y-60851400D01*
X149546000Y-60728000D02*
X149489000Y-60814400D01*
X146176000Y-60591400D02*
X146205000Y-60662000D01*
X149329000Y-60945600D02*
X149233000Y-60985400D01*
X146922000Y-60591400D02*
X146937000Y-60516400D01*
X149329000Y-60010800D02*
X149415000Y-60068500D01*
X149415000Y-60887900D02*
X149329000Y-60945600D01*
X149586000Y-60632100D02*
X149546000Y-60728000D01*
X149233000Y-59971000D02*
X149329000Y-60010800D01*
X148829000Y-60010800D02*
X148925000Y-59971000D01*
X148572000Y-60324300D02*
X148612000Y-60228400D01*
X149606000Y-60530100D02*
X149586000Y-60632100D01*
X149131000Y-59950800D02*
X149233000Y-59971000D01*
X149586000Y-60324300D02*
X149606000Y-60426300D01*
X149415000Y-60068500D02*
X149489000Y-60142000D01*
X149027000Y-59950800D02*
X149131000Y-59950800D01*
X148743000Y-60068500D02*
X148829000Y-60010800D01*
X148612000Y-60228400D02*
X148669000Y-60142000D01*
X146176000Y-60365000D02*
X146161000Y-60440000D01*
X146365000Y-60134300D02*
X146302000Y-60176700D01*
X146511000Y-60090100D02*
X146436000Y-60105000D01*
X146850000Y-60230800D02*
X146796000Y-60176700D01*
X146893000Y-60294400D02*
X146850000Y-60230800D01*
X146022000Y-60426300D02*
X146042000Y-60324300D01*
X146436000Y-60851400D02*
X146511000Y-60866300D01*
X146796000Y-60779700D02*
X146850000Y-60725600D01*
X146042000Y-60632100D02*
X146022000Y-60530100D01*
X146161000Y-60516400D02*
X146176000Y-60591400D01*
X146022000Y-60530100D02*
X146022000Y-60426300D01*
X146302000Y-60176700D02*
X146248000Y-60230800D01*
X151992000Y-60591400D02*
X152007000Y-60516400D01*
X151920000Y-60725600D02*
X151963000Y-60662000D01*
X151803000Y-60822100D02*
X151866000Y-60779700D01*
X151866000Y-60779700D02*
X151920000Y-60725600D01*
X151092000Y-60426300D02*
X151112000Y-60324300D01*
X151581000Y-60866300D02*
X151657000Y-60866300D01*
X151275000Y-60662000D02*
X151318000Y-60725600D01*
X146139000Y-60142000D02*
X146213000Y-60068500D01*
X151246000Y-60591400D02*
X151275000Y-60662000D01*
X151657000Y-60866300D02*
X151732000Y-60851400D01*
X151152000Y-60728000D02*
X151112000Y-60632100D01*
X147076000Y-60530100D02*
X147056000Y-60632100D01*
X146601000Y-59950800D02*
X146703000Y-59971000D01*
X152007000Y-60516400D02*
X152007000Y-60440000D01*
X146885000Y-60887900D02*
X146799000Y-60945600D01*
X151920000Y-60230800D02*
X151866000Y-60176700D01*
X146139000Y-60814400D02*
X146082000Y-60728000D01*
X146959000Y-60142000D02*
X147016000Y-60228400D01*
X146799000Y-60010800D02*
X146885000Y-60068500D01*
X146213000Y-60068500D02*
X146299000Y-60010800D01*
X151506000Y-60105000D02*
X151435000Y-60134300D01*
X146213000Y-60887900D02*
X146139000Y-60814400D01*
X146082000Y-60228400D02*
X146139000Y-60142000D01*
X151318000Y-60725600D02*
X151372000Y-60779700D01*
X151803000Y-60134300D02*
X151732000Y-60105000D01*
X151275000Y-60294400D02*
X151246000Y-60365000D01*
X146299000Y-60945600D02*
X146213000Y-60887900D01*
X146395000Y-60985400D02*
X146299000Y-60945600D01*
X151866000Y-60176700D02*
X151803000Y-60134300D01*
X146395000Y-59971000D02*
X146497000Y-59950800D01*
X146497000Y-61005600D02*
X146395000Y-60985400D01*
X151963000Y-60294400D02*
X151920000Y-60230800D01*
X147056000Y-60324300D02*
X147076000Y-60426300D01*
X151246000Y-60365000D02*
X151231000Y-60440000D01*
X151318000Y-60230800D02*
X151275000Y-60294400D01*
X151732000Y-60105000D02*
X151657000Y-60090100D01*
X146601000Y-61005600D02*
X146497000Y-61005600D01*
X151506000Y-60851400D02*
X151581000Y-60866300D01*
X146703000Y-60985400D02*
X146601000Y-61005600D01*
X151732000Y-60851400D02*
X151803000Y-60822100D01*
X146799000Y-60945600D02*
X146703000Y-60985400D01*
X146959000Y-60814400D02*
X146885000Y-60887900D01*
X146042000Y-60324300D02*
X146082000Y-60228400D01*
X151231000Y-60516400D02*
X151246000Y-60591400D01*
X151372000Y-60779700D02*
X151435000Y-60822100D01*
X147016000Y-60728000D02*
X146959000Y-60814400D01*
X147056000Y-60632100D02*
X147016000Y-60728000D01*
X147076000Y-60426300D02*
X147076000Y-60530100D01*
X147016000Y-60228400D02*
X147056000Y-60324300D01*
X151435000Y-60822100D02*
X151506000Y-60851400D01*
X151112000Y-60632100D02*
X151092000Y-60530100D01*
X146885000Y-60068500D02*
X146959000Y-60142000D01*
X146299000Y-60010800D02*
X146395000Y-59971000D01*
X146703000Y-59971000D02*
X146799000Y-60010800D01*
X152007000Y-60440000D02*
X151992000Y-60365000D01*
X151372000Y-60176700D02*
X151318000Y-60230800D01*
X151963000Y-60662000D02*
X151992000Y-60591400D01*
X146497000Y-59950800D02*
X146601000Y-59950800D01*
X151992000Y-60365000D02*
X151963000Y-60294400D01*
X151092000Y-60530100D02*
X151092000Y-60426300D01*
X151231000Y-60440000D02*
X151231000Y-60516400D01*
X151435000Y-60134300D02*
X151372000Y-60176700D01*
X151581000Y-60090100D02*
X151506000Y-60105000D01*
X151657000Y-60090100D02*
X151581000Y-60090100D01*
X151773000Y-60985400D02*
X151671000Y-61005600D01*
X151283000Y-60887900D02*
X151209000Y-60814400D01*
X152146000Y-60426300D02*
X152146000Y-60530100D01*
X151773000Y-59971000D02*
X151869000Y-60010800D01*
X151209000Y-60142000D02*
X151283000Y-60068500D01*
X151283000Y-60068500D02*
X151369000Y-60010800D01*
X151209000Y-60814400D02*
X151152000Y-60728000D01*
X151369000Y-60945600D02*
X151283000Y-60887900D01*
X151465000Y-60985400D02*
X151369000Y-60945600D01*
X151955000Y-60887900D02*
X151869000Y-60945600D01*
X152029000Y-60814400D02*
X151955000Y-60887900D01*
X152126000Y-60632100D02*
X152086000Y-60728000D01*
X152146000Y-60530100D02*
X152126000Y-60632100D01*
X151869000Y-60010800D02*
X151955000Y-60068500D01*
X151567000Y-61005600D02*
X151465000Y-60985400D01*
X151369000Y-60010800D02*
X151465000Y-59971000D01*
X152029000Y-60142000D02*
X152086000Y-60228400D01*
X151955000Y-60068500D02*
X152029000Y-60142000D01*
X152126000Y-60324300D02*
X152146000Y-60426300D01*
X151671000Y-61005600D02*
X151567000Y-61005600D01*
X151869000Y-60945600D02*
X151773000Y-60985400D01*
X152086000Y-60728000D02*
X152029000Y-60814400D01*
X151112000Y-60324300D02*
X151152000Y-60228400D01*
X151671000Y-59950800D02*
X151773000Y-59971000D01*
X152086000Y-60228400D02*
X152126000Y-60324300D01*
X151567000Y-59950800D02*
X151671000Y-59950800D01*
X151465000Y-59971000D02*
X151567000Y-59950800D01*
X151152000Y-60228400D02*
X151209000Y-60142000D01*
D11*
%TO.C,H1*%
X133862000Y-60750000D02*
G75*
G03*
X133862000Y-60750000I-2032000J0D01*
G01*
%TO.C,H2*%
X160782000Y-60760000D02*
G75*
G03*
X160782000Y-60760000I-2032000J0D01*
G01*
%TO.C,H4*%
X160802000Y-122700000D02*
G75*
G03*
X160802000Y-122700000I-2032000J0D01*
G01*
%TO.C,H3*%
X133772000Y-122710000D02*
G75*
G03*
X133772000Y-122710000I-2032000J0D01*
G01*
%TO.C,TP9*%
X141838217Y-92965784D02*
G75*
G03*
X141838217Y-92965784I-868217J0D01*
G01*
%TO.C,I-3*%
X136739400Y-69454800D02*
X138139400Y-69454800D01*
X138139400Y-69454800D02*
X138139400Y-70854800D01*
X138139400Y-70854800D02*
X136739400Y-70854800D01*
X136739400Y-70854800D02*
X136739400Y-69454800D01*
%TO.C,I-1*%
X136739400Y-64374800D02*
X138139400Y-64374800D01*
X138139400Y-64374800D02*
X138139400Y-65774800D01*
X138139400Y-65774800D02*
X136739400Y-65774800D01*
X136739400Y-65774800D02*
X136739400Y-64374800D01*
%TO.C,I-2*%
X136739400Y-66914800D02*
X138139400Y-66914800D01*
X138139400Y-66914800D02*
X138139400Y-68314800D01*
X138139400Y-68314800D02*
X136739400Y-68314800D01*
X136739400Y-68314800D02*
X136739400Y-66914800D01*
%TO.C,I-4*%
X136739400Y-71994800D02*
X138139400Y-71994800D01*
X138139400Y-71994800D02*
X138139400Y-73394800D01*
X138139400Y-73394800D02*
X136739400Y-73394800D01*
X136739400Y-73394800D02*
X136739400Y-71994800D01*
%TO.C,O-4*%
X152360400Y-73471000D02*
X152360400Y-72071000D01*
X153760400Y-73471000D02*
X152360400Y-73471000D01*
X153760400Y-72071000D02*
X153760400Y-73471000D01*
X152360400Y-72071000D02*
X153760400Y-72071000D01*
%TO.C,O-3*%
X152360400Y-70931000D02*
X152360400Y-69531000D01*
X153760400Y-70931000D02*
X152360400Y-70931000D01*
X153760400Y-69531000D02*
X153760400Y-70931000D01*
X152360400Y-69531000D02*
X153760400Y-69531000D01*
%TO.C,O-2*%
X152360400Y-68391000D02*
X152360400Y-66991000D01*
X153760400Y-68391000D02*
X152360400Y-68391000D01*
X153760400Y-66991000D02*
X153760400Y-68391000D01*
X152360400Y-66991000D02*
X153760400Y-66991000D01*
%TO.C,O-1*%
X152360400Y-65851000D02*
X152360400Y-64451000D01*
X153760400Y-65851000D02*
X152360400Y-65851000D01*
X153760400Y-64451000D02*
X153760400Y-65851000D01*
X152360400Y-64451000D02*
X153760400Y-64451000D01*
%TO.C,TP11*%
X153478000Y-102170000D02*
X154878000Y-102170000D01*
X154878000Y-102170000D02*
X154878000Y-103570000D01*
X154878000Y-103570000D02*
X153478000Y-103570000D01*
X153478000Y-103570000D02*
X153478000Y-102170000D01*
%TO.C,12V*%
X156018000Y-109930000D02*
X156018000Y-108530000D01*
X157418000Y-109930000D02*
X156018000Y-109930000D01*
X157418000Y-108530000D02*
X157418000Y-109930000D01*
X156018000Y-108530000D02*
X157418000Y-108530000D01*
%TO.C,TP15*%
X135698000Y-102170000D02*
X137098000Y-102170000D01*
X137098000Y-102170000D02*
X137098000Y-103570000D01*
X137098000Y-103570000D02*
X135698000Y-103570000D01*
X135698000Y-103570000D02*
X135698000Y-102170000D01*
%TO.C,12V*%
X133220000Y-108530000D02*
X134620000Y-108530000D01*
X134620000Y-108530000D02*
X134620000Y-109930000D01*
X134620000Y-109930000D02*
X133220000Y-109930000D01*
X133220000Y-109930000D02*
X133220000Y-108530000D01*
D12*
%TO.C,G\u002A\u002A\u002A*%
G36*
X135126000Y-72181333D02*
G01*
X130638667Y-72181333D01*
X130638667Y-71656350D01*
X130723333Y-71656350D01*
X130754681Y-71844197D01*
X130864424Y-71972366D01*
X131076107Y-72050598D01*
X131413278Y-72088633D01*
X131787714Y-72096667D01*
X132586000Y-72096667D01*
X132586000Y-71419333D01*
X132117676Y-71419333D01*
X131804592Y-71401186D01*
X131637752Y-71343694D01*
X131602963Y-71298445D01*
X131607009Y-71170763D01*
X131657577Y-70933292D01*
X131742562Y-70622644D01*
X131849859Y-70275428D01*
X131967367Y-69928255D01*
X132082979Y-69617737D01*
X132184594Y-69380482D01*
X132260106Y-69253102D01*
X132282992Y-69241558D01*
X132337699Y-69327453D01*
X132432874Y-69548384D01*
X132558340Y-69877805D01*
X132703917Y-70289168D01*
X132835764Y-70683116D01*
X133297195Y-72096667D01*
X133670322Y-72096667D01*
X133913168Y-72080219D01*
X134005858Y-72027422D01*
X134003077Y-71990833D01*
X133966365Y-71883040D01*
X133885307Y-71638137D01*
X133767763Y-71280096D01*
X133621591Y-70832892D01*
X133454649Y-70320499D01*
X133349820Y-69998016D01*
X133170461Y-69456455D01*
X133001101Y-68964927D01*
X132850670Y-68547800D01*
X132728094Y-68229441D01*
X132642301Y-68034217D01*
X132613087Y-67987183D01*
X132397237Y-67878181D01*
X132137911Y-67888011D01*
X131969793Y-67969167D01*
X131906932Y-68075348D01*
X131804603Y-68314550D01*
X131672603Y-68657785D01*
X131520733Y-69076065D01*
X131358791Y-69540404D01*
X131196576Y-70021815D01*
X131043888Y-70491310D01*
X130910526Y-70919901D01*
X130806288Y-71278603D01*
X130740975Y-71538427D01*
X130723333Y-71656350D01*
X130638667Y-71656350D01*
X130638667Y-67863333D01*
X133517333Y-67863333D01*
X133517333Y-68202000D01*
X133525790Y-68418782D01*
X133582113Y-68515111D01*
X133732732Y-68539860D01*
X133839066Y-68540666D01*
X134076120Y-68565941D01*
X134245192Y-68628168D01*
X134262400Y-68642266D01*
X134301383Y-68743852D01*
X134330350Y-68968124D01*
X134349980Y-69327011D01*
X134360957Y-69832441D01*
X134364000Y-70420266D01*
X134364000Y-72096667D01*
X135041333Y-72096667D01*
X135041333Y-70149333D01*
X135040860Y-69468663D01*
X135034336Y-68938521D01*
X135014102Y-68540109D01*
X134972500Y-68254628D01*
X134901872Y-68063281D01*
X134794558Y-67947270D01*
X134642901Y-67887797D01*
X134439242Y-67866064D01*
X134175922Y-67863272D01*
X134110000Y-67863333D01*
X133517333Y-67863333D01*
X130638667Y-67863333D01*
X130638667Y-67778667D01*
X135126000Y-67778667D01*
X135126000Y-72181333D01*
G37*
X135126000Y-72181333D02*
X130638667Y-72181333D01*
X130638667Y-71656350D01*
X130723333Y-71656350D01*
X130754681Y-71844197D01*
X130864424Y-71972366D01*
X131076107Y-72050598D01*
X131413278Y-72088633D01*
X131787714Y-72096667D01*
X132586000Y-72096667D01*
X132586000Y-71419333D01*
X132117676Y-71419333D01*
X131804592Y-71401186D01*
X131637752Y-71343694D01*
X131602963Y-71298445D01*
X131607009Y-71170763D01*
X131657577Y-70933292D01*
X131742562Y-70622644D01*
X131849859Y-70275428D01*
X131967367Y-69928255D01*
X132082979Y-69617737D01*
X132184594Y-69380482D01*
X132260106Y-69253102D01*
X132282992Y-69241558D01*
X132337699Y-69327453D01*
X132432874Y-69548384D01*
X132558340Y-69877805D01*
X132703917Y-70289168D01*
X132835764Y-70683116D01*
X133297195Y-72096667D01*
X133670322Y-72096667D01*
X133913168Y-72080219D01*
X134005858Y-72027422D01*
X134003077Y-71990833D01*
X133966365Y-71883040D01*
X133885307Y-71638137D01*
X133767763Y-71280096D01*
X133621591Y-70832892D01*
X133454649Y-70320499D01*
X133349820Y-69998016D01*
X133170461Y-69456455D01*
X133001101Y-68964927D01*
X132850670Y-68547800D01*
X132728094Y-68229441D01*
X132642301Y-68034217D01*
X132613087Y-67987183D01*
X132397237Y-67878181D01*
X132137911Y-67888011D01*
X131969793Y-67969167D01*
X131906932Y-68075348D01*
X131804603Y-68314550D01*
X131672603Y-68657785D01*
X131520733Y-69076065D01*
X131358791Y-69540404D01*
X131196576Y-70021815D01*
X131043888Y-70491310D01*
X130910526Y-70919901D01*
X130806288Y-71278603D01*
X130740975Y-71538427D01*
X130723333Y-71656350D01*
X130638667Y-71656350D01*
X130638667Y-67863333D01*
X133517333Y-67863333D01*
X133517333Y-68202000D01*
X133525790Y-68418782D01*
X133582113Y-68515111D01*
X133732732Y-68539860D01*
X133839066Y-68540666D01*
X134076120Y-68565941D01*
X134245192Y-68628168D01*
X134262400Y-68642266D01*
X134301383Y-68743852D01*
X134330350Y-68968124D01*
X134349980Y-69327011D01*
X134360957Y-69832441D01*
X134364000Y-70420266D01*
X134364000Y-72096667D01*
X135041333Y-72096667D01*
X135041333Y-70149333D01*
X135040860Y-69468663D01*
X135034336Y-68938521D01*
X135014102Y-68540109D01*
X134972500Y-68254628D01*
X134901872Y-68063281D01*
X134794558Y-67947270D01*
X134642901Y-67887797D01*
X134439242Y-67866064D01*
X134175922Y-67863272D01*
X134110000Y-67863333D01*
X133517333Y-67863333D01*
X130638667Y-67863333D01*
X130638667Y-67778667D01*
X135126000Y-67778667D01*
X135126000Y-72181333D01*
D13*
%TO.C,IC1*%
X149470000Y-88170000D02*
G75*
G03*
X149470000Y-88170000I-200000J0D01*
G01*
D10*
X147820000Y-81020000D02*
X147820000Y-87320000D01*
X141520000Y-81020000D02*
X147820000Y-81020000D01*
X141520000Y-87320000D02*
X141520000Y-81020000D01*
X147820000Y-87320000D02*
X141520000Y-87320000D01*
D14*
%TO.C,Y1*%
X153430000Y-87860000D02*
X153430000Y-87860000D01*
X153430000Y-87860000D02*
X152830000Y-87860000D01*
X152830000Y-87860000D02*
X152830000Y-87860000D01*
X152830000Y-87860000D02*
X153430000Y-87860000D01*
X152830000Y-87860000D02*
X152830000Y-76460000D01*
X152830000Y-76460000D02*
X152830000Y-76460000D01*
X152830000Y-76460000D02*
X152830000Y-87860000D01*
X152830000Y-87860000D02*
X152830000Y-87860000D01*
X152830000Y-76460000D02*
X152830000Y-76460000D01*
X152830000Y-76460000D02*
X153430000Y-76460000D01*
X153430000Y-76460000D02*
X153430000Y-76460000D01*
X153430000Y-76460000D02*
X152830000Y-76460000D01*
X156930000Y-76460000D02*
X156930000Y-76460000D01*
X156930000Y-76460000D02*
X157530000Y-76460000D01*
X157530000Y-76460000D02*
X157530000Y-76460000D01*
X157530000Y-76460000D02*
X156930000Y-76460000D01*
X157530000Y-76460000D02*
X157530000Y-87860000D01*
X157530000Y-87860000D02*
X157530000Y-87860000D01*
X157530000Y-87860000D02*
X157530000Y-76460000D01*
X157530000Y-76460000D02*
X157530000Y-76460000D01*
X157530000Y-87860000D02*
X157530000Y-87860000D01*
X157530000Y-87860000D02*
X156930000Y-87860000D01*
X156930000Y-87860000D02*
X156930000Y-87860000D01*
X156930000Y-87860000D02*
X157530000Y-87860000D01*
D12*
%TO.C,G\u002A\u002A\u002A*%
G36*
X159996000Y-71991333D02*
G01*
X155508667Y-71991333D01*
X155508667Y-71466350D01*
X155593333Y-71466350D01*
X155624681Y-71654197D01*
X155734424Y-71782366D01*
X155946107Y-71860598D01*
X156283278Y-71898633D01*
X156657714Y-71906667D01*
X157456000Y-71906667D01*
X157456000Y-71229333D01*
X156987676Y-71229333D01*
X156674592Y-71211186D01*
X156507752Y-71153694D01*
X156472963Y-71108445D01*
X156477009Y-70980763D01*
X156527577Y-70743292D01*
X156612562Y-70432644D01*
X156719859Y-70085428D01*
X156837367Y-69738255D01*
X156952979Y-69427737D01*
X157054594Y-69190482D01*
X157130106Y-69063102D01*
X157152992Y-69051558D01*
X157207699Y-69137453D01*
X157302874Y-69358384D01*
X157428340Y-69687805D01*
X157573917Y-70099168D01*
X157705764Y-70493116D01*
X158167195Y-71906667D01*
X158540322Y-71906667D01*
X158783168Y-71890219D01*
X158875858Y-71837422D01*
X158873077Y-71800833D01*
X158836365Y-71693040D01*
X158755307Y-71448137D01*
X158637763Y-71090096D01*
X158491591Y-70642892D01*
X158324649Y-70130499D01*
X158219820Y-69808016D01*
X158040461Y-69266455D01*
X157871101Y-68774927D01*
X157720670Y-68357800D01*
X157598094Y-68039441D01*
X157512301Y-67844217D01*
X157483087Y-67797183D01*
X157267237Y-67688181D01*
X157007911Y-67698011D01*
X156839793Y-67779167D01*
X156776932Y-67885348D01*
X156674603Y-68124550D01*
X156542603Y-68467785D01*
X156390733Y-68886065D01*
X156228791Y-69350404D01*
X156066576Y-69831815D01*
X155913888Y-70301310D01*
X155780526Y-70729901D01*
X155676288Y-71088603D01*
X155610975Y-71348427D01*
X155593333Y-71466350D01*
X155508667Y-71466350D01*
X155508667Y-67673333D01*
X158387333Y-67673333D01*
X158387333Y-68012000D01*
X158395790Y-68228782D01*
X158452113Y-68325111D01*
X158602732Y-68349860D01*
X158709066Y-68350666D01*
X158946120Y-68375941D01*
X159115192Y-68438168D01*
X159132400Y-68452266D01*
X159171383Y-68553852D01*
X159200350Y-68778124D01*
X159219980Y-69137011D01*
X159230957Y-69642441D01*
X159234000Y-70230266D01*
X159234000Y-71906667D01*
X159911333Y-71906667D01*
X159911333Y-69959333D01*
X159910860Y-69278663D01*
X159904336Y-68748521D01*
X159884102Y-68350109D01*
X159842500Y-68064628D01*
X159771872Y-67873281D01*
X159664558Y-67757270D01*
X159512901Y-67697797D01*
X159309242Y-67676064D01*
X159045922Y-67673272D01*
X158980000Y-67673333D01*
X158387333Y-67673333D01*
X155508667Y-67673333D01*
X155508667Y-67588667D01*
X159996000Y-67588667D01*
X159996000Y-71991333D01*
G37*
X159996000Y-71991333D02*
X155508667Y-71991333D01*
X155508667Y-71466350D01*
X155593333Y-71466350D01*
X155624681Y-71654197D01*
X155734424Y-71782366D01*
X155946107Y-71860598D01*
X156283278Y-71898633D01*
X156657714Y-71906667D01*
X157456000Y-71906667D01*
X157456000Y-71229333D01*
X156987676Y-71229333D01*
X156674592Y-71211186D01*
X156507752Y-71153694D01*
X156472963Y-71108445D01*
X156477009Y-70980763D01*
X156527577Y-70743292D01*
X156612562Y-70432644D01*
X156719859Y-70085428D01*
X156837367Y-69738255D01*
X156952979Y-69427737D01*
X157054594Y-69190482D01*
X157130106Y-69063102D01*
X157152992Y-69051558D01*
X157207699Y-69137453D01*
X157302874Y-69358384D01*
X157428340Y-69687805D01*
X157573917Y-70099168D01*
X157705764Y-70493116D01*
X158167195Y-71906667D01*
X158540322Y-71906667D01*
X158783168Y-71890219D01*
X158875858Y-71837422D01*
X158873077Y-71800833D01*
X158836365Y-71693040D01*
X158755307Y-71448137D01*
X158637763Y-71090096D01*
X158491591Y-70642892D01*
X158324649Y-70130499D01*
X158219820Y-69808016D01*
X158040461Y-69266455D01*
X157871101Y-68774927D01*
X157720670Y-68357800D01*
X157598094Y-68039441D01*
X157512301Y-67844217D01*
X157483087Y-67797183D01*
X157267237Y-67688181D01*
X157007911Y-67698011D01*
X156839793Y-67779167D01*
X156776932Y-67885348D01*
X156674603Y-68124550D01*
X156542603Y-68467785D01*
X156390733Y-68886065D01*
X156228791Y-69350404D01*
X156066576Y-69831815D01*
X155913888Y-70301310D01*
X155780526Y-70729901D01*
X155676288Y-71088603D01*
X155610975Y-71348427D01*
X155593333Y-71466350D01*
X155508667Y-71466350D01*
X155508667Y-67673333D01*
X158387333Y-67673333D01*
X158387333Y-68012000D01*
X158395790Y-68228782D01*
X158452113Y-68325111D01*
X158602732Y-68349860D01*
X158709066Y-68350666D01*
X158946120Y-68375941D01*
X159115192Y-68438168D01*
X159132400Y-68452266D01*
X159171383Y-68553852D01*
X159200350Y-68778124D01*
X159219980Y-69137011D01*
X159230957Y-69642441D01*
X159234000Y-70230266D01*
X159234000Y-71906667D01*
X159911333Y-71906667D01*
X159911333Y-69959333D01*
X159910860Y-69278663D01*
X159904336Y-68748521D01*
X159884102Y-68350109D01*
X159842500Y-68064628D01*
X159771872Y-67873281D01*
X159664558Y-67757270D01*
X159512901Y-67697797D01*
X159309242Y-67676064D01*
X159045922Y-67673272D01*
X158980000Y-67673333D01*
X158387333Y-67673333D01*
X155508667Y-67673333D01*
X155508667Y-67588667D01*
X159996000Y-67588667D01*
X159996000Y-71991333D01*
D10*
%TO.C,D3*%
X139810000Y-112052000D02*
X137080000Y-112052000D01*
X139780000Y-110452000D02*
X137080000Y-110452000D01*
%TO.C,D2*%
X158198000Y-94794000D02*
X158200000Y-91760000D01*
X159735000Y-94790000D02*
X159730000Y-91770000D01*
D14*
%TO.C,D1*%
X157380000Y-92390000D02*
X157380000Y-94190000D01*
X155980000Y-92390000D02*
X155980000Y-94190000D01*
D11*
%TO.C,EN*%
X143776155Y-90100000D02*
G75*
G03*
X143776155Y-90100000I-336155J0D01*
G01*
%TO.C,C3*%
X150135000Y-83380000D02*
X150135000Y-87290000D01*
X150135000Y-87290000D02*
X152005000Y-87290000D01*
X152005000Y-87290000D02*
X152005000Y-83380000D01*
%TO.C,C7*%
X159230000Y-77792164D02*
X159230000Y-78007836D01*
X158510000Y-77792164D02*
X158510000Y-78007836D01*
%TO.C,C6*%
X158500000Y-86787836D02*
X158500000Y-86572164D01*
X159220000Y-86787836D02*
X159220000Y-86572164D01*
%TO.C,C5*%
X137137836Y-81240000D02*
X136922164Y-81240000D01*
X137137836Y-80520000D02*
X136922164Y-80520000D01*
%TO.C,C4*%
X136992164Y-81710000D02*
X137207836Y-81710000D01*
X136992164Y-82430000D02*
X137207836Y-82430000D01*
%TO.C,C2*%
X151187836Y-88580000D02*
X150972164Y-88580000D01*
X151187836Y-87860000D02*
X150972164Y-87860000D01*
%TO.C,C1*%
X158782164Y-96220000D02*
X158997836Y-96220000D01*
X158782164Y-96940000D02*
X158997836Y-96940000D01*
%TO.C,R14*%
X132392559Y-99652800D02*
X132699841Y-99652800D01*
X132392559Y-100412800D02*
X132699841Y-100412800D01*
%TO.C,R3*%
X132719841Y-98972800D02*
X132412559Y-98972800D01*
X132719841Y-98212800D02*
X132412559Y-98212800D01*
%TO.C,R1*%
X156506359Y-96170000D02*
X156813641Y-96170000D01*
X156506359Y-96930000D02*
X156813641Y-96930000D01*
%TO.C,J1*%
X140208000Y-61782000D02*
X140208000Y-59122000D01*
X140208000Y-61782000D02*
X152968000Y-61782000D01*
X152968000Y-61782000D02*
X152968000Y-59122000D01*
X140208000Y-59122000D02*
X152968000Y-59122000D01*
X137862000Y-61782000D02*
X137862000Y-60452000D01*
X139192000Y-61782000D02*
X137862000Y-61782000D01*
D10*
%TO.C,RV1*%
X150560000Y-110236000D02*
X149160000Y-110236000D01*
D11*
%TO.C,L1*%
X135704758Y-77970000D02*
X137375242Y-77970000D01*
X135704758Y-79790000D02*
X137375242Y-79790000D01*
D10*
%TO.C,IC2*%
X146610000Y-101370000D02*
X146610000Y-104870000D01*
X146610000Y-104870000D02*
X140110000Y-104870000D01*
X140110000Y-104870000D02*
X140110000Y-101370000D01*
X140110000Y-101370000D02*
X146610000Y-101370000D01*
X146485000Y-99095000D02*
X146485000Y-100845000D01*
%TO.C,FB1*%
X152208000Y-110490000D02*
X153608000Y-110490000D01*
D11*
%TO.C,C10*%
X141782748Y-96372000D02*
X143205252Y-96372000D01*
X141782748Y-98192000D02*
X143205252Y-98192000D01*
%TO.C,C9*%
X150010000Y-103878748D02*
X150010000Y-105301252D01*
X148190000Y-103878748D02*
X148190000Y-105301252D01*
D10*
%TO.C,C8*%
X147621800Y-97640200D02*
X147621800Y-101765200D01*
X150421800Y-101140200D02*
X150421800Y-97640200D01*
D11*
%TO.C,GND*%
X130875000Y-102616000D02*
G75*
G03*
X130875000Y-102616000I-700000J0D01*
G01*
X160847000Y-102489000D02*
G75*
G03*
X160847000Y-102489000I-700000J0D01*
G01*
X160593000Y-82042000D02*
G75*
G03*
X160593000Y-82042000I-700000J0D01*
G01*
%TO.C,D4*%
X141310000Y-107950000D02*
X141310000Y-111250000D01*
X141310000Y-111250000D02*
X146710000Y-111250000D01*
X141310000Y-107950000D02*
X146710000Y-107950000D01*
%TO.C,TP9*%
D15*
X138445904Y-93511666D02*
X138922095Y-93511666D01*
X138350666Y-93797380D02*
X138684000Y-92797380D01*
X139017333Y-93797380D01*
%TO.C,B*%
D14*
X135307142Y-96292857D02*
X135421428Y-96330952D01*
X135459523Y-96369047D01*
X135497619Y-96445238D01*
X135497619Y-96559523D01*
X135459523Y-96635714D01*
X135421428Y-96673809D01*
X135345238Y-96711904D01*
X135040476Y-96711904D01*
X135040476Y-95911904D01*
X135307142Y-95911904D01*
X135383333Y-95950000D01*
X135421428Y-95988095D01*
X135459523Y-96064285D01*
X135459523Y-96140476D01*
X135421428Y-96216666D01*
X135383333Y-96254761D01*
X135307142Y-96292857D01*
X135040476Y-96292857D01*
%TO.C,I-3*%
X139077809Y-70592904D02*
X139077809Y-69792904D01*
X139458761Y-70288142D02*
X140068285Y-70288142D01*
X140373047Y-69792904D02*
X140868285Y-69792904D01*
X140601619Y-70097666D01*
X140715904Y-70097666D01*
X140792095Y-70135761D01*
X140830190Y-70173857D01*
X140868285Y-70250047D01*
X140868285Y-70440523D01*
X140830190Y-70516714D01*
X140792095Y-70554809D01*
X140715904Y-70592904D01*
X140487333Y-70592904D01*
X140411142Y-70554809D01*
X140373047Y-70516714D01*
%TO.C,I-1*%
X139077809Y-65512904D02*
X139077809Y-64712904D01*
X139458761Y-65208142D02*
X140068285Y-65208142D01*
X140868285Y-65512904D02*
X140411142Y-65512904D01*
X140639714Y-65512904D02*
X140639714Y-64712904D01*
X140563523Y-64827190D01*
X140487333Y-64903380D01*
X140411142Y-64941476D01*
%TO.C,I-2*%
X139077809Y-68052904D02*
X139077809Y-67252904D01*
X139458761Y-67748142D02*
X140068285Y-67748142D01*
X140411142Y-67329095D02*
X140449238Y-67291000D01*
X140525428Y-67252904D01*
X140715904Y-67252904D01*
X140792095Y-67291000D01*
X140830190Y-67329095D01*
X140868285Y-67405285D01*
X140868285Y-67481476D01*
X140830190Y-67595761D01*
X140373047Y-68052904D01*
X140868285Y-68052904D01*
%TO.C,I-4*%
X139077809Y-73005904D02*
X139077809Y-72205904D01*
X139458761Y-72701142D02*
X140068285Y-72701142D01*
X140792095Y-72472571D02*
X140792095Y-73005904D01*
X140601619Y-72167809D02*
X140411142Y-72739238D01*
X140906380Y-72739238D01*
%TO.C,O-4*%
X148867619Y-71991904D02*
X149020000Y-71991904D01*
X149096190Y-72030000D01*
X149172380Y-72106190D01*
X149210476Y-72258571D01*
X149210476Y-72525238D01*
X149172380Y-72677619D01*
X149096190Y-72753809D01*
X149020000Y-72791904D01*
X148867619Y-72791904D01*
X148791428Y-72753809D01*
X148715238Y-72677619D01*
X148677142Y-72525238D01*
X148677142Y-72258571D01*
X148715238Y-72106190D01*
X148791428Y-72030000D01*
X148867619Y-71991904D01*
X149553333Y-72487142D02*
X150162857Y-72487142D01*
X150886666Y-72258571D02*
X150886666Y-72791904D01*
X150696190Y-71953809D02*
X150505714Y-72525238D01*
X151000952Y-72525238D01*
%TO.C,O-3*%
X148907619Y-69538904D02*
X149060000Y-69538904D01*
X149136190Y-69577000D01*
X149212380Y-69653190D01*
X149250476Y-69805571D01*
X149250476Y-70072238D01*
X149212380Y-70224619D01*
X149136190Y-70300809D01*
X149060000Y-70338904D01*
X148907619Y-70338904D01*
X148831428Y-70300809D01*
X148755238Y-70224619D01*
X148717142Y-70072238D01*
X148717142Y-69805571D01*
X148755238Y-69653190D01*
X148831428Y-69577000D01*
X148907619Y-69538904D01*
X149593333Y-70034142D02*
X150202857Y-70034142D01*
X150507619Y-69538904D02*
X151002857Y-69538904D01*
X150736190Y-69843666D01*
X150850476Y-69843666D01*
X150926666Y-69881761D01*
X150964761Y-69919857D01*
X151002857Y-69996047D01*
X151002857Y-70186523D01*
X150964761Y-70262714D01*
X150926666Y-70300809D01*
X150850476Y-70338904D01*
X150621904Y-70338904D01*
X150545714Y-70300809D01*
X150507619Y-70262714D01*
%TO.C,O-2*%
X148907619Y-67125904D02*
X149060000Y-67125904D01*
X149136190Y-67164000D01*
X149212380Y-67240190D01*
X149250476Y-67392571D01*
X149250476Y-67659238D01*
X149212380Y-67811619D01*
X149136190Y-67887809D01*
X149060000Y-67925904D01*
X148907619Y-67925904D01*
X148831428Y-67887809D01*
X148755238Y-67811619D01*
X148717142Y-67659238D01*
X148717142Y-67392571D01*
X148755238Y-67240190D01*
X148831428Y-67164000D01*
X148907619Y-67125904D01*
X149593333Y-67621142D02*
X150202857Y-67621142D01*
X150545714Y-67202095D02*
X150583809Y-67164000D01*
X150660000Y-67125904D01*
X150850476Y-67125904D01*
X150926666Y-67164000D01*
X150964761Y-67202095D01*
X151002857Y-67278285D01*
X151002857Y-67354476D01*
X150964761Y-67468761D01*
X150507619Y-67925904D01*
X151002857Y-67925904D01*
%TO.C,O-1*%
X148907619Y-64712904D02*
X149060000Y-64712904D01*
X149136190Y-64751000D01*
X149212380Y-64827190D01*
X149250476Y-64979571D01*
X149250476Y-65246238D01*
X149212380Y-65398619D01*
X149136190Y-65474809D01*
X149060000Y-65512904D01*
X148907619Y-65512904D01*
X148831428Y-65474809D01*
X148755238Y-65398619D01*
X148717142Y-65246238D01*
X148717142Y-64979571D01*
X148755238Y-64827190D01*
X148831428Y-64751000D01*
X148907619Y-64712904D01*
X149593333Y-65208142D02*
X150202857Y-65208142D01*
X151002857Y-65512904D02*
X150545714Y-65512904D01*
X150774285Y-65512904D02*
X150774285Y-64712904D01*
X150698095Y-64827190D01*
X150621904Y-64903380D01*
X150545714Y-64941476D01*
%TO.C,TP11*%
D15*
X156464095Y-102243000D02*
X156368857Y-102195380D01*
X156226000Y-102195380D01*
X156083142Y-102243000D01*
X155987904Y-102338238D01*
X155940285Y-102433476D01*
X155892666Y-102623952D01*
X155892666Y-102766809D01*
X155940285Y-102957285D01*
X155987904Y-103052523D01*
X156083142Y-103147761D01*
X156226000Y-103195380D01*
X156321238Y-103195380D01*
X156464095Y-103147761D01*
X156511714Y-103100142D01*
X156511714Y-102766809D01*
X156321238Y-102766809D01*
X156940285Y-103195380D02*
X156940285Y-102195380D01*
X157511714Y-103195380D01*
X157511714Y-102195380D01*
X157987904Y-103195380D02*
X157987904Y-102195380D01*
X158226000Y-102195380D01*
X158368857Y-102243000D01*
X158464095Y-102338238D01*
X158511714Y-102433476D01*
X158559333Y-102623952D01*
X158559333Y-102766809D01*
X158511714Y-102957285D01*
X158464095Y-103052523D01*
X158368857Y-103147761D01*
X158226000Y-103195380D01*
X157987904Y-103195380D01*
%TO.C,12V*%
D14*
X159143761Y-109217904D02*
X158686619Y-109217904D01*
X158915190Y-109217904D02*
X158915190Y-108417904D01*
X158839000Y-108532190D01*
X158762809Y-108608380D01*
X158686619Y-108646476D01*
X159448523Y-108494095D02*
X159486619Y-108456000D01*
X159562809Y-108417904D01*
X159753285Y-108417904D01*
X159829476Y-108456000D01*
X159867571Y-108494095D01*
X159905666Y-108570285D01*
X159905666Y-108646476D01*
X159867571Y-108760761D01*
X159410428Y-109217904D01*
X159905666Y-109217904D01*
X160134238Y-108417904D02*
X160400904Y-109217904D01*
X160667571Y-108417904D01*
%TO.C,TP15*%
D15*
X132461095Y-102243000D02*
X132365857Y-102195380D01*
X132223000Y-102195380D01*
X132080142Y-102243000D01*
X131984904Y-102338238D01*
X131937285Y-102433476D01*
X131889666Y-102623952D01*
X131889666Y-102766809D01*
X131937285Y-102957285D01*
X131984904Y-103052523D01*
X132080142Y-103147761D01*
X132223000Y-103195380D01*
X132318238Y-103195380D01*
X132461095Y-103147761D01*
X132508714Y-103100142D01*
X132508714Y-102766809D01*
X132318238Y-102766809D01*
X132937285Y-103195380D02*
X132937285Y-102195380D01*
X133508714Y-103195380D01*
X133508714Y-102195380D01*
X133984904Y-103195380D02*
X133984904Y-102195380D01*
X134223000Y-102195380D01*
X134365857Y-102243000D01*
X134461095Y-102338238D01*
X134508714Y-102433476D01*
X134556333Y-102623952D01*
X134556333Y-102766809D01*
X134508714Y-102957285D01*
X134461095Y-103052523D01*
X134365857Y-103147761D01*
X134223000Y-103195380D01*
X133984904Y-103195380D01*
%TO.C,12V*%
D14*
X130568761Y-109581904D02*
X130111619Y-109581904D01*
X130340190Y-109581904D02*
X130340190Y-108781904D01*
X130264000Y-108896190D01*
X130187809Y-108972380D01*
X130111619Y-109010476D01*
X130873523Y-108858095D02*
X130911619Y-108820000D01*
X130987809Y-108781904D01*
X131178285Y-108781904D01*
X131254476Y-108820000D01*
X131292571Y-108858095D01*
X131330666Y-108934285D01*
X131330666Y-109010476D01*
X131292571Y-109124761D01*
X130835428Y-109581904D01*
X131330666Y-109581904D01*
X131559238Y-108781904D02*
X131825904Y-109581904D01*
X132092571Y-108781904D01*
%TO.C,B*%
X155027142Y-96262857D02*
X155141428Y-96300952D01*
X155179523Y-96339047D01*
X155217619Y-96415238D01*
X155217619Y-96529523D01*
X155179523Y-96605714D01*
X155141428Y-96643809D01*
X155065238Y-96681904D01*
X154760476Y-96681904D01*
X154760476Y-95881904D01*
X155027142Y-95881904D01*
X155103333Y-95920000D01*
X155141428Y-95958095D01*
X155179523Y-96034285D01*
X155179523Y-96110476D01*
X155141428Y-96186666D01*
X155103333Y-96224761D01*
X155027142Y-96262857D01*
X154760476Y-96262857D01*
%TO.C,A*%
X151809523Y-93113333D02*
X152190476Y-93113333D01*
X151733333Y-93341904D02*
X152000000Y-92541904D01*
X152266666Y-93341904D01*
%TO.C,IC1*%
X143618047Y-78339904D02*
X143618047Y-77539904D01*
X144456142Y-78263714D02*
X144418047Y-78301809D01*
X144303761Y-78339904D01*
X144227571Y-78339904D01*
X144113285Y-78301809D01*
X144037095Y-78225619D01*
X143999000Y-78149428D01*
X143960904Y-77997047D01*
X143960904Y-77882761D01*
X143999000Y-77730380D01*
X144037095Y-77654190D01*
X144113285Y-77578000D01*
X144227571Y-77539904D01*
X144303761Y-77539904D01*
X144418047Y-77578000D01*
X144456142Y-77616095D01*
X145218047Y-78339904D02*
X144760904Y-78339904D01*
X144989476Y-78339904D02*
X144989476Y-77539904D01*
X144913285Y-77654190D01*
X144837095Y-77730380D01*
X144760904Y-77768476D01*
%TO.C,Y1*%
X155160952Y-83365952D02*
X155541904Y-83365952D01*
X154741904Y-83632619D02*
X155160952Y-83365952D01*
X154741904Y-83099285D01*
X155541904Y-82413571D02*
X155541904Y-82870714D01*
X155541904Y-82642142D02*
X154741904Y-82642142D01*
X154856190Y-82718333D01*
X154932380Y-82794523D01*
X154970476Y-82870714D01*
%TO.C,TP18*%
X146880476Y-90791904D02*
X147337619Y-90791904D01*
X147109047Y-91591904D02*
X147109047Y-90791904D01*
X147528095Y-90791904D02*
X148061428Y-91591904D01*
X148061428Y-90791904D02*
X147528095Y-91591904D01*
%TO.C,RX*%
X145576666Y-91551904D02*
X145310000Y-91170952D01*
X145119523Y-91551904D02*
X145119523Y-90751904D01*
X145424285Y-90751904D01*
X145500476Y-90790000D01*
X145538571Y-90828095D01*
X145576666Y-90904285D01*
X145576666Y-91018571D01*
X145538571Y-91094761D01*
X145500476Y-91132857D01*
X145424285Y-91170952D01*
X145119523Y-91170952D01*
X145843333Y-90751904D02*
X146376666Y-91551904D01*
X146376666Y-90751904D02*
X145843333Y-91551904D01*
%TO.C,*%
%TO.C,D3*%
X142144704Y-111842476D02*
X141344704Y-111842476D01*
X141344704Y-111652000D01*
X141382800Y-111537714D01*
X141458990Y-111461523D01*
X141535180Y-111423428D01*
X141687561Y-111385333D01*
X141801847Y-111385333D01*
X141954228Y-111423428D01*
X142030419Y-111461523D01*
X142106609Y-111537714D01*
X142144704Y-111652000D01*
X142144704Y-111842476D01*
X141344704Y-111118666D02*
X141344704Y-110623428D01*
X141649466Y-110890095D01*
X141649466Y-110775809D01*
X141687561Y-110699619D01*
X141725657Y-110661523D01*
X141801847Y-110623428D01*
X141992323Y-110623428D01*
X142068514Y-110661523D01*
X142106609Y-110699619D01*
X142144704Y-110775809D01*
X142144704Y-111004380D01*
X142106609Y-111080571D01*
X142068514Y-111118666D01*
%TO.C,D2*%
X159329523Y-90881904D02*
X159329523Y-90081904D01*
X159520000Y-90081904D01*
X159634285Y-90120000D01*
X159710476Y-90196190D01*
X159748571Y-90272380D01*
X159786666Y-90424761D01*
X159786666Y-90539047D01*
X159748571Y-90691428D01*
X159710476Y-90767619D01*
X159634285Y-90843809D01*
X159520000Y-90881904D01*
X159329523Y-90881904D01*
X160091428Y-90158095D02*
X160129523Y-90120000D01*
X160205714Y-90081904D01*
X160396190Y-90081904D01*
X160472380Y-90120000D01*
X160510476Y-90158095D01*
X160548571Y-90234285D01*
X160548571Y-90310476D01*
X160510476Y-90424761D01*
X160053333Y-90881904D01*
X160548571Y-90881904D01*
%TO.C,D1*%
X154349523Y-93579904D02*
X154349523Y-92779904D01*
X154540000Y-92779904D01*
X154654285Y-92818000D01*
X154730476Y-92894190D01*
X154768571Y-92970380D01*
X154806666Y-93122761D01*
X154806666Y-93237047D01*
X154768571Y-93389428D01*
X154730476Y-93465619D01*
X154654285Y-93541809D01*
X154540000Y-93579904D01*
X154349523Y-93579904D01*
X155568571Y-93579904D02*
X155111428Y-93579904D01*
X155340000Y-93579904D02*
X155340000Y-92779904D01*
X155263809Y-92894190D01*
X155187619Y-92970380D01*
X155111428Y-93008476D01*
%TO.C,EN*%
X142829523Y-91152857D02*
X143096190Y-91152857D01*
X143210476Y-91571904D02*
X142829523Y-91571904D01*
X142829523Y-90771904D01*
X143210476Y-90771904D01*
X143553333Y-91571904D02*
X143553333Y-90771904D01*
X144010476Y-91571904D01*
X144010476Y-90771904D01*
%TO.C,C3*%
X150996666Y-82073714D02*
X150958571Y-82111809D01*
X150844285Y-82149904D01*
X150768095Y-82149904D01*
X150653809Y-82111809D01*
X150577619Y-82035619D01*
X150539523Y-81959428D01*
X150501428Y-81807047D01*
X150501428Y-81692761D01*
X150539523Y-81540380D01*
X150577619Y-81464190D01*
X150653809Y-81388000D01*
X150768095Y-81349904D01*
X150844285Y-81349904D01*
X150958571Y-81388000D01*
X150996666Y-81426095D01*
X151263333Y-81349904D02*
X151758571Y-81349904D01*
X151491904Y-81654666D01*
X151606190Y-81654666D01*
X151682380Y-81692761D01*
X151720476Y-81730857D01*
X151758571Y-81807047D01*
X151758571Y-81997523D01*
X151720476Y-82073714D01*
X151682380Y-82111809D01*
X151606190Y-82149904D01*
X151377619Y-82149904D01*
X151301428Y-82111809D01*
X151263333Y-82073714D01*
%TO.C,C7*%
X159966666Y-78215714D02*
X159928571Y-78253809D01*
X159814285Y-78291904D01*
X159738095Y-78291904D01*
X159623809Y-78253809D01*
X159547619Y-78177619D01*
X159509523Y-78101428D01*
X159471428Y-77949047D01*
X159471428Y-77834761D01*
X159509523Y-77682380D01*
X159547619Y-77606190D01*
X159623809Y-77530000D01*
X159738095Y-77491904D01*
X159814285Y-77491904D01*
X159928571Y-77530000D01*
X159966666Y-77568095D01*
X160233333Y-77491904D02*
X160766666Y-77491904D01*
X160423809Y-78291904D01*
%TO.C,C6*%
X160013666Y-86899714D02*
X159975571Y-86937809D01*
X159861285Y-86975904D01*
X159785095Y-86975904D01*
X159670809Y-86937809D01*
X159594619Y-86861619D01*
X159556523Y-86785428D01*
X159518428Y-86633047D01*
X159518428Y-86518761D01*
X159556523Y-86366380D01*
X159594619Y-86290190D01*
X159670809Y-86214000D01*
X159785095Y-86175904D01*
X159861285Y-86175904D01*
X159975571Y-86214000D01*
X160013666Y-86252095D01*
X160699380Y-86175904D02*
X160547000Y-86175904D01*
X160470809Y-86214000D01*
X160432714Y-86252095D01*
X160356523Y-86366380D01*
X160318428Y-86518761D01*
X160318428Y-86823523D01*
X160356523Y-86899714D01*
X160394619Y-86937809D01*
X160470809Y-86975904D01*
X160623190Y-86975904D01*
X160699380Y-86937809D01*
X160737476Y-86899714D01*
X160775571Y-86823523D01*
X160775571Y-86633047D01*
X160737476Y-86556857D01*
X160699380Y-86518761D01*
X160623190Y-86480666D01*
X160470809Y-86480666D01*
X160394619Y-86518761D01*
X160356523Y-86556857D01*
X160318428Y-86633047D01*
%TO.C,C5*%
X135248666Y-82454714D02*
X135210571Y-82492809D01*
X135096285Y-82530904D01*
X135020095Y-82530904D01*
X134905809Y-82492809D01*
X134829619Y-82416619D01*
X134791523Y-82340428D01*
X134753428Y-82188047D01*
X134753428Y-82073761D01*
X134791523Y-81921380D01*
X134829619Y-81845190D01*
X134905809Y-81769000D01*
X135020095Y-81730904D01*
X135096285Y-81730904D01*
X135210571Y-81769000D01*
X135248666Y-81807095D01*
X135972476Y-81730904D02*
X135591523Y-81730904D01*
X135553428Y-82111857D01*
X135591523Y-82073761D01*
X135667714Y-82035666D01*
X135858190Y-82035666D01*
X135934380Y-82073761D01*
X135972476Y-82111857D01*
X136010571Y-82188047D01*
X136010571Y-82378523D01*
X135972476Y-82454714D01*
X135934380Y-82492809D01*
X135858190Y-82530904D01*
X135667714Y-82530904D01*
X135591523Y-82492809D01*
X135553428Y-82454714D01*
%TO.C,C4*%
X135121666Y-81184714D02*
X135083571Y-81222809D01*
X134969285Y-81260904D01*
X134893095Y-81260904D01*
X134778809Y-81222809D01*
X134702619Y-81146619D01*
X134664523Y-81070428D01*
X134626428Y-80918047D01*
X134626428Y-80803761D01*
X134664523Y-80651380D01*
X134702619Y-80575190D01*
X134778809Y-80499000D01*
X134893095Y-80460904D01*
X134969285Y-80460904D01*
X135083571Y-80499000D01*
X135121666Y-80537095D01*
X135807380Y-80727571D02*
X135807380Y-81260904D01*
X135616904Y-80422809D02*
X135426428Y-80994238D01*
X135921666Y-80994238D01*
%TO.C,C2*%
X150946666Y-89665714D02*
X150908571Y-89703809D01*
X150794285Y-89741904D01*
X150718095Y-89741904D01*
X150603809Y-89703809D01*
X150527619Y-89627619D01*
X150489523Y-89551428D01*
X150451428Y-89399047D01*
X150451428Y-89284761D01*
X150489523Y-89132380D01*
X150527619Y-89056190D01*
X150603809Y-88980000D01*
X150718095Y-88941904D01*
X150794285Y-88941904D01*
X150908571Y-88980000D01*
X150946666Y-89018095D01*
X151251428Y-89018095D02*
X151289523Y-88980000D01*
X151365714Y-88941904D01*
X151556190Y-88941904D01*
X151632380Y-88980000D01*
X151670476Y-89018095D01*
X151708571Y-89094285D01*
X151708571Y-89170476D01*
X151670476Y-89284761D01*
X151213333Y-89741904D01*
X151708571Y-89741904D01*
%TO.C,C1*%
X158756666Y-97948714D02*
X158718571Y-97986809D01*
X158604285Y-98024904D01*
X158528095Y-98024904D01*
X158413809Y-97986809D01*
X158337619Y-97910619D01*
X158299523Y-97834428D01*
X158261428Y-97682047D01*
X158261428Y-97567761D01*
X158299523Y-97415380D01*
X158337619Y-97339190D01*
X158413809Y-97263000D01*
X158528095Y-97224904D01*
X158604285Y-97224904D01*
X158718571Y-97263000D01*
X158756666Y-97301095D01*
X159518571Y-98024904D02*
X159061428Y-98024904D01*
X159290000Y-98024904D02*
X159290000Y-97224904D01*
X159213809Y-97339190D01*
X159137619Y-97415380D01*
X159061428Y-97453476D01*
%TO.C,R14*%
X130085714Y-99111904D02*
X129819047Y-98730952D01*
X129628571Y-99111904D02*
X129628571Y-98311904D01*
X129933333Y-98311904D01*
X130009523Y-98350000D01*
X130047619Y-98388095D01*
X130085714Y-98464285D01*
X130085714Y-98578571D01*
X130047619Y-98654761D01*
X130009523Y-98692857D01*
X129933333Y-98730952D01*
X129628571Y-98730952D01*
X130847619Y-99111904D02*
X130390476Y-99111904D01*
X130619047Y-99111904D02*
X130619047Y-98311904D01*
X130542857Y-98426190D01*
X130466666Y-98502380D01*
X130390476Y-98540476D01*
X131533333Y-98578571D02*
X131533333Y-99111904D01*
X131342857Y-98273809D02*
X131152380Y-98845238D01*
X131647619Y-98845238D01*
%TO.C,R3*%
X132316666Y-101521904D02*
X132050000Y-101140952D01*
X131859523Y-101521904D02*
X131859523Y-100721904D01*
X132164285Y-100721904D01*
X132240476Y-100760000D01*
X132278571Y-100798095D01*
X132316666Y-100874285D01*
X132316666Y-100988571D01*
X132278571Y-101064761D01*
X132240476Y-101102857D01*
X132164285Y-101140952D01*
X131859523Y-101140952D01*
X132583333Y-100721904D02*
X133078571Y-100721904D01*
X132811904Y-101026666D01*
X132926190Y-101026666D01*
X133002380Y-101064761D01*
X133040476Y-101102857D01*
X133078571Y-101179047D01*
X133078571Y-101369523D01*
X133040476Y-101445714D01*
X133002380Y-101483809D01*
X132926190Y-101521904D01*
X132697619Y-101521904D01*
X132621428Y-101483809D01*
X132583333Y-101445714D01*
%TO.C,R1*%
X156526666Y-98024904D02*
X156260000Y-97643952D01*
X156069523Y-98024904D02*
X156069523Y-97224904D01*
X156374285Y-97224904D01*
X156450476Y-97263000D01*
X156488571Y-97301095D01*
X156526666Y-97377285D01*
X156526666Y-97491571D01*
X156488571Y-97567761D01*
X156450476Y-97605857D01*
X156374285Y-97643952D01*
X156069523Y-97643952D01*
X157288571Y-98024904D02*
X156831428Y-98024904D01*
X157060000Y-98024904D02*
X157060000Y-97224904D01*
X156983809Y-97339190D01*
X156907619Y-97415380D01*
X156831428Y-97453476D01*
%TO.C,RV1*%
X149434609Y-113518904D02*
X149167942Y-113137952D01*
X148977466Y-113518904D02*
X148977466Y-112718904D01*
X149282228Y-112718904D01*
X149358419Y-112757000D01*
X149396514Y-112795095D01*
X149434609Y-112871285D01*
X149434609Y-112985571D01*
X149396514Y-113061761D01*
X149358419Y-113099857D01*
X149282228Y-113137952D01*
X148977466Y-113137952D01*
X149663180Y-112718904D02*
X149929847Y-113518904D01*
X150196514Y-112718904D01*
X150882228Y-113518904D02*
X150425085Y-113518904D01*
X150653657Y-113518904D02*
X150653657Y-112718904D01*
X150577466Y-112833190D01*
X150501276Y-112909380D01*
X150425085Y-112947476D01*
%TO.C,RT1*%
X136632904Y-109226295D02*
X136251952Y-109492961D01*
X136632904Y-109683438D02*
X135832904Y-109683438D01*
X135832904Y-109378676D01*
X135871000Y-109302485D01*
X135909095Y-109264390D01*
X135985285Y-109226295D01*
X136099571Y-109226295D01*
X136175761Y-109264390D01*
X136213857Y-109302485D01*
X136251952Y-109378676D01*
X136251952Y-109683438D01*
X135832904Y-108997723D02*
X135832904Y-108540580D01*
X136632904Y-108769152D02*
X135832904Y-108769152D01*
X136632904Y-107854866D02*
X136632904Y-108312009D01*
X136632904Y-108083438D02*
X135832904Y-108083438D01*
X135947190Y-108159628D01*
X136023380Y-108235819D01*
X136061476Y-108312009D01*
%TO.C,L1*%
X133343666Y-79101904D02*
X132962714Y-79101904D01*
X132962714Y-78301904D01*
X134029380Y-79101904D02*
X133572238Y-79101904D01*
X133800809Y-79101904D02*
X133800809Y-78301904D01*
X133724619Y-78416190D01*
X133648428Y-78492380D01*
X133572238Y-78530476D01*
%TO.C,IC2*%
X137903047Y-105771904D02*
X137903047Y-104971904D01*
X138741142Y-105695714D02*
X138703047Y-105733809D01*
X138588761Y-105771904D01*
X138512571Y-105771904D01*
X138398285Y-105733809D01*
X138322095Y-105657619D01*
X138284000Y-105581428D01*
X138245904Y-105429047D01*
X138245904Y-105314761D01*
X138284000Y-105162380D01*
X138322095Y-105086190D01*
X138398285Y-105010000D01*
X138512571Y-104971904D01*
X138588761Y-104971904D01*
X138703047Y-105010000D01*
X138741142Y-105048095D01*
X139045904Y-105048095D02*
X139084000Y-105010000D01*
X139160190Y-104971904D01*
X139350666Y-104971904D01*
X139426857Y-105010000D01*
X139464952Y-105048095D01*
X139503047Y-105124285D01*
X139503047Y-105200476D01*
X139464952Y-105314761D01*
X139007809Y-105771904D01*
X139503047Y-105771904D01*
%TO.C,FB1*%
X152241333Y-113557057D02*
X151974666Y-113557057D01*
X151974666Y-113976104D02*
X151974666Y-113176104D01*
X152355619Y-113176104D01*
X152927047Y-113557057D02*
X153041333Y-113595152D01*
X153079428Y-113633247D01*
X153117523Y-113709438D01*
X153117523Y-113823723D01*
X153079428Y-113899914D01*
X153041333Y-113938009D01*
X152965142Y-113976104D01*
X152660380Y-113976104D01*
X152660380Y-113176104D01*
X152927047Y-113176104D01*
X153003238Y-113214200D01*
X153041333Y-113252295D01*
X153079428Y-113328485D01*
X153079428Y-113404676D01*
X153041333Y-113480866D01*
X153003238Y-113518961D01*
X152927047Y-113557057D01*
X152660380Y-113557057D01*
X153879428Y-113976104D02*
X153422285Y-113976104D01*
X153650857Y-113976104D02*
X153650857Y-113176104D01*
X153574666Y-113290390D01*
X153498476Y-113366580D01*
X153422285Y-113404676D01*
%TO.C,C10*%
X141979714Y-95717714D02*
X141941619Y-95755809D01*
X141827333Y-95793904D01*
X141751142Y-95793904D01*
X141636857Y-95755809D01*
X141560666Y-95679619D01*
X141522571Y-95603428D01*
X141484476Y-95451047D01*
X141484476Y-95336761D01*
X141522571Y-95184380D01*
X141560666Y-95108190D01*
X141636857Y-95032000D01*
X141751142Y-94993904D01*
X141827333Y-94993904D01*
X141941619Y-95032000D01*
X141979714Y-95070095D01*
X142741619Y-95793904D02*
X142284476Y-95793904D01*
X142513047Y-95793904D02*
X142513047Y-94993904D01*
X142436857Y-95108190D01*
X142360666Y-95184380D01*
X142284476Y-95222476D01*
X143236857Y-94993904D02*
X143313047Y-94993904D01*
X143389238Y-95032000D01*
X143427333Y-95070095D01*
X143465428Y-95146285D01*
X143503523Y-95298666D01*
X143503523Y-95489142D01*
X143465428Y-95641523D01*
X143427333Y-95717714D01*
X143389238Y-95755809D01*
X143313047Y-95793904D01*
X143236857Y-95793904D01*
X143160666Y-95755809D01*
X143122571Y-95717714D01*
X143084476Y-95641523D01*
X143046380Y-95489142D01*
X143046380Y-95298666D01*
X143084476Y-95146285D01*
X143122571Y-95070095D01*
X143160666Y-95032000D01*
X143236857Y-94993904D01*
%TO.C,C9*%
X149218666Y-107981714D02*
X149180571Y-108019809D01*
X149066285Y-108057904D01*
X148990095Y-108057904D01*
X148875809Y-108019809D01*
X148799619Y-107943619D01*
X148761523Y-107867428D01*
X148723428Y-107715047D01*
X148723428Y-107600761D01*
X148761523Y-107448380D01*
X148799619Y-107372190D01*
X148875809Y-107296000D01*
X148990095Y-107257904D01*
X149066285Y-107257904D01*
X149180571Y-107296000D01*
X149218666Y-107334095D01*
X149599619Y-108057904D02*
X149752000Y-108057904D01*
X149828190Y-108019809D01*
X149866285Y-107981714D01*
X149942476Y-107867428D01*
X149980571Y-107715047D01*
X149980571Y-107410285D01*
X149942476Y-107334095D01*
X149904380Y-107296000D01*
X149828190Y-107257904D01*
X149675809Y-107257904D01*
X149599619Y-107296000D01*
X149561523Y-107334095D01*
X149523428Y-107410285D01*
X149523428Y-107600761D01*
X149561523Y-107676952D01*
X149599619Y-107715047D01*
X149675809Y-107753142D01*
X149828190Y-107753142D01*
X149904380Y-107715047D01*
X149942476Y-107676952D01*
X149980571Y-107600761D01*
%TO.C,C8*%
X148888466Y-96424714D02*
X148850371Y-96462809D01*
X148736085Y-96500904D01*
X148659895Y-96500904D01*
X148545609Y-96462809D01*
X148469419Y-96386619D01*
X148431323Y-96310428D01*
X148393228Y-96158047D01*
X148393228Y-96043761D01*
X148431323Y-95891380D01*
X148469419Y-95815190D01*
X148545609Y-95739000D01*
X148659895Y-95700904D01*
X148736085Y-95700904D01*
X148850371Y-95739000D01*
X148888466Y-95777095D01*
X149345609Y-96043761D02*
X149269419Y-96005666D01*
X149231323Y-95967571D01*
X149193228Y-95891380D01*
X149193228Y-95853285D01*
X149231323Y-95777095D01*
X149269419Y-95739000D01*
X149345609Y-95700904D01*
X149497990Y-95700904D01*
X149574180Y-95739000D01*
X149612276Y-95777095D01*
X149650371Y-95853285D01*
X149650371Y-95891380D01*
X149612276Y-95967571D01*
X149574180Y-96005666D01*
X149497990Y-96043761D01*
X149345609Y-96043761D01*
X149269419Y-96081857D01*
X149231323Y-96119952D01*
X149193228Y-96196142D01*
X149193228Y-96348523D01*
X149231323Y-96424714D01*
X149269419Y-96462809D01*
X149345609Y-96500904D01*
X149497990Y-96500904D01*
X149574180Y-96462809D01*
X149612276Y-96424714D01*
X149650371Y-96348523D01*
X149650371Y-96196142D01*
X149612276Y-96119952D01*
X149574180Y-96081857D01*
X149497990Y-96043761D01*
%TO.C,GND*%
X129400476Y-104630000D02*
X129324285Y-104591904D01*
X129210000Y-104591904D01*
X129095714Y-104630000D01*
X129019523Y-104706190D01*
X128981428Y-104782380D01*
X128943333Y-104934761D01*
X128943333Y-105049047D01*
X128981428Y-105201428D01*
X129019523Y-105277619D01*
X129095714Y-105353809D01*
X129210000Y-105391904D01*
X129286190Y-105391904D01*
X129400476Y-105353809D01*
X129438571Y-105315714D01*
X129438571Y-105049047D01*
X129286190Y-105049047D01*
X129781428Y-105391904D02*
X129781428Y-104591904D01*
X130238571Y-105391904D01*
X130238571Y-104591904D01*
X130619523Y-105391904D02*
X130619523Y-104591904D01*
X130810000Y-104591904D01*
X130924285Y-104630000D01*
X131000476Y-104706190D01*
X131038571Y-104782380D01*
X131076666Y-104934761D01*
X131076666Y-105049047D01*
X131038571Y-105201428D01*
X131000476Y-105277619D01*
X130924285Y-105353809D01*
X130810000Y-105391904D01*
X130619523Y-105391904D01*
X159664476Y-104375000D02*
X159588285Y-104336904D01*
X159474000Y-104336904D01*
X159359714Y-104375000D01*
X159283523Y-104451190D01*
X159245428Y-104527380D01*
X159207333Y-104679761D01*
X159207333Y-104794047D01*
X159245428Y-104946428D01*
X159283523Y-105022619D01*
X159359714Y-105098809D01*
X159474000Y-105136904D01*
X159550190Y-105136904D01*
X159664476Y-105098809D01*
X159702571Y-105060714D01*
X159702571Y-104794047D01*
X159550190Y-104794047D01*
X160045428Y-105136904D02*
X160045428Y-104336904D01*
X160502571Y-105136904D01*
X160502571Y-104336904D01*
X160883523Y-105136904D02*
X160883523Y-104336904D01*
X161074000Y-104336904D01*
X161188285Y-104375000D01*
X161264476Y-104451190D01*
X161302571Y-104527380D01*
X161340666Y-104679761D01*
X161340666Y-104794047D01*
X161302571Y-104946428D01*
X161264476Y-105022619D01*
X161188285Y-105098809D01*
X161074000Y-105136904D01*
X160883523Y-105136904D01*
X160290476Y-80450000D02*
X160214285Y-80411904D01*
X160100000Y-80411904D01*
X159985714Y-80450000D01*
X159909523Y-80526190D01*
X159871428Y-80602380D01*
X159833333Y-80754761D01*
X159833333Y-80869047D01*
X159871428Y-81021428D01*
X159909523Y-81097619D01*
X159985714Y-81173809D01*
X160100000Y-81211904D01*
X160176190Y-81211904D01*
X160290476Y-81173809D01*
X160328571Y-81135714D01*
X160328571Y-80869047D01*
X160176190Y-80869047D01*
X160671428Y-81211904D02*
X160671428Y-80411904D01*
X161128571Y-81211904D01*
X161128571Y-80411904D01*
X161509523Y-81211904D02*
X161509523Y-80411904D01*
X161700000Y-80411904D01*
X161814285Y-80450000D01*
X161890476Y-80526190D01*
X161928571Y-80602380D01*
X161966666Y-80754761D01*
X161966666Y-80869047D01*
X161928571Y-81021428D01*
X161890476Y-81097619D01*
X161814285Y-81173809D01*
X161700000Y-81211904D01*
X161509523Y-81211904D01*
%TO.C,D4*%
D15*
X143971904Y-107552380D02*
X143971904Y-106552380D01*
X144210000Y-106552380D01*
X144352857Y-106600000D01*
X144448095Y-106695238D01*
X144495714Y-106790476D01*
X144543333Y-106980952D01*
X144543333Y-107123809D01*
X144495714Y-107314285D01*
X144448095Y-107409523D01*
X144352857Y-107504761D01*
X144210000Y-107552380D01*
X143971904Y-107552380D01*
X145400476Y-106885714D02*
X145400476Y-107552380D01*
X145162380Y-106504761D02*
X144924285Y-107219047D01*
X145543333Y-107219047D01*
%TD*%
M02*
