%TF.GenerationSoftware,KiCad,Pcbnew,(5.1.10)-1*%
%TF.CreationDate,2021-10-24T00:58:49+05:30*%
%TF.ProjectId,Modbus_IO_Board,4d6f6462-7573-45f4-994f-5f426f617264,rev?*%
%TF.SameCoordinates,Original*%
%TF.FileFunction,Copper,L1,Top*%
%TF.FilePolarity,Positive*%
%FSLAX46Y46*%
G04 Gerber Fmt 4.6, Leading zero omitted, Abs format (unit mm)*
G04 Created by KiCad (PCBNEW (5.1.10)-1) date 2021-10-24 00:58:49*
%MOMM*%
%LPD*%
G01*
G04 APERTURE LIST*
%TA.AperFunction,ComponentPad*%
%ADD10C,3.900000*%
%TD*%
%TA.AperFunction,ComponentPad*%
%ADD11C,4.000000*%
%TD*%
%TA.AperFunction,ComponentPad*%
%ADD12C,2.800000*%
%TD*%
%TA.AperFunction,ComponentPad*%
%ADD13C,2.000000*%
%TD*%
%TA.AperFunction,ComponentPad*%
%ADD14O,3.000000X5.000000*%
%TD*%
%TA.AperFunction,SMDPad,CuDef*%
%ADD15R,1.500000X0.600000*%
%TD*%
%TA.AperFunction,SMDPad,CuDef*%
%ADD16R,0.600000X1.500000*%
%TD*%
%TA.AperFunction,SMDPad,CuDef*%
%ADD17R,2.100000X5.600000*%
%TD*%
%TA.AperFunction,ComponentPad*%
%ADD18C,0.800000*%
%TD*%
%TA.AperFunction,ComponentPad*%
%ADD19O,5.000000X3.000000*%
%TD*%
%TA.AperFunction,ComponentPad*%
%ADD20O,4.000000X5.000000*%
%TD*%
%TA.AperFunction,SMDPad,CuDef*%
%ADD21R,1.050000X0.850000*%
%TD*%
%TA.AperFunction,SMDPad,CuDef*%
%ADD22R,0.750000X1.200000*%
%TD*%
%TA.AperFunction,SMDPad,CuDef*%
%ADD23R,1.650000X1.150000*%
%TD*%
%TA.AperFunction,ComponentPad*%
%ADD24O,1.700000X4.000000*%
%TD*%
%TA.AperFunction,SMDPad,CuDef*%
%ADD25R,1.900000X1.300000*%
%TD*%
%TA.AperFunction,SMDPad,CuDef*%
%ADD26R,1.150000X1.470000*%
%TD*%
%TA.AperFunction,SMDPad,CuDef*%
%ADD27R,3.200000X1.750000*%
%TD*%
%TA.AperFunction,SMDPad,CuDef*%
%ADD28R,0.950000X1.750000*%
%TD*%
%TA.AperFunction,SMDPad,CuDef*%
%ADD29R,1.800000X1.200000*%
%TD*%
%TA.AperFunction,SMDPad,CuDef*%
%ADD30R,2.250000X1.650000*%
%TD*%
%TA.AperFunction,SMDPad,CuDef*%
%ADD31C,1.000000*%
%TD*%
%TA.AperFunction,SMDPad,CuDef*%
%ADD32R,2.500000X1.800000*%
%TD*%
%TA.AperFunction,ViaPad*%
%ADD33C,0.800000*%
%TD*%
%TA.AperFunction,ViaPad*%
%ADD34C,0.400000*%
%TD*%
%TA.AperFunction,Conductor*%
%ADD35C,0.500000*%
%TD*%
%TA.AperFunction,Conductor*%
%ADD36C,1.000000*%
%TD*%
%TA.AperFunction,Conductor*%
%ADD37C,0.250000*%
%TD*%
%TA.AperFunction,Conductor*%
%ADD38C,0.300000*%
%TD*%
%TA.AperFunction,Conductor*%
%ADD39C,0.800000*%
%TD*%
G04 APERTURE END LIST*
D10*
%TO.P,H1,1*%
%TO.N,N/C*%
X131830000Y-60750000D03*
%TD*%
%TO.P,H2,1*%
%TO.N,N/C*%
X158750000Y-60760000D03*
%TD*%
D11*
%TO.P,H4,1*%
%TO.N,N/C*%
X158770000Y-122700000D03*
%TD*%
%TO.P,H3,1*%
%TO.N,N/C*%
X131740000Y-122710000D03*
%TD*%
D12*
%TO.P,TP9,1*%
%TO.N,/Data_A*%
X140970000Y-92964000D03*
%TD*%
%TO.P,B,1*%
%TO.N,/Data_B*%
X137750000Y-96180000D03*
%TD*%
D13*
%TO.P,I-3,1*%
%TO.N,Net-(D6-Pad1)*%
X137439400Y-70154800D03*
%TD*%
%TO.P,I-1,1*%
%TO.N,GND*%
X137439400Y-65074800D03*
%TD*%
%TO.P,I-2,1*%
%TO.N,Net-(D8-Pad1)*%
X137439400Y-67614800D03*
%TD*%
%TO.P,I-4,1*%
%TO.N,GND*%
X137439400Y-72694800D03*
%TD*%
%TO.P,O-4,1*%
%TO.N,Net-(IC5-Pad8)*%
X153060400Y-72771000D03*
%TD*%
%TO.P,O-3,1*%
%TO.N,Net-(IC5-Pad7)*%
X153060400Y-70231000D03*
%TD*%
%TO.P,O-2,1*%
%TO.N,Net-(IC5-Pad6)*%
X153060400Y-67691000D03*
%TD*%
%TO.P,O-1,1*%
%TO.N,Net-(IC5-Pad5)*%
X153060400Y-65151000D03*
%TD*%
D14*
%TO.P,TP11,1*%
%TO.N,GND*%
X154178000Y-102870000D03*
%TD*%
%TO.P,12V,1*%
%TO.N,+12V*%
X156718000Y-109230000D03*
%TD*%
%TO.P,TP15,1*%
%TO.N,GND*%
X136398000Y-102870000D03*
%TD*%
%TO.P,12V,1*%
%TO.N,+12V*%
X133920000Y-109230000D03*
%TD*%
D12*
%TO.P,B,1*%
%TO.N,/Data_B*%
X152760000Y-96220000D03*
%TD*%
%TO.P,A,1*%
%TO.N,/Data_A*%
X149606000Y-92964000D03*
%TD*%
D15*
%TO.P,IC1,1*%
%TO.N,N/C*%
X148920000Y-86970000D03*
%TO.P,IC1,2*%
X148920000Y-86170000D03*
%TO.P,IC1,3*%
X148920000Y-85370000D03*
%TO.P,IC1,4*%
%TO.N,+3V3*%
X148920000Y-84570000D03*
%TO.P,IC1,5*%
%TO.N,GND*%
X148920000Y-83770000D03*
%TO.P,IC1,6*%
%TO.N,N/C*%
X148920000Y-82970000D03*
%TO.P,IC1,7*%
%TO.N,Net-(C6-Pad1)*%
X148920000Y-82170000D03*
%TO.P,IC1,8*%
%TO.N,Net-(C7-Pad1)*%
X148920000Y-81370000D03*
D16*
%TO.P,IC1,9*%
%TO.N,N/C*%
X147470000Y-79920000D03*
%TO.P,IC1,10*%
%TO.N,/1Y*%
X146670000Y-79920000D03*
%TO.P,IC1,11*%
%TO.N,/2Y*%
X145870000Y-79920000D03*
%TO.P,IC1,12*%
%TO.N,/OUT1*%
X145070000Y-79920000D03*
%TO.P,IC1,13*%
%TO.N,/OUT2*%
X144270000Y-79920000D03*
%TO.P,IC1,14*%
%TO.N,N/C*%
X143470000Y-79920000D03*
%TO.P,IC1,15*%
%TO.N,/MOSI*%
X142670000Y-79920000D03*
%TO.P,IC1,16*%
%TO.N,/MISO*%
X141870000Y-79920000D03*
D15*
%TO.P,IC1,17*%
%TO.N,/SCK*%
X140420000Y-81370000D03*
%TO.P,IC1,18*%
%TO.N,Net-(C5-Pad1)*%
X140420000Y-82170000D03*
%TO.P,IC1,19*%
%TO.N,N/C*%
X140420000Y-82970000D03*
%TO.P,IC1,20*%
%TO.N,Net-(C4-Pad2)*%
X140420000Y-83770000D03*
%TO.P,IC1,21*%
%TO.N,GND*%
X140420000Y-84570000D03*
%TO.P,IC1,22*%
%TO.N,/Vin*%
X140420000Y-85370000D03*
%TO.P,IC1,23*%
%TO.N,N/C*%
X140420000Y-86170000D03*
%TO.P,IC1,24*%
X140420000Y-86970000D03*
D16*
%TO.P,IC1,25*%
X141870000Y-88420000D03*
%TO.P,IC1,26*%
X142670000Y-88420000D03*
%TO.P,IC1,27*%
%TO.N,/MAX_EN*%
X143470000Y-88420000D03*
%TO.P,IC1,28*%
%TO.N,N/C*%
X144270000Y-88420000D03*
%TO.P,IC1,29*%
%TO.N,/RSB*%
X145070000Y-88420000D03*
%TO.P,IC1,30*%
%TO.N,/RXD*%
X145870000Y-88420000D03*
%TO.P,IC1,31*%
%TO.N,/TXD*%
X146670000Y-88420000D03*
%TO.P,IC1,32*%
%TO.N,N/C*%
X147470000Y-88420000D03*
%TD*%
D17*
%TO.P,Y1,2*%
%TO.N,Net-(C7-Pad1)*%
X155180000Y-77410000D03*
%TO.P,Y1,1*%
%TO.N,Net-(C6-Pad1)*%
X155180000Y-86910000D03*
%TD*%
D18*
%TO.P,TP18,1*%
%TO.N,/TXD*%
X147219200Y-90079200D03*
%TD*%
%TO.P,RX,1*%
%TO.N,/RXD*%
X145870000Y-90100000D03*
%TD*%
D19*
%TO.P,e,*%
%TO.N,*%
X130960000Y-65330000D03*
%TD*%
%TO.P,e,*%
%TO.N,*%
X159660000Y-65060000D03*
%TD*%
%TO.P,e,*%
%TO.N,*%
X159720000Y-74422000D03*
%TD*%
D20*
%TO.P,,*%
%TO.N,*%
X138266400Y-121037600D03*
%TD*%
%TO.P,,*%
%TO.N,*%
X152490400Y-121101100D03*
%TD*%
%TO.P,,*%
%TO.N,*%
X145505400Y-123403100D03*
%TD*%
D14*
%TO.P,,*%
%TO.N,*%
X131607000Y-116287800D03*
%TD*%
D20*
%TO.P,,*%
%TO.N,*%
X145607000Y-116287800D03*
%TD*%
D14*
%TO.P,,*%
%TO.N,*%
X159607000Y-116287800D03*
%TD*%
D21*
%TO.P,D3,2*%
%TO.N,Net-(D3-Pad2)*%
X136630000Y-111252000D03*
%TO.P,D3,1*%
%TO.N,Net-(D3-Pad1)*%
X140230000Y-111252000D03*
%TD*%
D22*
%TO.P,D2,2*%
%TO.N,GND*%
X158960000Y-91570000D03*
%TO.P,D2,1*%
%TO.N,/RSB*%
X158960000Y-94970000D03*
%TD*%
D23*
%TO.P,D1,2*%
%TO.N,/RSB*%
X156680000Y-94940000D03*
%TO.P,D1,1*%
%TO.N,+3V3*%
X156680000Y-91640000D03*
%TD*%
D18*
%TO.P,EN,1*%
%TO.N,/MAX_EN*%
X143440000Y-90100000D03*
%TD*%
%TO.P,C3,2*%
%TO.N,GND*%
%TA.AperFunction,SMDPad,CuDef*%
G36*
G01*
X151495001Y-84330000D02*
X150644999Y-84330000D01*
G75*
G02*
X150395000Y-84080001I0J249999D01*
G01*
X150395000Y-83179999D01*
G75*
G02*
X150644999Y-82930000I249999J0D01*
G01*
X151495001Y-82930000D01*
G75*
G02*
X151745000Y-83179999I0J-249999D01*
G01*
X151745000Y-84080001D01*
G75*
G02*
X151495001Y-84330000I-249999J0D01*
G01*
G37*
%TD.AperFunction*%
%TO.P,C3,1*%
%TO.N,+3V3*%
%TA.AperFunction,SMDPad,CuDef*%
G36*
G01*
X151495001Y-87030000D02*
X150644999Y-87030000D01*
G75*
G02*
X150395000Y-86780001I0J249999D01*
G01*
X150395000Y-85879999D01*
G75*
G02*
X150644999Y-85630000I249999J0D01*
G01*
X151495001Y-85630000D01*
G75*
G02*
X151745000Y-85879999I0J-249999D01*
G01*
X151745000Y-86780001D01*
G75*
G02*
X151495001Y-87030000I-249999J0D01*
G01*
G37*
%TD.AperFunction*%
%TD*%
%TO.P,C7,2*%
%TO.N,GND*%
%TA.AperFunction,SMDPad,CuDef*%
G36*
G01*
X158700000Y-78100000D02*
X159040000Y-78100000D01*
G75*
G02*
X159180000Y-78240000I0J-140000D01*
G01*
X159180000Y-78520000D01*
G75*
G02*
X159040000Y-78660000I-140000J0D01*
G01*
X158700000Y-78660000D01*
G75*
G02*
X158560000Y-78520000I0J140000D01*
G01*
X158560000Y-78240000D01*
G75*
G02*
X158700000Y-78100000I140000J0D01*
G01*
G37*
%TD.AperFunction*%
%TO.P,C7,1*%
%TO.N,Net-(C7-Pad1)*%
%TA.AperFunction,SMDPad,CuDef*%
G36*
G01*
X158700000Y-77140000D02*
X159040000Y-77140000D01*
G75*
G02*
X159180000Y-77280000I0J-140000D01*
G01*
X159180000Y-77560000D01*
G75*
G02*
X159040000Y-77700000I-140000J0D01*
G01*
X158700000Y-77700000D01*
G75*
G02*
X158560000Y-77560000I0J140000D01*
G01*
X158560000Y-77280000D01*
G75*
G02*
X158700000Y-77140000I140000J0D01*
G01*
G37*
%TD.AperFunction*%
%TD*%
%TO.P,C6,2*%
%TO.N,GND*%
%TA.AperFunction,SMDPad,CuDef*%
G36*
G01*
X159030000Y-86480000D02*
X158690000Y-86480000D01*
G75*
G02*
X158550000Y-86340000I0J140000D01*
G01*
X158550000Y-86060000D01*
G75*
G02*
X158690000Y-85920000I140000J0D01*
G01*
X159030000Y-85920000D01*
G75*
G02*
X159170000Y-86060000I0J-140000D01*
G01*
X159170000Y-86340000D01*
G75*
G02*
X159030000Y-86480000I-140000J0D01*
G01*
G37*
%TD.AperFunction*%
%TO.P,C6,1*%
%TO.N,Net-(C6-Pad1)*%
%TA.AperFunction,SMDPad,CuDef*%
G36*
G01*
X159030000Y-87440000D02*
X158690000Y-87440000D01*
G75*
G02*
X158550000Y-87300000I0J140000D01*
G01*
X158550000Y-87020000D01*
G75*
G02*
X158690000Y-86880000I140000J0D01*
G01*
X159030000Y-86880000D01*
G75*
G02*
X159170000Y-87020000I0J-140000D01*
G01*
X159170000Y-87300000D01*
G75*
G02*
X159030000Y-87440000I-140000J0D01*
G01*
G37*
%TD.AperFunction*%
%TD*%
%TO.P,C5,2*%
%TO.N,GND*%
%TA.AperFunction,SMDPad,CuDef*%
G36*
G01*
X136830000Y-80710000D02*
X136830000Y-81050000D01*
G75*
G02*
X136690000Y-81190000I-140000J0D01*
G01*
X136410000Y-81190000D01*
G75*
G02*
X136270000Y-81050000I0J140000D01*
G01*
X136270000Y-80710000D01*
G75*
G02*
X136410000Y-80570000I140000J0D01*
G01*
X136690000Y-80570000D01*
G75*
G02*
X136830000Y-80710000I0J-140000D01*
G01*
G37*
%TD.AperFunction*%
%TO.P,C5,1*%
%TO.N,Net-(C5-Pad1)*%
%TA.AperFunction,SMDPad,CuDef*%
G36*
G01*
X137790000Y-80710000D02*
X137790000Y-81050000D01*
G75*
G02*
X137650000Y-81190000I-140000J0D01*
G01*
X137370000Y-81190000D01*
G75*
G02*
X137230000Y-81050000I0J140000D01*
G01*
X137230000Y-80710000D01*
G75*
G02*
X137370000Y-80570000I140000J0D01*
G01*
X137650000Y-80570000D01*
G75*
G02*
X137790000Y-80710000I0J-140000D01*
G01*
G37*
%TD.AperFunction*%
%TD*%
%TO.P,C4,2*%
%TO.N,Net-(C4-Pad2)*%
%TA.AperFunction,SMDPad,CuDef*%
G36*
G01*
X137300000Y-82240000D02*
X137300000Y-81900000D01*
G75*
G02*
X137440000Y-81760000I140000J0D01*
G01*
X137720000Y-81760000D01*
G75*
G02*
X137860000Y-81900000I0J-140000D01*
G01*
X137860000Y-82240000D01*
G75*
G02*
X137720000Y-82380000I-140000J0D01*
G01*
X137440000Y-82380000D01*
G75*
G02*
X137300000Y-82240000I0J140000D01*
G01*
G37*
%TD.AperFunction*%
%TO.P,C4,1*%
%TO.N,GND*%
%TA.AperFunction,SMDPad,CuDef*%
G36*
G01*
X136340000Y-82240000D02*
X136340000Y-81900000D01*
G75*
G02*
X136480000Y-81760000I140000J0D01*
G01*
X136760000Y-81760000D01*
G75*
G02*
X136900000Y-81900000I0J-140000D01*
G01*
X136900000Y-82240000D01*
G75*
G02*
X136760000Y-82380000I-140000J0D01*
G01*
X136480000Y-82380000D01*
G75*
G02*
X136340000Y-82240000I0J140000D01*
G01*
G37*
%TD.AperFunction*%
%TD*%
%TO.P,C2,2*%
%TO.N,GND*%
%TA.AperFunction,SMDPad,CuDef*%
G36*
G01*
X150880000Y-88050000D02*
X150880000Y-88390000D01*
G75*
G02*
X150740000Y-88530000I-140000J0D01*
G01*
X150460000Y-88530000D01*
G75*
G02*
X150320000Y-88390000I0J140000D01*
G01*
X150320000Y-88050000D01*
G75*
G02*
X150460000Y-87910000I140000J0D01*
G01*
X150740000Y-87910000D01*
G75*
G02*
X150880000Y-88050000I0J-140000D01*
G01*
G37*
%TD.AperFunction*%
%TO.P,C2,1*%
%TO.N,+3V3*%
%TA.AperFunction,SMDPad,CuDef*%
G36*
G01*
X151840000Y-88050000D02*
X151840000Y-88390000D01*
G75*
G02*
X151700000Y-88530000I-140000J0D01*
G01*
X151420000Y-88530000D01*
G75*
G02*
X151280000Y-88390000I0J140000D01*
G01*
X151280000Y-88050000D01*
G75*
G02*
X151420000Y-87910000I140000J0D01*
G01*
X151700000Y-87910000D01*
G75*
G02*
X151840000Y-88050000I0J-140000D01*
G01*
G37*
%TD.AperFunction*%
%TD*%
%TO.P,C1,2*%
%TO.N,GND*%
%TA.AperFunction,SMDPad,CuDef*%
G36*
G01*
X159090000Y-96750000D02*
X159090000Y-96410000D01*
G75*
G02*
X159230000Y-96270000I140000J0D01*
G01*
X159510000Y-96270000D01*
G75*
G02*
X159650000Y-96410000I0J-140000D01*
G01*
X159650000Y-96750000D01*
G75*
G02*
X159510000Y-96890000I-140000J0D01*
G01*
X159230000Y-96890000D01*
G75*
G02*
X159090000Y-96750000I0J140000D01*
G01*
G37*
%TD.AperFunction*%
%TO.P,C1,1*%
%TO.N,/RSB*%
%TA.AperFunction,SMDPad,CuDef*%
G36*
G01*
X158130000Y-96750000D02*
X158130000Y-96410000D01*
G75*
G02*
X158270000Y-96270000I140000J0D01*
G01*
X158550000Y-96270000D01*
G75*
G02*
X158690000Y-96410000I0J-140000D01*
G01*
X158690000Y-96750000D01*
G75*
G02*
X158550000Y-96890000I-140000J0D01*
G01*
X158270000Y-96890000D01*
G75*
G02*
X158130000Y-96750000I0J140000D01*
G01*
G37*
%TD.AperFunction*%
%TD*%
%TO.P,R14,2*%
%TO.N,GND*%
%TA.AperFunction,SMDPad,CuDef*%
G36*
G01*
X132786200Y-100217800D02*
X132786200Y-99847800D01*
G75*
G02*
X132921200Y-99712800I135000J0D01*
G01*
X133191200Y-99712800D01*
G75*
G02*
X133326200Y-99847800I0J-135000D01*
G01*
X133326200Y-100217800D01*
G75*
G02*
X133191200Y-100352800I-135000J0D01*
G01*
X132921200Y-100352800D01*
G75*
G02*
X132786200Y-100217800I0J135000D01*
G01*
G37*
%TD.AperFunction*%
%TO.P,R14,1*%
%TO.N,/Vin*%
%TA.AperFunction,SMDPad,CuDef*%
G36*
G01*
X131766200Y-100217800D02*
X131766200Y-99847800D01*
G75*
G02*
X131901200Y-99712800I135000J0D01*
G01*
X132171200Y-99712800D01*
G75*
G02*
X132306200Y-99847800I0J-135000D01*
G01*
X132306200Y-100217800D01*
G75*
G02*
X132171200Y-100352800I-135000J0D01*
G01*
X131901200Y-100352800D01*
G75*
G02*
X131766200Y-100217800I0J135000D01*
G01*
G37*
%TD.AperFunction*%
%TD*%
%TO.P,R3,2*%
%TO.N,/Vin*%
%TA.AperFunction,SMDPad,CuDef*%
G36*
G01*
X132326200Y-98407800D02*
X132326200Y-98777800D01*
G75*
G02*
X132191200Y-98912800I-135000J0D01*
G01*
X131921200Y-98912800D01*
G75*
G02*
X131786200Y-98777800I0J135000D01*
G01*
X131786200Y-98407800D01*
G75*
G02*
X131921200Y-98272800I135000J0D01*
G01*
X132191200Y-98272800D01*
G75*
G02*
X132326200Y-98407800I0J-135000D01*
G01*
G37*
%TD.AperFunction*%
%TO.P,R3,1*%
%TO.N,Net-(C8-Pad1)*%
%TA.AperFunction,SMDPad,CuDef*%
G36*
G01*
X133346200Y-98407800D02*
X133346200Y-98777800D01*
G75*
G02*
X133211200Y-98912800I-135000J0D01*
G01*
X132941200Y-98912800D01*
G75*
G02*
X132806200Y-98777800I0J135000D01*
G01*
X132806200Y-98407800D01*
G75*
G02*
X132941200Y-98272800I135000J0D01*
G01*
X133211200Y-98272800D01*
G75*
G02*
X133346200Y-98407800I0J-135000D01*
G01*
G37*
%TD.AperFunction*%
%TD*%
%TO.P,R1,2*%
%TO.N,/RSB*%
%TA.AperFunction,SMDPad,CuDef*%
G36*
G01*
X156900000Y-96735000D02*
X156900000Y-96365000D01*
G75*
G02*
X157035000Y-96230000I135000J0D01*
G01*
X157305000Y-96230000D01*
G75*
G02*
X157440000Y-96365000I0J-135000D01*
G01*
X157440000Y-96735000D01*
G75*
G02*
X157305000Y-96870000I-135000J0D01*
G01*
X157035000Y-96870000D01*
G75*
G02*
X156900000Y-96735000I0J135000D01*
G01*
G37*
%TD.AperFunction*%
%TO.P,R1,1*%
%TO.N,+3V3*%
%TA.AperFunction,SMDPad,CuDef*%
G36*
G01*
X155880000Y-96735000D02*
X155880000Y-96365000D01*
G75*
G02*
X156015000Y-96230000I135000J0D01*
G01*
X156285000Y-96230000D01*
G75*
G02*
X156420000Y-96365000I0J-135000D01*
G01*
X156420000Y-96735000D01*
G75*
G02*
X156285000Y-96870000I-135000J0D01*
G01*
X156015000Y-96870000D01*
G75*
G02*
X155880000Y-96735000I0J135000D01*
G01*
G37*
%TD.AperFunction*%
%TD*%
D19*
%TO.P,e,*%
%TO.N,*%
X130760000Y-74940000D03*
%TD*%
D24*
%TO.P,J1,6*%
%TO.N,GND*%
X151638000Y-59352000D03*
%TO.P,J1,5*%
%TO.N,/RSB*%
X149098000Y-59352000D03*
%TO.P,J1,4*%
%TO.N,/MOSI*%
X146558000Y-59352000D03*
%TO.P,J1,3*%
%TO.N,/SCK*%
X144018000Y-59352000D03*
%TO.P,J1,2*%
%TO.N,+3V3*%
X141478000Y-59352000D03*
%TO.P,J1,1*%
%TO.N,/MISO*%
X138938000Y-59352000D03*
%TD*%
D25*
%TO.P,RV1,2*%
%TO.N,GND*%
X149860000Y-111686000D03*
%TO.P,RV1,1*%
%TO.N,Net-(D3-Pad1)*%
X149860000Y-108786000D03*
%TD*%
D26*
%TO.P,RT1,2*%
%TO.N,Net-(D3-Pad2)*%
X139818000Y-108712000D03*
%TO.P,RT1,1*%
%TO.N,+12V*%
X138058000Y-108712000D03*
%TD*%
%TO.P,L1,2*%
%TO.N,Net-(C5-Pad1)*%
%TA.AperFunction,SMDPad,CuDef*%
G36*
G01*
X137590000Y-79580001D02*
X137590000Y-78179999D01*
G75*
G02*
X137839999Y-77930000I249999J0D01*
G01*
X138390001Y-77930000D01*
G75*
G02*
X138640000Y-78179999I0J-249999D01*
G01*
X138640000Y-79580001D01*
G75*
G02*
X138390001Y-79830000I-249999J0D01*
G01*
X137839999Y-79830000D01*
G75*
G02*
X137590000Y-79580001I0J249999D01*
G01*
G37*
%TD.AperFunction*%
%TO.P,L1,1*%
%TO.N,+3V3*%
%TA.AperFunction,SMDPad,CuDef*%
G36*
G01*
X134440000Y-79580001D02*
X134440000Y-78179999D01*
G75*
G02*
X134689999Y-77930000I249999J0D01*
G01*
X135240001Y-77930000D01*
G75*
G02*
X135490000Y-78179999I0J-249999D01*
G01*
X135490000Y-79580001D01*
G75*
G02*
X135240001Y-79830000I-249999J0D01*
G01*
X134689999Y-79830000D01*
G75*
G02*
X134440000Y-79580001I0J249999D01*
G01*
G37*
%TD.AperFunction*%
%TD*%
D27*
%TO.P,IC2,4*%
%TO.N,GND*%
X143360000Y-106270000D03*
D28*
%TO.P,IC2,3*%
%TO.N,+3V3*%
X141060000Y-99970000D03*
%TO.P,IC2,2*%
%TO.N,GND*%
X143360000Y-99970000D03*
%TO.P,IC2,1*%
%TO.N,Net-(C8-Pad1)*%
X145660000Y-99970000D03*
%TD*%
D29*
%TO.P,FB1,2*%
%TO.N,Net-(C8-Pad1)*%
X152908000Y-109040000D03*
%TO.P,FB1,1*%
%TO.N,Net-(D3-Pad1)*%
X152908000Y-111940000D03*
%TD*%
%TO.P,C10,2*%
%TO.N,GND*%
%TA.AperFunction,SMDPad,CuDef*%
G36*
G01*
X143394000Y-97932001D02*
X143394000Y-96631999D01*
G75*
G02*
X143643999Y-96382000I249999J0D01*
G01*
X144294001Y-96382000D01*
G75*
G02*
X144544000Y-96631999I0J-249999D01*
G01*
X144544000Y-97932001D01*
G75*
G02*
X144294001Y-98182000I-249999J0D01*
G01*
X143643999Y-98182000D01*
G75*
G02*
X143394000Y-97932001I0J249999D01*
G01*
G37*
%TD.AperFunction*%
%TO.P,C10,1*%
%TO.N,+3V3*%
%TA.AperFunction,SMDPad,CuDef*%
G36*
G01*
X140444000Y-97932001D02*
X140444000Y-96631999D01*
G75*
G02*
X140693999Y-96382000I249999J0D01*
G01*
X141344001Y-96382000D01*
G75*
G02*
X141594000Y-96631999I0J-249999D01*
G01*
X141594000Y-97932001D01*
G75*
G02*
X141344001Y-98182000I-249999J0D01*
G01*
X140693999Y-98182000D01*
G75*
G02*
X140444000Y-97932001I0J249999D01*
G01*
G37*
%TD.AperFunction*%
%TD*%
%TO.P,C9,2*%
%TO.N,GND*%
%TA.AperFunction,SMDPad,CuDef*%
G36*
G01*
X148449999Y-105490000D02*
X149750001Y-105490000D01*
G75*
G02*
X150000000Y-105739999I0J-249999D01*
G01*
X150000000Y-106390001D01*
G75*
G02*
X149750001Y-106640000I-249999J0D01*
G01*
X148449999Y-106640000D01*
G75*
G02*
X148200000Y-106390001I0J249999D01*
G01*
X148200000Y-105739999D01*
G75*
G02*
X148449999Y-105490000I249999J0D01*
G01*
G37*
%TD.AperFunction*%
%TO.P,C9,1*%
%TO.N,Net-(C8-Pad1)*%
%TA.AperFunction,SMDPad,CuDef*%
G36*
G01*
X148449999Y-102540000D02*
X149750001Y-102540000D01*
G75*
G02*
X150000000Y-102789999I0J-249999D01*
G01*
X150000000Y-103440001D01*
G75*
G02*
X149750001Y-103690000I-249999J0D01*
G01*
X148449999Y-103690000D01*
G75*
G02*
X148200000Y-103440001I0J249999D01*
G01*
X148200000Y-102789999D01*
G75*
G02*
X148449999Y-102540000I249999J0D01*
G01*
G37*
%TD.AperFunction*%
%TD*%
D30*
%TO.P,C8,2*%
%TO.N,GND*%
X149021800Y-97840200D03*
%TO.P,C8,1*%
%TO.N,Net-(C8-Pad1)*%
X149021800Y-100940200D03*
%TD*%
D12*
%TO.P,GND,1*%
%TO.N,GND*%
X130175000Y-102616000D03*
%TD*%
%TO.P,GND,1*%
%TO.N,GND*%
X160147000Y-102489000D03*
%TD*%
D31*
%TO.P,GND,1*%
%TO.N,GND*%
X159893000Y-82042000D03*
%TD*%
D32*
%TO.P,D4,1*%
%TO.N,Net-(D3-Pad1)*%
X142710000Y-109600000D03*
%TO.P,D4,2*%
%TO.N,GND*%
X146710000Y-109600000D03*
%TD*%
D33*
%TO.N,/1Y*%
X146050000Y-84582000D03*
%TO.N,GND*%
X147421600Y-62331600D03*
X144856200Y-62331600D03*
D34*
X146304000Y-104394000D03*
X141342000Y-104394000D03*
X143352000Y-104384000D03*
X142332000Y-104394000D03*
X144272000Y-104394000D03*
X140312000Y-104394000D03*
X145288000Y-104394000D03*
X146304000Y-101854000D03*
X141342000Y-101854000D03*
X143352000Y-101844000D03*
X142332000Y-101854000D03*
X144272000Y-101854000D03*
X140312000Y-101854000D03*
X145288000Y-101854000D03*
X146304000Y-103632000D03*
X141342000Y-103632000D03*
X143352000Y-103622000D03*
X142332000Y-103632000D03*
X144272000Y-103632000D03*
X140312000Y-103632000D03*
X145288000Y-103632000D03*
X146304000Y-102870000D03*
X140312000Y-102870000D03*
X141342000Y-102870000D03*
X142332000Y-102870000D03*
X143352000Y-102860000D03*
X144272000Y-102870000D03*
X145288000Y-102870000D03*
D33*
X134366000Y-93980000D03*
X158850000Y-79440000D03*
X158870000Y-85260000D03*
X158940000Y-89710000D03*
X151536400Y-99187000D03*
X137185400Y-92278200D03*
X142951200Y-62331600D03*
X150037800Y-62280800D03*
X161417000Y-82042000D03*
X147066000Y-85598000D03*
X135382000Y-81534000D03*
X143510000Y-86360000D03*
D34*
X149860000Y-113538000D03*
D33*
X149640000Y-88790000D03*
X131420000Y-80420000D03*
X130820000Y-99940000D03*
X131870000Y-93410000D03*
X132210000Y-96290000D03*
X134068800Y-100032800D03*
X159350000Y-97850000D03*
X138840000Y-84510000D03*
%TO.N,/RSB*%
X157870000Y-96580000D03*
X145070000Y-86970000D03*
%TO.N,+3V3*%
X135534400Y-97713800D03*
X143764000Y-64770000D03*
D34*
X140790000Y-88140000D03*
D33*
X148740000Y-90700000D03*
X144440000Y-72430000D03*
X146990000Y-74700000D03*
X133120000Y-78880000D03*
X130560000Y-81290000D03*
X153305000Y-91095000D03*
X143510000Y-76708000D03*
X130210000Y-97710000D03*
%TO.N,Net-(C8-Pad1)*%
X145542000Y-98298000D03*
X134067200Y-98592800D03*
%TO.N,/RXD*%
X133640000Y-85690000D03*
%TO.N,/MAX_EN*%
X135630000Y-84060000D03*
%TO.N,/Vin*%
X138760000Y-88890000D03*
X138709400Y-91998800D03*
%TO.N,/SCK*%
X140460000Y-66870000D03*
%TO.N,/OUT2*%
X144272000Y-74930000D03*
%TO.N,/OUT1*%
X144526000Y-73660000D03*
%TO.N,/2Y*%
X145870000Y-78412000D03*
%TD*%
D35*
%TO.N,GND*%
X145288000Y-101854000D02*
X145288000Y-104394000D01*
X144272000Y-101854000D02*
X144272000Y-104394000D01*
X142332000Y-101854000D02*
X142332000Y-104394000D01*
X141342000Y-101854000D02*
X141342000Y-104394000D01*
X140312000Y-101854000D02*
X140312000Y-104394000D01*
X140312000Y-104394000D02*
X146304000Y-104394000D01*
X140312000Y-103632000D02*
X146304000Y-103632000D01*
X140312000Y-102870000D02*
X146304000Y-102870000D01*
X146304000Y-101854000D02*
X146304000Y-104394000D01*
X140312000Y-101854000D02*
X146304000Y-101854000D01*
D36*
X143360000Y-101836000D02*
X143352000Y-101844000D01*
X143360000Y-99970000D02*
X143360000Y-101836000D01*
X143360000Y-103990000D02*
X143352000Y-103982000D01*
D35*
X143352000Y-103982000D02*
X143352000Y-104384000D01*
D36*
X143360000Y-106270000D02*
X143360000Y-103990000D01*
D35*
X143352000Y-101844000D02*
X143352000Y-103982000D01*
D37*
X134366000Y-93980000D02*
X134366000Y-93980000D01*
D35*
X148920000Y-83770000D02*
X150930000Y-83770000D01*
D38*
X158870000Y-79420000D02*
X158850000Y-79440000D01*
X158870000Y-78380000D02*
X158870000Y-79420000D01*
X158860000Y-85270000D02*
X158870000Y-85260000D01*
X158860000Y-86200000D02*
X158860000Y-85270000D01*
D39*
X149021800Y-97840200D02*
X149700200Y-97840200D01*
D38*
X158960000Y-89730000D02*
X158940000Y-89710000D01*
D35*
X158960000Y-91570000D02*
X158960000Y-89730000D01*
D39*
X149095000Y-106060000D02*
X149100000Y-106065000D01*
X143570000Y-106060000D02*
X149095000Y-106060000D01*
X143360000Y-106270000D02*
X143570000Y-106060000D01*
D35*
X150189600Y-97840200D02*
X151536400Y-99187000D01*
X149021800Y-97840200D02*
X150189600Y-97840200D01*
D38*
X151412400Y-83972400D02*
X151070000Y-83630000D01*
X147421600Y-62331600D02*
X147370800Y-62382400D01*
D35*
X149987000Y-62331600D02*
X147421600Y-62331600D01*
D38*
X150037800Y-62280800D02*
X149987000Y-62331600D01*
D35*
X144856200Y-62331600D02*
X142951200Y-62331600D01*
D38*
X135509000Y-93980000D02*
X134366000Y-93980000D01*
X137185400Y-92303600D02*
X135509000Y-93980000D01*
X137185400Y-92278200D02*
X137185400Y-92303600D01*
D37*
X161290000Y-82042000D02*
X161417000Y-81915000D01*
X159893000Y-82042000D02*
X161290000Y-82042000D01*
D39*
X143360000Y-97891000D02*
X143969000Y-97282000D01*
X143360000Y-99970000D02*
X143360000Y-97891000D01*
D35*
X147878000Y-83770000D02*
X148920000Y-83770000D01*
X147066000Y-84582000D02*
X147878000Y-83770000D01*
X147066000Y-85598000D02*
X147066000Y-84582000D01*
D37*
X136550000Y-82000000D02*
X136620000Y-82070000D01*
D35*
X136550000Y-80880000D02*
X136550000Y-81432000D01*
X136550000Y-81432000D02*
X136550000Y-82000000D01*
X136448000Y-81534000D02*
X135382000Y-81534000D01*
X137439400Y-72694800D02*
X138125200Y-72694800D01*
X138480800Y-65074800D02*
X137439400Y-65074800D01*
X139192000Y-65786000D02*
X138480800Y-65074800D01*
X139192000Y-71628000D02*
X139192000Y-65786000D01*
X138125200Y-72694800D02*
X139192000Y-71628000D01*
D39*
X149860000Y-111686000D02*
X149860000Y-113538000D01*
D35*
X149640000Y-88790000D02*
X150030000Y-88790000D01*
X150030000Y-88790000D02*
X150600000Y-88220000D01*
D39*
X147500000Y-111686000D02*
X149860000Y-111686000D01*
X146710000Y-110896000D02*
X147500000Y-111686000D01*
X146710000Y-109600000D02*
X146710000Y-110896000D01*
D35*
X134288000Y-80440000D02*
X135382000Y-81534000D01*
X131440000Y-80440000D02*
X134288000Y-80440000D01*
D38*
X131420000Y-80420000D02*
X131440000Y-80440000D01*
D37*
X132440000Y-93980000D02*
X131870000Y-93410000D01*
X134366000Y-93980000D02*
X132440000Y-93980000D01*
D35*
X134068800Y-100032800D02*
X133056200Y-100032800D01*
X159370000Y-97830000D02*
X159350000Y-97850000D01*
X159370000Y-96580000D02*
X159370000Y-97830000D01*
X138900000Y-84570000D02*
X140420000Y-84570000D01*
X138840000Y-84510000D02*
X138900000Y-84570000D01*
X141760000Y-84570000D02*
X140420000Y-84570000D01*
X143510000Y-86320000D02*
X141760000Y-84570000D01*
X143510000Y-86360000D02*
X143510000Y-86320000D01*
X147038000Y-85570000D02*
X147066000Y-85598000D01*
X144808000Y-85570000D02*
X147038000Y-85570000D01*
X144018000Y-86360000D02*
X144808000Y-85570000D01*
X143510000Y-86360000D02*
X144018000Y-86360000D01*
D38*
X154178000Y-102616000D02*
X155754000Y-102616000D01*
D35*
X131300000Y-99460000D02*
X130820000Y-99940000D01*
X131300000Y-97200000D02*
X131300000Y-99460000D01*
X132210000Y-96290000D02*
X131300000Y-97200000D01*
%TO.N,/RSB*%
X157200000Y-96580000D02*
X157170000Y-96550000D01*
X158410000Y-96580000D02*
X157870000Y-96580000D01*
X156710000Y-94970000D02*
X156680000Y-94940000D01*
X158960000Y-94970000D02*
X156710000Y-94970000D01*
X157170000Y-95430000D02*
X156680000Y-94940000D01*
X157170000Y-96550000D02*
X157170000Y-95430000D01*
X157870000Y-96580000D02*
X157200000Y-96580000D01*
D38*
X145070000Y-86970000D02*
X145070000Y-88420000D01*
X145070000Y-86960000D02*
X145070000Y-86970000D01*
D37*
%TO.N,+3V3*%
X151070000Y-85940000D02*
X151070000Y-86330000D01*
X151560000Y-88220000D02*
X151570000Y-88210000D01*
D38*
X156150000Y-96550000D02*
X155780000Y-96550000D01*
X156550000Y-91510000D02*
X156680000Y-91640000D01*
D35*
X156680000Y-92253000D02*
X156680000Y-91640000D01*
X155067000Y-93866000D02*
X156680000Y-92253000D01*
X155067000Y-95837000D02*
X155067000Y-93866000D01*
X155780000Y-96550000D02*
X155067000Y-95837000D01*
X151570000Y-88210000D02*
X151511000Y-88151000D01*
X151560000Y-86820000D02*
X151070000Y-86330000D01*
X151560000Y-88220000D02*
X151560000Y-86820000D01*
D39*
X141060000Y-97323000D02*
X141019000Y-97282000D01*
X141060000Y-99970000D02*
X141060000Y-97323000D01*
D38*
X135534400Y-97713800D02*
X135813800Y-97993200D01*
X143764000Y-64770000D02*
X143920000Y-64614000D01*
D35*
X143764000Y-64770000D02*
X143002000Y-64770000D01*
X143002000Y-64770000D02*
X141478000Y-63246000D01*
X141478000Y-63246000D02*
X141478000Y-62230000D01*
X141478000Y-62230000D02*
X141478000Y-60452000D01*
X134905000Y-78820000D02*
X134965000Y-78880000D01*
X144610000Y-72430000D02*
X144440000Y-72430000D01*
X146880000Y-74700000D02*
X144610000Y-72430000D01*
X146990000Y-74700000D02*
X146880000Y-74700000D01*
X151070000Y-85720000D02*
X151070000Y-85940000D01*
X149920000Y-84570000D02*
X151070000Y-85720000D01*
X148920000Y-84570000D02*
X149920000Y-84570000D01*
X133120000Y-78880000D02*
X134965000Y-78880000D01*
X138670000Y-98560000D02*
X136380600Y-98560000D01*
X136380600Y-98560000D02*
X135813800Y-97993200D01*
X141732000Y-95504000D02*
X141019000Y-96217000D01*
X150368000Y-95504000D02*
X141732000Y-95504000D01*
X139973400Y-97256600D02*
X138670000Y-98560000D01*
X141019000Y-96217000D02*
X141019000Y-97256600D01*
X153305000Y-92567000D02*
X150368000Y-95504000D01*
X141019000Y-97256600D02*
X139973400Y-97256600D01*
X153305000Y-91095000D02*
X153305000Y-92567000D01*
X156130000Y-91090000D02*
X156550000Y-91510000D01*
X153310000Y-91090000D02*
X156130000Y-91090000D01*
X153305000Y-91095000D02*
X153310000Y-91090000D01*
X151560000Y-89180000D02*
X151560000Y-88220000D01*
X153305000Y-90925000D02*
X151560000Y-89180000D01*
X153305000Y-91095000D02*
X153305000Y-90925000D01*
X148750000Y-90710000D02*
X148740000Y-90700000D01*
X152920000Y-90710000D02*
X148750000Y-90710000D01*
X153305000Y-91095000D02*
X152920000Y-90710000D01*
X143370000Y-76568000D02*
X143510000Y-76708000D01*
X143370000Y-73500000D02*
X143370000Y-76568000D01*
X144440000Y-72430000D02*
X143370000Y-73500000D01*
X130440000Y-81410000D02*
X130560000Y-81290000D01*
X130440000Y-97480000D02*
X130440000Y-81410000D01*
X130210000Y-97710000D02*
X130440000Y-97480000D01*
D37*
%TO.N,Net-(C4-Pad2)*%
X137600000Y-82070000D02*
X137580000Y-82070000D01*
X139300000Y-83770000D02*
X137600000Y-82070000D01*
X140420000Y-83770000D02*
X139300000Y-83770000D01*
%TO.N,Net-(C5-Pad1)*%
X137510000Y-79485000D02*
X138115000Y-78880000D01*
X137510000Y-80880000D02*
X137510000Y-79485000D01*
X137690000Y-80880000D02*
X137510000Y-80880000D01*
X138920000Y-82110000D02*
X137690000Y-80880000D01*
X140360000Y-82110000D02*
X138920000Y-82110000D01*
X140420000Y-82170000D02*
X140360000Y-82110000D01*
%TO.N,Net-(C6-Pad1)*%
X155180000Y-85490000D02*
X155180000Y-86910000D01*
X151880000Y-82190000D02*
X155180000Y-85490000D01*
X148940000Y-82190000D02*
X151880000Y-82190000D01*
X148920000Y-82170000D02*
X148940000Y-82190000D01*
D38*
X155430000Y-87160000D02*
X158860000Y-87160000D01*
X155180000Y-86910000D02*
X155430000Y-87160000D01*
D37*
%TO.N,Net-(C7-Pad1)*%
X155180000Y-79340000D02*
X155180000Y-77410000D01*
X153150000Y-81370000D02*
X155180000Y-79340000D01*
X148920000Y-81370000D02*
X153150000Y-81370000D01*
D38*
X158740000Y-77410000D02*
X158850000Y-77520000D01*
X155180000Y-77410000D02*
X158740000Y-77410000D01*
D39*
%TO.N,Net-(C8-Pad1)*%
X149021800Y-103036800D02*
X149100000Y-103115000D01*
X149021800Y-100940200D02*
X149021800Y-103036800D01*
X149021800Y-100940200D02*
X148720200Y-100940200D01*
X147750000Y-99970000D02*
X145660000Y-99970000D01*
X148720200Y-100940200D02*
X147750000Y-99970000D01*
D35*
X145660000Y-98416000D02*
X145660000Y-99970000D01*
X145542000Y-98298000D02*
X145660000Y-98416000D01*
D39*
X152908000Y-109040000D02*
X152908000Y-106680000D01*
X149343000Y-103115000D02*
X149100000Y-103115000D01*
X152908000Y-106680000D02*
X149343000Y-103115000D01*
D35*
X134067200Y-98592800D02*
X133076200Y-98592800D01*
D39*
%TO.N,Net-(D3-Pad2)*%
X136630000Y-111252000D02*
X137922000Y-111252000D01*
X139818000Y-109356000D02*
X139818000Y-108712000D01*
X137922000Y-111252000D02*
X139818000Y-109356000D01*
%TO.N,Net-(D3-Pad1)*%
X140230000Y-111252000D02*
X140716000Y-111252000D01*
X141986000Y-109982000D02*
X143034000Y-109982000D01*
X140716000Y-111252000D02*
X141986000Y-109982000D01*
X149860000Y-108786000D02*
X149934000Y-108786000D01*
X152908000Y-111760000D02*
X152908000Y-111940000D01*
X149934000Y-108786000D02*
X152908000Y-111760000D01*
D35*
X143034000Y-109982000D02*
X143034000Y-108886000D01*
D39*
X148824000Y-107750000D02*
X149860000Y-108786000D01*
X144170000Y-107750000D02*
X148824000Y-107750000D01*
X143034000Y-108886000D02*
X144170000Y-107750000D01*
D38*
%TO.N,/TXD*%
X146735800Y-88485800D02*
X146670000Y-88420000D01*
X146670000Y-89520000D02*
X147269200Y-90119200D01*
X146670000Y-88420000D02*
X146670000Y-89520000D01*
%TO.N,/RXD*%
X145870000Y-90020000D02*
X145870000Y-88420000D01*
X145118000Y-90932000D02*
X145730000Y-90320000D01*
X135642000Y-90932000D02*
X145118000Y-90932000D01*
X133640000Y-88930000D02*
X135642000Y-90932000D01*
X133640000Y-85690000D02*
X133640000Y-88930000D01*
%TO.N,/MAX_EN*%
X143470000Y-90210000D02*
X143470000Y-88490000D01*
X143480000Y-90150000D02*
X143470000Y-90140000D01*
X143410000Y-90070000D02*
X143440000Y-90100000D01*
X137140000Y-90070000D02*
X143410000Y-90070000D01*
X135630000Y-88560000D02*
X137140000Y-90070000D01*
X135630000Y-84060000D02*
X135630000Y-88560000D01*
%TO.N,/Vin*%
X132036200Y-98804800D02*
X132056200Y-98784800D01*
X132036200Y-100032800D02*
X132036200Y-98804800D01*
X139550000Y-85370000D02*
X140420000Y-85370000D01*
X138760000Y-86160000D02*
X139550000Y-85370000D01*
X138760000Y-88890000D02*
X138760000Y-86160000D01*
X132056200Y-98575800D02*
X132056200Y-98592800D01*
X138633200Y-91998800D02*
X132056200Y-98575800D01*
X138709400Y-91998800D02*
X138633200Y-91998800D01*
%TO.N,/SCK*%
X140390000Y-81340000D02*
X140420000Y-81370000D01*
X140390000Y-66940000D02*
X140390000Y-81340000D01*
X140460000Y-66870000D02*
X140390000Y-66940000D01*
D37*
%TO.N,/MISO*%
X138938000Y-63232000D02*
X138938000Y-60452000D01*
X138938000Y-63678000D02*
X138938000Y-63232000D01*
X141870000Y-66610000D02*
X138938000Y-63678000D01*
X141870000Y-79920000D02*
X141870000Y-66610000D01*
%TO.N,/MOSI*%
X142670000Y-79920000D02*
X142670000Y-67134000D01*
X142670000Y-67134000D02*
X146405600Y-63398400D01*
X146405600Y-63398400D02*
X146405600Y-60604400D01*
X146405600Y-60604400D02*
X146558000Y-60452000D01*
D36*
%TO.N,+12V*%
X133920000Y-110230000D02*
X133920000Y-110260000D01*
D39*
X134438000Y-108712000D02*
X133920000Y-109230000D01*
X138058000Y-108712000D02*
X134438000Y-108712000D01*
D38*
%TO.N,/OUT2*%
X144270000Y-74932000D02*
X144270000Y-79920000D01*
X144272000Y-74930000D02*
X144270000Y-74932000D01*
%TO.N,/OUT1*%
X145070000Y-74204000D02*
X145070000Y-79920000D01*
X144526000Y-73660000D02*
X145070000Y-74204000D01*
D35*
%TO.N,/1Y*%
X146670000Y-82184000D02*
X146670000Y-79920000D01*
X146050000Y-82804000D02*
X146670000Y-82184000D01*
X146050000Y-84582000D02*
X146050000Y-82804000D01*
%TO.N,/2Y*%
X145870000Y-78412000D02*
X145870000Y-79920000D01*
%TD*%
M02*
