  0
SECTION
  2
HEADER
  9
$ANGBASE
  50
0.0
  9
$ANGDIR
  70
1
  9
$MEASUREMENT
  70
1
  0
ENDSEC
  0
SECTION
  2
TABLES
  0
TABLE
  2
LTYPE
  70
4
  0
LTYPE
  5
40F
  2
CONTINUOUS
  70
0
  3
Solid line
  72
65
  73
0
  40
0.0
  0
LTYPE
  5
410
  2
DASHDOT
 70
0
  3
Dash Dot ____ _ ____ _
 72
65
 73
4
 40
2.0
 49
1.25
 49
-0.25
 49
0.25
 49
-0.25
  0
LTYPE
  5
411
  2
DASHED
 70
0
  3
Dashed __ __ __ __ __
 72
65
 73
2
 40
0.75
 49
0.5
 49
-0.25
  0
LTYPE
  5
43B
  2
DOTTED
 70
0
  3
Dotted .  .  .  .
 72
65
 73
2
 40
0.2
 49
0.0
 49
-0.2
  0
ENDTAB
  0
TABLE
  2
STYLE
  70
4
  0
STYLE
  2
KICAD
  70
0
  40
0
  41
1
  42
1
  50
0
  71
0
  3
isocp.shx
  0
STYLE
  2
KICADB
  70
0
  40
0
  41
1
  42
1
  50
0
  71
0
  3
isocp.shx
  0
STYLE
  2
KICADI
  70
0
  40
0
  41
1
  42
1
  50
15
  71
0
  3
isocp.shx
  0
STYLE
  2
KICADBI
  70
0
  40
0
  41
1
  42
1
  50
15
  71
0
  3
isocp.shx
  0
ENDTAB
  0
TABLE
  2
LAYER
  70
1
  0
LAYER
  2
BLACK
  70
0
  62
7
  6
CONTINUOUS
  0
ENDTAB
  0
ENDSEC
  0
SECTION
  2
ENTITIES
0
LINE
8
BLACK
6
CONTINUOUS
10
147.066
20
-65.278
11
147.066
21
-72.39
0
LINE
8
BLACK
6
CONTINUOUS
10
145.796
20
-65.278
11
147.066
21
-65.278
0
LINE
8
BLACK
6
CONTINUOUS
10
145.796
20
-72.39
11
145.796
21
-65.278
0
LINE
8
BLACK
6
CONTINUOUS
10
147.066
20
-72.39
11
145.796
21
-72.39
0
LINE
8
BLACK
6
CONTINUOUS
10
134.124
20
-56.7944
11
134.124
21
-63.5864
0
LINE
8
BLACK
6
CONTINUOUS
10
127.864
20
-84.0364
11
127.864
21
-56.7864
0
LINE
8
BLACK
6
CONTINUOUS
10
127.864
20
-56.7864
11
134.124
21
-56.7944
0
LINE
8
BLACK
6
CONTINUOUS
10
134.124
20
-63.5864
11
136.464
21
-63.5864
0
LINE
8
BLACK
6
CONTINUOUS
10
156.388
20
-56.7944
11
162.674
21
-56.7944
0
LINE
8
BLACK
6
CONTINUOUS
10
154.076
20
-56.7944
11
154.076
21
-63.5762
0
LINE
8
BLACK
6
CONTINUOUS
10
154.076
20
-63.5762
11
156.388
21
-63.5762
0
LINE
8
BLACK
6
CONTINUOUS
10
156.388
20
-63.5762
11
156.388
21
-56.7944
0
LINE
8
BLACK
6
CONTINUOUS
10
129.474
20
-100.337
11
129.474
21
-84.0364
0
LINE
8
BLACK
6
CONTINUOUS
10
129.474
20
-84.0364
11
127.864
21
-84.0364
0
LINE
8
BLACK
6
CONTINUOUS
10
136.464
20
-56.7944
11
154.076
21
-56.7944
0
LINE
8
BLACK
6
CONTINUOUS
10
127.889
20
-100.337
11
129.474
21
-100.337
0
LINE
8
BLACK
6
CONTINUOUS
10
136.464
20
-63.5864
11
136.464
21
-56.7944
0
LINE
8
BLACK
6
CONTINUOUS
10
161.074
20
-100.337
11
162.662
21
-100.337
0
LINE
8
BLACK
6
CONTINUOUS
10
161.074
20
-84.0364
11
161.074
21
-100.337
0
LINE
8
BLACK
6
CONTINUOUS
10
162.674
20
-126.594
11
127.889
21
-126.594
0
LINE
8
BLACK
6
CONTINUOUS
10
127.889
20
-126.594
11
127.889
21
-100.337
0
LINE
8
BLACK
6
CONTINUOUS
10
162.662
20
-84.0364
11
161.074
21
-84.0364
0
LINE
8
BLACK
6
CONTINUOUS
10
162.674
20
-56.7944
11
162.662
21
-84.0364
0
LINE
8
BLACK
6
CONTINUOUS
10
162.662
20
-100.337
11
162.674
21
-126.594
0
LINE
8
BLACK
6
CONTINUOUS
10
130.628
20
-131.351
11
130.628
21
-128.351
0
LINE
8
BLACK
6
CONTINUOUS
10
130.628
20
-128.351
11
131.342
21
-128.351
0
LINE
8
BLACK
6
CONTINUOUS
10
131.342
20
-128.351
11
131.771
21
-128.494
0
LINE
8
BLACK
6
CONTINUOUS
10
131.771
20
-128.494
11
132.056
21
-128.779
0
LINE
8
BLACK
6
CONTINUOUS
10
132.056
20
-128.779
11
132.199
21
-129.065
0
LINE
8
BLACK
6
CONTINUOUS
10
132.199
20
-129.065
11
132.342
21
-129.636
0
LINE
8
BLACK
6
CONTINUOUS
10
132.342
20
-129.636
11
132.342
21
-130.065
0
LINE
8
BLACK
6
CONTINUOUS
10
132.342
20
-130.065
11
132.199
21
-130.636
0
LINE
8
BLACK
6
CONTINUOUS
10
132.199
20
-130.636
11
132.056
21
-130.922
0
LINE
8
BLACK
6
CONTINUOUS
10
132.056
20
-130.922
11
131.771
21
-131.208
0
LINE
8
BLACK
6
CONTINUOUS
10
131.771
20
-131.208
11
131.342
21
-131.351
0
LINE
8
BLACK
6
CONTINUOUS
10
131.342
20
-131.351
11
130.628
21
-131.351
0
LINE
8
BLACK
6
CONTINUOUS
10
133.628
20
-131.351
11
133.628
21
-129.351
0
LINE
8
BLACK
6
CONTINUOUS
10
133.628
20
-129.922
11
133.771
21
-129.636
0
LINE
8
BLACK
6
CONTINUOUS
10
133.771
20
-129.636
11
133.914
21
-129.494
0
LINE
8
BLACK
6
CONTINUOUS
10
133.914
20
-129.494
11
134.199
21
-129.351
0
LINE
8
BLACK
6
CONTINUOUS
10
134.199
20
-129.351
11
134.485
21
-129.351
0
LINE
8
BLACK
6
CONTINUOUS
10
135.485
20
-131.351
11
135.485
21
-129.351
0
LINE
8
BLACK
6
CONTINUOUS
10
135.485
20
-128.351
11
135.342
21
-128.494
0
LINE
8
BLACK
6
CONTINUOUS
10
135.342
20
-128.494
11
135.485
21
-128.636
0
LINE
8
BLACK
6
CONTINUOUS
10
135.485
20
-128.636
11
135.628
21
-128.494
0
LINE
8
BLACK
6
CONTINUOUS
10
135.628
20
-128.494
11
135.485
21
-128.351
0
LINE
8
BLACK
6
CONTINUOUS
10
135.485
20
-128.351
11
135.485
21
-128.636
0
LINE
8
BLACK
6
CONTINUOUS
10
137.342
20
-131.351
11
137.056
21
-131.208
0
LINE
8
BLACK
6
CONTINUOUS
10
137.056
20
-131.208
11
136.914
21
-130.922
0
LINE
8
BLACK
6
CONTINUOUS
10
136.914
20
-130.922
11
136.914
21
-128.351
0
LINE
8
BLACK
6
CONTINUOUS
10
138.914
20
-131.351
11
138.628
21
-131.208
0
LINE
8
BLACK
6
CONTINUOUS
10
138.628
20
-131.208
11
138.485
21
-130.922
0
LINE
8
BLACK
6
CONTINUOUS
10
138.485
20
-130.922
11
138.485
21
-128.351
0
LINE
8
BLACK
6
CONTINUOUS
10
142.342
20
-131.351
11
142.342
21
-128.351
0
LINE
8
BLACK
6
CONTINUOUS
10
142.342
20
-128.351
11
143.342
21
-130.494
0
LINE
8
BLACK
6
CONTINUOUS
10
143.342
20
-130.494
11
144.342
21
-128.351
0
LINE
8
BLACK
6
CONTINUOUS
10
144.342
20
-128.351
11
144.342
21
-131.351
0
LINE
8
BLACK
6
CONTINUOUS
10
147.056
20
-131.351
11
147.056
21
-129.779
0
LINE
8
BLACK
6
CONTINUOUS
10
147.056
20
-129.779
11
146.914
21
-129.494
0
LINE
8
BLACK
6
CONTINUOUS
10
146.914
20
-129.494
11
146.628
21
-129.351
0
LINE
8
BLACK
6
CONTINUOUS
10
146.628
20
-129.351
11
146.056
21
-129.351
0
LINE
8
BLACK
6
CONTINUOUS
10
146.056
20
-129.351
11
145.771
21
-129.494
0
LINE
8
BLACK
6
CONTINUOUS
10
147.056
20
-131.208
11
146.771
21
-131.351
0
LINE
8
BLACK
6
CONTINUOUS
10
146.771
20
-131.351
11
146.056
21
-131.351
0
LINE
8
BLACK
6
CONTINUOUS
10
146.056
20
-131.351
11
145.771
21
-131.208
0
LINE
8
BLACK
6
CONTINUOUS
10
145.771
20
-131.208
11
145.628
21
-130.922
0
LINE
8
BLACK
6
CONTINUOUS
10
145.628
20
-130.922
11
145.628
21
-130.636
0
LINE
8
BLACK
6
CONTINUOUS
10
145.628
20
-130.636
11
145.771
21
-130.351
0
LINE
8
BLACK
6
CONTINUOUS
10
145.771
20
-130.351
11
146.056
21
-130.208
0
LINE
8
BLACK
6
CONTINUOUS
10
146.056
20
-130.208
11
146.771
21
-130.208
0
LINE
8
BLACK
6
CONTINUOUS
10
146.771
20
-130.208
11
147.056
21
-130.065
0
LINE
8
BLACK
6
CONTINUOUS
10
148.485
20
-129.351
11
148.485
21
-132.351
0
LINE
8
BLACK
6
CONTINUOUS
10
148.485
20
-129.494
11
148.771
21
-129.351
0
LINE
8
BLACK
6
CONTINUOUS
10
148.771
20
-129.351
11
149.342
21
-129.351
0
LINE
8
BLACK
6
CONTINUOUS
10
149.342
20
-129.351
11
149.628
21
-129.494
0
LINE
8
BLACK
6
CONTINUOUS
10
149.628
20
-129.494
11
149.771
21
-129.636
0
LINE
8
BLACK
6
CONTINUOUS
10
149.771
20
-129.636
11
149.914
21
-129.922
0
LINE
8
BLACK
6
CONTINUOUS
10
149.914
20
-129.922
11
149.914
21
-130.779
0
LINE
8
BLACK
6
CONTINUOUS
10
149.914
20
-130.779
11
149.771
21
-131.065
0
LINE
8
BLACK
6
CONTINUOUS
10
149.771
20
-131.065
11
149.628
21
-131.208
0
LINE
8
BLACK
6
CONTINUOUS
10
149.628
20
-131.208
11
149.342
21
-131.351
0
LINE
8
BLACK
6
CONTINUOUS
10
149.342
20
-131.351
11
148.771
21
-131.351
0
LINE
8
BLACK
6
CONTINUOUS
10
148.771
20
-131.351
11
148.485
21
-131.208
0
LINE
8
BLACK
6
CONTINUOUS
10
151.199
20
-131.065
11
151.342
21
-131.208
0
LINE
8
BLACK
6
CONTINUOUS
10
151.342
20
-131.208
11
151.199
21
-131.351
0
LINE
8
BLACK
6
CONTINUOUS
10
151.199
20
-131.351
11
151.056
21
-131.208
0
LINE
8
BLACK
6
CONTINUOUS
10
151.056
20
-131.208
11
151.199
21
-131.065
0
LINE
8
BLACK
6
CONTINUOUS
10
151.199
20
-131.065
11
151.199
21
-131.351
0
LINE
8
BLACK
6
CONTINUOUS
10
151.199
20
-129.494
11
151.342
21
-129.636
0
LINE
8
BLACK
6
CONTINUOUS
10
151.342
20
-129.636
11
151.199
21
-129.779
0
LINE
8
BLACK
6
CONTINUOUS
10
151.199
20
-129.779
11
151.056
21
-129.636
0
LINE
8
BLACK
6
CONTINUOUS
10
151.056
20
-129.636
11
151.199
21
-129.494
0
LINE
8
BLACK
6
CONTINUOUS
10
151.199
20
-129.494
11
151.199
21
-129.779
  0
ENDSEC
  0
EOF
