%FSLAX45Y45*%
G04 Gerber Fmt 4.5, Leading zero omitted, Abs format (unit mm)*
G04 Created by KiCad (PCBNEW (5.1.10)-1) date 2021-10-24 00:59:11*
%MOMM*%
%LPD*%
G01*
G04 APERTURE LIST*
%TA.AperFunction,Profile*%
%ADD10C,0.100000*%
%TD*%
%TA.AperFunction,Profile*%
%ADD11C,0.200000*%
%TD*%
%ADD12C,0.200000*%
%ADD13C,0.300000*%
G04 APERTURE END LIST*
D10*
X14706600Y-6527800D02*
X14706600Y-7239000D01*
X14579600Y-6527800D02*
X14706600Y-6527800D01*
X14579600Y-7239000D02*
X14579600Y-6527800D01*
X14706600Y-7239000D02*
X14579600Y-7239000D01*
D11*
X13412400Y-5679440D02*
X13412400Y-6358640D01*
X12786360Y-8403640D02*
X12786360Y-5678640D01*
X12786360Y-5678640D02*
X13412400Y-5679440D01*
X13412400Y-6358640D02*
X13646400Y-6358640D01*
X15638780Y-5679440D02*
X16267400Y-5679440D01*
X15407640Y-5679440D02*
X15407640Y-6357620D01*
X15407640Y-6357620D02*
X15638780Y-6357620D01*
X15638780Y-6357620D02*
X15638780Y-5679440D01*
X12947400Y-10033680D02*
X12947400Y-8403640D01*
X12947400Y-8403640D02*
X12786360Y-8403640D01*
X13646400Y-5679440D02*
X15407640Y-5679440D01*
X12788900Y-10033680D02*
X12947400Y-10033680D01*
X13646400Y-6358640D02*
X13646400Y-5679440D01*
X16107400Y-10033680D02*
X16266160Y-10033680D01*
X16107400Y-8403640D02*
X16107400Y-10033680D01*
X16267400Y-12659360D02*
X12788900Y-12659360D01*
X12788900Y-12659360D02*
X12788900Y-10033680D01*
X16266160Y-8403640D02*
X16107400Y-8403640D01*
X16267400Y-5679440D02*
X16266160Y-8403640D01*
X16266160Y-10033680D02*
X16267400Y-12659360D01*
D12*
X14016200Y-10170400D02*
X14046200Y-10200400D01*
X14046200Y-10170400D02*
X14016200Y-10200400D01*
X14016200Y-10272000D02*
X14046200Y-10302000D01*
X14046200Y-10272000D02*
X14016200Y-10302000D01*
X14016200Y-10348200D02*
X14046200Y-10378200D01*
X14046200Y-10348200D02*
X14016200Y-10378200D01*
X14016200Y-10424400D02*
X14046200Y-10454400D01*
X14046200Y-10424400D02*
X14016200Y-10454400D01*
X14064000Y-8799000D02*
X14094000Y-8829000D01*
X14094000Y-8799000D02*
X14064000Y-8829000D01*
X14119200Y-10170400D02*
X14149200Y-10200400D01*
X14149200Y-10170400D02*
X14119200Y-10200400D01*
X14119200Y-10272000D02*
X14149200Y-10302000D01*
X14149200Y-10272000D02*
X14119200Y-10302000D01*
X14119200Y-10348200D02*
X14149200Y-10378200D01*
X14149200Y-10348200D02*
X14119200Y-10378200D01*
X14119200Y-10424400D02*
X14149200Y-10454400D01*
X14149200Y-10424400D02*
X14119200Y-10454400D01*
X14218200Y-10170400D02*
X14248200Y-10200400D01*
X14248200Y-10170400D02*
X14218200Y-10200400D01*
X14218200Y-10272000D02*
X14248200Y-10302000D01*
X14248200Y-10272000D02*
X14218200Y-10302000D01*
X14218200Y-10348200D02*
X14248200Y-10378200D01*
X14248200Y-10348200D02*
X14218200Y-10378200D01*
X14218200Y-10424400D02*
X14248200Y-10454400D01*
X14248200Y-10424400D02*
X14218200Y-10454400D01*
X14320200Y-10169400D02*
X14350200Y-10199400D01*
X14350200Y-10169400D02*
X14320200Y-10199400D01*
X14320200Y-10271000D02*
X14350200Y-10301000D01*
X14350200Y-10271000D02*
X14320200Y-10301000D01*
X14320200Y-10347200D02*
X14350200Y-10377200D01*
X14350200Y-10347200D02*
X14320200Y-10377200D01*
X14320200Y-10423400D02*
X14350200Y-10453400D01*
X14350200Y-10423400D02*
X14320200Y-10453400D01*
X14412200Y-10170400D02*
X14442200Y-10200400D01*
X14442200Y-10170400D02*
X14412200Y-10200400D01*
X14412200Y-10272000D02*
X14442200Y-10302000D01*
X14442200Y-10272000D02*
X14412200Y-10302000D01*
X14412200Y-10348200D02*
X14442200Y-10378200D01*
X14442200Y-10348200D02*
X14412200Y-10378200D01*
X14412200Y-10424400D02*
X14442200Y-10454400D01*
X14442200Y-10424400D02*
X14412200Y-10454400D01*
X14513800Y-10170400D02*
X14543800Y-10200400D01*
X14543800Y-10170400D02*
X14513800Y-10200400D01*
X14513800Y-10272000D02*
X14543800Y-10302000D01*
X14543800Y-10272000D02*
X14513800Y-10302000D01*
X14513800Y-10348200D02*
X14543800Y-10378200D01*
X14543800Y-10348200D02*
X14513800Y-10378200D01*
X14513800Y-10424400D02*
X14543800Y-10454400D01*
X14543800Y-10424400D02*
X14513800Y-10454400D01*
X14615400Y-10170400D02*
X14645400Y-10200400D01*
X14645400Y-10170400D02*
X14615400Y-10200400D01*
X14615400Y-10272000D02*
X14645400Y-10302000D01*
X14645400Y-10272000D02*
X14615400Y-10302000D01*
X14615400Y-10348200D02*
X14645400Y-10378200D01*
X14645400Y-10348200D02*
X14615400Y-10378200D01*
X14615400Y-10424400D02*
X14645400Y-10454400D01*
X14645400Y-10424400D02*
X14615400Y-10454400D01*
X14971000Y-11338800D02*
X15001000Y-11368800D01*
X15001000Y-11338800D02*
X14971000Y-11368800D01*
X13041000Y-9771000D02*
G75*
G03*
X13041000Y-9771000I-20000J0D01*
G01*
X13076000Y-8129000D02*
G75*
G03*
X13076000Y-8129000I-20000J0D01*
G01*
X13102000Y-9994000D02*
G75*
G03*
X13102000Y-9994000I-20000J0D01*
G01*
X13162000Y-8042000D02*
G75*
G03*
X13162000Y-8042000I-20000J0D01*
G01*
X13207000Y-9341000D02*
G75*
G03*
X13207000Y-9341000I-20000J0D01*
G01*
X13241000Y-9629000D02*
G75*
G03*
X13241000Y-9629000I-20000J0D01*
G01*
X13332000Y-7888000D02*
G75*
G03*
X13332000Y-7888000I-20000J0D01*
G01*
X13384000Y-8569000D02*
G75*
G03*
X13384000Y-8569000I-20000J0D01*
G01*
X13426720Y-9859280D02*
G75*
G03*
X13426720Y-9859280I-20000J0D01*
G01*
X13426880Y-10003280D02*
G75*
G03*
X13426880Y-10003280I-20000J0D01*
G01*
X13456600Y-9398000D02*
G75*
G03*
X13456600Y-9398000I-20000J0D01*
G01*
X13558200Y-8153400D02*
G75*
G03*
X13558200Y-8153400I-20000J0D01*
G01*
X13573440Y-9771380D02*
G75*
G03*
X13573440Y-9771380I-20000J0D01*
G01*
X13583000Y-8406000D02*
G75*
G03*
X13583000Y-8406000I-20000J0D01*
G01*
X13738540Y-9227820D02*
G75*
G03*
X13738540Y-9227820I-20000J0D01*
G01*
X13890940Y-9199880D02*
G75*
G03*
X13890940Y-9199880I-20000J0D01*
G01*
X13896000Y-8889000D02*
G75*
G03*
X13896000Y-8889000I-20000J0D01*
G01*
X13904000Y-8451000D02*
G75*
G03*
X13904000Y-8451000I-20000J0D01*
G01*
X14066000Y-6687000D02*
G75*
G03*
X14066000Y-6687000I-20000J0D01*
G01*
X14315120Y-6233160D02*
G75*
G03*
X14315120Y-6233160I-20000J0D01*
G01*
X14364000Y-9010000D02*
G75*
G03*
X14364000Y-9010000I-20000J0D01*
G01*
X14371000Y-7670800D02*
G75*
G03*
X14371000Y-7670800I-20000J0D01*
G01*
X14371000Y-8636000D02*
G75*
G03*
X14371000Y-8636000I-20000J0D01*
G01*
X14396400Y-6477000D02*
G75*
G03*
X14396400Y-6477000I-20000J0D01*
G01*
X14447200Y-7493000D02*
G75*
G03*
X14447200Y-7493000I-20000J0D01*
G01*
X14464000Y-7243000D02*
G75*
G03*
X14464000Y-7243000I-20000J0D01*
G01*
X14472600Y-7366000D02*
G75*
G03*
X14472600Y-7366000I-20000J0D01*
G01*
X14505620Y-6233160D02*
G75*
G03*
X14505620Y-6233160I-20000J0D01*
G01*
X14527000Y-8697000D02*
G75*
G03*
X14527000Y-8697000I-20000J0D01*
G01*
X14574200Y-9829800D02*
G75*
G03*
X14574200Y-9829800I-20000J0D01*
G01*
X14607000Y-7841200D02*
G75*
G03*
X14607000Y-7841200I-20000J0D01*
G01*
X14607000Y-9010000D02*
G75*
G03*
X14607000Y-9010000I-20000J0D01*
G01*
X14625000Y-8458200D02*
G75*
G03*
X14625000Y-8458200I-20000J0D01*
G01*
X14719000Y-7470000D02*
G75*
G03*
X14719000Y-7470000I-20000J0D01*
G01*
X14726600Y-8559800D02*
G75*
G03*
X14726600Y-8559800I-20000J0D01*
G01*
X14741920Y-9007920D02*
G75*
G03*
X14741920Y-9007920I-20000J0D01*
G01*
X14762160Y-6233160D02*
G75*
G03*
X14762160Y-6233160I-20000J0D01*
G01*
X14894000Y-9070000D02*
G75*
G03*
X14894000Y-9070000I-20000J0D01*
G01*
X14984000Y-8879000D02*
G75*
G03*
X14984000Y-8879000I-20000J0D01*
G01*
X15023780Y-6228080D02*
G75*
G03*
X15023780Y-6228080I-20000J0D01*
G01*
X15173640Y-9918700D02*
G75*
G03*
X15173640Y-9918700I-20000J0D01*
G01*
X15350500Y-9109500D02*
G75*
G03*
X15350500Y-9109500I-20000J0D01*
G01*
X15807000Y-9658000D02*
G75*
G03*
X15807000Y-9658000I-20000J0D01*
G01*
X15905000Y-7944000D02*
G75*
G03*
X15905000Y-7944000I-20000J0D01*
G01*
X15907000Y-8526000D02*
G75*
G03*
X15907000Y-8526000I-20000J0D01*
G01*
X15914000Y-8971000D02*
G75*
G03*
X15914000Y-8971000I-20000J0D01*
G01*
X15955000Y-9785000D02*
G75*
G03*
X15955000Y-9785000I-20000J0D01*
G01*
X16161700Y-8204200D02*
G75*
G03*
X16161700Y-8204200I-20000J0D01*
G01*
X13743940Y-6457480D02*
X13743940Y-6557480D01*
X13693940Y-6507480D02*
X13793940Y-6507480D01*
X13743940Y-6711480D02*
X13743940Y-6811480D01*
X13693940Y-6761480D02*
X13793940Y-6761480D01*
X13743940Y-6965480D02*
X13743940Y-7065480D01*
X13693940Y-7015480D02*
X13793940Y-7015480D01*
X13743940Y-7219480D02*
X13743940Y-7319480D01*
X13693940Y-7269480D02*
X13793940Y-7269480D01*
X13893800Y-5995200D02*
X13893800Y-6095200D01*
X13843800Y-6045200D02*
X13943800Y-6045200D01*
X14147800Y-5995200D02*
X14147800Y-6095200D01*
X14097800Y-6045200D02*
X14197800Y-6045200D01*
X14401800Y-5995200D02*
X14401800Y-6095200D01*
X14351800Y-6045200D02*
X14451800Y-6045200D01*
X14655800Y-5995200D02*
X14655800Y-6095200D01*
X14605800Y-6045200D02*
X14705800Y-6045200D01*
X14909800Y-5995200D02*
X14909800Y-6095200D01*
X14859800Y-6045200D02*
X14959800Y-6045200D01*
X15163800Y-5995200D02*
X15163800Y-6095200D01*
X15113800Y-6045200D02*
X15213800Y-6045200D01*
X15306040Y-6465100D02*
X15306040Y-6565100D01*
X15256040Y-6515100D02*
X15356040Y-6515100D01*
X15306040Y-6719100D02*
X15306040Y-6819100D01*
X15256040Y-6769100D02*
X15356040Y-6769100D01*
X15306040Y-6973100D02*
X15306040Y-7073100D01*
X15256040Y-7023100D02*
X15356040Y-7023100D01*
X15306040Y-7227100D02*
X15306040Y-7327100D01*
X15256040Y-7277100D02*
X15356040Y-7277100D01*
X13063462Y-10307562D02*
X13063462Y-10215638D01*
X12971538Y-10215638D01*
X12971538Y-10307562D01*
X13063462Y-10307562D01*
X13820962Y-9663962D02*
X13820962Y-9572038D01*
X13729038Y-9572038D01*
X13729038Y-9663962D01*
X13820962Y-9663962D01*
X14142962Y-9342362D02*
X14142962Y-9250438D01*
X14051038Y-9250438D01*
X14051038Y-9342362D01*
X14142962Y-9342362D01*
X15006562Y-9342362D02*
X15006562Y-9250438D01*
X14914638Y-9250438D01*
X14914638Y-9342362D01*
X15006562Y-9342362D01*
X15321962Y-9667962D02*
X15321962Y-9576038D01*
X15230038Y-9576038D01*
X15230038Y-9667962D01*
X15321962Y-9667962D01*
X16060662Y-10294862D02*
X16060662Y-10202938D01*
X15968738Y-10202938D01*
X15968738Y-10294862D01*
X16060662Y-10294862D01*
X13076000Y-7594000D02*
X13176000Y-7494000D01*
X13076000Y-7394000D01*
X12976000Y-7494000D01*
X13076000Y-7594000D01*
X12976000Y-7584000D02*
X13176000Y-7584000D01*
X12976000Y-7404000D02*
X13176000Y-7404000D01*
X13176000Y-7584000D02*
G75*
G03*
X13176000Y-7404000I0J90000D01*
G01*
X12976000Y-7404000D02*
G75*
G03*
X12976000Y-7584000I0J-90000D01*
G01*
X13096000Y-6633000D02*
X13196000Y-6533000D01*
X13096000Y-6433000D01*
X12996000Y-6533000D01*
X13096000Y-6633000D01*
X12996000Y-6623000D02*
X13196000Y-6623000D01*
X12996000Y-6443000D02*
X13196000Y-6443000D01*
X13196000Y-6623000D02*
G75*
G03*
X13196000Y-6443000I0J90000D01*
G01*
X12996000Y-6443000D02*
G75*
G03*
X12996000Y-6623000I0J-90000D01*
G01*
X13160700Y-11728780D02*
X13260700Y-11628780D01*
X13160700Y-11528780D01*
X13060700Y-11628780D01*
X13160700Y-11728780D01*
X13070700Y-11528780D02*
X13070700Y-11728780D01*
X13250700Y-11528780D02*
X13250700Y-11728780D01*
X13070700Y-11728780D02*
G75*
G03*
X13250700Y-11728780I90000J0D01*
G01*
X13250700Y-11528780D02*
G75*
G03*
X13070700Y-11528780I-90000J0D01*
G01*
X15960700Y-11728780D02*
X16060700Y-11628780D01*
X15960700Y-11528780D01*
X15860700Y-11628780D01*
X15960700Y-11728780D01*
X15870700Y-11528780D02*
X15870700Y-11728780D01*
X16050700Y-11528780D02*
X16050700Y-11728780D01*
X15870700Y-11728780D02*
G75*
G03*
X16050700Y-11728780I90000J0D01*
G01*
X16050700Y-11528780D02*
G75*
G03*
X15870700Y-11528780I-90000J0D01*
G01*
X15966000Y-6606000D02*
X16066000Y-6506000D01*
X15966000Y-6406000D01*
X15866000Y-6506000D01*
X15966000Y-6606000D01*
X15866000Y-6596000D02*
X16066000Y-6596000D01*
X15866000Y-6416000D02*
X16066000Y-6416000D01*
X16066000Y-6596000D02*
G75*
G03*
X16066000Y-6416000I0J90000D01*
G01*
X15866000Y-6416000D02*
G75*
G03*
X15866000Y-6596000I0J-90000D01*
G01*
X15972000Y-7542200D02*
X16072000Y-7442200D01*
X15972000Y-7342200D01*
X15872000Y-7442200D01*
X15972000Y-7542200D01*
X15872000Y-7532200D02*
X16072000Y-7532200D01*
X15872000Y-7352200D02*
X16072000Y-7352200D01*
X16072000Y-7532200D02*
G75*
G03*
X16072000Y-7352200I0J90000D01*
G01*
X15872000Y-7352200D02*
G75*
G03*
X15872000Y-7532200I0J-90000D01*
G01*
X13282000Y-10813000D02*
X13502000Y-11033000D01*
X13502000Y-10813000D02*
X13282000Y-11033000D01*
X13502000Y-10923000D02*
G75*
G03*
X13502000Y-10923000I-110000J0D01*
G01*
X13529800Y-10177000D02*
X13749800Y-10397000D01*
X13749800Y-10177000D02*
X13529800Y-10397000D01*
X13749800Y-10287000D02*
G75*
G03*
X13749800Y-10287000I-110000J0D01*
G01*
X15307800Y-10177000D02*
X15527800Y-10397000D01*
X15527800Y-10177000D02*
X15307800Y-10397000D01*
X15527800Y-10287000D02*
G75*
G03*
X15527800Y-10287000I-110000J0D01*
G01*
X15561800Y-10813000D02*
X15781800Y-11033000D01*
X15781800Y-10813000D02*
X15561800Y-11033000D01*
X15781800Y-10923000D02*
G75*
G03*
X15781800Y-10923000I-110000J0D01*
G01*
X13024000Y-12121000D02*
X13324000Y-12421000D01*
X13324000Y-12121000D02*
X13024000Y-12421000D01*
X13174000Y-12121000D02*
X13174000Y-12421000D01*
X13024000Y-12271000D02*
X13324000Y-12271000D01*
X13033000Y-5925000D02*
X13333000Y-6225000D01*
X13333000Y-5925000D02*
X13033000Y-6225000D01*
X13183000Y-5925000D02*
X13183000Y-6225000D01*
X13033000Y-6075000D02*
X13333000Y-6075000D01*
X14410700Y-11478780D02*
X14710700Y-11778780D01*
X14710700Y-11478780D02*
X14410700Y-11778780D01*
X14560700Y-11478780D02*
X14560700Y-11778780D01*
X14410700Y-11628780D02*
X14710700Y-11628780D01*
X14420700Y-11578780D02*
X14420700Y-11678780D01*
X14700700Y-11578780D02*
X14700700Y-11678780D01*
X14420700Y-11678780D02*
G75*
G03*
X14700700Y-11678780I140000J0D01*
G01*
X14700700Y-11578780D02*
G75*
G03*
X14420700Y-11578780I-140000J0D01*
G01*
X15725000Y-5926000D02*
X16025000Y-6226000D01*
X16025000Y-5926000D02*
X15725000Y-6226000D01*
X15875000Y-5926000D02*
X15875000Y-6226000D01*
X15725000Y-6076000D02*
X16025000Y-6076000D01*
X15727000Y-12120000D02*
X16027000Y-12420000D01*
X16027000Y-12120000D02*
X15727000Y-12420000D01*
X15877000Y-12120000D02*
X15877000Y-12420000D01*
X15727000Y-12270000D02*
X16027000Y-12270000D01*
X13651640Y-11928760D02*
X14001640Y-12278760D01*
X14001640Y-11928760D02*
X13651640Y-12278760D01*
X13950385Y-12227505D02*
X13950385Y-11980015D01*
X13702895Y-11980015D01*
X13702895Y-12227505D01*
X13950385Y-12227505D01*
X13661640Y-12053760D02*
X13661640Y-12153760D01*
X13991640Y-12053760D02*
X13991640Y-12153760D01*
X13661640Y-12153760D02*
G75*
G03*
X13991640Y-12153760I165000J0D01*
G01*
X13991640Y-12053760D02*
G75*
G03*
X13661640Y-12053760I-165000J0D01*
G01*
X14375540Y-12165310D02*
X14725540Y-12515310D01*
X14725540Y-12165310D02*
X14375540Y-12515310D01*
X14674285Y-12464055D02*
X14674285Y-12216565D01*
X14426795Y-12216565D01*
X14426795Y-12464055D01*
X14674285Y-12464055D01*
X14385540Y-12290310D02*
X14385540Y-12390310D01*
X14715540Y-12290310D02*
X14715540Y-12390310D01*
X14385540Y-12390310D02*
G75*
G03*
X14715540Y-12390310I165000J0D01*
G01*
X14715540Y-12290310D02*
G75*
G03*
X14385540Y-12290310I-165000J0D01*
G01*
X15074040Y-11935110D02*
X15424040Y-12285110D01*
X15424040Y-11935110D02*
X15074040Y-12285110D01*
X15372785Y-12233855D02*
X15372785Y-11986365D01*
X15125295Y-11986365D01*
X15125295Y-12233855D01*
X15372785Y-12233855D01*
X15084040Y-12060110D02*
X15084040Y-12160110D01*
X15414040Y-12060110D02*
X15414040Y-12160110D01*
X15084040Y-12160110D02*
G75*
G03*
X15414040Y-12160110I165000J0D01*
G01*
X15414040Y-12060110D02*
G75*
G03*
X15084040Y-12060110I-165000J0D01*
G01*
D13*
X13062788Y-13135074D02*
X13062788Y-12835074D01*
X13134217Y-12835074D01*
X13177074Y-12849360D01*
X13205646Y-12877931D01*
X13219931Y-12906503D01*
X13234217Y-12963646D01*
X13234217Y-13006503D01*
X13219931Y-13063646D01*
X13205646Y-13092217D01*
X13177074Y-13120789D01*
X13134217Y-13135074D01*
X13062788Y-13135074D01*
X13362788Y-13135074D02*
X13362788Y-12935074D01*
X13362788Y-12992217D02*
X13377074Y-12963646D01*
X13391360Y-12949360D01*
X13419931Y-12935074D01*
X13448503Y-12935074D01*
X13548503Y-13135074D02*
X13548503Y-12935074D01*
X13548503Y-12835074D02*
X13534217Y-12849360D01*
X13548503Y-12863646D01*
X13562788Y-12849360D01*
X13548503Y-12835074D01*
X13548503Y-12863646D01*
X13734217Y-13135074D02*
X13705646Y-13120789D01*
X13691360Y-13092217D01*
X13691360Y-12835074D01*
X13891360Y-13135074D02*
X13862788Y-13120789D01*
X13848503Y-13092217D01*
X13848503Y-12835074D01*
X14234217Y-13135074D02*
X14234217Y-12835074D01*
X14334217Y-13049360D01*
X14434217Y-12835074D01*
X14434217Y-13135074D01*
X14705646Y-13135074D02*
X14705646Y-12977931D01*
X14691360Y-12949360D01*
X14662788Y-12935074D01*
X14605646Y-12935074D01*
X14577074Y-12949360D01*
X14705646Y-13120789D02*
X14677074Y-13135074D01*
X14605646Y-13135074D01*
X14577074Y-13120789D01*
X14562788Y-13092217D01*
X14562788Y-13063646D01*
X14577074Y-13035074D01*
X14605646Y-13020789D01*
X14677074Y-13020789D01*
X14705646Y-13006503D01*
X14848503Y-12935074D02*
X14848503Y-13235074D01*
X14848503Y-12949360D02*
X14877074Y-12935074D01*
X14934217Y-12935074D01*
X14962788Y-12949360D01*
X14977074Y-12963646D01*
X14991360Y-12992217D01*
X14991360Y-13077931D01*
X14977074Y-13106503D01*
X14962788Y-13120789D01*
X14934217Y-13135074D01*
X14877074Y-13135074D01*
X14848503Y-13120789D01*
X15119931Y-13106503D02*
X15134217Y-13120789D01*
X15119931Y-13135074D01*
X15105646Y-13120789D01*
X15119931Y-13106503D01*
X15119931Y-13135074D01*
X15119931Y-12949360D02*
X15134217Y-12963646D01*
X15119931Y-12977931D01*
X15105646Y-12963646D01*
X15119931Y-12949360D01*
X15119931Y-12977931D01*
X12746360Y-13614360D02*
X12776360Y-13644360D01*
X12776360Y-13614360D02*
X12746360Y-13644360D01*
X13119931Y-13465074D02*
X13148503Y-13465074D01*
X13177074Y-13479360D01*
X13191360Y-13493646D01*
X13205646Y-13522217D01*
X13219931Y-13579360D01*
X13219931Y-13650789D01*
X13205646Y-13707931D01*
X13191360Y-13736503D01*
X13177074Y-13750789D01*
X13148503Y-13765074D01*
X13119931Y-13765074D01*
X13091360Y-13750789D01*
X13077074Y-13736503D01*
X13062788Y-13707931D01*
X13048503Y-13650789D01*
X13048503Y-13579360D01*
X13062788Y-13522217D01*
X13077074Y-13493646D01*
X13091360Y-13479360D01*
X13119931Y-13465074D01*
X13348503Y-13736503D02*
X13362788Y-13750789D01*
X13348503Y-13765074D01*
X13334217Y-13750789D01*
X13348503Y-13736503D01*
X13348503Y-13765074D01*
X13462788Y-13465074D02*
X13648503Y-13465074D01*
X13548503Y-13579360D01*
X13591360Y-13579360D01*
X13619931Y-13593646D01*
X13634217Y-13607931D01*
X13648503Y-13636503D01*
X13648503Y-13707931D01*
X13634217Y-13736503D01*
X13619931Y-13750789D01*
X13591360Y-13765074D01*
X13505646Y-13765074D01*
X13477074Y-13750789D01*
X13462788Y-13736503D01*
X13834217Y-13465074D02*
X13862788Y-13465074D01*
X13891360Y-13479360D01*
X13905646Y-13493646D01*
X13919931Y-13522217D01*
X13934217Y-13579360D01*
X13934217Y-13650789D01*
X13919931Y-13707931D01*
X13905646Y-13736503D01*
X13891360Y-13750789D01*
X13862788Y-13765074D01*
X13834217Y-13765074D01*
X13805646Y-13750789D01*
X13791360Y-13736503D01*
X13777074Y-13707931D01*
X13762788Y-13650789D01*
X13762788Y-13579360D01*
X13777074Y-13522217D01*
X13791360Y-13493646D01*
X13805646Y-13479360D01*
X13834217Y-13465074D01*
X14119931Y-13465074D02*
X14148503Y-13465074D01*
X14177074Y-13479360D01*
X14191360Y-13493646D01*
X14205646Y-13522217D01*
X14219931Y-13579360D01*
X14219931Y-13650789D01*
X14205646Y-13707931D01*
X14191360Y-13736503D01*
X14177074Y-13750789D01*
X14148503Y-13765074D01*
X14119931Y-13765074D01*
X14091360Y-13750789D01*
X14077074Y-13736503D01*
X14062788Y-13707931D01*
X14048503Y-13650789D01*
X14048503Y-13579360D01*
X14062788Y-13522217D01*
X14077074Y-13493646D01*
X14091360Y-13479360D01*
X14119931Y-13465074D01*
X14348503Y-13765074D02*
X14348503Y-13565074D01*
X14348503Y-13593646D02*
X14362788Y-13579360D01*
X14391360Y-13565074D01*
X14434217Y-13565074D01*
X14462788Y-13579360D01*
X14477074Y-13607931D01*
X14477074Y-13765074D01*
X14477074Y-13607931D02*
X14491360Y-13579360D01*
X14519931Y-13565074D01*
X14562788Y-13565074D01*
X14591360Y-13579360D01*
X14605646Y-13607931D01*
X14605646Y-13765074D01*
X14748503Y-13765074D02*
X14748503Y-13565074D01*
X14748503Y-13593646D02*
X14762788Y-13579360D01*
X14791360Y-13565074D01*
X14834217Y-13565074D01*
X14862788Y-13579360D01*
X14877074Y-13607931D01*
X14877074Y-13765074D01*
X14877074Y-13607931D02*
X14891360Y-13579360D01*
X14919931Y-13565074D01*
X14962788Y-13565074D01*
X14991360Y-13579360D01*
X15005646Y-13607931D01*
X15005646Y-13765074D01*
X15591360Y-13450789D02*
X15334217Y-13836503D01*
X15977074Y-13465074D02*
X16005646Y-13465074D01*
X16034217Y-13479360D01*
X16048503Y-13493646D01*
X16062788Y-13522217D01*
X16077074Y-13579360D01*
X16077074Y-13650789D01*
X16062788Y-13707931D01*
X16048503Y-13736503D01*
X16034217Y-13750789D01*
X16005646Y-13765074D01*
X15977074Y-13765074D01*
X15948503Y-13750789D01*
X15934217Y-13736503D01*
X15919931Y-13707931D01*
X15905646Y-13650789D01*
X15905646Y-13579360D01*
X15919931Y-13522217D01*
X15934217Y-13493646D01*
X15948503Y-13479360D01*
X15977074Y-13465074D01*
X16205646Y-13736503D02*
X16219931Y-13750789D01*
X16205646Y-13765074D01*
X16191360Y-13750789D01*
X16205646Y-13736503D01*
X16205646Y-13765074D01*
X16405646Y-13465074D02*
X16434217Y-13465074D01*
X16462788Y-13479360D01*
X16477074Y-13493646D01*
X16491360Y-13522217D01*
X16505646Y-13579360D01*
X16505646Y-13650789D01*
X16491360Y-13707931D01*
X16477074Y-13736503D01*
X16462788Y-13750789D01*
X16434217Y-13765074D01*
X16405646Y-13765074D01*
X16377074Y-13750789D01*
X16362788Y-13736503D01*
X16348503Y-13707931D01*
X16334217Y-13650789D01*
X16334217Y-13579360D01*
X16348503Y-13522217D01*
X16362788Y-13493646D01*
X16377074Y-13479360D01*
X16405646Y-13465074D01*
X16791360Y-13765074D02*
X16619931Y-13765074D01*
X16705646Y-13765074D02*
X16705646Y-13465074D01*
X16677074Y-13507931D01*
X16648503Y-13536503D01*
X16619931Y-13550789D01*
X17077074Y-13765074D02*
X16905646Y-13765074D01*
X16991360Y-13765074D02*
X16991360Y-13465074D01*
X16962788Y-13507931D01*
X16934217Y-13536503D01*
X16905646Y-13550789D01*
X17248503Y-13593646D02*
X17219931Y-13579360D01*
X17205646Y-13565074D01*
X17191360Y-13536503D01*
X17191360Y-13522217D01*
X17205646Y-13493646D01*
X17219931Y-13479360D01*
X17248503Y-13465074D01*
X17305646Y-13465074D01*
X17334217Y-13479360D01*
X17348503Y-13493646D01*
X17362788Y-13522217D01*
X17362788Y-13536503D01*
X17348503Y-13565074D01*
X17334217Y-13579360D01*
X17305646Y-13593646D01*
X17248503Y-13593646D01*
X17219931Y-13607931D01*
X17205646Y-13622217D01*
X17191360Y-13650789D01*
X17191360Y-13707931D01*
X17205646Y-13736503D01*
X17219931Y-13750789D01*
X17248503Y-13765074D01*
X17305646Y-13765074D01*
X17334217Y-13750789D01*
X17348503Y-13736503D01*
X17362788Y-13707931D01*
X17362788Y-13650789D01*
X17348503Y-13622217D01*
X17334217Y-13607931D01*
X17305646Y-13593646D01*
X17477074Y-13465074D02*
X17477074Y-13522217D01*
X17591360Y-13465074D02*
X17591360Y-13522217D01*
X18034217Y-13879360D02*
X18019931Y-13865074D01*
X17991360Y-13822217D01*
X17977074Y-13793646D01*
X17962788Y-13750789D01*
X17948503Y-13679360D01*
X17948503Y-13622217D01*
X17962788Y-13550789D01*
X17977074Y-13507931D01*
X17991360Y-13479360D01*
X18019931Y-13436503D01*
X18034217Y-13422217D01*
X18119931Y-13465074D02*
X18305646Y-13465074D01*
X18205646Y-13579360D01*
X18248503Y-13579360D01*
X18277074Y-13593646D01*
X18291360Y-13607931D01*
X18305646Y-13636503D01*
X18305646Y-13707931D01*
X18291360Y-13736503D01*
X18277074Y-13750789D01*
X18248503Y-13765074D01*
X18162788Y-13765074D01*
X18134217Y-13750789D01*
X18119931Y-13736503D01*
X18491360Y-13465074D02*
X18519931Y-13465074D01*
X18548503Y-13479360D01*
X18562788Y-13493646D01*
X18577074Y-13522217D01*
X18591360Y-13579360D01*
X18591360Y-13650789D01*
X18577074Y-13707931D01*
X18562788Y-13736503D01*
X18548503Y-13750789D01*
X18519931Y-13765074D01*
X18491360Y-13765074D01*
X18462788Y-13750789D01*
X18448503Y-13736503D01*
X18434217Y-13707931D01*
X18419931Y-13650789D01*
X18419931Y-13579360D01*
X18434217Y-13522217D01*
X18448503Y-13493646D01*
X18462788Y-13479360D01*
X18491360Y-13465074D01*
X18948503Y-13765074D02*
X18948503Y-13465074D01*
X19077074Y-13765074D02*
X19077074Y-13607931D01*
X19062788Y-13579360D01*
X19034217Y-13565074D01*
X18991360Y-13565074D01*
X18962788Y-13579360D01*
X18948503Y-13593646D01*
X19262788Y-13765074D02*
X19234217Y-13750789D01*
X19219931Y-13736503D01*
X19205646Y-13707931D01*
X19205646Y-13622217D01*
X19219931Y-13593646D01*
X19234217Y-13579360D01*
X19262788Y-13565074D01*
X19305646Y-13565074D01*
X19334217Y-13579360D01*
X19348503Y-13593646D01*
X19362788Y-13622217D01*
X19362788Y-13707931D01*
X19348503Y-13736503D01*
X19334217Y-13750789D01*
X19305646Y-13765074D01*
X19262788Y-13765074D01*
X19534217Y-13765074D02*
X19505646Y-13750789D01*
X19491360Y-13722217D01*
X19491360Y-13465074D01*
X19762788Y-13750789D02*
X19734217Y-13765074D01*
X19677074Y-13765074D01*
X19648503Y-13750789D01*
X19634217Y-13722217D01*
X19634217Y-13607931D01*
X19648503Y-13579360D01*
X19677074Y-13565074D01*
X19734217Y-13565074D01*
X19762788Y-13579360D01*
X19777074Y-13607931D01*
X19777074Y-13636503D01*
X19634217Y-13665074D01*
X19891360Y-13750789D02*
X19919931Y-13765074D01*
X19977074Y-13765074D01*
X20005646Y-13750789D01*
X20019931Y-13722217D01*
X20019931Y-13707931D01*
X20005646Y-13679360D01*
X19977074Y-13665074D01*
X19934217Y-13665074D01*
X19905646Y-13650789D01*
X19891360Y-13622217D01*
X19891360Y-13607931D01*
X19905646Y-13579360D01*
X19934217Y-13565074D01*
X19977074Y-13565074D01*
X20005646Y-13579360D01*
X20119931Y-13879360D02*
X20134217Y-13865074D01*
X20162788Y-13822217D01*
X20177074Y-13793646D01*
X20191360Y-13750789D01*
X20205646Y-13679360D01*
X20205646Y-13622217D01*
X20191360Y-13550789D01*
X20177074Y-13507931D01*
X20162788Y-13479360D01*
X20134217Y-13436503D01*
X20119931Y-13422217D01*
X12776360Y-14025360D02*
G75*
G03*
X12776360Y-14025360I-20000J0D01*
G01*
X13119931Y-13861074D02*
X13148503Y-13861074D01*
X13177074Y-13875360D01*
X13191360Y-13889646D01*
X13205646Y-13918217D01*
X13219931Y-13975360D01*
X13219931Y-14046789D01*
X13205646Y-14103931D01*
X13191360Y-14132503D01*
X13177074Y-14146789D01*
X13148503Y-14161074D01*
X13119931Y-14161074D01*
X13091360Y-14146789D01*
X13077074Y-14132503D01*
X13062788Y-14103931D01*
X13048503Y-14046789D01*
X13048503Y-13975360D01*
X13062788Y-13918217D01*
X13077074Y-13889646D01*
X13091360Y-13875360D01*
X13119931Y-13861074D01*
X13348503Y-14132503D02*
X13362788Y-14146789D01*
X13348503Y-14161074D01*
X13334217Y-14146789D01*
X13348503Y-14132503D01*
X13348503Y-14161074D01*
X13619931Y-13961074D02*
X13619931Y-14161074D01*
X13548503Y-13846789D02*
X13477074Y-14061074D01*
X13662788Y-14061074D01*
X13834217Y-13861074D02*
X13862788Y-13861074D01*
X13891360Y-13875360D01*
X13905646Y-13889646D01*
X13919931Y-13918217D01*
X13934217Y-13975360D01*
X13934217Y-14046789D01*
X13919931Y-14103931D01*
X13905646Y-14132503D01*
X13891360Y-14146789D01*
X13862788Y-14161074D01*
X13834217Y-14161074D01*
X13805646Y-14146789D01*
X13791360Y-14132503D01*
X13777074Y-14103931D01*
X13762788Y-14046789D01*
X13762788Y-13975360D01*
X13777074Y-13918217D01*
X13791360Y-13889646D01*
X13805646Y-13875360D01*
X13834217Y-13861074D01*
X14119931Y-13861074D02*
X14148503Y-13861074D01*
X14177074Y-13875360D01*
X14191360Y-13889646D01*
X14205646Y-13918217D01*
X14219931Y-13975360D01*
X14219931Y-14046789D01*
X14205646Y-14103931D01*
X14191360Y-14132503D01*
X14177074Y-14146789D01*
X14148503Y-14161074D01*
X14119931Y-14161074D01*
X14091360Y-14146789D01*
X14077074Y-14132503D01*
X14062788Y-14103931D01*
X14048503Y-14046789D01*
X14048503Y-13975360D01*
X14062788Y-13918217D01*
X14077074Y-13889646D01*
X14091360Y-13875360D01*
X14119931Y-13861074D01*
X14348503Y-14161074D02*
X14348503Y-13961074D01*
X14348503Y-13989646D02*
X14362788Y-13975360D01*
X14391360Y-13961074D01*
X14434217Y-13961074D01*
X14462788Y-13975360D01*
X14477074Y-14003931D01*
X14477074Y-14161074D01*
X14477074Y-14003931D02*
X14491360Y-13975360D01*
X14519931Y-13961074D01*
X14562788Y-13961074D01*
X14591360Y-13975360D01*
X14605646Y-14003931D01*
X14605646Y-14161074D01*
X14748503Y-14161074D02*
X14748503Y-13961074D01*
X14748503Y-13989646D02*
X14762788Y-13975360D01*
X14791360Y-13961074D01*
X14834217Y-13961074D01*
X14862788Y-13975360D01*
X14877074Y-14003931D01*
X14877074Y-14161074D01*
X14877074Y-14003931D02*
X14891360Y-13975360D01*
X14919931Y-13961074D01*
X14962788Y-13961074D01*
X14991360Y-13975360D01*
X15005646Y-14003931D01*
X15005646Y-14161074D01*
X15591360Y-13846789D02*
X15334217Y-14232503D01*
X15977074Y-13861074D02*
X16005646Y-13861074D01*
X16034217Y-13875360D01*
X16048503Y-13889646D01*
X16062788Y-13918217D01*
X16077074Y-13975360D01*
X16077074Y-14046789D01*
X16062788Y-14103931D01*
X16048503Y-14132503D01*
X16034217Y-14146789D01*
X16005646Y-14161074D01*
X15977074Y-14161074D01*
X15948503Y-14146789D01*
X15934217Y-14132503D01*
X15919931Y-14103931D01*
X15905646Y-14046789D01*
X15905646Y-13975360D01*
X15919931Y-13918217D01*
X15934217Y-13889646D01*
X15948503Y-13875360D01*
X15977074Y-13861074D01*
X16205646Y-14132503D02*
X16219931Y-14146789D01*
X16205646Y-14161074D01*
X16191360Y-14146789D01*
X16205646Y-14132503D01*
X16205646Y-14161074D01*
X16405646Y-13861074D02*
X16434217Y-13861074D01*
X16462788Y-13875360D01*
X16477074Y-13889646D01*
X16491360Y-13918217D01*
X16505646Y-13975360D01*
X16505646Y-14046789D01*
X16491360Y-14103931D01*
X16477074Y-14132503D01*
X16462788Y-14146789D01*
X16434217Y-14161074D01*
X16405646Y-14161074D01*
X16377074Y-14146789D01*
X16362788Y-14132503D01*
X16348503Y-14103931D01*
X16334217Y-14046789D01*
X16334217Y-13975360D01*
X16348503Y-13918217D01*
X16362788Y-13889646D01*
X16377074Y-13875360D01*
X16405646Y-13861074D01*
X16791360Y-14161074D02*
X16619931Y-14161074D01*
X16705646Y-14161074D02*
X16705646Y-13861074D01*
X16677074Y-13903931D01*
X16648503Y-13932503D01*
X16619931Y-13946789D01*
X17062788Y-13861074D02*
X16919931Y-13861074D01*
X16905646Y-14003931D01*
X16919931Y-13989646D01*
X16948503Y-13975360D01*
X17019931Y-13975360D01*
X17048503Y-13989646D01*
X17062788Y-14003931D01*
X17077074Y-14032503D01*
X17077074Y-14103931D01*
X17062788Y-14132503D01*
X17048503Y-14146789D01*
X17019931Y-14161074D01*
X16948503Y-14161074D01*
X16919931Y-14146789D01*
X16905646Y-14132503D01*
X17177074Y-13861074D02*
X17377074Y-13861074D01*
X17248503Y-14161074D01*
X17477074Y-13861074D02*
X17477074Y-13918217D01*
X17591360Y-13861074D02*
X17591360Y-13918217D01*
X18034217Y-14275360D02*
X18019931Y-14261074D01*
X17991360Y-14218217D01*
X17977074Y-14189646D01*
X17962788Y-14146789D01*
X17948503Y-14075360D01*
X17948503Y-14018217D01*
X17962788Y-13946789D01*
X17977074Y-13903931D01*
X17991360Y-13875360D01*
X18019931Y-13832503D01*
X18034217Y-13818217D01*
X18277074Y-13961074D02*
X18277074Y-14161074D01*
X18205646Y-13846789D02*
X18134217Y-14061074D01*
X18319931Y-14061074D01*
X18477074Y-13989646D02*
X18448503Y-13975360D01*
X18434217Y-13961074D01*
X18419931Y-13932503D01*
X18419931Y-13918217D01*
X18434217Y-13889646D01*
X18448503Y-13875360D01*
X18477074Y-13861074D01*
X18534217Y-13861074D01*
X18562788Y-13875360D01*
X18577074Y-13889646D01*
X18591360Y-13918217D01*
X18591360Y-13932503D01*
X18577074Y-13961074D01*
X18562788Y-13975360D01*
X18534217Y-13989646D01*
X18477074Y-13989646D01*
X18448503Y-14003931D01*
X18434217Y-14018217D01*
X18419931Y-14046789D01*
X18419931Y-14103931D01*
X18434217Y-14132503D01*
X18448503Y-14146789D01*
X18477074Y-14161074D01*
X18534217Y-14161074D01*
X18562788Y-14146789D01*
X18577074Y-14132503D01*
X18591360Y-14103931D01*
X18591360Y-14046789D01*
X18577074Y-14018217D01*
X18562788Y-14003931D01*
X18534217Y-13989646D01*
X18948503Y-14161074D02*
X18948503Y-13861074D01*
X19077074Y-14161074D02*
X19077074Y-14003931D01*
X19062788Y-13975360D01*
X19034217Y-13961074D01*
X18991360Y-13961074D01*
X18962788Y-13975360D01*
X18948503Y-13989646D01*
X19262788Y-14161074D02*
X19234217Y-14146789D01*
X19219931Y-14132503D01*
X19205646Y-14103931D01*
X19205646Y-14018217D01*
X19219931Y-13989646D01*
X19234217Y-13975360D01*
X19262788Y-13961074D01*
X19305646Y-13961074D01*
X19334217Y-13975360D01*
X19348503Y-13989646D01*
X19362788Y-14018217D01*
X19362788Y-14103931D01*
X19348503Y-14132503D01*
X19334217Y-14146789D01*
X19305646Y-14161074D01*
X19262788Y-14161074D01*
X19534217Y-14161074D02*
X19505646Y-14146789D01*
X19491360Y-14118217D01*
X19491360Y-13861074D01*
X19762788Y-14146789D02*
X19734217Y-14161074D01*
X19677074Y-14161074D01*
X19648503Y-14146789D01*
X19634217Y-14118217D01*
X19634217Y-14003931D01*
X19648503Y-13975360D01*
X19677074Y-13961074D01*
X19734217Y-13961074D01*
X19762788Y-13975360D01*
X19777074Y-14003931D01*
X19777074Y-14032503D01*
X19634217Y-14061074D01*
X19891360Y-14146789D02*
X19919931Y-14161074D01*
X19977074Y-14161074D01*
X20005646Y-14146789D01*
X20019931Y-14118217D01*
X20019931Y-14103931D01*
X20005646Y-14075360D01*
X19977074Y-14061074D01*
X19934217Y-14061074D01*
X19905646Y-14046789D01*
X19891360Y-14018217D01*
X19891360Y-14003931D01*
X19905646Y-13975360D01*
X19934217Y-13961074D01*
X19977074Y-13961074D01*
X20005646Y-13975360D01*
X20119931Y-14275360D02*
X20134217Y-14261074D01*
X20162788Y-14218217D01*
X20177074Y-14189646D01*
X20191360Y-14146789D01*
X20205646Y-14075360D01*
X20205646Y-14018217D01*
X20191360Y-13946789D01*
X20177074Y-13903931D01*
X20162788Y-13875360D01*
X20134217Y-13832503D01*
X20119931Y-13818217D01*
X12726360Y-14371360D02*
X12726360Y-14471360D01*
X12676360Y-14421360D02*
X12776360Y-14421360D01*
X13219931Y-14557074D02*
X13048503Y-14557074D01*
X13134217Y-14557074D02*
X13134217Y-14257074D01*
X13105646Y-14299931D01*
X13077074Y-14328503D01*
X13048503Y-14342789D01*
X13348503Y-14528503D02*
X13362788Y-14542789D01*
X13348503Y-14557074D01*
X13334217Y-14542789D01*
X13348503Y-14528503D01*
X13348503Y-14557074D01*
X13548503Y-14257074D02*
X13577074Y-14257074D01*
X13605646Y-14271360D01*
X13619931Y-14285646D01*
X13634217Y-14314217D01*
X13648503Y-14371360D01*
X13648503Y-14442789D01*
X13634217Y-14499931D01*
X13619931Y-14528503D01*
X13605646Y-14542789D01*
X13577074Y-14557074D01*
X13548503Y-14557074D01*
X13519931Y-14542789D01*
X13505646Y-14528503D01*
X13491360Y-14499931D01*
X13477074Y-14442789D01*
X13477074Y-14371360D01*
X13491360Y-14314217D01*
X13505646Y-14285646D01*
X13519931Y-14271360D01*
X13548503Y-14257074D01*
X13834217Y-14257074D02*
X13862788Y-14257074D01*
X13891360Y-14271360D01*
X13905646Y-14285646D01*
X13919931Y-14314217D01*
X13934217Y-14371360D01*
X13934217Y-14442789D01*
X13919931Y-14499931D01*
X13905646Y-14528503D01*
X13891360Y-14542789D01*
X13862788Y-14557074D01*
X13834217Y-14557074D01*
X13805646Y-14542789D01*
X13791360Y-14528503D01*
X13777074Y-14499931D01*
X13762788Y-14442789D01*
X13762788Y-14371360D01*
X13777074Y-14314217D01*
X13791360Y-14285646D01*
X13805646Y-14271360D01*
X13834217Y-14257074D01*
X14119931Y-14257074D02*
X14148503Y-14257074D01*
X14177074Y-14271360D01*
X14191360Y-14285646D01*
X14205646Y-14314217D01*
X14219931Y-14371360D01*
X14219931Y-14442789D01*
X14205646Y-14499931D01*
X14191360Y-14528503D01*
X14177074Y-14542789D01*
X14148503Y-14557074D01*
X14119931Y-14557074D01*
X14091360Y-14542789D01*
X14077074Y-14528503D01*
X14062788Y-14499931D01*
X14048503Y-14442789D01*
X14048503Y-14371360D01*
X14062788Y-14314217D01*
X14077074Y-14285646D01*
X14091360Y-14271360D01*
X14119931Y-14257074D01*
X14348503Y-14557074D02*
X14348503Y-14357074D01*
X14348503Y-14385646D02*
X14362788Y-14371360D01*
X14391360Y-14357074D01*
X14434217Y-14357074D01*
X14462788Y-14371360D01*
X14477074Y-14399931D01*
X14477074Y-14557074D01*
X14477074Y-14399931D02*
X14491360Y-14371360D01*
X14519931Y-14357074D01*
X14562788Y-14357074D01*
X14591360Y-14371360D01*
X14605646Y-14399931D01*
X14605646Y-14557074D01*
X14748503Y-14557074D02*
X14748503Y-14357074D01*
X14748503Y-14385646D02*
X14762788Y-14371360D01*
X14791360Y-14357074D01*
X14834217Y-14357074D01*
X14862788Y-14371360D01*
X14877074Y-14399931D01*
X14877074Y-14557074D01*
X14877074Y-14399931D02*
X14891360Y-14371360D01*
X14919931Y-14357074D01*
X14962788Y-14357074D01*
X14991360Y-14371360D01*
X15005646Y-14399931D01*
X15005646Y-14557074D01*
X15591360Y-14242789D02*
X15334217Y-14628503D01*
X15977074Y-14257074D02*
X16005646Y-14257074D01*
X16034217Y-14271360D01*
X16048503Y-14285646D01*
X16062788Y-14314217D01*
X16077074Y-14371360D01*
X16077074Y-14442789D01*
X16062788Y-14499931D01*
X16048503Y-14528503D01*
X16034217Y-14542789D01*
X16005646Y-14557074D01*
X15977074Y-14557074D01*
X15948503Y-14542789D01*
X15934217Y-14528503D01*
X15919931Y-14499931D01*
X15905646Y-14442789D01*
X15905646Y-14371360D01*
X15919931Y-14314217D01*
X15934217Y-14285646D01*
X15948503Y-14271360D01*
X15977074Y-14257074D01*
X16205646Y-14528503D02*
X16219931Y-14542789D01*
X16205646Y-14557074D01*
X16191360Y-14542789D01*
X16205646Y-14528503D01*
X16205646Y-14557074D01*
X16405646Y-14257074D02*
X16434217Y-14257074D01*
X16462788Y-14271360D01*
X16477074Y-14285646D01*
X16491360Y-14314217D01*
X16505646Y-14371360D01*
X16505646Y-14442789D01*
X16491360Y-14499931D01*
X16477074Y-14528503D01*
X16462788Y-14542789D01*
X16434217Y-14557074D01*
X16405646Y-14557074D01*
X16377074Y-14542789D01*
X16362788Y-14528503D01*
X16348503Y-14499931D01*
X16334217Y-14442789D01*
X16334217Y-14371360D01*
X16348503Y-14314217D01*
X16362788Y-14285646D01*
X16377074Y-14271360D01*
X16405646Y-14257074D01*
X16605646Y-14257074D02*
X16791360Y-14257074D01*
X16691360Y-14371360D01*
X16734217Y-14371360D01*
X16762788Y-14385646D01*
X16777074Y-14399931D01*
X16791360Y-14428503D01*
X16791360Y-14499931D01*
X16777074Y-14528503D01*
X16762788Y-14542789D01*
X16734217Y-14557074D01*
X16648503Y-14557074D01*
X16619931Y-14542789D01*
X16605646Y-14528503D01*
X16934217Y-14557074D02*
X16991360Y-14557074D01*
X17019931Y-14542789D01*
X17034217Y-14528503D01*
X17062788Y-14485646D01*
X17077074Y-14428503D01*
X17077074Y-14314217D01*
X17062788Y-14285646D01*
X17048503Y-14271360D01*
X17019931Y-14257074D01*
X16962788Y-14257074D01*
X16934217Y-14271360D01*
X16919931Y-14285646D01*
X16905646Y-14314217D01*
X16905646Y-14385646D01*
X16919931Y-14414217D01*
X16934217Y-14428503D01*
X16962788Y-14442789D01*
X17019931Y-14442789D01*
X17048503Y-14428503D01*
X17062788Y-14414217D01*
X17077074Y-14385646D01*
X17334217Y-14357074D02*
X17334217Y-14557074D01*
X17262788Y-14242789D02*
X17191360Y-14457074D01*
X17377074Y-14457074D01*
X17477074Y-14257074D02*
X17477074Y-14314217D01*
X17591360Y-14257074D02*
X17591360Y-14314217D01*
X18034217Y-14671360D02*
X18019931Y-14657074D01*
X17991360Y-14614217D01*
X17977074Y-14585646D01*
X17962788Y-14542789D01*
X17948503Y-14471360D01*
X17948503Y-14414217D01*
X17962788Y-14342789D01*
X17977074Y-14299931D01*
X17991360Y-14271360D01*
X18019931Y-14228503D01*
X18034217Y-14214217D01*
X18305646Y-14557074D02*
X18134217Y-14557074D01*
X18219931Y-14557074D02*
X18219931Y-14257074D01*
X18191360Y-14299931D01*
X18162788Y-14328503D01*
X18134217Y-14342789D01*
X18562788Y-14357074D02*
X18562788Y-14557074D01*
X18491360Y-14242789D02*
X18419931Y-14457074D01*
X18605646Y-14457074D01*
X18948503Y-14557074D02*
X18948503Y-14257074D01*
X19077074Y-14557074D02*
X19077074Y-14399931D01*
X19062788Y-14371360D01*
X19034217Y-14357074D01*
X18991360Y-14357074D01*
X18962788Y-14371360D01*
X18948503Y-14385646D01*
X19262788Y-14557074D02*
X19234217Y-14542789D01*
X19219931Y-14528503D01*
X19205646Y-14499931D01*
X19205646Y-14414217D01*
X19219931Y-14385646D01*
X19234217Y-14371360D01*
X19262788Y-14357074D01*
X19305646Y-14357074D01*
X19334217Y-14371360D01*
X19348503Y-14385646D01*
X19362788Y-14414217D01*
X19362788Y-14499931D01*
X19348503Y-14528503D01*
X19334217Y-14542789D01*
X19305646Y-14557074D01*
X19262788Y-14557074D01*
X19534217Y-14557074D02*
X19505646Y-14542789D01*
X19491360Y-14514217D01*
X19491360Y-14257074D01*
X19762788Y-14542789D02*
X19734217Y-14557074D01*
X19677074Y-14557074D01*
X19648503Y-14542789D01*
X19634217Y-14514217D01*
X19634217Y-14399931D01*
X19648503Y-14371360D01*
X19677074Y-14357074D01*
X19734217Y-14357074D01*
X19762788Y-14371360D01*
X19777074Y-14399931D01*
X19777074Y-14428503D01*
X19634217Y-14457074D01*
X19891360Y-14542789D02*
X19919931Y-14557074D01*
X19977074Y-14557074D01*
X20005646Y-14542789D01*
X20019931Y-14514217D01*
X20019931Y-14499931D01*
X20005646Y-14471360D01*
X19977074Y-14457074D01*
X19934217Y-14457074D01*
X19905646Y-14442789D01*
X19891360Y-14414217D01*
X19891360Y-14399931D01*
X19905646Y-14371360D01*
X19934217Y-14357074D01*
X19977074Y-14357074D01*
X20005646Y-14371360D01*
X20119931Y-14671360D02*
X20134217Y-14657074D01*
X20162788Y-14614217D01*
X20177074Y-14585646D01*
X20191360Y-14542789D01*
X20205646Y-14471360D01*
X20205646Y-14414217D01*
X20191360Y-14342789D01*
X20177074Y-14299931D01*
X20162788Y-14271360D01*
X20134217Y-14228503D01*
X20119931Y-14214217D01*
X12757322Y-14863322D02*
X12757322Y-14771398D01*
X12665397Y-14771398D01*
X12665397Y-14863322D01*
X12757322Y-14863322D01*
X13219931Y-14953074D02*
X13048503Y-14953074D01*
X13134217Y-14953074D02*
X13134217Y-14653074D01*
X13105646Y-14695931D01*
X13077074Y-14724503D01*
X13048503Y-14738789D01*
X13348503Y-14924503D02*
X13362788Y-14938789D01*
X13348503Y-14953074D01*
X13334217Y-14938789D01*
X13348503Y-14924503D01*
X13348503Y-14953074D01*
X13462788Y-14653074D02*
X13648503Y-14653074D01*
X13548503Y-14767360D01*
X13591360Y-14767360D01*
X13619931Y-14781646D01*
X13634217Y-14795931D01*
X13648503Y-14824503D01*
X13648503Y-14895931D01*
X13634217Y-14924503D01*
X13619931Y-14938789D01*
X13591360Y-14953074D01*
X13505646Y-14953074D01*
X13477074Y-14938789D01*
X13462788Y-14924503D01*
X13834217Y-14653074D02*
X13862788Y-14653074D01*
X13891360Y-14667360D01*
X13905646Y-14681646D01*
X13919931Y-14710217D01*
X13934217Y-14767360D01*
X13934217Y-14838789D01*
X13919931Y-14895931D01*
X13905646Y-14924503D01*
X13891360Y-14938789D01*
X13862788Y-14953074D01*
X13834217Y-14953074D01*
X13805646Y-14938789D01*
X13791360Y-14924503D01*
X13777074Y-14895931D01*
X13762788Y-14838789D01*
X13762788Y-14767360D01*
X13777074Y-14710217D01*
X13791360Y-14681646D01*
X13805646Y-14667360D01*
X13834217Y-14653074D01*
X14119931Y-14653074D02*
X14148503Y-14653074D01*
X14177074Y-14667360D01*
X14191360Y-14681646D01*
X14205646Y-14710217D01*
X14219931Y-14767360D01*
X14219931Y-14838789D01*
X14205646Y-14895931D01*
X14191360Y-14924503D01*
X14177074Y-14938789D01*
X14148503Y-14953074D01*
X14119931Y-14953074D01*
X14091360Y-14938789D01*
X14077074Y-14924503D01*
X14062788Y-14895931D01*
X14048503Y-14838789D01*
X14048503Y-14767360D01*
X14062788Y-14710217D01*
X14077074Y-14681646D01*
X14091360Y-14667360D01*
X14119931Y-14653074D01*
X14348503Y-14953074D02*
X14348503Y-14753074D01*
X14348503Y-14781646D02*
X14362788Y-14767360D01*
X14391360Y-14753074D01*
X14434217Y-14753074D01*
X14462788Y-14767360D01*
X14477074Y-14795931D01*
X14477074Y-14953074D01*
X14477074Y-14795931D02*
X14491360Y-14767360D01*
X14519931Y-14753074D01*
X14562788Y-14753074D01*
X14591360Y-14767360D01*
X14605646Y-14795931D01*
X14605646Y-14953074D01*
X14748503Y-14953074D02*
X14748503Y-14753074D01*
X14748503Y-14781646D02*
X14762788Y-14767360D01*
X14791360Y-14753074D01*
X14834217Y-14753074D01*
X14862788Y-14767360D01*
X14877074Y-14795931D01*
X14877074Y-14953074D01*
X14877074Y-14795931D02*
X14891360Y-14767360D01*
X14919931Y-14753074D01*
X14962788Y-14753074D01*
X14991360Y-14767360D01*
X15005646Y-14795931D01*
X15005646Y-14953074D01*
X15591360Y-14638789D02*
X15334217Y-15024503D01*
X15977074Y-14653074D02*
X16005646Y-14653074D01*
X16034217Y-14667360D01*
X16048503Y-14681646D01*
X16062788Y-14710217D01*
X16077074Y-14767360D01*
X16077074Y-14838789D01*
X16062788Y-14895931D01*
X16048503Y-14924503D01*
X16034217Y-14938789D01*
X16005646Y-14953074D01*
X15977074Y-14953074D01*
X15948503Y-14938789D01*
X15934217Y-14924503D01*
X15919931Y-14895931D01*
X15905646Y-14838789D01*
X15905646Y-14767360D01*
X15919931Y-14710217D01*
X15934217Y-14681646D01*
X15948503Y-14667360D01*
X15977074Y-14653074D01*
X16205646Y-14924503D02*
X16219931Y-14938789D01*
X16205646Y-14953074D01*
X16191360Y-14938789D01*
X16205646Y-14924503D01*
X16205646Y-14953074D01*
X16405646Y-14653074D02*
X16434217Y-14653074D01*
X16462788Y-14667360D01*
X16477074Y-14681646D01*
X16491360Y-14710217D01*
X16505646Y-14767360D01*
X16505646Y-14838789D01*
X16491360Y-14895931D01*
X16477074Y-14924503D01*
X16462788Y-14938789D01*
X16434217Y-14953074D01*
X16405646Y-14953074D01*
X16377074Y-14938789D01*
X16362788Y-14924503D01*
X16348503Y-14895931D01*
X16334217Y-14838789D01*
X16334217Y-14767360D01*
X16348503Y-14710217D01*
X16362788Y-14681646D01*
X16377074Y-14667360D01*
X16405646Y-14653074D01*
X16777074Y-14653074D02*
X16634217Y-14653074D01*
X16619931Y-14795931D01*
X16634217Y-14781646D01*
X16662788Y-14767360D01*
X16734217Y-14767360D01*
X16762788Y-14781646D01*
X16777074Y-14795931D01*
X16791360Y-14824503D01*
X16791360Y-14895931D01*
X16777074Y-14924503D01*
X16762788Y-14938789D01*
X16734217Y-14953074D01*
X16662788Y-14953074D01*
X16634217Y-14938789D01*
X16619931Y-14924503D01*
X17077074Y-14953074D02*
X16905646Y-14953074D01*
X16991360Y-14953074D02*
X16991360Y-14653074D01*
X16962788Y-14695931D01*
X16934217Y-14724503D01*
X16905646Y-14738789D01*
X17191360Y-14681646D02*
X17205646Y-14667360D01*
X17234217Y-14653074D01*
X17305646Y-14653074D01*
X17334217Y-14667360D01*
X17348503Y-14681646D01*
X17362788Y-14710217D01*
X17362788Y-14738789D01*
X17348503Y-14781646D01*
X17177074Y-14953074D01*
X17362788Y-14953074D01*
X17477074Y-14653074D02*
X17477074Y-14710217D01*
X17591360Y-14653074D02*
X17591360Y-14710217D01*
X18034217Y-15067360D02*
X18019931Y-15053074D01*
X17991360Y-15010217D01*
X17977074Y-14981646D01*
X17962788Y-14938789D01*
X17948503Y-14867360D01*
X17948503Y-14810217D01*
X17962788Y-14738789D01*
X17977074Y-14695931D01*
X17991360Y-14667360D01*
X18019931Y-14624503D01*
X18034217Y-14610217D01*
X18277074Y-14653074D02*
X18219931Y-14653074D01*
X18191360Y-14667360D01*
X18177074Y-14681646D01*
X18148503Y-14724503D01*
X18134217Y-14781646D01*
X18134217Y-14895931D01*
X18148503Y-14924503D01*
X18162788Y-14938789D01*
X18191360Y-14953074D01*
X18248503Y-14953074D01*
X18277074Y-14938789D01*
X18291360Y-14924503D01*
X18305646Y-14895931D01*
X18305646Y-14824503D01*
X18291360Y-14795931D01*
X18277074Y-14781646D01*
X18248503Y-14767360D01*
X18191360Y-14767360D01*
X18162788Y-14781646D01*
X18148503Y-14795931D01*
X18134217Y-14824503D01*
X18662788Y-14953074D02*
X18662788Y-14653074D01*
X18791360Y-14953074D02*
X18791360Y-14795931D01*
X18777074Y-14767360D01*
X18748503Y-14753074D01*
X18705646Y-14753074D01*
X18677074Y-14767360D01*
X18662788Y-14781646D01*
X18977074Y-14953074D02*
X18948503Y-14938789D01*
X18934217Y-14924503D01*
X18919931Y-14895931D01*
X18919931Y-14810217D01*
X18934217Y-14781646D01*
X18948503Y-14767360D01*
X18977074Y-14753074D01*
X19019931Y-14753074D01*
X19048503Y-14767360D01*
X19062788Y-14781646D01*
X19077074Y-14810217D01*
X19077074Y-14895931D01*
X19062788Y-14924503D01*
X19048503Y-14938789D01*
X19019931Y-14953074D01*
X18977074Y-14953074D01*
X19248503Y-14953074D02*
X19219931Y-14938789D01*
X19205646Y-14910217D01*
X19205646Y-14653074D01*
X19477074Y-14938789D02*
X19448503Y-14953074D01*
X19391360Y-14953074D01*
X19362788Y-14938789D01*
X19348503Y-14910217D01*
X19348503Y-14795931D01*
X19362788Y-14767360D01*
X19391360Y-14753074D01*
X19448503Y-14753074D01*
X19477074Y-14767360D01*
X19491360Y-14795931D01*
X19491360Y-14824503D01*
X19348503Y-14853074D01*
X19605646Y-14938789D02*
X19634217Y-14953074D01*
X19691360Y-14953074D01*
X19719931Y-14938789D01*
X19734217Y-14910217D01*
X19734217Y-14895931D01*
X19719931Y-14867360D01*
X19691360Y-14853074D01*
X19648503Y-14853074D01*
X19619931Y-14838789D01*
X19605646Y-14810217D01*
X19605646Y-14795931D01*
X19619931Y-14767360D01*
X19648503Y-14753074D01*
X19691360Y-14753074D01*
X19719931Y-14767360D01*
X19834217Y-15067360D02*
X19848503Y-15053074D01*
X19877074Y-15010217D01*
X19891360Y-14981646D01*
X19905646Y-14938789D01*
X19919931Y-14867360D01*
X19919931Y-14810217D01*
X19905646Y-14738789D01*
X19891360Y-14695931D01*
X19877074Y-14667360D01*
X19848503Y-14624503D01*
X19834217Y-14610217D01*
X12676360Y-15313360D02*
X12776360Y-15213360D01*
X12676360Y-15113360D01*
X12576360Y-15213360D01*
X12676360Y-15313360D01*
X13048503Y-15077646D02*
X13062788Y-15063360D01*
X13091360Y-15049074D01*
X13162788Y-15049074D01*
X13191360Y-15063360D01*
X13205646Y-15077646D01*
X13219931Y-15106217D01*
X13219931Y-15134789D01*
X13205646Y-15177646D01*
X13034217Y-15349074D01*
X13219931Y-15349074D01*
X13348503Y-15320503D02*
X13362788Y-15334789D01*
X13348503Y-15349074D01*
X13334217Y-15334789D01*
X13348503Y-15320503D01*
X13348503Y-15349074D01*
X13548503Y-15049074D02*
X13577074Y-15049074D01*
X13605646Y-15063360D01*
X13619931Y-15077646D01*
X13634217Y-15106217D01*
X13648503Y-15163360D01*
X13648503Y-15234789D01*
X13634217Y-15291931D01*
X13619931Y-15320503D01*
X13605646Y-15334789D01*
X13577074Y-15349074D01*
X13548503Y-15349074D01*
X13519931Y-15334789D01*
X13505646Y-15320503D01*
X13491360Y-15291931D01*
X13477074Y-15234789D01*
X13477074Y-15163360D01*
X13491360Y-15106217D01*
X13505646Y-15077646D01*
X13519931Y-15063360D01*
X13548503Y-15049074D01*
X13834217Y-15049074D02*
X13862788Y-15049074D01*
X13891360Y-15063360D01*
X13905646Y-15077646D01*
X13919931Y-15106217D01*
X13934217Y-15163360D01*
X13934217Y-15234789D01*
X13919931Y-15291931D01*
X13905646Y-15320503D01*
X13891360Y-15334789D01*
X13862788Y-15349074D01*
X13834217Y-15349074D01*
X13805646Y-15334789D01*
X13791360Y-15320503D01*
X13777074Y-15291931D01*
X13762788Y-15234789D01*
X13762788Y-15163360D01*
X13777074Y-15106217D01*
X13791360Y-15077646D01*
X13805646Y-15063360D01*
X13834217Y-15049074D01*
X14119931Y-15049074D02*
X14148503Y-15049074D01*
X14177074Y-15063360D01*
X14191360Y-15077646D01*
X14205646Y-15106217D01*
X14219931Y-15163360D01*
X14219931Y-15234789D01*
X14205646Y-15291931D01*
X14191360Y-15320503D01*
X14177074Y-15334789D01*
X14148503Y-15349074D01*
X14119931Y-15349074D01*
X14091360Y-15334789D01*
X14077074Y-15320503D01*
X14062788Y-15291931D01*
X14048503Y-15234789D01*
X14048503Y-15163360D01*
X14062788Y-15106217D01*
X14077074Y-15077646D01*
X14091360Y-15063360D01*
X14119931Y-15049074D01*
X14348503Y-15349074D02*
X14348503Y-15149074D01*
X14348503Y-15177646D02*
X14362788Y-15163360D01*
X14391360Y-15149074D01*
X14434217Y-15149074D01*
X14462788Y-15163360D01*
X14477074Y-15191931D01*
X14477074Y-15349074D01*
X14477074Y-15191931D02*
X14491360Y-15163360D01*
X14519931Y-15149074D01*
X14562788Y-15149074D01*
X14591360Y-15163360D01*
X14605646Y-15191931D01*
X14605646Y-15349074D01*
X14748503Y-15349074D02*
X14748503Y-15149074D01*
X14748503Y-15177646D02*
X14762788Y-15163360D01*
X14791360Y-15149074D01*
X14834217Y-15149074D01*
X14862788Y-15163360D01*
X14877074Y-15191931D01*
X14877074Y-15349074D01*
X14877074Y-15191931D02*
X14891360Y-15163360D01*
X14919931Y-15149074D01*
X14962788Y-15149074D01*
X14991360Y-15163360D01*
X15005646Y-15191931D01*
X15005646Y-15349074D01*
X15591360Y-15034789D02*
X15334217Y-15420503D01*
X15977074Y-15049074D02*
X16005646Y-15049074D01*
X16034217Y-15063360D01*
X16048503Y-15077646D01*
X16062788Y-15106217D01*
X16077074Y-15163360D01*
X16077074Y-15234789D01*
X16062788Y-15291931D01*
X16048503Y-15320503D01*
X16034217Y-15334789D01*
X16005646Y-15349074D01*
X15977074Y-15349074D01*
X15948503Y-15334789D01*
X15934217Y-15320503D01*
X15919931Y-15291931D01*
X15905646Y-15234789D01*
X15905646Y-15163360D01*
X15919931Y-15106217D01*
X15934217Y-15077646D01*
X15948503Y-15063360D01*
X15977074Y-15049074D01*
X16205646Y-15320503D02*
X16219931Y-15334789D01*
X16205646Y-15349074D01*
X16191360Y-15334789D01*
X16205646Y-15320503D01*
X16205646Y-15349074D01*
X16405646Y-15049074D02*
X16434217Y-15049074D01*
X16462788Y-15063360D01*
X16477074Y-15077646D01*
X16491360Y-15106217D01*
X16505646Y-15163360D01*
X16505646Y-15234789D01*
X16491360Y-15291931D01*
X16477074Y-15320503D01*
X16462788Y-15334789D01*
X16434217Y-15349074D01*
X16405646Y-15349074D01*
X16377074Y-15334789D01*
X16362788Y-15320503D01*
X16348503Y-15291931D01*
X16334217Y-15234789D01*
X16334217Y-15163360D01*
X16348503Y-15106217D01*
X16362788Y-15077646D01*
X16377074Y-15063360D01*
X16405646Y-15049074D01*
X16605646Y-15049074D02*
X16805646Y-15049074D01*
X16677074Y-15349074D01*
X16962788Y-15177646D02*
X16934217Y-15163360D01*
X16919931Y-15149074D01*
X16905646Y-15120503D01*
X16905646Y-15106217D01*
X16919931Y-15077646D01*
X16934217Y-15063360D01*
X16962788Y-15049074D01*
X17019931Y-15049074D01*
X17048503Y-15063360D01*
X17062788Y-15077646D01*
X17077074Y-15106217D01*
X17077074Y-15120503D01*
X17062788Y-15149074D01*
X17048503Y-15163360D01*
X17019931Y-15177646D01*
X16962788Y-15177646D01*
X16934217Y-15191931D01*
X16919931Y-15206217D01*
X16905646Y-15234789D01*
X16905646Y-15291931D01*
X16919931Y-15320503D01*
X16934217Y-15334789D01*
X16962788Y-15349074D01*
X17019931Y-15349074D01*
X17048503Y-15334789D01*
X17062788Y-15320503D01*
X17077074Y-15291931D01*
X17077074Y-15234789D01*
X17062788Y-15206217D01*
X17048503Y-15191931D01*
X17019931Y-15177646D01*
X17177074Y-15049074D02*
X17377074Y-15049074D01*
X17248503Y-15349074D01*
X17477074Y-15049074D02*
X17477074Y-15106217D01*
X17591360Y-15049074D02*
X17591360Y-15106217D01*
X18034217Y-15463360D02*
X18019931Y-15449074D01*
X17991360Y-15406217D01*
X17977074Y-15377646D01*
X17962788Y-15334789D01*
X17948503Y-15263360D01*
X17948503Y-15206217D01*
X17962788Y-15134789D01*
X17977074Y-15091931D01*
X17991360Y-15063360D01*
X18019931Y-15020503D01*
X18034217Y-15006217D01*
X18205646Y-15049074D02*
X18234217Y-15049074D01*
X18262788Y-15063360D01*
X18277074Y-15077646D01*
X18291360Y-15106217D01*
X18305646Y-15163360D01*
X18305646Y-15234789D01*
X18291360Y-15291931D01*
X18277074Y-15320503D01*
X18262788Y-15334789D01*
X18234217Y-15349074D01*
X18205646Y-15349074D01*
X18177074Y-15334789D01*
X18162788Y-15320503D01*
X18148503Y-15291931D01*
X18134217Y-15234789D01*
X18134217Y-15163360D01*
X18148503Y-15106217D01*
X18162788Y-15077646D01*
X18177074Y-15063360D01*
X18205646Y-15049074D01*
X18662788Y-15349074D02*
X18662788Y-15049074D01*
X18791360Y-15349074D02*
X18791360Y-15191931D01*
X18777074Y-15163360D01*
X18748503Y-15149074D01*
X18705646Y-15149074D01*
X18677074Y-15163360D01*
X18662788Y-15177646D01*
X18977074Y-15349074D02*
X18948503Y-15334789D01*
X18934217Y-15320503D01*
X18919931Y-15291931D01*
X18919931Y-15206217D01*
X18934217Y-15177646D01*
X18948503Y-15163360D01*
X18977074Y-15149074D01*
X19019931Y-15149074D01*
X19048503Y-15163360D01*
X19062788Y-15177646D01*
X19077074Y-15206217D01*
X19077074Y-15291931D01*
X19062788Y-15320503D01*
X19048503Y-15334789D01*
X19019931Y-15349074D01*
X18977074Y-15349074D01*
X19248503Y-15349074D02*
X19219931Y-15334789D01*
X19205646Y-15306217D01*
X19205646Y-15049074D01*
X19477074Y-15334789D02*
X19448503Y-15349074D01*
X19391360Y-15349074D01*
X19362788Y-15334789D01*
X19348503Y-15306217D01*
X19348503Y-15191931D01*
X19362788Y-15163360D01*
X19391360Y-15149074D01*
X19448503Y-15149074D01*
X19477074Y-15163360D01*
X19491360Y-15191931D01*
X19491360Y-15220503D01*
X19348503Y-15249074D01*
X19605646Y-15334789D02*
X19634217Y-15349074D01*
X19691360Y-15349074D01*
X19719931Y-15334789D01*
X19734217Y-15306217D01*
X19734217Y-15291931D01*
X19719931Y-15263360D01*
X19691360Y-15249074D01*
X19648503Y-15249074D01*
X19619931Y-15234789D01*
X19605646Y-15206217D01*
X19605646Y-15191931D01*
X19619931Y-15163360D01*
X19648503Y-15149074D01*
X19691360Y-15149074D01*
X19719931Y-15163360D01*
X20091360Y-15234789D02*
X20319931Y-15234789D01*
X20205646Y-15349074D02*
X20205646Y-15120503D01*
X20819931Y-15049074D02*
X20762788Y-15049074D01*
X20734217Y-15063360D01*
X20719931Y-15077646D01*
X20691360Y-15120503D01*
X20677074Y-15177646D01*
X20677074Y-15291931D01*
X20691360Y-15320503D01*
X20705646Y-15334789D01*
X20734217Y-15349074D01*
X20791360Y-15349074D01*
X20819931Y-15334789D01*
X20834217Y-15320503D01*
X20848503Y-15291931D01*
X20848503Y-15220503D01*
X20834217Y-15191931D01*
X20819931Y-15177646D01*
X20791360Y-15163360D01*
X20734217Y-15163360D01*
X20705646Y-15177646D01*
X20691360Y-15191931D01*
X20677074Y-15220503D01*
X21191360Y-15334789D02*
X21219931Y-15349074D01*
X21277074Y-15349074D01*
X21305646Y-15334789D01*
X21319931Y-15306217D01*
X21319931Y-15291931D01*
X21305646Y-15263360D01*
X21277074Y-15249074D01*
X21234217Y-15249074D01*
X21205646Y-15234789D01*
X21191360Y-15206217D01*
X21191360Y-15191931D01*
X21205646Y-15163360D01*
X21234217Y-15149074D01*
X21277074Y-15149074D01*
X21305646Y-15163360D01*
X21491360Y-15349074D02*
X21462788Y-15334789D01*
X21448503Y-15306217D01*
X21448503Y-15049074D01*
X21648503Y-15349074D02*
X21619931Y-15334789D01*
X21605646Y-15320503D01*
X21591360Y-15291931D01*
X21591360Y-15206217D01*
X21605646Y-15177646D01*
X21619931Y-15163360D01*
X21648503Y-15149074D01*
X21691360Y-15149074D01*
X21719931Y-15163360D01*
X21734217Y-15177646D01*
X21748503Y-15206217D01*
X21748503Y-15291931D01*
X21734217Y-15320503D01*
X21719931Y-15334789D01*
X21691360Y-15349074D01*
X21648503Y-15349074D01*
X21834217Y-15149074D02*
X21948503Y-15149074D01*
X21877074Y-15049074D02*
X21877074Y-15306217D01*
X21891360Y-15334789D01*
X21919931Y-15349074D01*
X21948503Y-15349074D01*
X22034217Y-15334789D02*
X22062788Y-15349074D01*
X22119931Y-15349074D01*
X22148503Y-15334789D01*
X22162788Y-15306217D01*
X22162788Y-15291931D01*
X22148503Y-15263360D01*
X22119931Y-15249074D01*
X22077074Y-15249074D01*
X22048503Y-15234789D01*
X22034217Y-15206217D01*
X22034217Y-15191931D01*
X22048503Y-15163360D01*
X22077074Y-15149074D01*
X22119931Y-15149074D01*
X22148503Y-15163360D01*
X22262788Y-15463360D02*
X22277074Y-15449074D01*
X22305646Y-15406217D01*
X22319931Y-15377646D01*
X22334217Y-15334789D01*
X22348503Y-15263360D01*
X22348503Y-15206217D01*
X22334217Y-15134789D01*
X22319931Y-15091931D01*
X22305646Y-15063360D01*
X22277074Y-15020503D01*
X22262788Y-15006217D01*
X12556360Y-15499360D02*
X12776360Y-15719360D01*
X12776360Y-15499360D02*
X12556360Y-15719360D01*
X12776360Y-15609360D02*
G75*
G03*
X12776360Y-15609360I-110000J0D01*
G01*
X13048503Y-15473646D02*
X13062788Y-15459360D01*
X13091360Y-15445074D01*
X13162788Y-15445074D01*
X13191360Y-15459360D01*
X13205646Y-15473646D01*
X13219931Y-15502217D01*
X13219931Y-15530789D01*
X13205646Y-15573646D01*
X13034217Y-15745074D01*
X13219931Y-15745074D01*
X13348503Y-15716503D02*
X13362788Y-15730789D01*
X13348503Y-15745074D01*
X13334217Y-15730789D01*
X13348503Y-15716503D01*
X13348503Y-15745074D01*
X13477074Y-15473646D02*
X13491360Y-15459360D01*
X13519931Y-15445074D01*
X13591360Y-15445074D01*
X13619931Y-15459360D01*
X13634217Y-15473646D01*
X13648503Y-15502217D01*
X13648503Y-15530789D01*
X13634217Y-15573646D01*
X13462788Y-15745074D01*
X13648503Y-15745074D01*
X13834217Y-15445074D02*
X13862788Y-15445074D01*
X13891360Y-15459360D01*
X13905646Y-15473646D01*
X13919931Y-15502217D01*
X13934217Y-15559360D01*
X13934217Y-15630789D01*
X13919931Y-15687931D01*
X13905646Y-15716503D01*
X13891360Y-15730789D01*
X13862788Y-15745074D01*
X13834217Y-15745074D01*
X13805646Y-15730789D01*
X13791360Y-15716503D01*
X13777074Y-15687931D01*
X13762788Y-15630789D01*
X13762788Y-15559360D01*
X13777074Y-15502217D01*
X13791360Y-15473646D01*
X13805646Y-15459360D01*
X13834217Y-15445074D01*
X14119931Y-15445074D02*
X14148503Y-15445074D01*
X14177074Y-15459360D01*
X14191360Y-15473646D01*
X14205646Y-15502217D01*
X14219931Y-15559360D01*
X14219931Y-15630789D01*
X14205646Y-15687931D01*
X14191360Y-15716503D01*
X14177074Y-15730789D01*
X14148503Y-15745074D01*
X14119931Y-15745074D01*
X14091360Y-15730789D01*
X14077074Y-15716503D01*
X14062788Y-15687931D01*
X14048503Y-15630789D01*
X14048503Y-15559360D01*
X14062788Y-15502217D01*
X14077074Y-15473646D01*
X14091360Y-15459360D01*
X14119931Y-15445074D01*
X14348503Y-15745074D02*
X14348503Y-15545074D01*
X14348503Y-15573646D02*
X14362788Y-15559360D01*
X14391360Y-15545074D01*
X14434217Y-15545074D01*
X14462788Y-15559360D01*
X14477074Y-15587931D01*
X14477074Y-15745074D01*
X14477074Y-15587931D02*
X14491360Y-15559360D01*
X14519931Y-15545074D01*
X14562788Y-15545074D01*
X14591360Y-15559360D01*
X14605646Y-15587931D01*
X14605646Y-15745074D01*
X14748503Y-15745074D02*
X14748503Y-15545074D01*
X14748503Y-15573646D02*
X14762788Y-15559360D01*
X14791360Y-15545074D01*
X14834217Y-15545074D01*
X14862788Y-15559360D01*
X14877074Y-15587931D01*
X14877074Y-15745074D01*
X14877074Y-15587931D02*
X14891360Y-15559360D01*
X14919931Y-15545074D01*
X14962788Y-15545074D01*
X14991360Y-15559360D01*
X15005646Y-15587931D01*
X15005646Y-15745074D01*
X15591360Y-15430789D02*
X15334217Y-15816503D01*
X15977074Y-15445074D02*
X16005646Y-15445074D01*
X16034217Y-15459360D01*
X16048503Y-15473646D01*
X16062788Y-15502217D01*
X16077074Y-15559360D01*
X16077074Y-15630789D01*
X16062788Y-15687931D01*
X16048503Y-15716503D01*
X16034217Y-15730789D01*
X16005646Y-15745074D01*
X15977074Y-15745074D01*
X15948503Y-15730789D01*
X15934217Y-15716503D01*
X15919931Y-15687931D01*
X15905646Y-15630789D01*
X15905646Y-15559360D01*
X15919931Y-15502217D01*
X15934217Y-15473646D01*
X15948503Y-15459360D01*
X15977074Y-15445074D01*
X16205646Y-15716503D02*
X16219931Y-15730789D01*
X16205646Y-15745074D01*
X16191360Y-15730789D01*
X16205646Y-15716503D01*
X16205646Y-15745074D01*
X16405646Y-15445074D02*
X16434217Y-15445074D01*
X16462788Y-15459360D01*
X16477074Y-15473646D01*
X16491360Y-15502217D01*
X16505646Y-15559360D01*
X16505646Y-15630789D01*
X16491360Y-15687931D01*
X16477074Y-15716503D01*
X16462788Y-15730789D01*
X16434217Y-15745074D01*
X16405646Y-15745074D01*
X16377074Y-15730789D01*
X16362788Y-15716503D01*
X16348503Y-15687931D01*
X16334217Y-15630789D01*
X16334217Y-15559360D01*
X16348503Y-15502217D01*
X16362788Y-15473646D01*
X16377074Y-15459360D01*
X16405646Y-15445074D01*
X16677074Y-15573646D02*
X16648503Y-15559360D01*
X16634217Y-15545074D01*
X16619931Y-15516503D01*
X16619931Y-15502217D01*
X16634217Y-15473646D01*
X16648503Y-15459360D01*
X16677074Y-15445074D01*
X16734217Y-15445074D01*
X16762788Y-15459360D01*
X16777074Y-15473646D01*
X16791360Y-15502217D01*
X16791360Y-15516503D01*
X16777074Y-15545074D01*
X16762788Y-15559360D01*
X16734217Y-15573646D01*
X16677074Y-15573646D01*
X16648503Y-15587931D01*
X16634217Y-15602217D01*
X16619931Y-15630789D01*
X16619931Y-15687931D01*
X16634217Y-15716503D01*
X16648503Y-15730789D01*
X16677074Y-15745074D01*
X16734217Y-15745074D01*
X16762788Y-15730789D01*
X16777074Y-15716503D01*
X16791360Y-15687931D01*
X16791360Y-15630789D01*
X16777074Y-15602217D01*
X16762788Y-15587931D01*
X16734217Y-15573646D01*
X17048503Y-15445074D02*
X16991360Y-15445074D01*
X16962788Y-15459360D01*
X16948503Y-15473646D01*
X16919931Y-15516503D01*
X16905646Y-15573646D01*
X16905646Y-15687931D01*
X16919931Y-15716503D01*
X16934217Y-15730789D01*
X16962788Y-15745074D01*
X17019931Y-15745074D01*
X17048503Y-15730789D01*
X17062788Y-15716503D01*
X17077074Y-15687931D01*
X17077074Y-15616503D01*
X17062788Y-15587931D01*
X17048503Y-15573646D01*
X17019931Y-15559360D01*
X16962788Y-15559360D01*
X16934217Y-15573646D01*
X16919931Y-15587931D01*
X16905646Y-15616503D01*
X17334217Y-15445074D02*
X17277074Y-15445074D01*
X17248503Y-15459360D01*
X17234217Y-15473646D01*
X17205646Y-15516503D01*
X17191360Y-15573646D01*
X17191360Y-15687931D01*
X17205646Y-15716503D01*
X17219931Y-15730789D01*
X17248503Y-15745074D01*
X17305646Y-15745074D01*
X17334217Y-15730789D01*
X17348503Y-15716503D01*
X17362788Y-15687931D01*
X17362788Y-15616503D01*
X17348503Y-15587931D01*
X17334217Y-15573646D01*
X17305646Y-15559360D01*
X17248503Y-15559360D01*
X17219931Y-15573646D01*
X17205646Y-15587931D01*
X17191360Y-15616503D01*
X17477074Y-15445074D02*
X17477074Y-15502217D01*
X17591360Y-15445074D02*
X17591360Y-15502217D01*
X18034217Y-15859360D02*
X18019931Y-15845074D01*
X17991360Y-15802217D01*
X17977074Y-15773646D01*
X17962788Y-15730789D01*
X17948503Y-15659360D01*
X17948503Y-15602217D01*
X17962788Y-15530789D01*
X17977074Y-15487931D01*
X17991360Y-15459360D01*
X18019931Y-15416503D01*
X18034217Y-15402217D01*
X18277074Y-15545074D02*
X18277074Y-15745074D01*
X18205646Y-15430789D02*
X18134217Y-15645074D01*
X18319931Y-15645074D01*
X18662788Y-15745074D02*
X18662788Y-15445074D01*
X18791360Y-15745074D02*
X18791360Y-15587931D01*
X18777074Y-15559360D01*
X18748503Y-15545074D01*
X18705646Y-15545074D01*
X18677074Y-15559360D01*
X18662788Y-15573646D01*
X18977074Y-15745074D02*
X18948503Y-15730789D01*
X18934217Y-15716503D01*
X18919931Y-15687931D01*
X18919931Y-15602217D01*
X18934217Y-15573646D01*
X18948503Y-15559360D01*
X18977074Y-15545074D01*
X19019931Y-15545074D01*
X19048503Y-15559360D01*
X19062788Y-15573646D01*
X19077074Y-15602217D01*
X19077074Y-15687931D01*
X19062788Y-15716503D01*
X19048503Y-15730789D01*
X19019931Y-15745074D01*
X18977074Y-15745074D01*
X19248503Y-15745074D02*
X19219931Y-15730789D01*
X19205646Y-15702217D01*
X19205646Y-15445074D01*
X19477074Y-15730789D02*
X19448503Y-15745074D01*
X19391360Y-15745074D01*
X19362788Y-15730789D01*
X19348503Y-15702217D01*
X19348503Y-15587931D01*
X19362788Y-15559360D01*
X19391360Y-15545074D01*
X19448503Y-15545074D01*
X19477074Y-15559360D01*
X19491360Y-15587931D01*
X19491360Y-15616503D01*
X19348503Y-15645074D01*
X19605646Y-15730789D02*
X19634217Y-15745074D01*
X19691360Y-15745074D01*
X19719931Y-15730789D01*
X19734217Y-15702217D01*
X19734217Y-15687931D01*
X19719931Y-15659360D01*
X19691360Y-15645074D01*
X19648503Y-15645074D01*
X19619931Y-15630789D01*
X19605646Y-15602217D01*
X19605646Y-15587931D01*
X19619931Y-15559360D01*
X19648503Y-15545074D01*
X19691360Y-15545074D01*
X19719931Y-15559360D01*
X19834217Y-15859360D02*
X19848503Y-15845074D01*
X19877074Y-15802217D01*
X19891360Y-15773646D01*
X19905646Y-15730789D01*
X19919931Y-15659360D01*
X19919931Y-15602217D01*
X19905646Y-15530789D01*
X19891360Y-15487931D01*
X19877074Y-15459360D01*
X19848503Y-15416503D01*
X19834217Y-15402217D01*
X12476360Y-15855360D02*
X12776360Y-16155360D01*
X12776360Y-15855360D02*
X12476360Y-16155360D01*
X12626360Y-15855360D02*
X12626360Y-16155360D01*
X12476360Y-16005360D02*
X12776360Y-16005360D01*
X13034217Y-15841074D02*
X13219931Y-15841074D01*
X13119931Y-15955360D01*
X13162788Y-15955360D01*
X13191360Y-15969646D01*
X13205646Y-15983931D01*
X13219931Y-16012503D01*
X13219931Y-16083931D01*
X13205646Y-16112503D01*
X13191360Y-16126789D01*
X13162788Y-16141074D01*
X13077074Y-16141074D01*
X13048503Y-16126789D01*
X13034217Y-16112503D01*
X13348503Y-16112503D02*
X13362788Y-16126789D01*
X13348503Y-16141074D01*
X13334217Y-16126789D01*
X13348503Y-16112503D01*
X13348503Y-16141074D01*
X13548503Y-15841074D02*
X13577074Y-15841074D01*
X13605646Y-15855360D01*
X13619931Y-15869646D01*
X13634217Y-15898217D01*
X13648503Y-15955360D01*
X13648503Y-16026789D01*
X13634217Y-16083931D01*
X13619931Y-16112503D01*
X13605646Y-16126789D01*
X13577074Y-16141074D01*
X13548503Y-16141074D01*
X13519931Y-16126789D01*
X13505646Y-16112503D01*
X13491360Y-16083931D01*
X13477074Y-16026789D01*
X13477074Y-15955360D01*
X13491360Y-15898217D01*
X13505646Y-15869646D01*
X13519931Y-15855360D01*
X13548503Y-15841074D01*
X13834217Y-15841074D02*
X13862788Y-15841074D01*
X13891360Y-15855360D01*
X13905646Y-15869646D01*
X13919931Y-15898217D01*
X13934217Y-15955360D01*
X13934217Y-16026789D01*
X13919931Y-16083931D01*
X13905646Y-16112503D01*
X13891360Y-16126789D01*
X13862788Y-16141074D01*
X13834217Y-16141074D01*
X13805646Y-16126789D01*
X13791360Y-16112503D01*
X13777074Y-16083931D01*
X13762788Y-16026789D01*
X13762788Y-15955360D01*
X13777074Y-15898217D01*
X13791360Y-15869646D01*
X13805646Y-15855360D01*
X13834217Y-15841074D01*
X14119931Y-15841074D02*
X14148503Y-15841074D01*
X14177074Y-15855360D01*
X14191360Y-15869646D01*
X14205646Y-15898217D01*
X14219931Y-15955360D01*
X14219931Y-16026789D01*
X14205646Y-16083931D01*
X14191360Y-16112503D01*
X14177074Y-16126789D01*
X14148503Y-16141074D01*
X14119931Y-16141074D01*
X14091360Y-16126789D01*
X14077074Y-16112503D01*
X14062788Y-16083931D01*
X14048503Y-16026789D01*
X14048503Y-15955360D01*
X14062788Y-15898217D01*
X14077074Y-15869646D01*
X14091360Y-15855360D01*
X14119931Y-15841074D01*
X14348503Y-16141074D02*
X14348503Y-15941074D01*
X14348503Y-15969646D02*
X14362788Y-15955360D01*
X14391360Y-15941074D01*
X14434217Y-15941074D01*
X14462788Y-15955360D01*
X14477074Y-15983931D01*
X14477074Y-16141074D01*
X14477074Y-15983931D02*
X14491360Y-15955360D01*
X14519931Y-15941074D01*
X14562788Y-15941074D01*
X14591360Y-15955360D01*
X14605646Y-15983931D01*
X14605646Y-16141074D01*
X14748503Y-16141074D02*
X14748503Y-15941074D01*
X14748503Y-15969646D02*
X14762788Y-15955360D01*
X14791360Y-15941074D01*
X14834217Y-15941074D01*
X14862788Y-15955360D01*
X14877074Y-15983931D01*
X14877074Y-16141074D01*
X14877074Y-15983931D02*
X14891360Y-15955360D01*
X14919931Y-15941074D01*
X14962788Y-15941074D01*
X14991360Y-15955360D01*
X15005646Y-15983931D01*
X15005646Y-16141074D01*
X15591360Y-15826789D02*
X15334217Y-16212503D01*
X15977074Y-15841074D02*
X16005646Y-15841074D01*
X16034217Y-15855360D01*
X16048503Y-15869646D01*
X16062788Y-15898217D01*
X16077074Y-15955360D01*
X16077074Y-16026789D01*
X16062788Y-16083931D01*
X16048503Y-16112503D01*
X16034217Y-16126789D01*
X16005646Y-16141074D01*
X15977074Y-16141074D01*
X15948503Y-16126789D01*
X15934217Y-16112503D01*
X15919931Y-16083931D01*
X15905646Y-16026789D01*
X15905646Y-15955360D01*
X15919931Y-15898217D01*
X15934217Y-15869646D01*
X15948503Y-15855360D01*
X15977074Y-15841074D01*
X16205646Y-16112503D02*
X16219931Y-16126789D01*
X16205646Y-16141074D01*
X16191360Y-16126789D01*
X16205646Y-16112503D01*
X16205646Y-16141074D01*
X16505646Y-16141074D02*
X16334217Y-16141074D01*
X16419931Y-16141074D02*
X16419931Y-15841074D01*
X16391360Y-15883931D01*
X16362788Y-15912503D01*
X16334217Y-15926789D01*
X16791360Y-16141074D02*
X16619931Y-16141074D01*
X16705646Y-16141074D02*
X16705646Y-15841074D01*
X16677074Y-15883931D01*
X16648503Y-15912503D01*
X16619931Y-15926789D01*
X16962788Y-15969646D02*
X16934217Y-15955360D01*
X16919931Y-15941074D01*
X16905646Y-15912503D01*
X16905646Y-15898217D01*
X16919931Y-15869646D01*
X16934217Y-15855360D01*
X16962788Y-15841074D01*
X17019931Y-15841074D01*
X17048503Y-15855360D01*
X17062788Y-15869646D01*
X17077074Y-15898217D01*
X17077074Y-15912503D01*
X17062788Y-15941074D01*
X17048503Y-15955360D01*
X17019931Y-15969646D01*
X16962788Y-15969646D01*
X16934217Y-15983931D01*
X16919931Y-15998217D01*
X16905646Y-16026789D01*
X16905646Y-16083931D01*
X16919931Y-16112503D01*
X16934217Y-16126789D01*
X16962788Y-16141074D01*
X17019931Y-16141074D01*
X17048503Y-16126789D01*
X17062788Y-16112503D01*
X17077074Y-16083931D01*
X17077074Y-16026789D01*
X17062788Y-15998217D01*
X17048503Y-15983931D01*
X17019931Y-15969646D01*
X17362788Y-16141074D02*
X17191360Y-16141074D01*
X17277074Y-16141074D02*
X17277074Y-15841074D01*
X17248503Y-15883931D01*
X17219931Y-15912503D01*
X17191360Y-15926789D01*
X17477074Y-15841074D02*
X17477074Y-15898217D01*
X17591360Y-15841074D02*
X17591360Y-15898217D01*
X18034217Y-16255360D02*
X18019931Y-16241074D01*
X17991360Y-16198217D01*
X17977074Y-16169646D01*
X17962788Y-16126789D01*
X17948503Y-16055360D01*
X17948503Y-15998217D01*
X17962788Y-15926789D01*
X17977074Y-15883931D01*
X17991360Y-15855360D01*
X18019931Y-15812503D01*
X18034217Y-15798217D01*
X18277074Y-15941074D02*
X18277074Y-16141074D01*
X18205646Y-15826789D02*
X18134217Y-16041074D01*
X18319931Y-16041074D01*
X18662788Y-16141074D02*
X18662788Y-15841074D01*
X18791360Y-16141074D02*
X18791360Y-15983931D01*
X18777074Y-15955360D01*
X18748503Y-15941074D01*
X18705646Y-15941074D01*
X18677074Y-15955360D01*
X18662788Y-15969646D01*
X18977074Y-16141074D02*
X18948503Y-16126789D01*
X18934217Y-16112503D01*
X18919931Y-16083931D01*
X18919931Y-15998217D01*
X18934217Y-15969646D01*
X18948503Y-15955360D01*
X18977074Y-15941074D01*
X19019931Y-15941074D01*
X19048503Y-15955360D01*
X19062788Y-15969646D01*
X19077074Y-15998217D01*
X19077074Y-16083931D01*
X19062788Y-16112503D01*
X19048503Y-16126789D01*
X19019931Y-16141074D01*
X18977074Y-16141074D01*
X19248503Y-16141074D02*
X19219931Y-16126789D01*
X19205646Y-16098217D01*
X19205646Y-15841074D01*
X19477074Y-16126789D02*
X19448503Y-16141074D01*
X19391360Y-16141074D01*
X19362788Y-16126789D01*
X19348503Y-16098217D01*
X19348503Y-15983931D01*
X19362788Y-15955360D01*
X19391360Y-15941074D01*
X19448503Y-15941074D01*
X19477074Y-15955360D01*
X19491360Y-15983931D01*
X19491360Y-16012503D01*
X19348503Y-16041074D01*
X19605646Y-16126789D02*
X19634217Y-16141074D01*
X19691360Y-16141074D01*
X19719931Y-16126789D01*
X19734217Y-16098217D01*
X19734217Y-16083931D01*
X19719931Y-16055360D01*
X19691360Y-16041074D01*
X19648503Y-16041074D01*
X19619931Y-16026789D01*
X19605646Y-15998217D01*
X19605646Y-15983931D01*
X19619931Y-15955360D01*
X19648503Y-15941074D01*
X19691360Y-15941074D01*
X19719931Y-15955360D01*
X20091360Y-16026789D02*
X20319931Y-16026789D01*
X20205646Y-16141074D02*
X20205646Y-15912503D01*
X20848503Y-16141074D02*
X20677074Y-16141074D01*
X20762788Y-16141074D02*
X20762788Y-15841074D01*
X20734217Y-15883931D01*
X20705646Y-15912503D01*
X20677074Y-15926789D01*
X21191360Y-16126789D02*
X21219931Y-16141074D01*
X21277074Y-16141074D01*
X21305646Y-16126789D01*
X21319931Y-16098217D01*
X21319931Y-16083931D01*
X21305646Y-16055360D01*
X21277074Y-16041074D01*
X21234217Y-16041074D01*
X21205646Y-16026789D01*
X21191360Y-15998217D01*
X21191360Y-15983931D01*
X21205646Y-15955360D01*
X21234217Y-15941074D01*
X21277074Y-15941074D01*
X21305646Y-15955360D01*
X21491360Y-16141074D02*
X21462788Y-16126789D01*
X21448503Y-16098217D01*
X21448503Y-15841074D01*
X21648503Y-16141074D02*
X21619931Y-16126789D01*
X21605646Y-16112503D01*
X21591360Y-16083931D01*
X21591360Y-15998217D01*
X21605646Y-15969646D01*
X21619931Y-15955360D01*
X21648503Y-15941074D01*
X21691360Y-15941074D01*
X21719931Y-15955360D01*
X21734217Y-15969646D01*
X21748503Y-15998217D01*
X21748503Y-16083931D01*
X21734217Y-16112503D01*
X21719931Y-16126789D01*
X21691360Y-16141074D01*
X21648503Y-16141074D01*
X21834217Y-15941074D02*
X21948503Y-15941074D01*
X21877074Y-15841074D02*
X21877074Y-16098217D01*
X21891360Y-16126789D01*
X21919931Y-16141074D01*
X21948503Y-16141074D01*
X22019931Y-16255360D02*
X22034217Y-16241074D01*
X22062788Y-16198217D01*
X22077074Y-16169646D01*
X22091360Y-16126789D01*
X22105646Y-16055360D01*
X22105646Y-15998217D01*
X22091360Y-15926789D01*
X22077074Y-15883931D01*
X22062788Y-15855360D01*
X22034217Y-15812503D01*
X22019931Y-15798217D01*
X12426360Y-16260360D02*
X12776360Y-16610360D01*
X12776360Y-16260360D02*
X12426360Y-16610360D01*
X12725105Y-16559105D02*
X12725105Y-16311615D01*
X12477615Y-16311615D01*
X12477615Y-16559105D01*
X12725105Y-16559105D01*
X13034217Y-16271074D02*
X13219931Y-16271074D01*
X13119931Y-16385360D01*
X13162788Y-16385360D01*
X13191360Y-16399646D01*
X13205646Y-16413931D01*
X13219931Y-16442503D01*
X13219931Y-16513931D01*
X13205646Y-16542503D01*
X13191360Y-16556789D01*
X13162788Y-16571074D01*
X13077074Y-16571074D01*
X13048503Y-16556789D01*
X13034217Y-16542503D01*
X13348503Y-16542503D02*
X13362788Y-16556789D01*
X13348503Y-16571074D01*
X13334217Y-16556789D01*
X13348503Y-16542503D01*
X13348503Y-16571074D01*
X13634217Y-16271074D02*
X13491360Y-16271074D01*
X13477074Y-16413931D01*
X13491360Y-16399646D01*
X13519931Y-16385360D01*
X13591360Y-16385360D01*
X13619931Y-16399646D01*
X13634217Y-16413931D01*
X13648503Y-16442503D01*
X13648503Y-16513931D01*
X13634217Y-16542503D01*
X13619931Y-16556789D01*
X13591360Y-16571074D01*
X13519931Y-16571074D01*
X13491360Y-16556789D01*
X13477074Y-16542503D01*
X13834217Y-16271074D02*
X13862788Y-16271074D01*
X13891360Y-16285360D01*
X13905646Y-16299646D01*
X13919931Y-16328217D01*
X13934217Y-16385360D01*
X13934217Y-16456789D01*
X13919931Y-16513931D01*
X13905646Y-16542503D01*
X13891360Y-16556789D01*
X13862788Y-16571074D01*
X13834217Y-16571074D01*
X13805646Y-16556789D01*
X13791360Y-16542503D01*
X13777074Y-16513931D01*
X13762788Y-16456789D01*
X13762788Y-16385360D01*
X13777074Y-16328217D01*
X13791360Y-16299646D01*
X13805646Y-16285360D01*
X13834217Y-16271074D01*
X14119931Y-16271074D02*
X14148503Y-16271074D01*
X14177074Y-16285360D01*
X14191360Y-16299646D01*
X14205646Y-16328217D01*
X14219931Y-16385360D01*
X14219931Y-16456789D01*
X14205646Y-16513931D01*
X14191360Y-16542503D01*
X14177074Y-16556789D01*
X14148503Y-16571074D01*
X14119931Y-16571074D01*
X14091360Y-16556789D01*
X14077074Y-16542503D01*
X14062788Y-16513931D01*
X14048503Y-16456789D01*
X14048503Y-16385360D01*
X14062788Y-16328217D01*
X14077074Y-16299646D01*
X14091360Y-16285360D01*
X14119931Y-16271074D01*
X14348503Y-16571074D02*
X14348503Y-16371074D01*
X14348503Y-16399646D02*
X14362788Y-16385360D01*
X14391360Y-16371074D01*
X14434217Y-16371074D01*
X14462788Y-16385360D01*
X14477074Y-16413931D01*
X14477074Y-16571074D01*
X14477074Y-16413931D02*
X14491360Y-16385360D01*
X14519931Y-16371074D01*
X14562788Y-16371074D01*
X14591360Y-16385360D01*
X14605646Y-16413931D01*
X14605646Y-16571074D01*
X14748503Y-16571074D02*
X14748503Y-16371074D01*
X14748503Y-16399646D02*
X14762788Y-16385360D01*
X14791360Y-16371074D01*
X14834217Y-16371074D01*
X14862788Y-16385360D01*
X14877074Y-16413931D01*
X14877074Y-16571074D01*
X14877074Y-16413931D02*
X14891360Y-16385360D01*
X14919931Y-16371074D01*
X14962788Y-16371074D01*
X14991360Y-16385360D01*
X15005646Y-16413931D01*
X15005646Y-16571074D01*
X15591360Y-16256789D02*
X15334217Y-16642503D01*
X15977074Y-16271074D02*
X16005646Y-16271074D01*
X16034217Y-16285360D01*
X16048503Y-16299646D01*
X16062788Y-16328217D01*
X16077074Y-16385360D01*
X16077074Y-16456789D01*
X16062788Y-16513931D01*
X16048503Y-16542503D01*
X16034217Y-16556789D01*
X16005646Y-16571074D01*
X15977074Y-16571074D01*
X15948503Y-16556789D01*
X15934217Y-16542503D01*
X15919931Y-16513931D01*
X15905646Y-16456789D01*
X15905646Y-16385360D01*
X15919931Y-16328217D01*
X15934217Y-16299646D01*
X15948503Y-16285360D01*
X15977074Y-16271074D01*
X16205646Y-16542503D02*
X16219931Y-16556789D01*
X16205646Y-16571074D01*
X16191360Y-16556789D01*
X16205646Y-16542503D01*
X16205646Y-16571074D01*
X16505646Y-16571074D02*
X16334217Y-16571074D01*
X16419931Y-16571074D02*
X16419931Y-16271074D01*
X16391360Y-16313931D01*
X16362788Y-16342503D01*
X16334217Y-16356789D01*
X16605646Y-16271074D02*
X16791360Y-16271074D01*
X16691360Y-16385360D01*
X16734217Y-16385360D01*
X16762788Y-16399646D01*
X16777074Y-16413931D01*
X16791360Y-16442503D01*
X16791360Y-16513931D01*
X16777074Y-16542503D01*
X16762788Y-16556789D01*
X16734217Y-16571074D01*
X16648503Y-16571074D01*
X16619931Y-16556789D01*
X16605646Y-16542503D01*
X16891360Y-16271074D02*
X17091360Y-16271074D01*
X16962788Y-16571074D01*
X17248503Y-16399646D02*
X17219931Y-16385360D01*
X17205646Y-16371074D01*
X17191360Y-16342503D01*
X17191360Y-16328217D01*
X17205646Y-16299646D01*
X17219931Y-16285360D01*
X17248503Y-16271074D01*
X17305646Y-16271074D01*
X17334217Y-16285360D01*
X17348503Y-16299646D01*
X17362788Y-16328217D01*
X17362788Y-16342503D01*
X17348503Y-16371074D01*
X17334217Y-16385360D01*
X17305646Y-16399646D01*
X17248503Y-16399646D01*
X17219931Y-16413931D01*
X17205646Y-16428217D01*
X17191360Y-16456789D01*
X17191360Y-16513931D01*
X17205646Y-16542503D01*
X17219931Y-16556789D01*
X17248503Y-16571074D01*
X17305646Y-16571074D01*
X17334217Y-16556789D01*
X17348503Y-16542503D01*
X17362788Y-16513931D01*
X17362788Y-16456789D01*
X17348503Y-16428217D01*
X17334217Y-16413931D01*
X17305646Y-16399646D01*
X17477074Y-16271074D02*
X17477074Y-16328217D01*
X17591360Y-16271074D02*
X17591360Y-16328217D01*
X18034217Y-16685360D02*
X18019931Y-16671074D01*
X17991360Y-16628217D01*
X17977074Y-16599646D01*
X17962788Y-16556789D01*
X17948503Y-16485360D01*
X17948503Y-16428217D01*
X17962788Y-16356789D01*
X17977074Y-16313931D01*
X17991360Y-16285360D01*
X18019931Y-16242503D01*
X18034217Y-16228217D01*
X18205646Y-16271074D02*
X18234217Y-16271074D01*
X18262788Y-16285360D01*
X18277074Y-16299646D01*
X18291360Y-16328217D01*
X18305646Y-16385360D01*
X18305646Y-16456789D01*
X18291360Y-16513931D01*
X18277074Y-16542503D01*
X18262788Y-16556789D01*
X18234217Y-16571074D01*
X18205646Y-16571074D01*
X18177074Y-16556789D01*
X18162788Y-16542503D01*
X18148503Y-16513931D01*
X18134217Y-16456789D01*
X18134217Y-16385360D01*
X18148503Y-16328217D01*
X18162788Y-16299646D01*
X18177074Y-16285360D01*
X18205646Y-16271074D01*
X18662788Y-16571074D02*
X18662788Y-16271074D01*
X18791360Y-16571074D02*
X18791360Y-16413931D01*
X18777074Y-16385360D01*
X18748503Y-16371074D01*
X18705646Y-16371074D01*
X18677074Y-16385360D01*
X18662788Y-16399646D01*
X18977074Y-16571074D02*
X18948503Y-16556789D01*
X18934217Y-16542503D01*
X18919931Y-16513931D01*
X18919931Y-16428217D01*
X18934217Y-16399646D01*
X18948503Y-16385360D01*
X18977074Y-16371074D01*
X19019931Y-16371074D01*
X19048503Y-16385360D01*
X19062788Y-16399646D01*
X19077074Y-16428217D01*
X19077074Y-16513931D01*
X19062788Y-16542503D01*
X19048503Y-16556789D01*
X19019931Y-16571074D01*
X18977074Y-16571074D01*
X19248503Y-16571074D02*
X19219931Y-16556789D01*
X19205646Y-16528217D01*
X19205646Y-16271074D01*
X19477074Y-16556789D02*
X19448503Y-16571074D01*
X19391360Y-16571074D01*
X19362788Y-16556789D01*
X19348503Y-16528217D01*
X19348503Y-16413931D01*
X19362788Y-16385360D01*
X19391360Y-16371074D01*
X19448503Y-16371074D01*
X19477074Y-16385360D01*
X19491360Y-16413931D01*
X19491360Y-16442503D01*
X19348503Y-16471074D01*
X19605646Y-16556789D02*
X19634217Y-16571074D01*
X19691360Y-16571074D01*
X19719931Y-16556789D01*
X19734217Y-16528217D01*
X19734217Y-16513931D01*
X19719931Y-16485360D01*
X19691360Y-16471074D01*
X19648503Y-16471074D01*
X19619931Y-16456789D01*
X19605646Y-16428217D01*
X19605646Y-16413931D01*
X19619931Y-16385360D01*
X19648503Y-16371074D01*
X19691360Y-16371074D01*
X19719931Y-16385360D01*
X20091360Y-16456789D02*
X20319931Y-16456789D01*
X20205646Y-16571074D02*
X20205646Y-16342503D01*
X20662788Y-16271074D02*
X20848503Y-16271074D01*
X20748503Y-16385360D01*
X20791360Y-16385360D01*
X20819931Y-16399646D01*
X20834217Y-16413931D01*
X20848503Y-16442503D01*
X20848503Y-16513931D01*
X20834217Y-16542503D01*
X20819931Y-16556789D01*
X20791360Y-16571074D01*
X20705646Y-16571074D01*
X20677074Y-16556789D01*
X20662788Y-16542503D01*
X21191360Y-16556789D02*
X21219931Y-16571074D01*
X21277074Y-16571074D01*
X21305646Y-16556789D01*
X21319931Y-16528217D01*
X21319931Y-16513931D01*
X21305646Y-16485360D01*
X21277074Y-16471074D01*
X21234217Y-16471074D01*
X21205646Y-16456789D01*
X21191360Y-16428217D01*
X21191360Y-16413931D01*
X21205646Y-16385360D01*
X21234217Y-16371074D01*
X21277074Y-16371074D01*
X21305646Y-16385360D01*
X21491360Y-16571074D02*
X21462788Y-16556789D01*
X21448503Y-16528217D01*
X21448503Y-16271074D01*
X21648503Y-16571074D02*
X21619931Y-16556789D01*
X21605646Y-16542503D01*
X21591360Y-16513931D01*
X21591360Y-16428217D01*
X21605646Y-16399646D01*
X21619931Y-16385360D01*
X21648503Y-16371074D01*
X21691360Y-16371074D01*
X21719931Y-16385360D01*
X21734217Y-16399646D01*
X21748503Y-16428217D01*
X21748503Y-16513931D01*
X21734217Y-16542503D01*
X21719931Y-16556789D01*
X21691360Y-16571074D01*
X21648503Y-16571074D01*
X21834217Y-16371074D02*
X21948503Y-16371074D01*
X21877074Y-16271074D02*
X21877074Y-16528217D01*
X21891360Y-16556789D01*
X21919931Y-16571074D01*
X21948503Y-16571074D01*
X22034217Y-16556789D02*
X22062788Y-16571074D01*
X22119931Y-16571074D01*
X22148503Y-16556789D01*
X22162788Y-16528217D01*
X22162788Y-16513931D01*
X22148503Y-16485360D01*
X22119931Y-16471074D01*
X22077074Y-16471074D01*
X22048503Y-16456789D01*
X22034217Y-16428217D01*
X22034217Y-16413931D01*
X22048503Y-16385360D01*
X22077074Y-16371074D01*
X22119931Y-16371074D01*
X22148503Y-16385360D01*
X22262788Y-16685360D02*
X22277074Y-16671074D01*
X22305646Y-16628217D01*
X22319931Y-16599646D01*
X22334217Y-16556789D01*
X22348503Y-16485360D01*
X22348503Y-16428217D01*
X22334217Y-16356789D01*
X22319931Y-16313931D01*
X22305646Y-16285360D01*
X22277074Y-16242503D01*
X22262788Y-16228217D01*
M02*
